<svg width="194" height="546" viewBox="0 0 194 546" fill="none" xmlns="http://www.w3.org/2000/svg">
<g clip-path="url(#clip0_761_1569)">
<path d="M21.5273 506.845C21.5273 506.845 54.1446 525.5 93.1496 525.5C132.155 525.5 163.527 507.629 163.527 507.629C163.527 507.629 132.155 493.5 93.1496 493.5C54.1446 493.5 21.5273 506.845 21.5273 506.845Z" fill="black" fill-opacity="0.19"/>
<path d="M162.453 511.625C160.881 507.44 158.65 490.441 156.905 483.85C155.824 479.515 155.296 475.067 155.333 470.606C155.6 450.081 157.408 422.168 157.738 406.226C157.936 398.586 157.314 390.947 155.883 383.433C154.705 377.302 153.227 371.998 152.41 368.365C152.41 355.428 152.001 320.648 151.876 294.129C151.703 262.4 146.013 241.538 142.241 225.949L50.2363 230.118C50.0006 235.881 44.1697 273.957 43.0853 293.976C41.3722 325.246 40.4292 356.715 41.5136 373.561C42.5037 388.737 44.4683 403.85 46.0243 418.98C46.7472 425.877 47.4126 432.775 48.0203 439.673C48.5861 446.08 49.4191 452.656 48.6332 459.094C47.9372 465.125 45.5317 470.847 41.6865 475.618C39.7805 477.991 37.5789 480.122 35.1327 481.964C26.8186 488.218 16.1313 490.916 7.92721 497.293C7.05242 497.885 6.33573 498.674 5.83692 499.592C5.4972 500.38 5.37264 501.241 5.47542 502.09C5.71478 503.839 6.38821 505.504 7.43722 506.941C8.48623 508.378 9.87908 509.544 11.4949 510.337C14.7495 511.891 18.3395 512.658 21.9621 512.575C32.0038 512.753 41.8657 509.963 50.252 504.574C53.3954 502.55 56.2715 500.174 59.3205 498.013C60.6879 497.047 62.1652 496.204 63.5169 495.223C64.6119 494.525 65.8172 494.007 67.0846 493.69C70.0826 492.587 73.0202 491.333 75.8858 489.935C77.3327 489.319 78.6992 488.536 79.9565 487.605C81.6829 486.208 82.8784 484.287 83.3512 482.148C83.6026 480.881 83.6819 479.588 83.587 478.301C83.5327 476.659 83.3116 475.026 82.9269 473.426C82.2825 470.759 81.0723 468.276 80.2079 465.762C79.3435 463.248 79.0292 460.995 78.432 458.588C81.5753 441.206 85.0958 421.478 86.8089 407.897C88.1169 398.164 88.1169 388.307 86.8089 378.574L94.3214 317.26C98.6592 338.72 110.462 385.839 110.462 385.839C113.951 402.364 123.884 442.217 128.458 469.579C128.757 476.584 131.098 486.44 131.193 502.658C131.193 508.789 131.193 517.848 131.098 521.634C130.925 527.275 130.375 531.843 132.198 540.243C134.022 548.643 143.719 545.853 145.353 543.309C145.353 543.309 156.889 538.909 159.703 532.686C163.207 525.129 163.977 515.794 162.453 511.625Z" fill="#FFA8A7"/>
<path d="M43.84 227.221C54.8416 239.974 95.0918 242.396 114.848 240.112C136.317 237.613 147.742 228.508 147.742 228.508C147.742 228.508 149.314 237.997 151.813 252.038C153.385 260.3 153.102 270.432 153.526 291.416C153.731 301.441 154.595 351.534 154.595 351.534C144.851 361.651 113.48 363.368 102.73 357.451L95.2019 323.069L90.1254 357.39C90.1254 357.39 84.2788 362.54 61.2068 359.796C46.9676 358.095 39.125 350.998 39.125 350.998C39.125 350.998 40.4452 257.173 43.84 227.221Z" fill="black"/>
<path d="M55.0605 263.304C62.2745 278.832 87.1539 282.51 87.1539 282.51L95.1851 323.069L90.1086 357.39L91.9632 316.632L82.0303 289.347C82.0303 289.347 57.1194 282.802 55.0605 263.304Z" fill="#3C3C3C"/>
<path d="M4.69011 507.133C4.18718 507.133 3.76283 512.268 6.65469 514.23C10.018 516.514 19.6366 519.979 31.8798 517.756C44.1231 515.533 50.5826 511.625 55.2662 507.593C59.9497 503.562 66.535 497.844 72.0358 496.388C77.1594 495.024 82.6445 492.541 84.2162 490.977C85.7878 489.414 85.112 483.006 85.112 483.006L4.69011 507.133Z" fill="white"/>
<path d="M78.5105 458.573C78.9501 458.55 79.3844 458.675 79.7417 458.926C80.0989 459.176 80.3576 459.539 80.4751 459.952C80.9781 461.7 81.7482 466.835 82.7541 469.686C84.1685 473.656 85.4887 481.949 85.0329 485.244C84.5771 488.54 76.2631 491.376 70.9823 493.614C64.8471 496.494 59.1764 500.232 54.1498 504.711C48.6333 509.402 36.7358 514.66 28.6889 515.119C19.1646 515.671 8.25729 513.587 5.52259 509.755C2.15924 505.018 -0.449729 499.423 13.2709 492.633C15.8641 491.345 24.9169 485.72 27.9973 483.712C36.3114 478.239 42.1423 473.334 45.4899 464.382C45.7611 463.272 46.4161 462.287 47.3445 461.593C48.1975 461.205 49.1473 461.067 50.0792 461.194C52.4524 461.347 61.9138 461.914 64.1141 462.727C66.063 463.417 68.8291 464.26 68.9234 466.39C68.9235 467.156 68.7961 467.917 68.5462 468.644C68.4048 469.103 68.3104 469.701 68.7662 469.947C69.222 470.192 69.7092 469.855 70.055 469.533C71.3552 468.174 72.5379 466.713 73.5912 465.164C74.1958 464.355 74.8976 463.619 75.6816 462.972C76.4863 462.505 77.2629 461.993 78.0076 461.439C78.8092 460.612 78.542 459.6 78.5105 458.573Z" fill="#F16623"/>
<path d="M54.1498 504.711C56.4916 502.719 58.9905 500.787 61.5052 499.025C61.5052 499.025 45.5057 509.187 38.5275 505.478C34.0168 503.102 35.8557 499.73 35.8871 498.687C35.9185 497.645 20.1705 491.314 15.9427 491.146C14.8111 491.79 13.8681 492.326 13.2709 492.679C-0.449729 499.469 2.15924 505.064 5.52259 509.8C8.25729 513.617 16.2256 516.238 28.5317 515.441C36.5786 514.89 48.6333 509.402 54.1498 504.711Z" fill="#F16623"/>
<path d="M36.8462 495.591C28.2806 499.331 32.1312 500.573 34.6145 500.726C37.0977 500.879 51.3369 492.157 59.9182 485.152C68.861 477.841 74.2989 470.131 77.6151 467.433C78.8567 466.436 80.1926 465.21 81.3556 464.076C81.0099 462.359 80.7113 460.78 80.4755 459.952C80.358 459.539 80.0993 459.176 79.7421 458.926C79.3848 458.675 78.9505 458.55 78.5109 458.573C78.2909 460.029 78.2595 460.673 77.4422 461.501C76.8952 462.025 76.3067 462.507 75.682 462.941C74.898 463.588 74.1962 464.324 73.5916 465.133C72.5383 466.682 71.3556 468.143 70.0554 469.502C62.9829 478.76 45.4117 491.866 36.8462 495.591Z" fill="#FFB38E"/>
<path d="M35.1492 499.515C35.3505 499.512 35.5447 499.442 35.6993 499.316C35.7799 499.245 35.8444 499.159 35.8886 499.063C35.9328 498.966 35.9556 498.862 35.9556 498.756C35.9556 498.651 35.9328 498.546 35.8886 498.45C35.8444 498.354 35.7799 498.267 35.6993 498.197C33.0275 495.622 20.8471 489.874 14.4347 490.931C14.3261 490.942 14.2209 490.975 14.1257 491.027C14.0305 491.079 13.9472 491.15 13.881 491.235C13.8148 491.319 13.767 491.416 13.7406 491.52C13.7142 491.623 13.7097 491.73 13.7274 491.836C13.7481 491.942 13.7902 492.043 13.8514 492.133C13.9126 492.223 13.9916 492.3 14.0838 492.36C14.176 492.42 14.2796 492.462 14.3884 492.482C14.4972 492.503 14.6091 492.502 14.7176 492.479C20.7213 491.498 32.3045 497.231 34.4105 499.27C34.506 499.363 34.6224 499.434 34.7505 499.477C34.8786 499.519 35.015 499.532 35.1492 499.515Z" fill="white"/>
<path d="M42.5193 494.779C42.7223 494.77 42.9163 494.694 43.0694 494.564C43.1475 494.494 43.2098 494.408 43.2524 494.313C43.295 494.218 43.317 494.116 43.317 494.012C43.317 493.909 43.295 493.806 43.2524 493.711C43.2098 493.616 43.1475 493.531 43.0694 493.46C40.3976 490.885 28.2172 485.137 21.8048 486.195C21.6962 486.206 21.591 486.238 21.4958 486.291C21.4006 486.343 21.3174 486.413 21.2511 486.498C21.1849 486.583 21.1371 486.68 21.1107 486.783C21.0843 486.886 21.0798 486.994 21.0976 487.099C21.12 487.204 21.1634 487.303 21.2254 487.392C21.2873 487.48 21.3666 487.556 21.4586 487.614C21.5506 487.672 21.6536 487.713 21.7616 487.732C21.8695 487.752 21.9804 487.75 22.0877 487.728C28.0915 486.777 39.6746 492.495 41.7806 494.533C41.8761 494.627 41.9924 494.698 42.1205 494.74C42.2486 494.783 42.3851 494.796 42.5193 494.779Z" fill="white"/>
<path d="M49.8754 490.272C50.0767 490.256 50.2684 490.181 50.4255 490.057C50.504 489.986 50.5666 489.899 50.6094 489.803C50.6522 489.707 50.6742 489.603 50.6742 489.498C50.6742 489.393 50.6522 489.289 50.6094 489.193C50.5666 489.097 50.504 489.01 50.4255 488.939C47.7537 486.363 35.5733 480.615 29.1609 481.673C29.0532 481.686 28.9492 481.72 28.8551 481.773C28.761 481.826 28.6786 481.896 28.6128 481.98C28.5469 482.065 28.4989 482.161 28.4716 482.263C28.4443 482.366 28.4382 482.472 28.4536 482.577C28.4743 482.683 28.5164 482.785 28.5776 482.875C28.6388 482.965 28.7178 483.042 28.81 483.102C28.9022 483.162 29.0058 483.203 29.1146 483.224C29.2234 483.244 29.3353 483.243 29.4438 483.221C35.4475 482.255 47.0307 487.973 49.1367 490.027C49.2348 490.117 49.3514 490.185 49.4788 490.227C49.6062 490.27 49.7414 490.285 49.8754 490.272Z" fill="white"/>
<path d="M56.6956 485.214C56.8946 485.208 57.0846 485.132 57.23 484.999C57.3102 484.93 57.3745 484.845 57.4185 484.75C57.4626 484.655 57.4854 484.552 57.4854 484.447C57.4854 484.343 57.4626 484.24 57.4185 484.145C57.3745 484.049 57.3102 483.965 57.23 483.896C54.5738 481.305 42.3621 475.572 35.9811 476.615C35.8713 476.628 35.7654 476.662 35.6694 476.716C35.5733 476.769 35.4892 476.841 35.4219 476.927C35.3546 477.012 35.3055 477.11 35.2773 477.214C35.2492 477.319 35.2427 477.427 35.2582 477.534C35.3071 477.747 35.4401 477.933 35.6285 478.05C35.8168 478.168 36.0453 478.208 36.264 478.163C42.252 477.197 53.8509 482.93 55.9569 484.969C56.0524 485.062 56.1688 485.133 56.2969 485.175C56.425 485.218 56.5614 485.231 56.6956 485.214Z" fill="white"/>
<path d="M63.3438 480.171C63.534 480.16 63.7157 480.09 63.8624 479.971C63.9462 479.905 64.0151 479.823 64.0648 479.729C64.1145 479.636 64.144 479.534 64.1514 479.429C64.1587 479.324 64.1438 479.218 64.1077 479.119C64.0715 479.02 64.0148 478.929 63.941 478.852C60.2633 475.189 47.5957 470.544 41.1834 471.602C41.0756 471.615 40.9717 471.649 40.8775 471.702C40.7834 471.755 40.7011 471.825 40.6352 471.91C40.5694 471.994 40.5214 472.09 40.4941 472.192C40.4668 472.295 40.4606 472.402 40.4761 472.506C40.5252 472.72 40.6576 472.907 40.8454 473.027C41.0331 473.147 41.2614 473.191 41.482 473.15C47.25 472.2 59.3832 476.676 62.6365 479.91C62.729 480 62.8398 480.069 62.9617 480.114C63.0835 480.159 63.2138 480.178 63.3438 480.171Z" fill="white"/>
<path d="M127.138 523.887C127.515 531.69 128.851 536.809 132.01 541.239C135.169 545.669 141.33 546.819 147.601 545.163C153.872 543.508 161.934 539.522 163.852 532.671C165.769 525.819 165.518 521.205 164.245 514.016L127.138 523.887Z" fill="white"/>
<path d="M155.491 465.532C158.053 465.532 156.261 476.461 157.518 486.992C158.886 498.197 162.752 502.673 163.978 511.855C165.377 522.355 164.638 527.106 160.143 533.713C155.648 540.319 140.12 547.355 132.702 538.572C126.667 531.429 126.572 523.152 127.358 512.514C128.253 503.569 128.62 494.582 128.458 485.597C128.113 477.703 126.242 470.575 128.458 469.579C128.616 470.744 128.757 472.2 128.914 473.334C129.04 474.208 130.046 479.266 130.643 478.454C131.24 477.641 130.785 476.492 130.737 475.465C130.684 474.998 130.733 474.525 130.882 474.078C131.031 473.632 131.277 473.221 131.602 472.874C132.893 472.033 134.34 471.445 135.861 471.142C138.391 470.59 142.902 469.993 145.48 469.609C146.768 469.441 148.057 469.333 149.33 469.287C150.42 469.208 151.516 469.286 152.583 469.517C152.874 469.571 153.148 469.689 153.385 469.862C153.622 470.034 153.815 470.257 153.951 470.514C154.074 470.905 154.112 471.318 154.061 471.725C154.044 472.45 154.14 473.173 154.344 473.871C154.438 474.177 154.674 474.545 155.051 474.453C155.186 474.404 155.3 474.312 155.377 474.193C155.453 474.074 155.488 473.934 155.475 473.794C155.46 472.583 155.491 465.532 155.491 465.532Z" fill="#F16623"/>
<path d="M163.459 508.804C163.679 510.337 165.031 520.346 161.714 522.324C158.178 524.47 156.418 516.622 156.418 516.622C156.418 516.622 148.261 514.89 136.222 519.933C136.804 521.465 134.839 527.03 131.586 526.064C128.332 525.098 127.311 513.571 127.295 513.418C126.588 523.565 126.839 531.567 132.702 538.511C140.12 547.294 155.663 540.258 160.143 533.651C164.622 527.045 165.376 522.293 163.978 511.793C163.836 510.736 163.648 509.754 163.459 508.804Z" fill="#F16623"/>
<path d="M155.459 517.327C155.459 521.144 159.907 519.641 160.174 514.261C160.441 508.881 157.266 496.22 157.486 486.931C157.659 474.177 158.021 465.593 155.459 465.471L155.318 470.912C155.318 471.863 155.428 472.966 155.396 473.794C155.302 481.581 154.327 496.679 154.972 503.761C155.428 508.268 155.591 512.799 155.459 517.327Z" fill="#FFB38E"/>
<path d="M137.605 519.749C136.589 515.369 135.865 510.93 135.437 506.459C134.682 499.439 131.382 485.26 129.779 477.641L128.521 469.594C126.682 470.161 126.95 476.385 127.61 479.558C128.27 482.731 128.977 486.133 129.7 490.671C131.727 499.653 131.036 512.882 132.372 518.078C133.708 523.274 138.376 523.458 137.605 519.749Z" fill="#FFB38E"/>
<path d="M135.955 520.255C136.08 520.233 136.201 520.197 136.317 520.147C142.52 517.391 149.408 516.443 156.151 517.419C156.394 517.463 156.645 517.423 156.86 517.306C157.076 517.188 157.242 517 157.33 516.775C157.368 516.674 157.383 516.565 157.374 516.457C157.365 516.349 157.331 516.245 157.275 516.151C157.22 516.058 157.144 515.977 157.053 515.915C156.962 515.853 156.858 515.812 156.748 515.794C149.535 514.705 142.152 515.724 135.531 518.722C135.425 518.763 135.329 518.825 135.25 518.904C135.17 518.984 135.109 519.078 135.069 519.182C135.029 519.286 135.011 519.397 135.018 519.508C135.024 519.618 135.055 519.727 135.106 519.825C135.193 519.967 135.319 520.081 135.469 520.157C135.618 520.233 135.787 520.267 135.955 520.255Z" fill="white"/>
<path d="M133.975 512.054L134.305 511.962C141.313 509.071 148.973 508.015 156.528 508.896C156.77 508.931 157.016 508.883 157.226 508.76C157.435 508.637 157.594 508.446 157.675 508.222C157.703 508.115 157.707 508.004 157.686 507.896C157.665 507.788 157.62 507.686 157.554 507.596C157.488 507.507 157.403 507.433 157.304 507.38C157.206 507.326 157.096 507.294 156.984 507.287C149.001 506.311 140.896 507.428 133.503 510.521C133.395 510.559 133.296 510.619 133.213 510.697C133.129 510.774 133.063 510.868 133.019 510.972C132.975 511.076 132.953 511.187 132.955 511.299C132.957 511.412 132.983 511.523 133.032 511.625C133.123 511.783 133.264 511.909 133.433 511.986C133.602 512.063 133.791 512.087 133.975 512.054Z" fill="white"/>
<path d="M156.057 501.079C156.234 501.055 156.402 500.988 156.545 500.883C156.688 500.778 156.801 500.64 156.875 500.481C156.916 500.38 156.934 500.271 156.927 500.162C156.92 500.053 156.888 499.947 156.834 499.852C156.78 499.757 156.704 499.674 156.614 499.611C156.523 499.547 156.419 499.504 156.309 499.485C144.836 496.741 133.347 502.29 132.86 502.55C132.753 502.593 132.657 502.657 132.578 502.738C132.498 502.818 132.436 502.914 132.396 503.019C132.357 503.124 132.339 503.236 132.346 503.348C132.353 503.46 132.383 503.569 132.435 503.669C132.578 503.862 132.788 503.996 133.026 504.047C133.263 504.098 133.512 504.062 133.724 503.945C133.834 503.945 144.993 498.519 155.727 501.079C155.836 501.1 155.948 501.1 156.057 501.079Z" fill="white"/>
<path d="M155.554 493.675C155.726 493.656 155.891 493.594 156.031 493.494C156.172 493.395 156.284 493.262 156.356 493.108C156.403 493.007 156.426 492.897 156.423 492.786C156.42 492.676 156.39 492.567 156.337 492.469C156.284 492.371 156.208 492.287 156.116 492.222C156.024 492.157 155.918 492.114 155.806 492.096C147.72 490.255 139.224 491.345 131.901 495.162C131.796 495.206 131.703 495.272 131.627 495.355C131.551 495.439 131.495 495.537 131.462 495.643C131.429 495.75 131.42 495.862 131.436 495.972C131.452 496.082 131.493 496.187 131.555 496.281C131.709 496.464 131.926 496.587 132.166 496.627C132.406 496.666 132.652 496.62 132.859 496.495C132.969 496.495 143.405 490.701 155.13 493.721C155.273 493.729 155.416 493.713 155.554 493.675Z" fill="white"/>
<path d="M154.942 485.367C155.114 485.348 155.279 485.286 155.419 485.186C155.559 485.087 155.671 484.954 155.743 484.8C155.791 484.7 155.814 484.591 155.812 484.482C155.809 484.372 155.782 484.264 155.73 484.166C155.678 484.069 155.605 483.984 155.514 483.918C155.424 483.853 155.32 483.808 155.209 483.788C143.406 480.584 131.634 486.762 131.131 487.022C131.026 487.066 130.931 487.131 130.854 487.213C130.776 487.295 130.717 487.392 130.682 487.498C130.646 487.604 130.634 487.717 130.646 487.827C130.659 487.938 130.695 488.045 130.754 488.141C130.899 488.332 131.111 488.462 131.349 488.508C131.588 488.553 131.835 488.51 132.043 488.387C132.168 488.387 143.547 482.378 154.517 485.321C154.654 485.367 154.798 485.382 154.942 485.367Z" fill="white"/>
<path d="M61.2863 104.501C49.9861 105.774 43.8252 107.705 38.7487 118.297C33.6723 128.889 23.8808 152.341 21.2561 158.044C17.4358 166.159 14.7047 174.722 13.1306 183.519C11.7161 193.13 13.1306 219.71 13.1306 219.71L30.7961 239.162L48.0843 176.729L59.4317 146.884L61.2863 104.501Z" fill="#FFA8A7"/>
<path d="M69.3635 101.926C57.0888 103.919 45.5214 103.551 38.7476 116.243C31.8008 129.257 21.7422 155.33 21.7422 155.33C21.7422 155.33 24.194 161.83 35.2585 166.919C46.323 172.008 54.6056 170.444 54.6056 170.444L66.4717 140.247L69.3635 101.926Z" fill="#F16623"/>
<path d="M144.945 103.459C144.945 103.459 122.439 99.8415 117.253 98.9677C94.4163 96.4079 67.1637 102.279 67.1637 102.279C57.5923 105.099 47.3136 115.323 41.7971 134.637C37.7736 148.77 40.084 162.627 42.8815 167.501C42.8815 175.763 42.803 181.879 43.1487 196.87C43.4945 211.862 43.3216 217.886 43.1487 230.271C67.4152 254.659 131.822 252.819 148.639 230.9C147.153 216.922 146.879 202.846 147.821 188.823C149.645 169.877 150.037 168.758 152.316 149.276C153.921 133.64 151.383 117.864 144.945 103.459Z" fill="#D1571D"/>
<path opacity="0.5" d="M119.94 179.442C115.131 182.508 107.618 182.922 103.108 182.508C98.0384 181.95 93.1195 180.479 88.6011 178.17C87.1576 177.466 85.6723 176.847 84.1533 176.315C80.4127 175.181 77.8667 176.315 74.5976 176.852C69.3707 177.541 64.0528 177.122 59.0067 175.625C56.3093 175.067 53.9254 173.54 52.3271 171.349C58.2721 174.587 65.227 175.59 71.8786 174.169C73.663 173.906 75.3863 173.341 76.9708 172.498C77.5964 172.077 78.126 171.534 78.5263 170.904C78.9266 170.273 79.1889 169.569 79.2969 168.835C79.602 167.275 79.8119 165.698 79.9255 164.114C80.2713 160.036 81.7015 153.874 83.4618 155.714C83.619 155.923 83.7067 156.175 83.7132 156.434C84.0276 159.914 82.6916 166.244 84.2947 170.352C85.8978 174.46 90.5814 176.346 95.6736 177.756C100.959 179.306 106.471 179.995 111.987 179.795C117.645 179.519 123.036 177.465 119.94 179.442Z" fill="#3B3B3B"/>
<path d="M123.449 29.5179C123.449 29.5179 128.872 29.9471 132.392 36.4923C134.153 39.7726 135.41 45.6894 130.459 62.8266C128.562 69.4888 125.637 75.8307 121.784 81.6346C120.638 83.5235 118.793 84.9115 116.628 85.5127L117.037 72.3762L117.587 63.1791C117.587 63.1791 109.886 56.4346 109.242 49.8587C108.424 41.3974 111.898 36.615 111.898 36.615L123.449 29.5179Z" fill="#181818"/>
<path d="M125.335 29.9471C124.031 22.5435 114.255 13.6836 95.348 12.5953C88.9193 12.1333 82.4807 13.3564 76.6996 16.1378C70.9186 18.9193 66.0053 23.1578 62.4689 28.4143C57.0309 37.0135 64.622 44.4631 64.622 44.4631L112.07 42.4091L125.335 29.9471Z" fill="#181818"/>
<path d="M129.574 76.2357C122.423 79.5006 119.201 74.105 119.201 74.105V101.819C105.449 119.217 67.8079 112.549 82.8329 99.5349L82.9115 92.867C80.8399 92.8011 78.7758 92.5911 76.7349 92.2386C70.4482 91.2576 65.2617 88.0999 63.4072 81.5087C62.3997 77.2937 61.774 73.0006 61.5369 68.6788C61.1111 62.4523 61.9332 56.2045 63.9573 50.2846C65.2303 46.943 63.7687 42.5131 64.7588 38.3591C65.4975 35.1861 66.9592 31.7372 70.0082 30.3117C77.5993 26.7861 84.5775 31.9825 95.1548 35.9832C99.524 37.6387 110.117 38.4051 112.915 37.1788C109.221 41.0263 109.205 53.289 114.596 58.3014C115.276 59.5874 116.193 60.7408 117.299 61.7043C119.61 63.6357 121.512 58.6386 123.46 56.7686C124.411 56.0192 125.524 55.4909 126.715 55.2236C127.906 54.9563 129.144 54.9572 130.334 55.2261C131.525 55.495 132.637 56.0248 133.587 56.7755C134.536 57.5261 135.298 58.4778 135.814 59.5584C136.568 61.046 137.006 62.6677 137.099 64.3251C137.192 65.9824 136.939 67.641 136.356 69.2003C135.773 70.7596 134.871 72.1871 133.705 73.3965C132.539 74.6058 131.134 75.5717 129.574 76.2357Z" fill="#FFA8A7"/>
<path d="M82.88 92.867C91.1627 92.867 98.5024 91.932 103.406 90.0006C108.31 88.0692 112.647 81.7692 114.093 75.5152C114.093 80.5583 111.72 89.4794 104.302 93.1429C96.8836 96.8064 88.2551 96.9597 82.8486 97.0363L82.88 92.867Z" fill="#F28F8F"/>
<path d="M111.395 53.2923C113.313 56.9865 111.065 68.6207 107.419 70.0003C103.773 71.3798 99.6706 69.0806 91.7022 66.9346C86.6258 65.4937 81.4236 64.3441 74.6654 66.0609C70.9406 67.0112 62.7679 69.7704 61.4163 67.9463C61.0234 74.2616 62.878 89.4061 72.858 92.4718C79.9619 94.7097 95.097 95.1696 104.008 90.7857C112.92 86.4017 114.601 81.3433 116.267 74.4302C117.51 69.5881 119.047 64.8227 120.872 60.1594L111.395 53.2923Z" fill="#181818"/>
<path d="M75.2107 74.2277C75.2778 73.9119 75.3617 73.5998 75.4621 73.2926C75.7778 72.1502 76.3708 71.0987 77.191 70.2269C78.1556 69.344 79.3621 68.7529 80.6643 68.5255C84.2634 67.7897 88.0668 67.9583 90.8644 70.5335C91.7786 71.3835 92.4967 72.4137 92.9709 73.5555C93.4452 74.6973 93.6647 75.9244 93.6148 77.1554C93.6148 78.6882 92.3732 79.2247 90.8959 79.6233C90.0769 79.9134 89.1924 79.9811 88.3371 79.8191C87.4817 79.6571 86.6876 79.2716 86.0394 78.7036C85.6255 78.2876 85.0761 78.025 84.4855 77.9607C83.8948 77.8964 83.2996 78.0344 82.8018 78.351C82.3054 78.764 81.7802 79.143 81.2301 79.4853C80.4609 79.7437 79.6316 79.7809 78.8412 79.5926C78.1086 79.5256 77.3948 79.3282 76.7352 79.0101C76.2788 78.7264 75.8936 78.3463 75.608 77.8979C75.3224 77.4495 75.1436 76.9444 75.0849 76.4196C74.9892 75.6876 75.0318 74.9447 75.2107 74.2277Z" fill="#FFA8A7"/>
<path d="M88.4745 69.8284L80.6162 72.2656C80.7689 72.7771 81.0247 73.2537 81.3688 73.6675C81.7129 74.0812 82.1382 74.4238 82.6198 74.6751C83.1015 74.9264 83.6297 75.0813 84.1736 75.1308C84.7175 75.1803 85.266 75.1234 85.787 74.9634C86.8317 74.6163 87.6966 73.886 88.1983 72.9274C88.7001 71.9687 88.7991 70.8571 88.4745 69.8284Z" fill="#B16668"/>
<path d="M87.5942 71.1773C87.9284 71.1399 88.2659 71.1399 88.6001 71.1773C88.5931 72.0375 88.3085 72.8736 87.7865 73.5671C87.2646 74.2605 86.5319 74.7759 85.6925 75.04C85.266 75.1712 84.8191 75.2283 84.3723 75.2086C84.2649 74.2597 84.5415 73.3074 85.1433 72.5544C85.7451 71.8014 86.6244 71.3073 87.5942 71.1773Z" fill="#F28F8F"/>
<path d="M92.3096 44.5977L99.2878 47.4642C99.6652 46.5463 99.6595 45.5209 99.2718 44.6071C98.8841 43.6933 98.1452 42.9637 97.2131 42.5744C96.7556 42.3878 96.2644 42.2923 95.7685 42.2933C95.2726 42.2943 94.7819 42.3919 94.3251 42.5804C93.8684 42.7689 93.4548 43.0444 93.1087 43.3908C92.7626 43.7372 92.4909 44.1476 92.3096 44.5977Z" fill="#181818"/>
<path d="M66.5345 45.7014L73.6541 43.0496C73.49 42.5939 73.2333 42.1752 72.8992 41.8186C72.5652 41.4621 72.1607 41.175 71.7101 40.9746C71.2595 40.7742 70.7721 40.6646 70.277 40.6524C69.782 40.6402 69.2895 40.7256 68.8291 40.9036C67.8822 41.2555 67.1131 41.9533 66.6847 42.8489C66.2564 43.7445 66.2025 44.7677 66.5345 45.7014Z" fill="#181818"/>
<path d="M96.899 52.3387C96.8978 52.9526 96.7077 53.5521 96.3532 54.0594C95.9988 54.5668 95.4963 54.9586 94.9108 55.1843C94.3254 55.4099 93.684 55.4589 93.0697 55.3249C92.4554 55.191 91.8964 54.8802 91.4653 54.4329C91.0341 53.9855 90.7507 53.4222 90.6515 52.816C90.5524 52.2097 90.6422 51.5883 90.9092 51.0324C91.1763 50.4765 91.6084 50.0115 92.1495 49.6978C92.6906 49.3841 93.3159 49.2361 93.9442 49.273C94.3453 49.2828 94.7404 49.3702 95.1067 49.5301C95.4729 49.6899 95.803 49.919 96.0778 50.2042C96.3526 50.4893 96.5667 50.8248 96.7076 51.1912C96.8486 51.5576 96.9136 51.9476 96.899 52.3387Z" fill="#181818"/>
<path d="M74.5972 51.0357C74.5963 51.6491 74.4067 52.248 74.053 52.7551C73.6994 53.2623 73.1979 53.6543 72.6134 53.8806C72.0289 54.1068 71.3882 54.1569 70.7743 54.0243C70.1603 53.8917 69.6012 53.5825 69.1693 53.1367C68.7373 52.6909 68.4524 52.1291 68.3514 51.5237C68.2503 50.9184 68.3378 50.2974 68.6024 49.741C68.8671 49.1846 69.2967 48.7185 69.8359 48.4028C70.375 48.087 70.9989 47.9363 71.6268 47.97C72.4369 47.9941 73.2043 48.3302 73.761 48.9047C74.3177 49.4793 74.6184 50.2455 74.5972 51.0357Z" fill="#181818"/>
<path d="M85.6297 45.2109L82.9893 64.0036L72.6006 60.2635C75.7289 54.3549 80.1822 49.21 85.6297 45.2109Z" fill="#F28F8F"/>
<path d="M79.5165 148.693C78.366 149.724 77.4816 151.006 76.9353 152.434C76.3891 153.862 76.1965 155.395 76.3732 156.909C76.4114 157.447 76.5943 157.965 76.9034 158.412C77.2124 158.859 77.6367 159.218 78.1335 159.454L83.0685 161.232L87.3748 149.598L82.5027 147.85C81.9728 147.726 81.4188 147.739 80.8953 147.886C80.3718 148.034 79.8966 148.312 79.5165 148.693Z" fill="#F27839"/>
<path d="M89.1669 152.173C88.6797 149.429 86.5108 148.647 84.3105 150.441C83.1602 151.469 82.2757 152.748 81.7294 154.173C81.1831 155.598 80.9904 157.13 81.1672 158.641L82.9431 168.59L84.0747 167.67C84.3204 167.448 84.5085 167.173 84.6233 166.866C84.738 166.56 84.7763 166.231 84.7348 165.907L83.9176 161.309C84.7006 161.223 85.4367 160.902 86.0236 160.389C87.1741 159.358 88.0586 158.076 88.6048 156.648C89.1511 155.22 89.3437 153.687 89.1669 152.173Z" fill="#F16623"/>
<path opacity="0.2" d="M89.1669 152.173C88.6797 149.429 86.5108 148.647 84.3105 150.441C83.1602 151.469 82.2757 152.748 81.7294 154.173C81.1831 155.598 80.9904 157.13 81.1672 158.641L82.9431 168.59L84.0747 167.67C84.3204 167.448 84.5085 167.173 84.6233 166.866C84.738 166.56 84.7763 166.231 84.7348 165.907L83.9176 161.309C84.7006 161.223 85.4367 160.902 86.0236 160.389C87.1741 159.358 88.0586 158.076 88.6048 156.648C89.1511 155.22 89.3437 153.687 89.1669 152.173Z" fill="#F16623"/>
<path d="M78.1812 166.857L83.0533 168.589L81.2773 158.641L76.4209 156.909L78.1812 166.857Z" fill="#F27839"/>
<path d="M77.3318 158.902L80.648 160.082L80.3494 158.396L77.0332 157.216L77.3318 158.902Z" fill="#37474F"/>
<path d="M80.6482 160.082L77.332 158.902L77.7721 158.549L80.5539 159.53L80.6482 160.082Z" fill="#263238"/>
<path d="M77.7719 158.549L77.5676 157.4L77.0332 157.216L77.3318 158.902L77.7719 158.549Z" fill="black"/>
<path d="M119.154 97.113V99.3203C120.242 103.193 120.242 107.281 119.154 111.154C118.132 114.793 116.542 118.257 114.439 121.424C109.985 128.844 103.97 135.259 96.7895 140.247C92.7044 143.154 88.3473 145.679 83.7762 147.789C82.6603 148.31 83.5561 149.72 84.5463 149.322C101.127 141.657 116.435 128.23 121.197 110.326C122.423 105.728 122.172 101.129 119.154 97.113Z" fill="#E0E0E0"/>
<path d="M84.4521 148.678C83.1494 145.74 82.0725 142.712 81.2302 139.619C80.4129 136.43 79.7528 133.181 79.2027 129.931C78.0038 123.549 77.9029 117.017 78.9041 110.602C79.3852 106.683 80.7195 102.91 82.8175 99.5349V97.5882C81.4899 99.3639 80.3275 101.252 79.3442 103.229C78.766 104.668 78.2882 106.142 77.9139 107.644C77.1083 110.789 76.6655 114.013 76.5938 117.255C76.5904 124.336 77.4932 131.391 79.2813 138.255C80.0085 141.984 81.2676 145.596 83.0218 148.984C83.4305 149.613 84.8135 149.582 84.4521 148.678Z" fill="#E0E0E0"/>
<path d="M-2.97958 168.59L72.8374 187.137L100.829 268.975L99.3513 270.784L27.1335 251.777L-4.47266 170.398L-2.97958 168.59Z" fill="#F16623"/>
<path opacity="0.35" d="M71.3604 188.946L99.3516 270.784L100.829 268.976L72.8377 187.137L71.3604 188.946Z" fill="#F16623"/>
<path opacity="0.25" d="M-4.47266 170.398L71.36 188.946L99.3513 270.784L27.1335 251.777L-4.47266 170.398Z" fill="#F4B07D"/>
<g opacity="0.1">
<path d="M19.2752 185.635C19.2752 185.635 18.8823 184.408 18.4108 182.891C17.9393 181.373 22.3085 181.818 28.218 183.887L41.8443 186.6C47.738 188.67 53.2545 190.111 53.7417 191.643L54.6062 194.387L19.2752 185.635Z" fill="black"/>
</g>
<path d="M13.7274 173.341C13.4288 172.391 15.1262 172.437 17.5151 172.835L21.8844 173.862C21.8844 173.862 19.7783 169.938 30.0413 171.686C41.3415 173.602 42.0645 178.844 42.0645 178.844C43.8568 179.417 45.6833 179.883 47.5339 180.239C51.2901 181.067 51.7617 181.772 52.1546 182.676L52.8618 184.408L14.2146 174.966C14.2146 174.966 14.026 174.292 13.7274 173.341Z" fill="black"/>
<path d="M18.1587 178.384C21.7736 179.58 23.2823 180.193 24.021 182.538C24.8697 185.221 25.0898 186.34 25.0898 186.34L45.3013 192.042C45.3013 192.042 43.8711 188.118 43.4782 186.8C43.0853 185.481 45.6785 185.267 49.199 186.462L48.0831 183.182L16.7285 174.981L18.1587 178.384Z" fill="black"/>
<path d="M18.2693 185.773C18.2693 185.773 17.8763 184.546 17.4048 183.014C16.9333 181.481 21.3183 181.956 27.212 184.025L40.8383 186.738C46.732 188.808 52.2486 190.249 52.7358 191.766L53.6002 194.525L18.2693 185.773Z" fill="black"/>
<path d="M170.155 222.331C180.103 217.303 187.443 212 188.276 206.926C189.847 196.794 184.064 168.605 177.589 143.742C174.445 131.771 174.445 119.676 166.414 111.997C158.901 104.839 151.735 105.145 145.244 104.241C130.926 123.677 140.827 157.369 140.827 157.369L150.965 193.897" fill="#FFA8A7"/>
<path d="M86.3848 226.7C82.7738 227.522 79.0891 228 75.3832 228.125C73.8115 228.125 67.6978 225.412 62.8099 224.186C57.922 222.959 54.6687 225.795 57.2305 227.696C58.5897 228.759 60.0351 229.712 61.5525 230.547C59.4779 232.54 58.0477 234.379 62.2283 237.751C61.4111 239.867 62.0712 241.783 64.02 243.622C68.1875 247.128 72.898 249.969 77.9764 252.038C80.7111 253.034 94.8718 252.13 96.0505 251.516C101.111 248.88 106.282 246.642 108.435 245.768C112.16 244.235 118.902 240.832 123.225 239.468C127.547 238.104 160.787 228.861 177.18 218.422C183.262 214.146 191.733 204.504 186.06 197.959C176.865 191.061 161.809 186.815 150.901 193.881C139.994 200.948 119.94 213.824 114.313 216.261C108.687 218.698 100.593 218.637 98.8795 218.637C93.8983 218.614 88.9226 218.963 83.9958 219.679L86.3848 226.7Z" fill="#FFA8A7"/>
<path d="M61.4902 230.547C63.502 231.635 65.4508 232.816 67.384 234.011C68.3584 234.594 69.3171 235.222 70.2758 235.835C70.6533 236.147 71.1193 236.34 71.6117 236.387C72.1461 236.464 72.7119 236.51 73.2777 236.556C77.8198 236.862 82.4247 236.862 87.014 237.2C84.7194 237.429 82.4247 237.552 80.1301 237.613C77.8355 237.675 75.5094 237.613 73.1991 237.537C72.6176 237.537 72.0361 237.429 71.4388 237.338C71.1035 237.285 70.7762 237.193 70.4644 237.062C70.1804 236.92 69.9118 236.75 69.6628 236.556C68.7513 235.912 67.8083 235.284 66.9124 234.609C65.0736 233.306 63.2505 231.973 61.4902 230.547Z" fill="#F28F8F"/>
<path d="M62.166 237.751C64.0677 238.993 65.9694 240.204 67.9183 241.354C68.9084 241.921 69.8671 242.503 70.873 243.04C71.3602 243.3 71.8631 243.592 72.3503 243.821C72.8586 243.992 73.3865 244.1 73.922 244.143C76.1538 244.419 78.4641 244.465 80.7587 244.573C83.0534 244.68 85.348 244.741 87.6426 244.986C83.0347 245.426 78.3959 245.467 73.7806 245.109C73.1529 245.054 72.5379 244.904 71.9574 244.664C71.4231 244.404 70.9359 244.128 70.3858 243.837C69.4113 243.239 68.4369 242.641 67.4939 241.982C65.6078 240.709 63.8265 239.295 62.166 237.751Z" fill="#F28F8F"/>
<path d="M67.6826 246.489C69.2543 247.086 70.826 247.73 72.319 248.267C73.8508 248.781 75.4297 249.151 77.034 249.37C78.6698 249.511 80.3138 249.537 81.9533 249.447C83.6358 249.403 85.3189 249.506 86.9826 249.754L82.0005 250.29C80.3097 250.497 78.5991 250.497 76.9083 250.29C73.5705 249.744 70.4105 248.442 67.6826 246.489Z" fill="#F28F8F"/>
<path d="M144.945 103.459C152.897 103.949 157.015 104.425 164.669 109.59C172.323 114.756 174.429 125.256 175.671 131.955C176.912 138.653 181.957 157.783 183.309 165.079C177.415 176.438 161.51 178.875 145.353 177.035C141.723 164.359 136.725 145.827 136.222 135.296C135.719 124.766 137.118 112.932 144.945 103.459Z" fill="#F16623"/>
<path d="M11.8413 220.645C9.5467 217.702 9.75104 217.303 10.9298 215.77C11.824 214.545 13.0011 213.541 14.3661 212.841C15.7312 212.141 17.2459 211.763 18.7881 211.739C21.5228 211.739 24.2889 211.739 25.7191 212.337C27.1493 212.935 25.9863 215.862 22.4344 216.69C16.8392 217.993 16.9021 219.449 16.9021 219.449C19.2863 218.881 21.6995 218.436 24.1317 218.116C26.9108 218.255 29.6747 218.603 32.3987 219.158C34.7719 219.48 35.3062 222.392 31.2985 223.465L35.652 224.063C38.7011 224.462 39.7698 225.995 37.4123 227.834C36.648 228.473 35.6838 228.841 34.6776 228.876C34.6776 228.876 37.9152 228.876 38.0095 229.842C38.2453 232.785 36.265 233.597 29.7583 235.513C28.3297 235.908 26.9531 236.464 25.6562 237.169C24.432 238.01 23.0937 238.681 21.6799 239.162C20.4733 239.509 19.1769 239.399 18.0494 238.855C17.4013 238.528 16.89 237.991 16.6032 237.337C16.3165 236.682 16.2721 235.951 16.4777 235.268C16.4777 235.268 12.9101 235.406 12.6586 233.306C12.5606 231.737 12.8237 230.165 13.4287 228.708C12.7876 228.379 12.2561 227.878 11.897 227.264C11.5378 226.65 11.3658 225.949 11.4013 225.243C11.3737 223.903 11.805 222.593 12.6272 221.519L11.8413 220.645Z" fill="#FFA8A7"/>
<path d="M31.3456 223.465C30.0452 223.227 28.7239 223.114 27.4008 223.128C26.0749 223.331 24.7908 223.74 23.5974 224.339C21.2281 225.371 18.9472 226.586 16.7764 227.972C19.278 227.298 21.7173 226.421 24.0689 225.351C25.1755 224.788 26.333 224.326 27.5265 223.971C28.7053 223.772 30.0726 223.726 31.3456 223.465Z" fill="#F28F8F"/>
<path d="M34.7241 228.876C33.3202 228.539 31.8532 228.539 30.4492 228.876C29.0682 229.194 27.717 229.625 26.4101 230.164C23.8264 231.222 21.3615 232.537 19.0547 234.088C21.7246 233.252 24.3476 232.28 26.913 231.176C29.3516 229.952 31.9986 229.173 34.7241 228.876Z" fill="#F28F8F"/>
</g>
<defs>
<clipPath id="clip0_761_1569">
<rect width="193" height="545" fill="white" transform="translate(0.527344 0.5)"/>
</clipPath>
</defs>
</svg>
