<svg width="15" height="16" viewBox="0 0 15 16" fill="none" xmlns="http://www.w3.org/2000/svg">
<path d="M0.833336 7.16667C0.597225 7.16667 0.39917 7.08667 0.23917 6.92667C0.0791695 6.76667 -0.000552672 6.56889 2.88351e-06 6.33334V1.33334C2.88351e-06 1.09723 0.080003 0.899169 0.240003 0.739169C0.400003 0.579169 0.597781 0.499447 0.833336 0.500003H5.83334C6.06945 0.500003 6.2675 0.580003 6.4275 0.740003C6.5875 0.900003 6.66723 1.09778 6.66667 1.33334V6.33334C6.66667 6.56945 6.58667 6.7675 6.42667 6.9275C6.26667 7.0875 6.06889 7.16722 5.83334 7.16667H0.833336ZM9.16667 7.16667C8.93056 7.16667 8.7325 7.08667 8.5725 6.92667C8.4125 6.76667 8.33278 6.56889 8.33334 6.33334V1.33334C8.33334 1.09723 8.41334 0.899169 8.57334 0.739169C8.73334 0.579169 8.93112 0.499447 9.16667 0.500003H14.1667C14.4028 0.500003 14.6008 0.580003 14.7608 0.740003C14.9208 0.900003 15.0006 1.09778 15 1.33334V6.33334C15 6.56945 14.92 6.7675 14.76 6.9275C14.6 7.0875 14.4022 7.16722 14.1667 7.16667H9.16667ZM0.833336 15.5C0.597225 15.5 0.39917 15.4203 0.23917 15.2608C0.0791695 15.1014 -0.000552672 14.9033 2.88351e-06 14.6667V9.66667C2.88351e-06 9.43056 0.080003 9.23278 0.240003 9.07334C0.400003 8.91389 0.597781 8.83389 0.833336 8.83334H5.83334C6.06945 8.83334 6.2675 8.91334 6.4275 9.07334C6.5875 9.23334 6.66723 9.43111 6.66667 9.66667V14.6667C6.66667 14.9028 6.58667 15.1008 6.42667 15.2608C6.26667 15.4208 6.06889 15.5006 5.83334 15.5H0.833336ZM11.6667 15.5C11.4306 15.5 11.2325 15.4203 11.0725 15.2608C10.9125 15.1014 10.8328 14.9033 10.8333 14.6667V13H9.14584C8.90973 13 8.71528 12.9203 8.5625 12.7608C8.40973 12.6014 8.33334 12.4033 8.33334 12.1667C8.33334 11.9306 8.41334 11.7328 8.57334 11.5733C8.73334 11.4139 8.93112 11.3339 9.16667 11.3333H10.8333V9.64584C10.8333 9.40973 10.9133 9.21528 11.0733 9.0625C11.2333 8.90973 11.4311 8.83334 11.6667 8.83334C11.9028 8.83334 12.1008 8.91334 12.2608 9.07334C12.4208 9.23334 12.5006 9.43111 12.5 9.66667V11.3333H14.1875C14.4236 11.3333 14.6181 11.4133 14.7708 11.5733C14.9236 11.7333 15 11.9311 15 12.1667C15 12.4028 14.92 12.6008 14.76 12.7608C14.6 12.9208 14.4022 13.0006 14.1667 13H12.5V14.6875C12.5 14.9236 12.42 15.1181 12.26 15.2708C12.1 15.4236 11.9022 15.5 11.6667 15.5Z" fill="#9E9E9E"/>
</svg>
