<svg width="42" height="42" viewBox="0 0 42 42" fill="none" xmlns="http://www.w3.org/2000/svg">
<circle cx="21" cy="21" r="20.5" stroke="#C5C5C5"/>
<path d="M22.2525 11C22.5 11 22.7079 11.21 22.7079 11.46V14.68C22.7079 16.51 24.1931 18.01 26.0149 18.02C26.7574 18.02 27.3614 18.03 27.8069 18.03L27.9756 18.0293C28.28 18.0269 28.6898 18.02 29.0446 18.02C29.302 18.02 29.5 18.22 29.5 18.47V26.51C29.5 28.99 27.5 31 25.0446 31H17.1733C14.5891 31 12.5 28.89 12.5 26.29V15.51C12.5 13.03 14.4901 11 16.9653 11H22.2525ZM20.6386 17.74C20.2327 17.74 19.896 18.07 19.896 18.49V23.31L18.3218 21.71C18.0347 21.42 17.5693 21.42 17.2822 21.71C16.995 22 16.995 22.47 17.2822 22.77L20.1139 25.64C20.1832 25.71 20.2624 25.76 20.3515 25.8C20.4406 25.84 20.5396 25.86 20.6386 25.86C20.7376 25.86 20.8267 25.84 20.9158 25.8C21.005 25.76 21.0842 25.71 21.1535 25.64L23.995 22.77C24.2822 22.47 24.2822 22 23.9851 21.71C23.698 21.42 23.2327 21.42 22.9455 21.71L21.3713 23.31V18.49C21.3713 18.07 21.0446 17.74 20.6386 17.74ZM24.145 11.9061C24.145 11.4751 24.6629 11.2611 24.9579 11.5721C26.0292 12.6961 27.8995 14.6611 28.945 15.7591C29.2342 16.0621 29.0223 16.5651 28.6045 16.5661C27.7916 16.5691 26.8322 16.5661 26.1421 16.5591C25.047 16.5591 24.145 15.6481 24.145 14.5421V11.9061Z" fill="#747474"/>
</svg>
