<svg width="249" height="517" viewBox="0 0 249 517" fill="none" xmlns="http://www.w3.org/2000/svg">
<g clip-path="url(#clip0_761_1063)">
<path d="M46.5273 500.845C46.5273 500.845 79.1446 519.5 118.15 519.5C157.155 519.5 188.527 501.629 188.527 501.629C188.527 501.629 157.155 487.5 118.15 487.5C79.1446 487.5 46.5273 500.845 46.5273 500.845Z" fill="black" fill-opacity="0.19"/>
<path d="M105.818 492.392L147.782 491.838L149.837 499.127L105.818 497.237V492.392Z" fill="#F16623"/>
<path d="M98.0215 61.6057C97.1708 66.9181 97.2399 72.3469 98.2256 77.6339C100.675 90.0244 92.3338 104.518 84.2785 110.315C76.2231 116.113 100.702 125.079 123.739 119.537C146.775 113.996 161.525 113.74 149.878 94.5714C138.23 75.403 149.878 77.7759 143.972 57.627C139.169 41.3431 98.0215 40.1779 98.0215 61.6057Z" fill="#1E1E1E"/>
<path d="M141.197 95.6798L138.19 95.2819C135.637 94.7202 133.388 93.1592 131.903 90.9196C129.536 87.1825 131.386 70.6286 131.386 70.6286H110.976C110.976 70.6286 112.758 87.1825 110.336 90.9196C108.851 93.1592 106.602 94.7202 104.05 95.2819L101.097 95.6798C98.5116 99.9426 100.988 132.439 100.988 132.439L120.664 149.249V150.116L121.167 149.69C121.167 149.69 121.507 150.116 121.671 150.116C127.998 150.116 141.346 132.439 141.346 132.439C141.346 132.439 143.782 99.8715 141.197 95.6798Z" fill="#ECAEAA"/>
<path d="M172.071 192.872L170.901 193.199C170.901 193.199 166.152 196.623 163.839 197.078C161.526 197.533 164.615 198.044 164.615 198.044C164.597 198.489 164.669 198.934 164.824 199.349C164.979 199.764 165.215 200.141 165.517 200.456C165.818 200.771 166.179 201.017 166.577 201.179C166.974 201.341 167.399 201.416 167.826 201.398C171.105 201.398 172.071 192.872 172.071 192.872Z" fill="#E5A3A1"/>
<path d="M66.998 192.872L68.1546 193.199C68.1546 193.199 72.9171 196.623 75.2167 197.078C77.5163 197.533 74.4547 198.044 74.4547 198.044C74.4721 198.491 74.4005 198.936 74.2444 199.352C74.0883 199.768 73.8511 200.146 73.5479 200.461C73.2447 200.776 72.8821 201.022 72.4831 201.184C72.084 201.345 71.6573 201.418 71.2298 201.398C67.9505 201.398 66.998 192.872 66.998 192.872Z" fill="#E5A3A1"/>
<path d="M75.856 367.804C80.5368 402.503 84.2107 429.814 84.2107 429.814L93.2865 491.838H98.117C91.6809 451.355 77.9786 365.289 77.3391 362.433C76.4955 358.71 53.1731 212.595 56.5476 204.893C56.5476 204.893 53.105 204.254 56.5476 226.946C58.6567 240.8 68.5082 313.382 75.856 367.804Z" fill="#F16623"/>
<path d="M147.797 491.838H152.627L161.69 429.814C161.69 429.814 165.364 402.503 170.058 367.804C177.406 313.382 187.257 240.8 189.353 226.946C192.809 204.211 189.353 204.893 189.353 204.893C192.741 212.595 169.486 358.71 168.575 362.433C167.922 365.289 154.219 451.355 147.797 491.838Z" fill="#F16623"/>
<path d="M119.902 469.927C119.902 469.927 122.923 464.627 122.12 478.538C121.861 483.241 123.739 489.067 122.542 491.497C120.294 495.005 117.404 498.013 114.037 500.349C106.676 505.138 104.962 510.537 93.0146 510.537C81.0676 510.537 77.87 510.026 82.5508 501.259C84.5374 497.521 89.9666 494.751 92.9601 490.388C94.1848 488.598 100.689 485.259 102.839 481.138C106.213 474.659 103.995 471.191 105.56 471.191L119.902 469.927Z" fill="#F16623"/>
<path d="M80.5371 307.925C81.0977 317.429 82.5701 326.85 84.9322 336.046C88.1512 348.376 89.933 361.067 90.2389 373.843C90.2389 381.885 87.8441 395.583 91.1642 407.945C94.4843 420.308 105.615 458.9 105.615 464.172C105.615 467.994 105.792 472.527 105.887 474.701C105.895 475.192 106.024 475.673 106.262 476.096C106.501 476.52 106.84 476.871 107.248 477.117C109.119 478.015 111.207 478.305 113.238 477.947C115.269 477.59 117.15 476.603 118.637 475.113C121.44 472.186 120.827 466.389 119.997 460.293C119.167 454.197 116.677 438.268 118.269 420.961C119.861 403.654 115.357 382.468 116.541 372.763C117.725 363.058 118.324 350.028 116.813 331.229C115.453 313.709 115.453 301.034 115.453 301.034L80.5371 307.925Z" fill="#ECAEAA"/>
<path d="M122.542 488.783C120.294 492.283 117.404 495.283 114.037 497.607C106.676 502.381 104.961 507.795 93.0144 507.795C85.7074 507.795 81.6934 507.596 80.7681 505.436C79.489 510.154 83.4895 510.495 93.0144 510.495C104.961 510.495 106.621 505.095 114.037 500.307C117.404 497.971 120.294 494.962 122.542 491.454C122.96 490.249 123.068 488.951 122.855 487.689C122.806 488.068 122.7 488.437 122.542 488.783Z" fill="white"/>
<path d="M96.0082 507.71C96.0082 507.71 93.2868 508.036 92.103 506.175C90.9192 504.314 89.9123 502.367 87.0684 503.12C84.2245 503.873 85.3947 508.264 82.1563 506.8C82.1427 506.8 86.3745 510.395 96.0082 507.71Z" fill="white"/>
<g style="mix-blend-mode:multiply" opacity="0.5">
<path d="M115.562 301.005L80.5371 307.925C80.5371 307.925 80.7548 313.027 81.8026 320.373C86.3473 322.632 96.0083 325.431 116.582 327.037C115.493 311.705 115.562 301.005 115.562 301.005Z" fill="#ECAEAA"/>
</g>
<g style="mix-blend-mode:multiply" opacity="0.5">
<path d="M120.364 462.609C120.677 466.701 120.364 470.254 118.418 472.342C116.931 473.835 115.049 474.826 113.015 475.186C110.981 475.546 108.891 475.258 107.016 474.36C106.46 474.014 106.036 473.476 105.818 472.84C105.818 473.55 105.818 474.175 105.818 474.673C105.826 475.164 105.955 475.645 106.194 476.068C106.432 476.491 106.772 476.843 107.179 477.088C109.051 477.987 111.138 478.276 113.169 477.919C115.2 477.562 117.082 476.574 118.568 475.085C121.126 472.527 120.977 467.767 120.364 462.609Z" fill="#ECAEAA"/>
</g>
<path d="M104.281 479.632C102.654 482.426 100.748 485.032 98.593 487.404C95.477 490.658 100.675 487.021 105.818 492.392C105.818 492.392 113.275 487.404 115.833 483.383C117.439 480.854 104.281 482.531 104.281 479.632Z" fill="white"/>
<path d="M128.869 470.467C128.869 470.467 125.699 465.266 126.91 479.149C127.304 483.838 125.549 489.721 126.91 492.108C129.255 495.529 132.229 498.427 135.659 500.633C143.157 505.18 145.034 510.58 156.954 510.154C168.874 509.727 172.085 509.173 167.159 500.548C165.064 496.882 159.553 494.282 156.451 490.019C155.172 488.257 148.559 485.131 146.3 481.081C142.748 474.715 144.858 471.135 143.238 471.135L128.869 470.467Z" fill="#F16623"/>
<path d="M163.566 307.315C163.271 316.852 162.063 326.334 159.96 335.62C157.096 348.047 155.679 360.791 155.742 373.573C155.973 381.601 158.749 395.228 155.742 407.675C152.735 420.123 142.761 459.071 142.911 464.328C143.019 468.165 142.911 472.683 142.911 474.872C142.903 475.369 142.775 475.855 142.537 476.286C142.298 476.716 141.959 477.075 141.55 477.33C139.702 478.288 137.622 478.643 135.578 478.349C133.535 478.055 131.623 477.126 130.093 475.682C127.208 472.84 127.657 467.028 128.283 460.918C128.909 454.808 131.005 438.794 128.868 421.544C126.732 404.294 130.678 382.98 129.208 373.317C127.739 363.655 126.773 350.582 127.752 331.797C128.65 314.249 128.201 301.588 128.201 301.588L163.566 307.315Z" fill="#ECAEAA"/>
<path d="M126.787 489.408C129.136 492.825 132.109 495.723 135.536 497.934C143.034 502.466 144.911 507.88 156.845 507.44C164.138 507.212 168.152 506.886 169.091 504.697C170.452 509.386 166.574 509.841 156.954 510.139C145.034 510.509 143.156 505.166 135.659 500.619C132.228 498.413 129.254 495.515 126.909 492.094C126.452 490.904 126.307 489.61 126.487 488.342C126.528 488.713 126.63 489.073 126.787 489.408Z" fill="white"/>
<path d="M153.852 507.553C153.852 507.553 156.573 507.795 157.716 505.891C158.859 503.987 159.798 502.012 162.669 502.694C165.54 503.376 164.479 507.781 167.69 506.218C167.69 506.132 163.553 509.813 153.852 507.553Z" fill="white"/>
<g style="mix-blend-mode:multiply" opacity="0.5">
<path d="M128.352 301.517L163.567 307.343C163.567 307.343 163.499 312.444 162.656 319.819C158.192 322.22 148.613 325.318 128.094 327.563C128.733 312.188 128.352 301.517 128.352 301.517Z" fill="#ECAEAA"/>
</g>
<g style="mix-blend-mode:multiply" opacity="0.5">
<path d="M128.202 463.177C128.012 467.27 128.379 470.808 130.434 472.84C131.964 474.284 133.876 475.213 135.919 475.507C137.963 475.801 140.044 475.446 141.891 474.488C142.441 474.132 142.851 473.583 143.048 472.939C143.048 473.65 143.048 474.275 143.048 474.772C143.04 475.269 142.912 475.756 142.674 476.186C142.435 476.616 142.096 476.976 141.687 477.23C139.839 478.189 137.759 478.544 135.715 478.25C133.672 477.956 131.76 477.026 130.23 475.582C127.74 473.11 127.753 468.392 128.202 463.177Z" fill="#ECAEAA"/>
</g>
<path d="M144.775 479.675C146.48 482.42 148.46 484.968 150.68 487.277C153.891 490.431 148.585 486.95 143.605 492.477C143.605 492.477 135.998 487.731 133.331 483.795C131.658 481.323 144.856 482.573 144.775 479.675Z" fill="white"/>
<path d="M89.3407 178.535L88.4426 179.671C88.4426 179.671 88.742 180.851 89.6536 188.922C90.5653 196.993 84.5646 214.172 84.2108 218.889C83.857 223.607 108.35 231.28 128.733 228.381C149.116 225.483 156.532 216.403 156.491 215.095C156.45 213.788 151.239 196.098 153.185 177.185L89.3407 178.535Z" fill="#ECAEAA"/>
<path d="M81.884 225.511C81.884 225.511 78.2917 227.06 76.1826 236.751C74.0735 246.441 71.4066 264.303 72.5904 277.958C73.7742 291.613 73.7061 296.601 74.1144 301.432C74.5634 306.746 76.0874 317.29 78.1965 316.735C80.3055 316.181 102.158 321.439 109.846 319.918C117.534 318.398 117.534 316.451 117.534 316.451C117.534 316.451 117.534 281.908 118.895 280.459C120.256 279.009 124.052 315.982 124.052 315.982C124.052 315.982 127.631 320.146 136.38 320.146C145.129 320.146 160.383 320.231 163.594 316.394C165.2 314.476 167.935 301.304 167.676 286.768C167.418 272.232 166.764 261.731 165.962 252.395C165.159 243.06 162.642 225.255 159.852 223.735C157.063 222.214 109.071 236.424 81.884 225.511Z" fill="#F16623"/>
<g style="mix-blend-mode:multiply" opacity="0.14">
<path d="M128.447 313.155C125.386 309.957 120.746 282.079 120.746 278.469C120.746 274.86 126.066 263.649 123.699 264.828C121.331 266.008 118.256 276.707 118.256 275.116C118.256 273.525 115.875 267.017 114.174 267.017C112.473 267.017 116.038 273.809 116.269 277.944C116.419 280.7 114.432 310.412 110.5 314.504C108.391 316.721 97.3009 317.631 87.5039 318.014C95.0558 319.279 105.193 320.856 109.901 319.975C117.589 318.455 117.589 316.508 117.589 316.508C117.589 316.508 117.589 281.965 118.95 280.516C120.31 279.066 124.107 316.039 124.107 316.039C124.107 316.039 127.685 320.202 136.435 320.202C144.966 320.202 159.567 320.274 163.336 316.735L161.118 317.204C148.858 319.719 131.495 316.338 128.447 313.155Z" fill="#4369D7"/>
</g>
<g style="mix-blend-mode:multiply" opacity="0.14">
<path d="M79.3397 294.157C80.9181 292.508 77.6524 286.682 76.6183 279.123C75.5842 271.564 76.9585 252.438 78.9859 240.147C79.9873 235.246 81.9164 230.603 84.66 226.491C83.7212 226.193 82.8231 225.866 81.9386 225.511C81.9386 225.511 78.3464 227.06 76.2373 236.751C74.1282 246.441 71.4612 264.303 72.6451 277.958C73.8289 291.613 73.7608 296.601 74.169 301.432C74.5772 306.263 75.9788 316.11 77.911 316.721C76.1284 310.682 76.1421 301.204 76.1421 292.451C76.0876 281.78 77.7749 295.833 79.3397 294.157Z" fill="#4369D7"/>
</g>
<path d="M64.7109 196.453C65.2416 196.453 118.69 198.797 137.658 198.797C156.626 198.797 179.418 195.06 180.738 196.453C181.695 197.66 182.354 199.095 182.656 200.63C182.656 200.63 176.56 201.341 150.843 201.952C125.126 202.563 66.2621 200.318 65.7043 199.735C65.1838 198.714 64.8471 197.601 64.7109 196.453Z" fill="#F16623"/>
<path d="M100.838 97.8538C100.838 97.8538 89.7079 102.699 83.4759 103.665C77.2439 104.632 61.9905 106.152 54.561 111.282C47.1316 116.411 34.1505 120.83 20.8701 124.852C7.58967 128.873 -0.207151 138.564 0.582055 141.747C1.37126 144.93 5.49419 152.134 14.7742 161.824C24.0541 171.515 37.2529 182.812 41.2942 188.282C45.3355 193.753 43.689 195.899 48.0977 203.103C52.5064 210.307 55.3911 214.655 56.6565 214.655C57.922 214.655 59.1738 212.723 59.5684 211.543C59.6636 211.018 59.9123 210.537 60.2802 210.165C60.6482 209.794 61.1173 209.55 61.6231 209.469C63.0557 209.204 64.4356 208.69 65.7052 207.948C66.3583 207.252 67.5557 209.184 68.9436 208.502C69.9814 207.951 70.8495 207.105 71.4487 206.062C72.0478 205.019 72.3539 203.821 72.3318 202.605C72.3318 199.352 68.481 194.506 68.1544 193.199C67.8279 191.892 62.3851 187.515 59.065 184.673C55.7448 181.831 51.309 175.608 47.2677 171.387C43.2264 167.167 34.7629 156.027 33.6607 152.034C32.5585 148.041 29.1296 142.784 32.6538 142.784C36.178 142.784 61.3918 134.756 67.2292 134.756C73.0666 134.756 80.6184 141.121 82.1969 149.988C83.7753 158.855 84.6461 159.75 84.6461 159.75L100.838 97.8538Z" fill="#ECAEAA"/>
<g style="mix-blend-mode:multiply" opacity="0.5">
<path d="M60.1535 210.264C59.9893 209.343 59.5047 208.518 58.7928 207.948C57.5682 206.968 57.0919 206.527 57.4321 206.527C57.7723 206.527 58.6023 208.033 58.6023 207.209C58.6023 206.385 59.0513 205.05 59.0513 205.788C59.0513 206.527 59.8542 209.554 60.6298 209.795C60.6298 209.852 60.1535 209.98 60.1535 210.264Z" fill="#ECAEAA"/>
</g>
<g style="mix-blend-mode:multiply" opacity="0.5">
<path d="M65.7055 207.948C65.2882 206.497 64.6594 205.121 63.8413 203.87C63.299 203.333 62.9689 202.603 62.916 201.824C62.916 201.824 63.2834 202.52 63.5555 203.245C63.8277 203.97 66.0048 206.087 66.0048 207.835L65.7055 207.948Z" fill="#ECAEAA"/>
</g>
<g style="mix-blend-mode:multiply" opacity="0.25">
<path d="M55.0098 128.447C35.0619 135.935 22.353 129.981 28.1632 144.233C33.9734 158.485 42.3417 169.1 48.3832 172.652C48.0158 172.226 47.6348 171.828 47.2674 171.444C43.1853 167.181 34.7626 156.084 33.6604 152.091C32.5583 148.098 29.1293 142.841 32.6535 142.841C36.1777 142.841 61.3915 134.812 67.2289 134.812C73.0663 134.812 80.6182 141.178 82.1966 150.045C83.775 158.912 84.6459 159.807 84.6459 159.807L89.1362 142.557C88.9049 138.123 88.2517 133.931 86.7005 132.312C82.945 128.319 74.9713 120.973 55.0098 128.447Z" fill="#ECAEAA"/>
</g>
<path d="M141.197 95.6797C141.197 95.6797 150.015 100.781 156.247 101.747C162.479 102.713 177.079 106.152 184.495 111.282C191.911 116.411 204.905 120.83 218.186 124.852C231.466 128.873 239.277 138.564 238.474 141.747C237.671 144.93 233.562 152.134 224.282 161.824C215.002 171.515 201.803 182.812 197.762 188.282C193.72 193.753 195.38 195.899 190.958 203.103C186.536 210.307 183.665 214.655 182.399 214.655C181.134 214.655 179.882 212.723 179.487 211.543C179.394 211.017 179.146 210.535 178.778 210.163C178.409 209.791 177.939 209.548 177.433 209.469C176.072 209.057 173.977 208.63 173.351 207.948C172.725 207.266 171.486 209.184 170.099 208.502C169.073 207.94 168.218 207.09 167.629 206.049C167.04 205.007 166.741 203.815 166.765 202.605C166.765 199.351 170.616 194.506 170.942 193.199C171.269 191.892 176.712 187.515 180.032 184.673C183.352 181.831 187.788 175.608 191.829 171.387C195.87 167.167 204.334 156.027 205.436 152.034C206.538 148.041 209.953 142.784 206.429 142.784C202.905 142.784 177.65 134.827 171.772 134.827C165.894 134.827 158.369 141.192 156.805 150.059C155.24 158.926 154.355 159.821 154.355 159.821L141.197 95.6797Z" fill="#ECAEAA"/>
<g style="mix-blend-mode:multiply" opacity="0.5">
<path d="M178.902 210.264C179.065 209.343 179.55 208.517 180.263 207.948C181.474 206.968 181.95 206.527 181.624 206.527C181.297 206.527 180.467 208.033 180.467 207.209C180.467 206.385 180.018 205.05 180.018 205.788C180.018 206.527 179.215 209.554 178.426 209.795C178.412 209.852 178.902 209.98 178.902 210.264Z" fill="#ECAEAA"/>
</g>
<g style="mix-blend-mode:multiply" opacity="0.5">
<path d="M173.364 207.948C173.775 206.495 174.404 205.118 175.228 203.87C175.763 203.329 176.088 202.6 176.14 201.824C176.14 201.824 175.772 202.52 175.5 203.245C175.228 203.97 173.064 206.087 173.064 207.835L173.364 207.948Z" fill="#ECAEAA"/>
</g>
<g style="mix-blend-mode:multiply" opacity="0.25">
<path d="M184.045 128.447C203.993 135.935 216.702 129.981 210.892 144.233C205.082 158.485 196.713 169.1 190.672 172.652L191.787 171.444C195.87 167.181 204.292 156.084 205.395 152.091C206.497 148.098 209.912 142.841 206.388 142.841C202.864 142.841 177.65 134.827 171.772 134.827C165.893 134.827 158.369 141.192 156.804 150.059C155.239 158.926 154.355 159.821 154.355 159.821L149.878 142.571C150.096 138.137 150.749 133.946 152.3 132.326C156.124 128.319 164.043 120.972 184.045 128.447Z" fill="#ECAEAA"/>
</g>
<g style="mix-blend-mode:multiply" opacity="0.45">
<path d="M124.828 183.053C135.237 182.769 139.156 182.258 146.082 182.016C150.164 181.874 152.028 181.718 152.886 181.277C152.954 179.927 153.049 178.563 153.199 177.185L89.2457 178.535L88.3477 179.671C88.3477 179.671 88.4837 180.197 88.8375 182.869C90.552 183.082 93.6272 183.252 99.1652 183.536C109.874 184.091 114.419 183.323 124.828 183.053Z" fill="#ECAEAA"/>
</g>
<g style="mix-blend-mode:multiply" opacity="0.45">
<path d="M128.801 228.381C149.211 225.539 156.6 216.403 156.559 215.095C156.559 214.754 156.205 213.362 155.729 211.174C153.361 213.746 143.959 223.209 120.215 222.3C94.3613 221.319 86.4829 213.106 86.4829 213.106C86.4829 213.106 86.1019 212.808 85.5848 212.438C84.9781 214.55 84.5233 216.707 84.2241 218.889C84.0064 223.607 108.417 231.28 128.801 228.381Z" fill="#ECAEAA"/>
</g>
<path d="M86.4831 217.113C86.4831 217.113 83.5576 214.783 82.9997 215.351C82.4418 215.92 78.2372 225.426 79.6251 228.026C81.0131 230.626 99.6138 236.751 117.126 236.751C134.638 236.751 154.817 233.227 159.689 226.008L161.049 224.175C161.049 224.175 158.641 217.994 158.423 216.857C158.206 215.721 157.471 213.334 156.205 214.655C154.94 215.976 146.068 227.287 120.215 226.307C94.3615 225.326 86.4831 217.113 86.4831 217.113Z" fill="#D85E22"/>
<g style="mix-blend-mode:multiply" opacity="0.45">
<path d="M121.861 214.271C121.861 214.712 121.693 215.135 121.394 215.447C121.096 215.759 120.691 215.934 120.269 215.934C120.059 215.936 119.85 215.894 119.655 215.811C119.461 215.729 119.283 215.607 119.134 215.452C118.985 215.297 118.866 215.114 118.786 214.911C118.705 214.708 118.663 214.491 118.663 214.271C118.663 213.827 118.832 213.4 119.133 213.086C119.434 212.771 119.843 212.595 120.269 212.595C120.692 212.598 121.097 212.777 121.395 213.091C121.693 213.405 121.861 213.829 121.861 214.271Z" fill="#ECAEAA"/>
</g>
<g style="mix-blend-mode:multiply" opacity="0.44">
<path d="M131.386 89.314C129.957 83.8149 131.386 70.6286 131.386 70.6286H110.976C111.494 75.5347 111.676 80.4732 111.52 85.4064C117.705 88.4882 124.551 89.8349 131.386 89.314Z" fill="#ECAEAA"/>
</g>
<path d="M94.7834 47.311C94.7834 47.311 87.6125 47.311 86.6192 54.0604C85.6259 60.8099 96.4299 61.6056 96.4299 61.6056L94.7834 47.311Z" fill="#ECAEAA"/>
<g style="mix-blend-mode:multiply" opacity="0.5">
<path d="M96.0077 49.7976C96.0077 49.7976 89.7621 49.3429 88.4014 55.6803C88.4014 55.6803 93.2727 51.929 96.7833 54.3731L96.0077 49.7976Z" fill="#ECAEAA"/>
</g>
<path d="M145.905 47.0126C145.905 47.0126 153.076 46.8563 154.151 53.6626C155.226 60.4689 144.408 61.3783 144.408 61.3783L145.905 47.0126Z" fill="#ECAEAA"/>
<g style="mix-blend-mode:multiply">
<g style="mix-blend-mode:multiply" opacity="0.25">
<path d="M144.681 49.5134C144.681 49.5134 150.913 48.9877 152.342 55.3109C152.342 55.3109 147.43 51.6164 143.946 54.0889L144.681 49.5134Z" fill="#ECAEAA"/>
</g>
</g>
<path d="M122.609 15.1125C122.609 15.1125 99.287 13.5637 94.2388 32.0217C88.3878 53.4494 102.662 85.0796 120.854 83.4028C139.441 81.6693 152.382 57.9822 146.272 30.3308C145.664 27.5423 144.409 24.9525 142.618 22.7894C140.826 20.6263 138.553 18.9562 135.999 17.9259C131.692 16.3078 127.18 15.3598 122.609 15.1125Z" fill="#ECAEAA"/>
<path d="M119.481 59.4742C118.886 59.5305 118.29 59.386 117.78 59.0621C117.609 58.9284 117.471 58.7544 117.376 58.5545C117.281 58.3545 117.233 58.1342 117.235 57.9112C117.235 56.4902 118.297 55.9361 119.032 55.595C119.331 55.453 119.685 55.2967 119.739 55.1546C119.902 53.1926 119.902 51.2196 119.739 49.2577C119.737 49.2166 119.743 49.1756 119.757 49.1369C119.77 49.0982 119.791 49.0627 119.817 49.0324C119.844 49.002 119.876 48.9774 119.911 48.96C119.947 48.9426 119.986 48.9327 120.025 48.9308C120.064 48.9219 120.105 48.9226 120.144 48.933C120.183 48.9435 120.219 48.9633 120.25 48.9909C120.28 49.0185 120.304 49.0531 120.319 49.092C120.334 49.131 120.341 49.1731 120.338 49.215C120.522 51.2709 120.522 53.3402 120.338 55.3961C120.188 55.7798 119.78 55.9645 119.317 56.1776C118.596 56.5044 117.848 56.8597 117.875 57.8828C117.871 58.0123 117.898 58.1408 117.952 58.2572C118.007 58.3736 118.088 58.4743 118.188 58.5506C118.986 58.9046 119.88 58.945 120.705 58.6643C120.744 58.6536 120.784 58.6511 120.823 58.6568C120.862 58.6625 120.9 58.6763 120.935 58.6975C120.969 58.7187 120.999 58.7467 121.022 58.7801C121.046 58.8134 121.063 58.8513 121.073 58.8916C121.083 58.9318 121.085 58.9736 121.08 59.0147C121.074 59.0558 121.061 59.0954 121.041 59.1311C121.021 59.1668 120.994 59.198 120.962 59.2227C120.93 59.2475 120.893 59.2653 120.855 59.2753C120.405 59.3929 119.944 59.4596 119.481 59.4742Z" fill="#1E1E1E"/>
<path d="M109.888 48.0925C109.888 49.5134 109.071 50.6928 108.037 50.6928C107.003 50.6928 106.187 49.5419 106.173 48.1067C106.159 46.6716 106.989 45.4922 108.01 45.4922C109.03 45.4922 109.874 46.6432 109.888 48.0925Z" fill="#1E1E1E"/>
<path d="M131.658 47.0126C131.658 48.4335 130.842 49.6271 129.821 49.6271C128.801 49.6271 127.957 48.4761 127.957 47.041C127.957 45.6058 128.773 44.4265 129.794 44.4265C130.815 44.4265 131.658 45.5774 131.658 47.0126Z" fill="#1E1E1E"/>
<path d="M136.352 40.32C134.41 39.1423 132.188 38.5612 129.944 38.6433C126.528 38.899 125.562 39.0553 127.073 37.5918C129.535 35.2046 132.515 36.043 134.652 36.9524C136.788 37.8618 138.026 40.6326 136.352 40.32Z" fill="#1E1E1E"/>
<path d="M101.056 43.8155C103.094 42.8273 105.358 42.458 107.588 42.7498C110.976 43.3181 111.915 43.5739 110.54 41.9682C108.295 39.3537 105.234 39.9079 103.043 40.5473C100.852 41.1867 99.3689 43.9718 101.056 43.8155Z" fill="#1E1E1E"/>
<path d="M128.542 68.554L112.214 70.1028C113.065 71.8914 114.411 73.3711 116.079 74.3493C117.746 75.3276 119.657 75.7591 121.562 75.5877C123.337 75.4746 125.015 74.7042 126.294 73.4149C127.573 72.1256 128.371 70.4021 128.542 68.554Z" fill="#F6FCF7"/>
<g style="mix-blend-mode:multiply" opacity="0.36">
<path d="M147.715 47.1689C147.998 41.5038 147.512 35.8254 146.273 30.3023C145.665 27.5138 144.41 24.9241 142.619 22.761C140.827 20.5979 138.554 18.9278 135.999 17.8975C131.694 16.2697 127.182 15.3121 122.61 15.0557C122.61 15.0557 99.2877 13.5068 94.2395 31.9648C92.9456 37.0003 92.5808 42.2468 93.1645 47.4247C93.6358 47.3868 94.1066 47.5033 94.5115 47.758C94.9163 48.0127 95.235 48.3929 95.4233 48.8456C95.445 42.8756 96.5676 36.9658 98.7298 31.4391C103.111 21.4925 119.14 22.7856 119.14 22.7856C119.14 22.7856 136.244 23.1976 139.945 31.5101C142.5 37.2568 144.642 43.1937 146.354 49.2719L146.885 48.1636C146.885 48.1636 146.667 46.9984 147.715 47.1689Z" fill="#ECAEAA"/>
</g>
<path d="M118.963 2.99188C118.963 2.99188 117.494 -6.54262 126.42 -5.40587C135.346 -4.26912 144.109 1.5141 144.272 6.51581C144.436 11.5175 137.877 12.498 134.924 12.9811C131.972 13.4642 118.963 2.99188 118.963 2.99188Z" fill="#1E1E1E"/>
<path d="M149.851 28.8103C148.817 18.9916 145.374 5.53534 127.957 2.01141C125.671 1.56358 123.356 1.29287 121.031 1.20148C97.5592 2.23876 92.6334 17.798 91.4905 28.8103C90.7482 35.0916 91.1358 41.4625 92.6334 47.5952C93.0253 47.4597 93.4457 47.4411 93.8471 47.5415C94.2486 47.6419 94.6152 47.8573 94.9058 48.1635C94.9058 48.1635 94.4568 37.1512 98.1171 28.8103C102.499 18.8638 120.392 20.0858 120.392 20.0858C120.392 20.0858 137.482 20.4978 141.197 28.8103C144.408 36.0145 146.925 48.1635 146.925 48.1635C147.216 47.8573 147.583 47.6419 147.984 47.5415C148.386 47.4411 148.806 47.4597 149.198 47.5952C150.355 41.4078 150.576 35.0691 149.851 28.8103Z" fill="#1E1E1E"/>
<path d="M121.031 1.20152C121.031 1.20152 133.019 0.974162 141.7 8.87459C141.7 8.87459 132.747 -3.57284 121.031 1.20152Z" fill="#F16623"/>
<g style="mix-blend-mode:multiply" opacity="0.25">
<path d="M142.271 101.491V103.324C142.802 123.047 135.114 137.725 128.664 139.53C122.215 141.335 123.331 145.214 121.861 142.926C117.357 136.177 117.289 140.923 111.248 136.177C105.206 131.431 105.356 117.093 103.233 107.886C102.098 103.73 102.333 99.296 103.9 95.2961L101.056 95.6798C98.4706 99.9426 100.947 132.439 100.947 132.439L120.623 149.249V150.116L121.126 149.69C121.126 149.69 121.466 150.116 121.63 150.116C127.957 150.116 141.305 132.439 141.305 132.439C141.305 132.439 142.857 112.092 142.271 101.491Z" fill="#ECAEAA"/>
</g>
<path d="M86.7285 172.666C86.5618 175.031 86.5618 177.406 86.7285 179.771C87.0687 180.638 88.6607 180.737 99.2606 181.291C109.86 181.846 114.419 181.078 124.828 180.808C135.237 180.538 139.156 180.013 146.082 179.771C153.008 179.529 153.634 179.245 153.797 177.583C153.847 176.284 153.682 174.986 153.308 173.746L86.7285 172.666Z" fill="#F16623"/>
<path d="M103.26 95.2819C103.26 95.2819 97.042 95.6656 94.8376 99.3174C92.6333 102.969 89.599 118.827 88.3335 124.71C87.068 130.592 82.1695 141.761 82.1695 148.738C82.1695 155.714 80.8088 158.571 83.1628 163.146C85.5168 167.721 84.2242 168.475 85.095 172.283C85.9659 176.091 88.3607 175.466 92.5245 176.545C96.6882 177.625 105.315 176.545 126.542 176.545C147.769 176.545 154.654 175.366 154.654 173.022C154.654 170.677 157.443 159.139 158.641 153.128C160.26 144.816 158.641 140.667 158.641 140.667C156.582 133.566 155.116 126.292 154.259 118.926C153.334 108.809 148.531 99.3316 147.143 97.8822C145.755 96.4329 141.21 95.7082 141.21 95.7082C141.21 95.7082 142.802 99.7863 142.394 111.58C142.095 119.964 137.019 145.029 123.698 145.029C110.377 145.029 106.009 133.335 105.193 130.564C104.376 127.793 96.9603 97.8538 103.26 95.2819Z" fill="#F16623"/>
<g style="mix-blend-mode:multiply" opacity="0.14">
<path d="M142.789 168.887C130.094 169.995 129.481 162.265 121.861 162.265C114.241 162.265 111.506 171.416 98.6069 171.416C87.7213 171.416 86.6736 157.945 82.1969 150.386C82.0336 156.169 81.0947 158.912 83.2174 163.174C85.5442 167.736 84.2787 168.503 85.1496 172.311C86.0204 176.119 88.4153 175.494 92.579 176.574C96.7428 177.654 105.37 176.574 126.597 176.574C147.823 176.574 154.709 175.394 154.709 173.05C154.709 170.705 157.498 159.167 158.695 153.157C158.9 152.091 159.049 151.096 159.172 150.173C155.552 154.507 154.287 167.949 142.789 168.887Z" fill="#4369D7"/>
</g>
</g>
<defs>
<clipPath id="clip0_761_1063">
<rect width="248" height="516" fill="white" transform="translate(0.527344 0.5)"/>
</clipPath>
</defs>
</svg>
