<svg width="672" height="500" viewBox="0 0 672 500" fill="none" xmlns="http://www.w3.org/2000/svg">
<g clip-path="url(#clip0_1_149)">
<path d="M671.471 439.401H0.528564V439.736H671.471V439.401Z" fill="#EBEBEB"/>
<path d="M604.243 460.991H559.8V461.327H604.243V460.991Z" fill="#EBEBEB"/>
<path d="M444.988 464.641H433.327V464.977H444.988V464.641Z" fill="#EBEBEB"/>
<path d="M558.458 448.539H532.707V448.874H558.458V448.539Z" fill="#EBEBEB"/>
<path d="M128.88 450.793H70.9238V451.129H128.88V450.793Z" fill="#EBEBEB"/>
<path d="M149.33 450.793H140.836V451.129H149.33V450.793Z" fill="#EBEBEB"/>
<path d="M302.654 456.456H176.946V456.791H302.654V456.456Z" fill="#EBEBEB"/>
<path d="M318.569 379.552H59.4508C57.4197 379.549 55.4729 378.74 54.0367 377.304C52.6005 375.868 51.7921 373.921 51.7886 371.89V7.66217C51.7886 6.65596 51.9867 5.6596 52.3718 4.72999C52.7569 3.80037 53.3213 2.9557 54.0328 2.2442C54.7443 1.5327 55.589 0.968306 56.5186 0.583246C57.4482 0.198186 58.4446 0 59.4508 0H318.569C319.575 0 320.571 0.198186 321.501 0.583246C322.431 0.968306 323.275 1.5327 323.987 2.2442C324.698 2.9557 325.263 3.80037 325.648 4.72999C326.033 5.6596 326.231 6.65596 326.231 7.66217V371.89C326.228 373.921 325.419 375.868 323.983 377.304C322.547 378.74 320.6 379.549 318.569 379.552ZM59.4508 0.335471C57.5087 0.339019 55.6472 1.11207 54.2739 2.48533C52.9006 3.85858 52.1276 5.7201 52.124 7.66217V371.89C52.1276 373.832 52.9006 375.694 54.2739 377.067C55.6472 378.44 57.5087 379.213 59.4508 379.217H318.569C320.511 379.213 322.372 378.44 323.746 377.067C325.119 375.694 325.892 373.832 325.896 371.89V7.66217C325.892 5.7201 325.119 3.85858 323.746 2.48533C322.372 1.11207 320.511 0.339019 318.569 0.335471H59.4508Z" fill="#EBEBEB"/>
<path d="M608.819 379.552H349.768C347.737 379.549 345.79 378.74 344.354 377.304C342.917 375.868 342.109 373.921 342.105 371.89V7.66217C342.105 5.63004 342.913 3.68113 344.35 2.2442C345.787 0.807262 347.736 0 349.768 0H608.886C610.916 0.00355483 612.861 0.812387 614.295 2.24894C615.729 3.68549 616.535 5.63236 616.535 7.66217V371.89C616.533 372.9 616.332 373.9 615.943 374.833C615.554 375.765 614.984 376.611 614.267 377.323C613.551 378.035 612.7 378.598 611.765 378.981C610.83 379.363 609.829 379.558 608.819 379.552ZM349.768 0.335471C347.826 0.339019 345.964 1.11207 344.591 2.48533C343.218 3.85858 342.444 5.7201 342.441 7.66217V371.89C342.444 373.832 343.218 375.694 344.591 377.067C345.964 378.44 347.826 379.213 349.768 379.217H608.886C610.827 379.213 612.687 378.44 614.058 377.066C615.429 375.693 616.199 373.831 616.199 371.89V7.66217C616.199 5.72133 615.429 3.85979 614.058 2.48615C612.687 1.11251 610.827 0.339026 608.886 0.335471H349.768Z" fill="#EBEBEB"/>
<path d="M475.449 57.9426C475.449 56.2023 474.757 54.5333 473.527 53.3027C472.296 52.0722 470.627 51.3808 468.887 51.3808C468.25 51.3775 467.616 51.4725 467.008 51.6626C467.105 50.996 467.154 50.3234 467.156 49.6498C467.156 45.9628 465.691 42.4268 463.084 39.8196C460.477 37.2125 456.941 35.7479 453.254 35.7479C452.398 35.7458 451.544 35.8267 450.704 35.9894C449.337 33.7322 447.272 31.9818 444.821 31.0032C442.37 30.0245 439.667 29.8707 437.121 30.5652C434.575 31.2597 432.325 32.7646 430.711 34.8522C429.096 36.9398 428.206 39.4964 428.174 42.1352H427.973C425.005 42.1352 422.158 43.3143 420.059 45.4131C417.961 47.5119 416.781 50.3584 416.781 53.3266C416.781 56.2947 417.961 59.1412 420.059 61.24C422.158 63.3388 425.005 64.5179 427.973 64.5179H469.075C470.786 64.4723 472.411 63.7586 473.602 62.5297C474.794 61.3007 475.456 59.6542 475.449 57.9426Z" fill="#D7D3D3"/>
<path d="M451.335 67.7652V54.9771H440.909V67.7652H432.415L446.129 79.3591L459.843 67.7652H451.335Z" fill="#E0E0E0"/>
<path d="M269.818 77.2926C269.816 75.4594 269.453 73.6446 268.749 71.952C268.045 70.2593 267.014 68.7222 265.716 67.4284C264.417 66.1346 262.876 65.1097 261.18 64.4123C259.485 63.7148 257.669 63.3585 255.836 63.3638C254.472 63.3567 253.114 63.5558 251.81 63.9543C252.014 62.5365 252.117 61.106 252.119 59.6736C252.119 55.7968 251.355 51.958 249.871 48.3763C248.388 44.7946 246.213 41.5401 243.472 38.7988C240.731 36.0575 237.476 33.8829 233.895 32.3993C230.313 30.9158 226.474 30.1522 222.597 30.1522C220.797 30.1574 219 30.3235 217.23 30.6487C214.322 25.8668 209.937 22.1607 204.738 20.0895C199.539 18.0184 193.807 17.6946 188.407 19.1672C183.008 20.6398 178.234 23.8287 174.806 28.2527C171.378 32.6767 169.482 38.0957 169.405 43.6918H168.975C165.806 43.6165 162.654 44.1757 159.704 45.3365C156.754 46.4972 154.066 48.2362 151.798 50.451C149.53 52.6659 147.727 55.3119 146.497 58.2335C145.266 61.155 144.632 64.2931 144.632 67.4633C144.632 70.6334 145.266 73.7716 146.497 76.6931C147.727 79.6147 149.53 82.2607 151.798 84.4755C154.066 86.6904 156.754 88.4293 159.704 89.5901C162.654 90.7509 165.806 91.3101 168.975 91.2348H256.278C259.907 91.1334 263.353 89.6194 265.882 87.0153C268.411 84.4111 269.823 80.9226 269.818 77.2926Z" fill="#D7D3D3"/>
<path d="M196.444 78.3795V105.553H218.598V78.3795H236.647L207.514 53.7693L178.396 78.3795H196.444Z" fill="#E0E0E0"/>
<path d="M280.942 145.165V108.626H392.829V144.789" stroke="#E6E6E6" stroke-miterlimit="10"/>
<path d="M338.536 74.1929V145.058" stroke="#E6E6E6" stroke-miterlimit="10"/>
<path d="M357.578 60.2775H319.522C318.64 60.2775 317.925 60.9925 317.925 61.8744V84.512C317.925 85.3939 318.64 86.1088 319.522 86.1088H357.578C358.459 86.1088 359.174 85.3939 359.174 84.512V61.8744C359.174 60.9925 358.459 60.2775 357.578 60.2775Z" fill="#D7D3D3"/>
<path d="M357.175 63.3102H319.911C319.599 63.3102 319.347 63.5625 319.347 63.8738V84.512C319.347 84.8232 319.599 85.0756 319.911 85.0756H357.175C357.486 85.0756 357.739 84.8232 357.739 84.512V63.8738C357.739 63.5625 357.486 63.3102 357.175 63.3102Z" fill="#E0E0E0"/>
<path d="M299.97 141.851H261.914C261.033 141.851 260.318 142.566 260.318 143.448V166.085C260.318 166.967 261.033 167.682 261.914 167.682H299.97C300.852 167.682 301.567 166.967 301.567 166.085V143.448C301.567 142.566 300.852 141.851 299.97 141.851Z" fill="#D7D3D3"/>
<path d="M299.568 144.883H262.304C261.992 144.883 261.74 145.136 261.74 145.447V166.085C261.74 166.396 261.992 166.649 262.304 166.649H299.568C299.879 166.649 300.131 166.396 300.131 166.085V145.447C300.131 145.136 299.879 144.883 299.568 144.883Z" fill="#E0E0E0"/>
<path d="M357.578 141.851H319.522C318.64 141.851 317.925 142.566 317.925 143.448V166.085C317.925 166.967 318.64 167.682 319.522 167.682H357.578C358.459 167.682 359.174 166.967 359.174 166.085V143.448C359.174 142.566 358.459 141.851 357.578 141.851Z" fill="#D7D3D3"/>
<path d="M357.175 144.883H319.911C319.599 144.883 319.347 145.136 319.347 145.447V166.085C319.347 166.396 319.599 166.649 319.911 166.649H357.175C357.486 166.649 357.739 166.396 357.739 166.085V145.447C357.739 145.136 357.486 144.883 357.175 144.883Z" fill="#E0E0E0"/>
<path d="M411.951 141.851H373.895C373.013 141.851 372.298 142.566 372.298 143.448V166.085C372.298 166.967 373.013 167.682 373.895 167.682H411.951C412.833 167.682 413.548 166.967 413.548 166.085V143.448C413.548 142.566 412.833 141.851 411.951 141.851Z" fill="#D7D3D3"/>
<path d="M411.548 144.883H374.284C373.973 144.883 373.72 145.136 373.72 145.447V166.085C373.72 166.396 373.973 166.649 374.284 166.649H411.548C411.859 166.649 412.112 166.396 412.112 166.085V145.447C412.112 145.136 411.859 144.883 411.548 144.883Z" fill="#E0E0E0"/>
<path d="M337.78 97.5558L327.476 107.86C327.051 108.285 327.051 108.973 327.476 109.397L337.78 119.702C338.205 120.127 338.893 120.127 339.317 119.702L349.622 109.398C350.046 108.973 350.046 108.285 349.622 107.86L339.317 97.5558C338.893 97.1313 338.205 97.1313 337.78 97.5558Z" fill="#E0E0E0"/>
<path opacity="0.8" d="M120.077 90.8456H93.226C92.5813 90.8456 92.0586 91.3683 92.0586 92.0131V107.163C92.0586 107.808 92.5813 108.33 93.226 108.33H120.077C120.722 108.33 121.245 107.808 121.245 107.163V92.0131C121.245 91.3683 120.722 90.8456 120.077 90.8456Z" fill="#E0E0E0"/>
<path d="M99.5865 128.459H78.3176C77.6728 128.459 77.1501 128.981 77.1501 129.626V140.643C77.1501 141.288 77.6728 141.81 78.3176 141.81H99.5865C100.231 141.81 100.754 141.288 100.754 140.643V129.626C100.754 128.981 100.231 128.459 99.5865 128.459Z" fill="#E0E0E0"/>
<path d="M135.401 128.459H114.133C113.488 128.459 112.965 128.981 112.965 129.626V140.643C112.965 141.288 113.488 141.81 114.133 141.81H135.401C136.046 141.81 136.569 141.288 136.569 140.643V129.626C136.569 128.981 136.046 128.459 135.401 128.459Z" fill="#E0E0E0"/>
<path d="M113.381 156.719H103.331C102.686 156.719 102.163 157.242 102.163 157.886V166.957C102.163 167.602 102.686 168.125 103.331 168.125H113.381C114.026 168.125 114.549 167.602 114.549 166.957V157.886C114.549 157.242 114.026 156.719 113.381 156.719Z" fill="#E0E0E0"/>
<path d="M129.108 156.719H119.057C118.413 156.719 117.89 157.242 117.89 157.886V166.957C117.89 167.602 118.413 168.125 119.057 168.125H129.108C129.753 168.125 130.276 167.602 130.276 166.957V157.886C130.276 157.242 129.753 156.719 129.108 156.719Z" fill="#E0E0E0"/>
<path d="M144.848 156.719H134.798C134.153 156.719 133.63 157.242 133.63 157.886V166.957C133.63 167.602 134.153 168.125 134.798 168.125H144.848C145.493 168.125 146.016 167.602 146.016 166.957V157.886C146.016 157.242 145.493 156.719 144.848 156.719Z" fill="#E0E0E0"/>
<path d="M76.9757 156.719H66.925C66.2802 156.719 65.7576 157.242 65.7576 157.886V166.957C65.7576 167.602 66.2802 168.125 66.925 168.125H76.9757C77.6205 168.125 78.1432 167.602 78.1432 166.957V157.886C78.1432 157.242 77.6205 156.719 76.9757 156.719Z" fill="#E0E0E0"/>
<path d="M94.0446 156.719H83.9939C83.3491 156.719 82.8264 157.242 82.8264 157.886V166.957C82.8264 167.602 83.3491 168.125 83.9939 168.125H94.0446C94.6893 168.125 95.212 167.602 95.212 166.957V157.886C95.212 157.242 94.6893 156.719 94.0446 156.719Z" fill="#E0E0E0"/>
<path d="M123.419 128.459H124.76V119.066H107.316V108.33H105.974V119.066H88.5295V128.459H89.8714V120.407H123.419V128.459Z" fill="#E0E0E0"/>
<path d="M88.5295 149.929H71.085V156.638H72.4268V151.271H88.5295V156.638H89.8714V141.878H88.5295V149.929Z" fill="#E0E0E0"/>
<path d="M124.76 151.271V141.878H123.419V151.271H107.316V156.638H108.658V152.613H123.419V156.638H124.76V152.613H139.521V156.638H140.863V151.271H124.76Z" fill="#E0E0E0"/>
<path d="M511.774 95.0323V104.68L516.739 105.15C517.399 108.323 518.656 111.342 520.442 114.047L517.249 117.898L524.065 124.715L527.917 121.535C530.625 123.313 533.643 124.57 536.813 125.238L537.283 130.19H546.931L547.401 125.225C550.573 124.567 553.591 123.315 556.297 121.535L560.149 124.715L566.965 117.898L563.785 114.047C565.562 111.339 566.814 108.321 567.475 105.15L572.44 104.68V95.0323L567.475 94.5761C566.814 91.4012 565.562 88.3788 563.785 85.666L566.965 81.8147L560.149 74.998L556.297 78.1917C553.592 76.4074 550.573 75.1508 547.401 74.488L546.931 69.5231H537.283L536.813 74.488C533.641 75.1508 530.622 76.4074 527.917 78.1917L524.065 74.998L517.249 81.8147L520.442 85.666C518.656 88.3752 517.399 91.3986 516.739 94.5761L511.774 95.0323ZM542.114 86.8066C544.696 86.8066 547.22 87.5723 549.368 89.007C551.515 90.4417 553.188 92.4808 554.176 94.8666C555.165 97.2524 555.423 99.8776 554.919 102.41C554.416 104.943 553.172 107.269 551.346 109.095C549.52 110.921 547.194 112.165 544.661 112.669C542.128 113.173 539.503 112.914 537.117 111.926C534.731 110.938 532.692 109.264 531.258 107.117C529.823 104.97 529.057 102.445 529.057 99.8631C529.057 96.4003 530.433 93.0793 532.881 90.6307C535.33 88.1822 538.651 86.8066 542.114 86.8066Z" fill="#F5F5F5"/>
<path d="M518 165.374C520.487 164.855 522.855 163.872 524.978 162.476L527.997 164.971L533.364 159.604L530.869 156.585C532.265 154.462 533.248 152.094 533.767 149.607L537.658 149.245V141.69L533.767 141.327C533.248 138.84 532.265 136.472 530.869 134.35L533.364 131.33L527.997 125.963L524.978 128.459C522.855 127.062 520.487 126.079 518 125.56L517.638 121.669H510.083L509.707 125.56C507.22 126.081 504.853 127.064 502.729 128.459L499.71 125.963L494.342 131.33L496.852 134.35C495.451 136.472 494.463 138.839 493.94 141.327L490.062 141.69V149.245L493.94 149.607C494.463 152.095 495.451 154.462 496.852 156.585L494.342 159.604L499.71 164.971L502.743 162.489C504.867 163.883 507.234 164.866 509.72 165.387L510.096 169.279H517.651L518 165.374ZM503.628 145.487C503.631 143.465 504.233 141.49 505.358 139.81C506.483 138.13 508.081 136.822 509.95 136.05C511.818 135.278 513.874 135.078 515.856 135.474C517.839 135.87 519.66 136.845 521.088 138.275C522.517 139.706 523.49 141.528 523.883 143.511C524.277 145.494 524.073 147.549 523.299 149.417C522.525 151.284 521.214 152.881 519.533 154.003C517.852 155.126 515.875 155.726 513.853 155.726C512.51 155.726 511.179 155.461 509.937 154.946C508.696 154.431 507.568 153.677 506.618 152.726C505.669 151.775 504.916 150.646 504.403 149.404C503.89 148.162 503.626 146.831 503.628 145.487Z" fill="#F5F5F5"/>
<path d="M501.146 124.487L503.682 126.594L508.11 122.098L506.071 119.549C507.241 117.763 508.064 115.774 508.499 113.685L511.774 113.376V107.029L508.499 106.72C508.064 104.631 507.241 102.641 506.071 100.856L508.11 98.3468L503.628 93.8649L501.092 95.9583C499.305 94.7914 497.317 93.9677 495.228 93.5295L494.92 90.2552H488.572L488.277 93.5295C486.189 93.9677 484.2 94.7914 482.413 95.9583L479.931 93.8649L475.435 98.3468L477.542 100.883C476.368 102.667 475.54 104.657 475.1 106.747L471.839 107.056V113.403L475.1 113.711C475.54 115.802 476.368 117.791 477.542 119.575L475.435 122.098L479.931 126.594L482.467 124.487C484.25 125.663 486.24 126.492 488.331 126.929L488.626 130.19H494.973L495.282 126.929C497.373 126.492 499.363 125.663 501.146 124.487ZM483.218 110.223C483.221 108.525 483.727 106.865 484.672 105.455C485.617 104.044 486.96 102.946 488.529 102.298C490.099 101.65 491.825 101.482 493.49 101.815C495.155 102.147 496.684 102.966 497.884 104.168C499.084 105.37 499.9 106.9 500.23 108.565C500.561 110.231 500.39 111.957 499.739 113.526C499.089 115.094 497.988 116.434 496.576 117.378C495.164 118.321 493.504 118.824 491.806 118.824C490.677 118.824 489.56 118.601 488.517 118.169C487.474 117.737 486.527 117.103 485.729 116.304C484.931 115.505 484.299 114.557 483.868 113.513C483.437 112.47 483.217 111.351 483.218 110.223Z" fill="#F5F5F5"/>
<path d="M590.14 361.075H500.032V419.675H590.14V361.075Z" fill="#F5F5F5"/>
<path d="M586.825 372.065H503.32V416.749H586.825V372.065Z" fill="#E0E0E0"/>
<path d="M571.903 378.734H510.123V380.653H571.903V378.734Z" fill="#F5F5F5"/>
<path d="M539.765 384.625H510.123V386.544H539.765V384.625Z" fill="#F5F5F5"/>
<path d="M547.454 390.516H510.123V392.434H547.454V390.516Z" fill="#F5F5F5"/>
<path d="M523.274 396.406H510.123V398.325H523.274V396.406Z" fill="#F5F5F5"/>
<path d="M518.644 402.284H510.123V404.203H518.644V402.284Z" fill="#F5F5F5"/>
<path d="M128.788 360.763L64.6733 361.054L64.8528 400.599L128.967 400.308L128.788 360.763Z" fill="#EBEBEB"/>
<path d="M89.281 390.61C88.9967 390.611 88.7195 390.521 88.4892 390.355L76.788 381.807C76.6171 381.682 76.4781 381.518 76.3824 381.329C76.2868 381.14 76.2372 380.932 76.2378 380.72C76.2378 380.512 76.2863 380.306 76.3795 380.12C76.4727 379.933 76.6079 379.771 76.7746 379.646L88.3953 370.991C88.68 370.778 89.0379 370.686 89.3902 370.736C89.7425 370.787 90.0604 370.975 90.274 371.26C90.4875 371.544 90.5792 371.902 90.5288 372.254C90.4785 372.607 90.2903 372.925 90.0056 373.138L79.8475 380.706L90.0726 388.181C90.2157 388.284 90.3369 388.415 90.4292 388.566C90.5215 388.717 90.5831 388.884 90.6105 389.059C90.6379 389.233 90.6307 389.411 90.589 389.583C90.5474 389.755 90.4722 389.917 90.3679 390.059C90.243 390.23 90.0794 390.369 89.8905 390.465C89.7016 390.56 89.4927 390.61 89.281 390.61Z" fill="#FAFAFA"/>
<path d="M104.458 390.609C104.248 390.608 104.042 390.557 103.856 390.462C103.669 390.366 103.508 390.228 103.384 390.059C103.171 389.775 103.079 389.417 103.129 389.064C103.18 388.712 103.368 388.394 103.653 388.181L113.811 380.626L103.585 373.165C103.297 372.955 103.104 372.639 103.049 372.287C102.993 371.934 103.08 371.575 103.29 371.286C103.5 370.998 103.816 370.805 104.168 370.75C104.521 370.694 104.881 370.781 105.169 370.991L116.87 379.539C117.039 379.663 117.177 379.824 117.273 380.01C117.368 380.197 117.419 380.403 117.42 380.612C117.422 380.823 117.375 381.031 117.282 381.22C117.188 381.409 117.052 381.573 116.884 381.699L105.263 390.355C105.029 390.524 104.746 390.613 104.458 390.609Z" fill="#FAFAFA"/>
<path d="M93.8165 390.609C93.6666 390.607 93.5176 390.584 93.3736 390.542C93.2068 390.484 93.0533 390.393 92.9218 390.275C92.7903 390.156 92.6834 390.013 92.6074 389.854C92.5313 389.694 92.4875 389.521 92.4785 389.344C92.4696 389.168 92.4956 388.991 92.5551 388.825L98.5802 371.595C98.7184 371.289 98.9663 371.046 99.275 370.914C99.5837 370.782 99.9307 370.77 100.248 370.881C100.564 370.993 100.828 371.218 100.986 371.515C101.145 371.811 101.186 372.155 101.103 372.481L95.0779 389.71C94.9863 389.972 94.8159 390.199 94.59 390.36C94.3641 390.521 94.0939 390.608 93.8165 390.609Z" fill="#FAFAFA"/>
<path d="M336 500C479.692 500 596.178 493.199 596.178 484.81C596.178 476.421 479.692 469.62 336 469.62C192.308 469.62 75.8218 476.421 75.8218 484.81C75.8218 493.199 192.308 500 336 500Z" fill="#F5F5F5"/>
<path d="M449.228 484.81H459.091L472.51 410.684H462.647L449.228 484.81Z" fill="#121212"/>
<path opacity="0.2" d="M449.228 484.81H459.091L472.51 410.684H462.647L449.228 484.81Z" fill="white"/>
<path opacity="0.2" d="M449.228 484.81H456.407L469.826 410.684H462.647L449.228 484.81Z" fill="white"/>
<path d="M421.451 432.731H460.903C461.48 432.728 462.033 432.496 462.441 432.086C462.848 431.676 463.077 431.122 463.077 430.544C463.073 429.969 462.843 429.418 462.436 429.011C462.029 428.604 461.478 428.374 460.903 428.37H421.451C420.876 428.374 420.325 428.604 419.918 429.011C419.511 429.418 419.281 429.969 419.277 430.544C419.277 431.122 419.506 431.676 419.913 432.086C420.321 432.496 420.873 432.728 421.451 432.731Z" fill="#121212"/>
<path d="M417.077 457.543H456.515C456.801 457.545 457.086 457.49 457.351 457.381C457.616 457.273 457.857 457.113 458.061 456.911C458.264 456.709 458.425 456.469 458.535 456.204C458.645 455.939 458.702 455.656 458.702 455.369C458.702 455.082 458.645 454.799 458.535 454.534C458.425 454.269 458.264 454.029 458.061 453.827C457.857 453.625 457.616 453.465 457.351 453.357C457.086 453.248 456.801 453.193 456.515 453.195H417.077C416.791 453.193 416.507 453.248 416.243 453.357C415.978 453.466 415.738 453.626 415.536 453.828C415.333 454.03 415.173 454.27 415.065 454.535C414.956 454.799 414.901 455.083 414.903 455.369C414.901 455.655 414.956 455.938 415.065 456.203C415.173 456.467 415.333 456.708 415.536 456.91C415.738 457.112 415.978 457.272 416.243 457.381C416.507 457.49 416.791 457.545 417.077 457.543Z" fill="#121212"/>
<path d="M408.972 484.81H418.835L432.253 410.684H422.391L408.972 484.81Z" fill="#121212"/>
<path opacity="0.2" d="M408.972 484.81H418.835L432.253 410.684H422.391L408.972 484.81Z" fill="white"/>
<path opacity="0.2" d="M408.972 484.81H416.151L429.57 410.684H422.391L408.972 484.81Z" fill="white"/>
<path d="M500.69 484.81H490.827L477.408 410.684H487.271L500.69 484.81Z" fill="#121212"/>
<path opacity="0.4" d="M500.69 484.81H490.827L477.408 410.684H487.271L500.69 484.81Z" fill="white"/>
<path opacity="0.2" d="M498.006 484.81H490.827L477.408 410.684H484.587L498.006 484.81Z" fill="white"/>
<path d="M483.352 432.731H443.914C443.628 432.731 443.344 432.675 443.079 432.565C442.815 432.455 442.575 432.293 442.372 432.09C442.17 431.887 442.011 431.645 441.902 431.38C441.794 431.115 441.739 430.831 441.741 430.544C441.741 429.968 441.97 429.415 442.377 429.007C442.785 428.599 443.338 428.37 443.914 428.37H483.352C483.93 428.37 484.484 428.599 484.894 429.006C485.304 429.413 485.536 429.966 485.54 430.544C485.54 431.124 485.309 431.681 484.899 432.091C484.489 432.501 483.933 432.731 483.352 432.731Z" fill="#121212"/>
<path d="M487.741 457.543H448.289C447.713 457.543 447.16 457.314 446.752 456.906C446.344 456.498 446.115 455.945 446.115 455.369C446.115 454.792 446.344 454.239 446.752 453.832C447.16 453.424 447.713 453.195 448.289 453.195H487.741C488.317 453.195 488.87 453.424 489.278 453.832C489.685 454.239 489.914 454.792 489.914 455.369C489.914 455.945 489.685 456.498 489.278 456.906C488.87 457.314 488.317 457.543 487.741 457.543Z" fill="#121212"/>
<path opacity="0.2" d="M483.352 432.731H443.914C443.628 432.731 443.344 432.675 443.079 432.565C442.815 432.455 442.575 432.293 442.372 432.09C442.17 431.887 442.011 431.645 441.902 431.38C441.794 431.115 441.739 430.831 441.741 430.544C441.741 429.968 441.97 429.415 442.377 429.007C442.785 428.599 443.338 428.37 443.914 428.37H483.352C483.93 428.37 484.484 428.599 484.894 429.006C485.304 429.413 485.536 429.966 485.54 430.544C485.54 431.124 485.309 431.681 484.899 432.091C484.489 432.501 483.933 432.731 483.352 432.731Z" fill="white"/>
<path opacity="0.2" d="M487.741 457.543H448.289C447.713 457.543 447.16 457.314 446.752 456.906C446.344 456.498 446.115 455.945 446.115 455.369C446.115 454.792 446.344 454.239 446.752 453.832C447.16 453.424 447.713 453.195 448.289 453.195H487.741C488.317 453.195 488.87 453.424 489.278 453.832C489.685 454.239 489.914 454.792 489.914 455.369C489.914 455.945 489.685 456.498 489.278 456.906C488.87 457.314 488.317 457.543 487.741 457.543Z" fill="white"/>
<path d="M460.433 484.81H450.57L437.151 410.684H447.014L460.433 484.81Z" fill="#121212"/>
<path opacity="0.4" d="M460.433 484.81H450.57L437.151 410.684H447.014L460.433 484.81Z" fill="white"/>
<path opacity="0.2" d="M457.749 484.81H450.57L437.151 410.684H444.33L457.749 484.81Z" fill="white"/>
<path d="M491.109 407.142H419.868C418.986 407.142 418.271 407.856 418.271 408.738V412.616C418.271 413.498 418.986 414.213 419.868 414.213H491.109C491.99 414.213 492.705 413.498 492.705 412.616V408.738C492.705 407.856 491.99 407.142 491.109 407.142Z" fill="#121212"/>
<path opacity="0.2" d="M446.947 407.142H419.868C418.986 407.142 418.271 407.856 418.271 408.738V412.616C418.271 413.498 418.986 414.213 419.868 414.213H446.947C447.829 414.213 448.544 413.498 448.544 412.616V408.738C448.544 407.856 447.829 407.142 446.947 407.142Z" fill="white"/>
<path d="M261.324 425.23H171.217V483.83H261.324V425.23Z" fill="#F16623"/>
<path opacity="0.6" d="M261.324 425.23H171.217V483.83H261.324V425.23Z" fill="white"/>
<path d="M258.037 436.22H174.518V480.905H258.037V436.22Z" fill="#F16623"/>
<path d="M243.101 442.903H181.321V444.822H243.101V442.903Z" fill="white"/>
<path d="M210.963 448.794H181.321V450.713H210.963V448.794Z" fill="white"/>
<path d="M218.652 454.671H181.321V456.59H218.652V454.671Z" fill="white"/>
<path d="M194.471 460.562H181.321V462.481H194.471V460.562Z" fill="white"/>
<path d="M189.842 466.453H181.321V468.372H189.842V466.453Z" fill="white"/>
<path d="M372.674 484.81H299.326L311.739 387.295H360.261L372.674 484.81Z" fill="#F16623"/>
<path opacity="0.6" d="M372.674 484.81H299.326L307.82 418.091L311.752 387.295H360.248L366.045 432.731L372.674 484.81Z" fill="white"/>
<path opacity="0.1" d="M366.045 432.731L307.82 418.091L311.752 387.295H360.248L366.045 432.731Z" fill="#121212"/>
<path d="M508.915 146.843H163.071C160.725 146.843 158.474 147.774 156.814 149.432C155.153 151.09 154.218 153.339 154.215 155.686V389.818C154.215 390.981 154.444 392.132 154.889 393.207C155.334 394.281 155.986 395.258 156.809 396.08C157.631 396.903 158.608 397.555 159.682 398C160.757 398.445 161.908 398.674 163.071 398.674H508.915C510.078 398.674 511.23 398.445 512.305 398C513.379 397.555 514.356 396.903 515.178 396.08C516 395.258 516.653 394.281 517.098 393.207C517.543 392.132 517.772 390.981 517.772 389.818V155.686C517.768 153.339 516.834 151.09 515.173 149.432C513.513 147.774 511.262 146.843 508.915 146.843Z" fill="#F16623"/>
<path opacity="0.7" d="M508.915 146.843H163.071C160.725 146.843 158.474 147.774 156.814 149.432C155.153 151.09 154.218 153.339 154.215 155.686V389.818C154.215 390.981 154.444 392.132 154.889 393.207C155.334 394.281 155.986 395.258 156.809 396.08C157.631 396.903 158.608 397.555 159.682 398C160.757 398.445 161.908 398.674 163.071 398.674H508.915C510.078 398.674 511.23 398.445 512.305 398C513.379 397.555 514.356 396.903 515.178 396.08C516 395.258 516.653 394.281 517.098 393.207C517.543 392.132 517.772 390.981 517.772 389.818V155.686C517.768 153.339 516.834 151.09 515.173 149.432C513.513 147.774 511.262 146.843 508.915 146.843Z" fill="white"/>
<path d="M506.138 155.511H165.876V381.283H506.138V155.511Z" fill="#F16623"/>
<path d="M397.593 477.483H274.394C273.623 477.483 272.999 478.108 272.999 478.879V483.294C272.999 484.064 273.623 484.689 274.394 484.689H397.593C398.363 484.689 398.988 484.064 398.988 483.294V478.879C398.988 478.108 398.363 477.483 397.593 477.483Z" fill="#F16623"/>
<path opacity="0.7" d="M397.593 477.483H274.394C273.623 477.483 272.999 478.108 272.999 478.879V483.294C272.999 484.064 273.623 484.689 274.394 484.689H397.593C398.363 484.689 398.988 484.064 398.988 483.294V478.879C398.988 478.108 398.363 477.483 397.593 477.483Z" fill="white"/>
<path opacity="0.2" d="M506.138 155.726H165.876V189.38H506.138V155.726Z" fill="#121212"/>
<path opacity="0.4" d="M311.685 189.769H165.876V381.27H311.685V189.769Z" fill="white"/>
<path d="M453.764 238.628V241.982H450.409" stroke="white" stroke-miterlimit="10"/>
<path d="M443.324 241.982H333.424" stroke="white" stroke-miterlimit="10" stroke-dasharray="5.28 5.28"/>
<path d="M329.881 241.982H326.526V238.628" stroke="white" stroke-miterlimit="10"/>
<path d="M326.526 232.549V174.807" stroke="white" stroke-miterlimit="10" stroke-dasharray="4.53 4.53"/>
<path d="M326.526 171.761V168.407H329.881" stroke="white" stroke-miterlimit="10"/>
<path d="M336.966 168.42H446.866" stroke="white" stroke-miterlimit="10" stroke-dasharray="5.28 5.28"/>
<path d="M450.409 168.407H453.764V171.761" stroke="white" stroke-miterlimit="10"/>
<path d="M453.764 177.84V235.581" stroke="white" stroke-miterlimit="10" stroke-dasharray="4.53 4.53"/>
<path d="M455.898 166.286H451.644V170.54H455.898V166.286Z" fill="#F16623" stroke="white" stroke-miterlimit="10"/>
<path d="M455.898 239.849H451.644V244.102H455.898V239.849Z" fill="#F16623" stroke="white" stroke-miterlimit="10"/>
<path d="M328.646 166.286H324.393V170.54H328.646V166.286Z" fill="#F16623" stroke="white" stroke-miterlimit="10"/>
<path d="M328.646 239.849H324.393V244.102H328.646V239.849Z" fill="#F16623" stroke="white" stroke-miterlimit="10"/>
<path d="M392.279 166.286H388.025V170.54H392.279V166.286Z" fill="#F16623" stroke="white" stroke-miterlimit="10"/>
<path d="M392.279 239.849H388.025V244.102H392.279V239.849Z" fill="#F16623" stroke="white" stroke-miterlimit="10"/>
<path d="M455.898 203.068H451.644V207.321H455.898V203.068Z" fill="#F16623" stroke="white" stroke-miterlimit="10"/>
<path d="M328.646 203.068H324.393V207.321H328.646V203.068Z" fill="#F16623" stroke="white" stroke-miterlimit="10"/>
<path opacity="0.7" d="M442.21 193.124H411.065C409.664 193.124 408.529 194.26 408.529 195.66V203.993C408.529 205.394 409.664 206.53 411.065 206.53H442.21C443.611 206.53 444.746 205.394 444.746 203.993V195.66C444.746 194.26 443.611 193.124 442.21 193.124Z" fill="white"/>
<path opacity="0.7" d="M388.535 193.124H357.39C355.989 193.124 354.854 194.26 354.854 195.66V203.993C354.854 205.394 355.989 206.53 357.39 206.53H388.535C389.936 206.53 391.071 205.394 391.071 203.993V195.66C391.071 194.26 389.936 193.124 388.535 193.124Z" fill="white"/>
<path opacity="0.7" d="M319.441 356.284H288.296C286.895 356.284 285.76 357.42 285.76 358.82V367.153C285.76 368.554 286.895 369.689 288.296 369.689H319.441C320.842 369.689 321.977 368.554 321.977 367.153V358.82C321.977 357.42 320.842 356.284 319.441 356.284Z" fill="white"/>
<path d="M483.675 167.695H495" stroke="white" stroke-width="1.5" stroke-linecap="round" stroke-linejoin="round"/>
<path d="M483.675 173.063H495" stroke="white" stroke-width="1.5" stroke-linecap="round" stroke-linejoin="round"/>
<path d="M483.675 178.431H495" stroke="white" stroke-width="1.5" stroke-linecap="round" stroke-linejoin="round"/>
<path opacity="0.5" d="M303.07 219.465H188.943V333.593H303.07V219.465Z" fill="white"/>
<path d="M236.714 228.792V327.232" stroke="#F16623" stroke-miterlimit="10"/>
<path d="M285.934 327.232C272.88 327.232 260.361 322.047 251.13 312.816C241.9 303.585 236.714 291.066 236.714 278.012C236.714 264.958 241.9 252.438 251.13 243.208C260.361 233.977 272.88 228.792 285.934 228.792" stroke="#F16623" stroke-miterlimit="10"/>
<path d="M288.068 226.671H283.814V230.925H288.068V226.671Z" fill="white" stroke="#F16623" stroke-miterlimit="10"/>
<path d="M288.068 325.112H283.814V329.366H288.068V325.112Z" fill="white" stroke="#F16623" stroke-miterlimit="10"/>
<path d="M238.848 275.892H234.594V280.145H238.848V275.892Z" fill="white" stroke="#F16623" stroke-miterlimit="10"/>
<path d="M237.814 228.791C237.817 229.013 237.754 229.23 237.632 229.415C237.511 229.6 237.337 229.745 237.133 229.831C236.929 229.917 236.704 229.94 236.487 229.898C236.269 229.855 236.07 229.749 235.913 229.592C235.757 229.436 235.65 229.236 235.608 229.019C235.565 228.802 235.588 228.576 235.674 228.372C235.76 228.168 235.905 227.995 236.09 227.873C236.275 227.752 236.493 227.688 236.714 227.691C237.006 227.691 237.286 227.807 237.492 228.013C237.698 228.22 237.814 228.5 237.814 228.791Z" fill="white" stroke="#F16623" stroke-miterlimit="10"/>
<path d="M237.814 327.232C237.817 327.454 237.754 327.671 237.632 327.856C237.511 328.041 237.337 328.186 237.133 328.272C236.929 328.358 236.704 328.381 236.487 328.339C236.269 328.296 236.07 328.19 235.913 328.033C235.757 327.877 235.65 327.677 235.608 327.46C235.565 327.242 235.588 327.017 235.674 326.813C235.76 326.609 235.905 326.435 236.09 326.314C236.275 326.193 236.493 326.129 236.714 326.132C237.006 326.132 237.286 326.248 237.492 326.454C237.698 326.661 237.814 326.94 237.814 327.232Z" fill="white" stroke="#F16623" stroke-miterlimit="10"/>
<path opacity="0.7" d="M425.799 357.894H391.259C389.948 357.894 388.649 357.636 387.438 357.134C386.227 356.633 385.126 355.897 384.199 354.97C383.272 354.043 382.537 352.943 382.035 351.731C381.533 350.52 381.275 349.222 381.275 347.911C381.279 345.264 382.332 342.727 384.203 340.855C386.075 338.984 388.612 337.931 391.259 337.927H425.799C428.446 337.931 430.983 338.984 432.855 340.855C434.726 342.727 435.779 345.264 435.783 347.911C435.783 350.559 434.731 353.098 432.858 354.97C430.986 356.843 428.447 357.894 425.799 357.894Z" fill="white"/>
<path opacity="0.7" d="M456.166 272.752H349.432C349.146 272.753 348.862 272.699 348.596 272.59C348.331 272.482 348.09 272.322 347.887 272.12C347.683 271.918 347.522 271.677 347.412 271.413C347.302 271.148 347.245 270.864 347.245 270.578C347.245 269.998 347.476 269.441 347.886 269.031C348.296 268.621 348.852 268.391 349.432 268.391H456.166C456.744 268.394 457.297 268.626 457.704 269.036C458.111 269.446 458.34 270 458.34 270.578C458.34 271.154 458.111 271.707 457.703 272.115C457.295 272.523 456.743 272.752 456.166 272.752Z" fill="white"/>
<path opacity="0.7" d="M456.166 288.693H349.432C348.852 288.693 348.296 288.463 347.886 288.053C347.476 287.642 347.245 287.086 347.245 286.506C347.249 285.928 347.481 285.375 347.891 284.968C348.3 284.561 348.855 284.332 349.432 284.332H456.166C456.741 284.336 457.292 284.566 457.699 284.973C458.106 285.38 458.336 285.931 458.34 286.506C458.34 287.084 458.111 287.638 457.704 288.048C457.297 288.458 456.744 288.69 456.166 288.693Z" fill="white"/>
<path opacity="0.7" d="M456.166 304.635H389.689C389.109 304.635 388.552 304.404 388.142 303.994C387.732 303.584 387.501 303.028 387.501 302.448C387.501 301.868 387.732 301.311 388.142 300.901C388.552 300.491 389.109 300.26 389.689 300.26H456.166C456.744 300.264 457.296 300.496 457.704 300.906C458.111 301.316 458.34 301.87 458.34 302.448C458.34 303.025 458.111 303.58 457.704 303.99C457.296 304.399 456.744 304.631 456.166 304.635Z" fill="white"/>
<path opacity="0.4" d="M184.166 165.052H176.624V172.593H184.166V165.052Z" fill="#121212"/>
<path opacity="0.4" d="M196.887 165.052H193.21C192.143 165.052 191.278 165.917 191.278 166.984V170.661C191.278 171.728 192.143 172.593 193.21 172.593H196.887C197.954 172.593 198.819 171.728 198.819 170.661V166.984C198.819 165.917 197.954 165.052 196.887 165.052Z" fill="#121212"/>
<path opacity="0.4" d="M210.037 165.052H209.393C207.488 165.052 205.944 166.596 205.944 168.501V169.145C205.944 171.049 207.488 172.593 209.393 172.593H210.037C211.942 172.593 213.486 171.049 213.486 169.145V168.501C213.486 166.596 211.942 165.052 210.037 165.052Z" fill="#121212"/>
<path opacity="0.9" d="M199.731 350.97V348.031L198.215 347.884C198.014 346.926 197.631 346.015 197.088 345.2L198.068 344.019L195.988 341.953L194.807 342.919C193.992 342.376 193.081 341.993 192.123 341.792L191.975 340.275H189.01L188.876 341.792C187.917 341.991 187.005 342.374 186.192 342.919L185.011 341.953L182.931 344.019L183.911 345.2C183.367 346.015 182.985 346.926 182.783 347.884L181.267 348.031V350.97L182.783 351.104C182.986 352.062 183.369 352.973 183.911 353.788L182.931 354.956L184.984 357.062L186.165 356.083C186.981 356.627 187.891 357.014 188.849 357.223L188.983 358.726H191.922L192.069 357.223C193.026 357.011 193.936 356.625 194.753 356.083L195.934 357.062L198.014 354.982L197.034 353.815C197.576 353 197.958 352.089 198.161 351.131L199.731 350.97ZM190.486 353.479C189.69 353.479 188.911 353.243 188.249 352.801C187.587 352.359 187.071 351.73 186.767 350.994C186.462 350.259 186.382 349.449 186.538 348.668C186.693 347.888 187.076 347.17 187.639 346.607C188.202 346.044 188.92 345.661 189.7 345.506C190.481 345.35 191.291 345.43 192.026 345.735C192.762 346.039 193.391 346.555 193.833 347.217C194.275 347.879 194.511 348.658 194.511 349.454C194.511 349.982 194.407 350.506 194.205 350.994C194.003 351.483 193.706 351.927 193.332 352.3C192.959 352.674 192.515 352.971 192.026 353.173C191.538 353.375 191.014 353.479 190.486 353.479Z" fill="white"/>
<path opacity="0.6" d="M211.647 359.263V356.955L210.453 356.848C210.293 356.088 209.993 355.364 209.567 354.714L210.332 353.802L208.709 352.178L207.783 352.929C207.138 352.504 206.418 352.204 205.663 352.044L205.542 350.863H203.247L203.126 352.044C202.371 352.204 201.651 352.504 201.006 352.929L200.08 352.178L198.457 353.802L199.222 354.714C198.796 355.364 198.496 356.088 198.336 356.848L197.155 356.955V359.263L198.336 359.37C198.496 360.13 198.796 360.854 199.222 361.504L198.457 362.416L200.08 364.054L201.006 363.289C201.651 363.714 202.371 364.014 203.126 364.174L203.247 365.355H205.542L205.663 364.174C206.418 364.014 207.138 363.714 207.783 363.289L208.709 364.054L210.332 362.416L209.567 361.504C209.993 360.854 210.293 360.13 210.453 359.37L211.647 359.263ZM204.401 361.222C203.785 361.222 203.184 361.04 202.672 360.698C202.16 360.355 201.761 359.869 201.525 359.3C201.289 358.732 201.228 358.106 201.348 357.502C201.468 356.898 201.764 356.343 202.2 355.908C202.635 355.472 203.19 355.176 203.794 355.056C204.398 354.936 205.024 354.997 205.593 355.233C206.161 355.468 206.648 355.867 206.99 356.379C207.332 356.891 207.514 357.493 207.514 358.109C207.514 358.518 207.434 358.923 207.277 359.3C207.121 359.678 206.892 360.021 206.603 360.31C206.313 360.599 205.97 360.829 205.593 360.985C205.215 361.142 204.81 361.222 204.401 361.222Z" fill="white"/>
<path opacity="0.4" d="M199.732 365.798V363.866L198.739 363.772C198.607 363.134 198.351 362.527 197.987 361.987L198.631 361.209L197.289 359.867L196.524 360.511C195.98 360.156 195.375 359.906 194.74 359.773L194.646 358.767H192.7L192.606 359.773C191.971 359.906 191.365 360.156 190.821 360.511L190.056 359.867L188.715 361.209L189.345 361.987C188.991 362.531 188.74 363.136 188.607 363.772L187.614 363.866V365.798L188.607 365.892C188.74 366.527 188.991 367.133 189.345 367.677L188.715 368.455L190.056 369.797L190.821 369.153C191.365 369.507 191.971 369.758 192.606 369.891L192.7 370.884H194.646L194.74 369.891C195.375 369.758 195.98 369.507 196.524 369.153L197.289 369.797L198.631 368.455L197.987 367.677C198.351 367.136 198.607 366.53 198.739 365.892L199.732 365.798ZM193.639 367.449C193.106 367.448 192.584 367.289 192.142 366.991C191.699 366.693 191.355 366.27 191.154 365.776C190.953 365.281 190.904 364.738 191.013 364.216C191.122 363.694 191.385 363.216 191.767 362.843C192.149 362.471 192.633 362.221 193.158 362.125C193.683 362.029 194.225 362.092 194.714 362.305C195.203 362.519 195.617 362.873 195.904 363.323C196.19 363.773 196.337 364.298 196.323 364.832C196.306 365.532 196.015 366.197 195.514 366.686C195.012 367.175 194.34 367.449 193.639 367.449Z" fill="white"/>
<path d="M452.986 167.655L458.675 182.872L468.189 173.345L452.986 167.655Z" fill="#F16623"/>
<path d="M462.131 174.691L460.005 176.817L464.721 181.532L466.847 179.407L462.131 174.691Z" fill="#F16623"/>
<path opacity="0.4" d="M468.189 173.345L452.986 167.655L458.675 182.872L462.379 179.169L464.727 181.53L466.847 179.41L464.499 177.048L468.189 173.345Z" fill="white"/>
<path d="M219.873 222.028L234.178 227.396L226.677 219.895C226.399 220.054 226.077 220.119 225.759 220.077C225.442 220.036 225.146 219.892 224.919 219.667C224.641 219.389 224.485 219.013 224.485 218.62C224.485 218.227 224.641 217.851 224.919 217.573C225.196 217.296 225.573 217.14 225.965 217.14C226.358 217.14 226.734 217.296 227.012 217.573C227.239 217.8 227.385 218.095 227.426 218.413C227.467 218.731 227.402 219.054 227.24 219.331L234.741 226.846L229.374 212.528L224.637 213.575L224.449 211.857L223.55 210.971L218.263 216.164L219.149 217.063L220.866 217.251L219.873 222.028Z" fill="#121212"/>
<path opacity="0.2" d="M219.873 222.028L234.178 227.396L226.677 219.895C226.399 220.054 226.077 220.119 225.759 220.077C225.442 220.036 225.146 219.892 224.919 219.667C224.641 219.389 224.485 219.013 224.485 218.62C224.485 218.227 224.641 217.851 224.919 217.573C225.196 217.296 225.573 217.14 225.965 217.14C226.358 217.14 226.734 217.296 227.012 217.573C227.239 217.8 227.385 218.095 227.426 218.413C227.467 218.731 227.402 219.054 227.24 219.331L234.741 226.846L229.374 212.528L224.637 213.575L224.449 211.857L223.55 210.971L218.263 216.164L219.149 217.063L220.866 217.251L219.873 222.028Z" fill="white"/>
<g opacity="0.1">
<path d="M215.633 155.511L165.205 343.939V155.511H215.633Z" fill="white"/>
<path d="M272.542 155.511L212.117 381.283H170.492L230.904 155.511H272.542Z" fill="white"/>
<path d="M333.061 155.511L272.636 381.283H253.81L314.235 155.511H333.061Z" fill="white"/>
<path d="M388.79 155.511L328.365 381.283H321.628L382.054 155.511H388.79Z" fill="white"/>
</g>
<path d="M593.508 205.309C598.271 210.81 622.506 257.494 617.809 268.377C613.113 279.26 574.305 266.713 574.305 266.713L576.627 251.335C576.627 251.335 591.71 251.859 593.159 250.436C594.608 249.014 572.735 227.181 572.735 227.181L593.508 205.309Z" fill="#121212"/>
<g opacity="0.2">
<path d="M617.823 268.404C617.247 269.665 616.245 270.682 614.992 271.276L614.213 271.624H614.106C613.866 271.725 613.619 271.811 613.368 271.879C612.277 272.229 611.153 272.463 610.013 272.577L609.034 272.671C608.551 272.671 608.067 272.671 607.571 272.752H606.229C593.213 272.752 574.279 266.646 574.279 266.646L576.6 251.255C576.6 251.255 591.683 251.791 593.132 250.356C593.481 250.007 592.448 248.45 590.69 246.33C586.423 241.083 577.875 232.347 574.346 228.778L572.749 227.168L593.508 205.295C598.272 210.797 622.506 257.494 617.823 268.404Z" fill="white"/>
</g>
<path opacity="0.2" d="M614.991 271.276L614.213 271.624H614.106C613.866 271.726 613.619 271.811 613.368 271.879C612.277 272.229 611.153 272.463 610.013 272.577L609.033 272.671C608.55 272.671 608.067 272.671 607.571 272.752H606.229C593.213 272.752 574.279 266.646 574.279 266.646L576.6 251.255C576.6 251.255 593.588 252.69 595.038 251.255C595.042 251.233 595.042 251.21 595.038 251.188C595.306 250.624 593.427 248.719 590.65 246.29C586.382 241.043 577.835 232.307 574.305 228.738L584.128 218.244L591.602 217.439C591.602 217.439 608.148 244.223 614.991 271.276Z" fill="#121212"/>
<path d="M544.542 203.779C541.859 205.738 540.517 208.502 541.59 209.951L612.496 307.721C613.556 309.17 616.588 308.781 619.285 306.822C621.983 304.863 623.311 302.112 622.238 300.649L551.332 202.893C550.272 201.404 547.226 201.833 544.542 203.779Z" fill="#121212"/>
<path opacity="0.7" d="M551.319 202.893L622.238 300.703C623.284 302.166 621.969 304.93 619.285 306.876C616.602 308.822 613.556 309.224 612.495 307.761L541.657 209.951C541.389 209.439 541.27 208.861 541.315 208.284C541.36 207.707 541.567 207.155 541.912 206.691C542.279 206.051 542.731 205.465 543.254 204.946C543.668 204.52 544.116 204.129 544.596 203.779C547.226 201.833 550.272 201.404 551.319 202.893Z" fill="white"/>
<path opacity="0.3" d="M622.238 300.703C623.284 302.166 621.969 304.93 619.285 306.876C616.602 308.822 613.556 309.224 612.495 307.762C611.918 306.956 613.381 305.749 614.227 303.991L541.845 206.744C542.212 206.105 542.663 205.518 543.187 205L614.119 302.716C614.536 302.293 614.984 301.902 615.461 301.549C618.145 299.603 621.177 299.2 622.238 300.703Z" fill="#121212"/>
<path d="M535.766 201.068C533.485 203.497 532.72 206.436 534.035 207.697L622.171 290.236C623.512 291.458 626.384 290.491 628.665 288.063C630.946 285.634 631.711 282.695 630.383 281.447L542.221 198.908C540.933 197.673 538.034 198.639 535.766 201.068Z" fill="#F16623"/>
<path opacity="0.7" d="M542.248 198.908L630.41 281.447C631.752 282.682 630.946 285.647 628.679 288.063C626.411 290.478 623.512 291.458 622.197 290.223L534.035 207.684C533.673 207.233 533.446 206.688 533.382 206.113C533.318 205.538 533.419 204.956 533.673 204.436C533.906 203.736 534.236 203.072 534.653 202.464C534.986 201.986 535.358 201.537 535.766 201.122C538.021 198.72 540.933 197.687 542.248 198.908Z" fill="white"/>
<path opacity="0.3" d="M630.41 281.447C631.752 282.682 630.946 285.647 628.679 288.063C626.411 290.478 623.512 291.458 622.197 290.223C621.473 289.552 622.68 288.076 623.177 286.197L533.673 204.45C533.906 203.75 534.236 203.086 534.653 202.477L622.828 285.03C623.154 284.53 623.522 284.059 623.928 283.621C626.196 281.192 629.095 280.226 630.41 281.447Z" fill="#121212"/>
<path d="M556.955 464.494L550.246 464.601C543.415 432.517 538.585 392.81 535.579 362.859C535.109 358.163 534.68 353.721 534.237 349.575C534.062 347.602 533.888 345.71 533.727 343.885C532.922 334.881 532.385 327.782 532.036 323.327C531.795 320.107 531.674 318.336 531.674 318.336H555.962L555.734 324.522L555.076 344.985L554.996 347.32L554.486 360.806L553.64 383.766C561.933 416.105 556.955 464.494 556.955 464.494Z" fill="#F28F6D"/>
<path d="M611.435 462.776L604.82 464.024C591.575 430.92 579.136 388.53 571.045 358.914C569.797 354.325 568.643 350.031 567.609 346.139C567.609 345.938 567.515 345.75 567.462 345.562C565.422 337.833 563.852 331.674 562.873 327.769L561.705 323.032L585.644 318.899L586.986 328.963L588.986 343.724L589.375 346.623L590.717 356.7L594.353 383.726C608.094 414.186 611.435 462.776 611.435 462.776Z" fill="#F28F6D"/>
<path opacity="0.2" d="M588.999 343.751L567.609 346.139C567.609 345.938 567.515 345.75 567.462 345.562C565.422 337.833 563.852 331.674 562.873 327.769L587.027 328.963L588.999 343.751Z" fill="#121212"/>
<path opacity="0.2" d="M555.788 324.522L555.076 344.985L554.996 347.32L534.331 349.615C534.156 347.642 533.982 345.75 533.821 343.925C533.016 334.921 532.479 327.823 532.13 323.368L555.788 324.522Z" fill="#121212"/>
<path d="M537.095 486.796C538.347 485.779 539.775 485.002 541.308 484.501C541.308 484.501 545.884 479.966 548.018 466.292L554.003 464.735C555.022 464.488 556.093 464.56 557.07 464.941C558.047 465.323 558.883 465.996 559.464 466.869C559.629 467.107 559.756 467.37 559.84 467.647C560.148 469.113 560.364 470.596 560.484 472.089C560.817 477.083 560.844 482.093 560.565 487.091H559.478L559.048 477.698C558.887 474.504 556.445 478.261 555.747 481.724C555.049 485.186 553.56 488.836 546.542 489.01C538.423 489.117 535.028 488.795 537.095 486.796Z" fill="#121212"/>
<path d="M559.732 466.976C560.122 463.769 560.256 458.214 560.256 458.214L546.944 459.69C546.944 459.69 548.555 466.01 547.226 470.76C553.922 469.002 559.732 466.976 559.732 466.976Z" fill="#121212"/>
<path d="M591.307 486.796C592.546 485.799 593.956 485.035 595.467 484.541C595.467 484.541 600.043 480.006 602.176 466.332L608.161 464.775C609.179 464.527 610.248 464.598 611.223 464.98C612.198 465.362 613.031 466.036 613.609 466.909C613.779 467.147 613.91 467.409 613.998 467.687C614.307 469.153 614.522 470.636 614.643 472.129C614.968 477.124 614.995 482.133 614.723 487.131H613.636L613.207 477.738C613.046 474.544 610.604 478.302 609.906 481.764C609.208 485.226 607.705 488.876 600.7 489.05C592.649 489.117 589.187 488.795 591.307 486.796Z" fill="#121212"/>
<path d="M613.891 466.976C614.28 463.769 614.415 458.214 614.415 458.214L601.103 459.69C601.103 459.69 602.713 466.01 601.385 470.76C608.081 469.002 613.891 466.976 613.891 466.976Z" fill="#121212"/>
<path d="M591.307 337.162L565.986 340.396L565.006 340.517L559.8 321.435L558.458 341.886L531.325 340.463C519.248 269.518 539.899 252.758 539.899 252.758L576.707 260.165C593.374 288.492 589.402 321.435 589.402 321.435L591.307 337.162Z" fill="#F16623"/>
<path d="M556.418 164.368C556.418 167.145 555.184 169.4 553.654 169.4C552.124 169.4 550.903 167.145 550.903 164.368C550.903 161.59 552.138 159.322 553.654 159.322C555.17 159.322 556.418 161.576 556.418 164.368Z" stroke="#121212" stroke-width="0.5" stroke-linecap="round" stroke-linejoin="round"/>
<path d="M574.614 181.275C574.52 181.363 574.417 181.44 574.305 181.503C572.771 182.675 571.02 183.533 569.153 184.026C563.785 185.274 560.001 184.536 557.586 182.067C554.191 178.377 553.345 171.842 553.815 163.965C553.903 160.82 554.488 157.709 555.546 154.746C555.546 154.746 555.546 154.639 555.546 154.612C555.585 154.498 555.63 154.386 555.68 154.277C556.342 152.607 557.413 151.13 558.794 149.981C560.174 148.833 561.821 148.049 563.584 147.701C565.118 147.367 566.683 147.191 568.254 147.178C583.632 147.004 586.409 172.473 574.614 181.275Z" fill="#F28F6D"/>
<path opacity="0.2" d="M574.305 181.49C572.758 182.594 571.006 183.379 569.152 183.798C563.785 185.046 560.001 184.12 557.585 181.624C560.836 182.433 564.263 182.155 567.341 180.832C568.477 180.411 569.693 180.252 570.898 180.365C572.104 180.479 573.269 180.864 574.305 181.49Z" fill="#121212"/>
<path d="M575.862 195.379C576.815 199.767 571.139 201.538 571.139 201.538C561.866 197.579 560.149 192.655 560.149 192.655C567.878 188.629 565.637 177.196 565.637 177.196L567.22 177.974L578.264 180.135C578.264 180.135 575.205 186.026 574.789 187.368C572.695 194.412 575.862 195.379 575.862 195.379Z" fill="#F28F6D"/>
<path d="M555.519 154.639C555.519 154.639 554.674 165.374 564.912 170.044C564.912 170.044 569.3 181.248 575.755 181.409C584.558 181.624 592.327 169.091 589.268 156.33C585.296 139.784 560.229 138.429 555.519 154.639Z" fill="#121212"/>
<path d="M559.719 166.957C559.719 165.267 561.061 162.449 563.745 162.824C566.429 163.2 567.945 169.896 561.303 171.386C560.296 171.6 559.706 170.46 559.719 166.957Z" fill="#F28F6D"/>
<path d="M574.306 143.179C574.306 143.179 564.013 140.576 558.324 144.709C551.681 149.54 549.172 154.532 556.982 162.288C556.982 162.288 574.252 156.692 579.995 157.886C583.393 158.557 586.728 159.513 589.965 160.744C591.106 149.338 580.049 140.844 574.306 143.179Z" fill="#121212"/>
<path d="M559.719 164.354C559.719 164.354 562.403 176.793 558.189 187.381C558.189 187.381 582.612 195.848 591.106 191.259C599.6 186.67 591.804 171.198 591.455 162.288C591.106 153.378 587.228 140.227 574.306 143.179C561.383 146.131 559.719 164.354 559.719 164.354Z" fill="#121212"/>
<path d="M550.93 163.562H561.249" stroke="#121212" stroke-width="0.5" stroke-linecap="round" stroke-linejoin="round"/>
<path opacity="0.2" d="M565.986 340.396L565.006 340.517L559.8 321.435C559.8 321.435 570.964 302.367 567.475 292.437C567.972 293.135 579.995 310.969 565.986 340.396Z" fill="#121212"/>
<path d="M545.079 194.412C545.079 194.412 557.357 190.038 575.862 195.379C594.367 200.719 595.051 208.61 595.051 208.61C595.051 208.61 583.323 235.192 581.484 265.277L533.244 263.479C533.244 263.479 527.5 221.009 545.079 194.412Z" fill="#121212"/>
<path opacity="0.2" d="M595.064 208.61C595.064 208.61 583.336 235.192 581.484 265.291L533.257 263.493C532.681 258.593 532.385 253.665 532.371 248.732C532.276 241.512 532.725 234.294 533.713 227.141C535.324 216.003 538.638 204.114 545.079 194.372C545.079 194.372 557.357 189.998 575.862 195.338C594.366 200.679 595.064 208.61 595.064 208.61Z" fill="white"/>
<path opacity="0.2" d="M544.408 229.006C544.408 229.006 542.409 241.244 532.331 248.786C532.236 241.565 532.685 234.348 533.673 227.195L544.408 229.006Z" fill="#121212"/>
<path d="M491.122 193.58L485.043 184.563C485.043 184.563 484.104 180.645 482.937 179.746C481.769 178.847 470.068 173.895 468.672 173.922C467.277 173.949 467.263 183.02 468.672 184.563C470.081 186.106 477.435 189.407 479.407 189.743C481.38 190.078 480.4 189.743 480.4 189.743L485.768 200.478L491.122 193.58Z" fill="#F28F6D"/>
<path d="M545.079 194.412C532.061 199.875 519.497 206.363 507.506 213.816L487.848 187.045C487.848 187.045 482.547 188.696 480.602 197.888C480.602 197.888 490.679 236.293 503.776 240.09C516.873 243.888 544.408 229.006 544.408 229.006C544.408 229.006 552.392 208.999 545.079 194.412Z" fill="#121212"/>
<path opacity="0.2" d="M545.079 194.412C532.061 199.875 519.497 206.363 507.506 213.816L487.848 187.045C487.848 187.045 482.547 188.696 480.602 197.888C480.602 197.888 490.679 236.293 503.776 240.09C516.873 243.888 544.408 229.006 544.408 229.006C544.408 229.006 552.392 208.999 545.079 194.412Z" fill="white"/>
<path d="M557.492 192.735C557.492 192.735 561.772 223.37 575.339 224.618C588.905 225.866 594.984 203.148 592.676 200.464C590.368 197.781 572.897 192.534 557.492 192.735Z" fill="#121212"/>
<path opacity="0.3" d="M557.492 192.735C557.492 192.735 561.772 223.37 575.339 224.618C588.905 225.866 594.984 203.148 592.676 200.464C590.368 197.781 572.897 192.534 557.492 192.735Z" fill="white"/>
<path d="M74.8154 474.638H84.7588L85.5774 451.625H75.634L74.8154 474.638Z" fill="#FE9E76"/>
<path d="M86.1276 473.484H74.0506C73.8543 473.49 73.6653 473.561 73.5127 473.684C73.36 473.808 73.252 473.978 73.2052 474.169L71.246 483.025C71.1665 483.404 71.2405 483.799 71.4518 484.124C71.6631 484.448 71.9945 484.676 72.3733 484.756H72.6953C76.6136 484.689 79.4047 484.447 84.3563 484.447C87.3755 484.447 96.4332 484.77 100.66 484.77C104.887 484.77 105.384 480.637 103.666 480.261C96.0172 478.597 90.2472 476.235 87.7915 474.088C87.334 473.682 86.7389 473.466 86.1276 473.484Z" fill="#121212"/>
<path d="M86.7582 474.866C86.7117 474.855 86.6698 474.83 86.6385 474.794C86.6072 474.758 86.5881 474.713 86.5838 474.665C86.573 474.621 86.5777 474.574 86.5973 474.532C86.6168 474.491 86.6499 474.457 86.6911 474.437C87.04 474.209 90.2605 472.236 91.3609 472.813C91.4821 472.875 91.5838 472.969 91.6548 473.085C91.7259 473.201 91.7634 473.335 91.7634 473.471C91.8001 473.706 91.7734 473.947 91.6862 474.169C91.5989 474.391 91.4542 474.585 91.2669 474.732C90.7055 475.107 90.0344 475.282 89.3615 475.229C88.4826 475.21 87.6089 475.088 86.7582 474.866ZM87.4426 474.544C88.5999 474.934 89.8623 474.867 90.9717 474.357C91.0913 474.253 91.1833 474.122 91.2395 473.975C91.2957 473.827 91.3144 473.668 91.2938 473.511C91.2938 473.323 91.1999 473.243 91.1462 473.243C91.0534 473.187 90.9449 473.164 90.8375 473.176C89.6463 473.414 88.5119 473.878 87.4962 474.544H87.4426Z" fill="#F16623"/>
<path d="M86.7581 474.92C86.7231 474.897 86.6947 474.865 86.6759 474.827C86.6571 474.789 86.6484 474.748 86.6508 474.705C86.6508 474.571 86.8923 471.713 87.9927 470.774C88.1309 470.657 88.2914 470.57 88.4643 470.517C88.6373 470.464 88.8192 470.446 88.9991 470.465C89.1758 470.467 89.3465 470.53 89.4831 470.642C89.6197 470.754 89.714 470.909 89.7505 471.082C89.9518 472.142 87.9659 474.33 86.946 474.88H86.8252C86.8059 474.898 86.7831 474.912 86.7581 474.92ZM88.355 471.056C87.6549 471.944 87.2429 473.026 87.1741 474.155C88.194 473.39 89.4687 471.74 89.3345 471.082C89.3345 471.082 89.3345 470.854 88.9991 470.854H88.8783C88.7756 470.861 88.6751 470.889 88.583 470.935C88.4909 470.981 88.4088 471.045 88.3416 471.123L88.355 471.056Z" fill="#F16623"/>
<path opacity="0.2" d="M75.634 451.638H85.5774L85.148 463.514H75.2046L75.634 451.638Z" fill="#121212"/>
<path d="M125.981 475.39L136.247 476.477L138.166 454.362L127.914 453.276L125.981 475.39Z" fill="#FE9E76"/>
<path d="M137.321 473.176H125.244C125.046 473.177 124.855 473.246 124.701 473.37C124.548 473.494 124.441 473.667 124.398 473.86L122.439 482.703C122.36 483.086 122.435 483.484 122.649 483.811C122.863 484.138 123.197 484.367 123.58 484.448H123.902C127.807 484.38 130.611 484.139 135.549 484.139C138.568 484.139 147.626 484.461 151.853 484.461C156.08 484.461 156.577 480.341 154.859 479.966C147.21 478.288 141.44 475.94 138.984 473.78C138.528 473.373 137.932 473.156 137.321 473.176Z" fill="#121212"/>
<path d="M138.005 474.558C137.959 474.545 137.918 474.519 137.887 474.483C137.856 474.448 137.836 474.404 137.83 474.357C137.82 474.312 137.824 474.265 137.844 474.224C137.863 474.182 137.897 474.149 137.938 474.128C138.3 473.9 141.507 471.928 142.607 472.491C142.731 472.551 142.834 472.644 142.906 472.761C142.977 472.877 143.013 473.012 143.01 473.149C143.047 473.384 143.02 473.625 142.933 473.847C142.846 474.069 142.701 474.263 142.514 474.41C141.956 474.795 141.283 474.975 140.608 474.92C139.73 474.894 138.857 474.773 138.005 474.558ZM138.689 474.222C139.845 474.616 141.107 474.554 142.218 474.048C142.336 473.943 142.427 473.812 142.483 473.665C142.539 473.517 142.559 473.359 142.54 473.203C142.54 473.015 142.446 472.921 142.393 472.921C142.292 472.895 142.185 472.895 142.084 472.921C140.881 473.137 139.729 473.579 138.689 474.222Z" fill="#F16623"/>
<path d="M137.938 474.598C137.903 474.575 137.874 474.543 137.856 474.505C137.837 474.467 137.828 474.425 137.83 474.383C137.83 474.249 138.072 471.391 139.172 470.452C139.309 470.333 139.47 470.245 139.643 470.195C139.817 470.144 140 470.131 140.179 470.157C140.356 470.156 140.528 470.218 140.665 470.33C140.802 470.443 140.896 470.6 140.93 470.774C141.131 471.82 139.146 474.008 138.126 474.571H138.018L137.938 474.598ZM139.535 470.734C138.834 471.627 138.422 472.713 138.354 473.847C139.387 473.068 140.648 471.418 140.514 470.774C140.514 470.707 140.514 470.532 140.179 470.532H140.058C139.865 470.532 139.678 470.604 139.535 470.734Z" fill="#F16623"/>
<path opacity="0.2" d="M127.914 453.276L138.166 454.362L137.159 465.769L126.907 464.682L127.914 453.276Z" fill="#121212"/>
<path d="M79.7267 249.711H132.463C137.481 277.086 153.182 373.997 141.856 460.388L124.009 458.173C124.009 458.173 125.659 343.55 109.892 301.173C108.081 323.851 105.934 347.978 104.055 360.82C99.4659 392.421 89.6433 461.461 89.6433 461.461H71.5278C71.5278 461.461 75.2448 395.36 76.9625 364.295C78.8411 330.56 79.6462 256.649 79.7267 249.711Z" fill="#121212"/>
<path d="M143.963 464.507L121.862 461.22L122.546 455.101L145.533 458.12L143.963 464.507Z" fill="#F16623"/>
<path d="M91.8977 461.595H70.4543V455.194L92.7028 454.778L91.8977 461.595Z" fill="#F16623"/>
<path opacity="0.2" d="M109.959 301.146C112.551 308.574 114.521 316.204 115.85 323.958C117.313 303.83 111.422 282.36 111.422 282.36L109.959 301.146Z" fill="#121212"/>
<path d="M78.2373 258.903L77.0295 265.264C77.0295 265.264 113.931 270.041 136.891 269.907L136.099 265.532L78.2373 258.903Z" fill="#F16623"/>
<path d="M153.141 203.698C153.141 203.698 165.916 243.955 174.612 246.639C183.307 249.322 205.475 216.057 205.475 216.057C205.475 216.057 225.375 215.856 226.261 214.5C227.146 213.145 221.095 199.136 219.632 199.109C218.169 199.082 200.845 205.631 200.188 206.717C199.53 207.804 179.644 226.846 178.718 226.282C177.792 225.719 170.237 201.806 170.237 201.806L153.141 203.698Z" fill="#FE9E76"/>
<path d="M208.105 213.897L208.588 213.762C208.503 213.721 208.422 213.672 208.347 213.615C208.281 213.721 208.2 213.816 208.105 213.897Z" fill="#FE9E76"/>
<path d="M145.895 199.055L147.452 201.927L154.725 215.346L156.228 218.11L176.664 211.038C176.664 211.038 168.197 179.397 165.258 176.149L145.895 199.055Z" fill="#F16623"/>
<path opacity="0.4" d="M145.895 199.055L147.452 201.927L154.725 215.346L156.228 218.11L176.664 211.038C176.664 211.038 168.197 179.397 165.258 176.149L145.895 199.055Z" fill="white"/>
<path opacity="0.2" d="M147.452 201.927L154.725 215.346C159.207 206.516 157.905 194.453 157.905 194.453L147.452 201.927Z" fill="#121212"/>
<path d="M165.205 176.163C161.365 171.728 156.662 168.121 151.384 165.56C146.106 163 140.363 161.539 134.503 161.268C114.522 160.328 108.255 162.314 100.955 168.836C90.3008 178.35 77.043 260.406 77.043 260.406C96.5127 265.828 116.738 268.03 136.918 266.928C136.918 266.928 137.159 244.116 144.365 228.792C152.467 211.728 159.429 194.147 165.205 176.163Z" fill="#F16623"/>
<path opacity="0.4" d="M77.0295 260.447C96.499 265.869 116.724 268.072 136.904 266.968C136.904 266.968 136.905 264.164 137.28 259.843C137.441 257.816 137.683 255.428 138.032 252.851C138.381 250.275 138.837 247.323 139.374 244.411C139.696 242.841 140.058 241.258 140.461 239.674C141.403 235.953 142.678 232.324 144.271 228.832C145.166 226.944 146.025 225.083 146.848 223.249C148.297 220.069 149.652 216.969 150.874 214.004C153.557 207.764 155.838 202.048 157.757 197.069C159.099 193.486 160.307 190.279 161.287 187.515C162.373 184.456 163.232 181.933 163.85 180.054C164.682 177.572 165.084 176.203 165.084 176.203C164.412 175.373 163.69 174.585 162.924 173.841C155.437 166.455 145.535 162.019 135.039 161.348C134.825 161.348 134.596 161.348 134.382 161.348C119.165 160.637 111.892 161.617 106.068 165.012C104.187 166.126 102.429 167.435 100.821 168.917C99.2637 170.582 98.0264 172.519 97.1713 174.633C94.6949 180.402 92.6583 186.35 91.079 192.426C90.7838 193.486 90.4887 194.587 90.2069 195.687C88.865 200.666 87.6036 205.966 86.3959 211.334C86.047 212.85 85.6981 214.38 85.376 215.909C84.8661 218.231 84.3831 220.566 83.9 222.847C82.7057 228.644 81.6054 234.253 80.6526 239.285C79.3108 246.545 78.2238 252.61 77.5931 256.367C77.2711 258.917 77.0295 260.447 77.0295 260.447ZM135.67 162.086C137.012 162.086 138.448 162.247 139.696 162.408C145.063 163.133 153.316 167.427 153.114 169.48C152.913 171.533 149.76 176.726 141.749 175.465C138.951 174.946 136.297 173.835 133.966 172.204C129.524 169.279 126.304 165.32 125.995 164.032C125.566 162.489 130.772 161.898 135.67 162.046V162.086Z" fill="white"/>
<path d="M118.44 189.327C118.44 189.327 107.826 214.93 105.706 236.158L134.288 239.808C134.288 239.808 147.143 205.282 149.827 194.466C149.827 194.466 126.934 192.171 118.44 189.327Z" fill="#F16623"/>
<path opacity="0.4" d="M144.204 195.459L148.176 195.862L145.264 198.116L144.204 195.459Z" fill="white"/>
<path d="M128.625 164.032C130.785 170.205 138.823 173.023 143.05 173.425C144.602 173.668 146.19 173.394 147.57 172.644C148.95 171.895 150.045 170.712 150.686 169.279C150.686 169.279 145.882 166.89 146.351 164.18C146.709 162.536 147.384 160.977 148.337 159.59C148.847 158.806 149.398 158.049 149.988 157.323L142.272 140.791C140.541 147.97 135.267 161.724 128.625 164.032Z" fill="#FE9E76"/>
<path opacity="0.2" d="M141.963 148.439C138.273 156.491 143.48 162.019 146.351 164.139C146.709 162.495 147.384 160.937 148.337 159.55L141.963 148.439Z" fill="#121212"/>
<path d="M167.835 126.942C167.835 126.942 170.304 140.576 163.192 146.051C156.08 151.526 155.355 126.043 155.355 126.043L167.835 126.942Z" fill="#FE9E76"/>
<path opacity="0.4" d="M167.835 126.942C167.835 126.942 170.304 140.576 163.192 146.051C156.08 151.526 155.355 126.043 155.355 126.043L167.835 126.942Z" fill="#121212"/>
<path d="M142.406 157.524C143.992 159.735 146.259 161.364 148.86 162.161C151.461 162.959 154.252 162.881 156.805 161.939C160.138 160.768 162.899 158.368 164.521 155.229C164.75 154.794 164.956 154.346 165.138 153.887C168.479 145.434 169.23 124.755 160.2 125.533C152.806 126.164 145.546 123.869 141.776 130.27C140.695 132.091 140.06 134.142 139.924 136.255C139.092 146.118 138.166 151.848 142.406 157.524Z" fill="#FE9E76"/>
<path d="M154.322 141.14C154.161 141.918 154.537 142.629 155.06 142.696C155.584 142.763 156.093 142.186 156.201 141.354C156.308 140.522 155.986 139.865 155.463 139.784C154.939 139.704 154.443 140.334 154.322 141.14Z" fill="#121212"/>
<path d="M163.246 142.361C163.071 143.139 163.46 143.864 163.984 143.931C164.507 143.998 165.004 143.421 165.124 142.589C165.245 141.757 164.896 141.086 164.386 141.019C163.876 140.952 163.407 141.649 163.246 142.361Z" fill="#121212"/>
<path d="M160.387 142.361C160.99 144.922 161.943 147.387 163.219 149.687C162.618 150 161.956 150.177 161.279 150.207C160.602 150.237 159.927 150.119 159.301 149.862L160.387 142.361Z" fill="#A24E3F"/>
<path d="M151.947 137.838C152.031 137.86 152.12 137.86 152.204 137.839C152.288 137.818 152.366 137.776 152.43 137.718C152.84 137.292 153.343 136.967 153.899 136.769C154.456 136.571 155.051 136.506 155.637 136.577C155.751 136.586 155.864 136.552 155.955 136.484C156.047 136.415 156.11 136.315 156.133 136.203C156.156 136.092 156.137 135.975 156.08 135.876C156.024 135.777 155.933 135.702 155.825 135.665C155.096 135.554 154.351 135.619 153.651 135.852C152.951 136.085 152.317 136.481 151.8 137.006C151.713 137.094 151.665 137.212 151.665 137.335C151.665 137.458 151.713 137.576 151.8 137.664C151.836 137.732 151.887 137.791 151.947 137.838Z" fill="#121212"/>
<path d="M167.58 139.865C167.672 139.891 167.77 139.891 167.862 139.865C167.979 139.825 168.077 139.741 168.134 139.631C168.192 139.521 168.205 139.394 168.171 139.274C167.957 138.555 167.574 137.898 167.053 137.359C166.532 136.819 165.889 136.413 165.178 136.175C165.119 136.159 165.057 136.155 164.997 136.163C164.936 136.171 164.878 136.192 164.825 136.223C164.773 136.254 164.727 136.296 164.691 136.345C164.654 136.394 164.629 136.45 164.615 136.51C164.592 136.63 164.613 136.755 164.675 136.861C164.736 136.967 164.834 137.047 164.95 137.087C165.518 137.298 166.027 137.644 166.431 138.095C166.836 138.546 167.124 139.089 167.271 139.677C167.346 139.777 167.457 139.844 167.58 139.865Z" fill="#121212"/>
<path d="M153.074 150.237C153.074 150.237 154.725 153.793 158.08 153.659" stroke="#121212" stroke-width="0.5" stroke-linecap="round" stroke-linejoin="round"/>
<path d="M148.794 125.171L148.914 129.532C148.151 129.813 147.522 130.37 147.151 131.094C146.781 131.817 146.696 132.654 146.915 133.437C147.975 137.208 145.385 142.642 142.393 144.628C142.393 144.628 142.393 143.058 141.051 143.287C139.709 143.515 139.28 151.767 141.507 155.927C141.507 155.927 136.757 151.553 135.348 142.75C134.006 134.591 134.274 129.425 135.429 125.533L148.794 125.171Z" fill="#FE9E76"/>
<path opacity="0.4" d="M148.794 125.171L148.914 129.532C148.151 129.813 147.522 130.37 147.151 131.094C146.781 131.817 146.696 132.654 146.915 133.437C147.975 137.208 145.385 142.642 142.393 144.628C142.393 144.628 142.393 143.058 141.051 143.287C139.709 143.515 139.28 151.767 141.507 155.927C141.507 155.927 136.757 151.553 135.348 142.75C134.006 134.591 134.274 129.425 135.429 125.533L148.794 125.171Z" fill="#121212"/>
<path d="M134.596 130.418C139.386 130.885 144.219 130.586 148.914 129.532C162.441 126.848 168.184 131.827 168.184 131.827C169.121 130.986 169.859 129.949 170.346 128.789C170.834 127.628 171.058 126.375 171.002 125.117C170.599 121.226 165.205 120.555 165.205 120.555C165.205 120.555 163.568 116.18 159.985 114.852C156.402 113.524 152.806 116.838 152.806 116.838C152.806 116.838 148.337 112.531 143.131 113.752C141.378 114.111 139.802 115.062 138.666 116.444C137.53 117.827 136.904 119.557 136.891 121.347C136.891 121.347 130.785 121.977 130.92 125.117C131.054 128.257 134.596 130.418 134.596 130.418Z" fill="#121212"/>
<path d="M155.369 146.843C157.792 146.843 159.757 144.578 159.757 141.784C159.757 138.99 157.792 136.725 155.369 136.725C152.946 136.725 150.981 138.99 150.981 141.784C150.981 144.578 152.946 146.843 155.369 146.843Z" stroke="#121212" stroke-width="0.5" stroke-linecap="round" stroke-linejoin="round"/>
<path d="M170.774 142.535C170.655 143.376 170.297 144.165 169.743 144.809C169.188 145.452 168.461 145.922 167.646 146.164C166.832 146.405 165.965 146.407 165.15 146.169C164.335 145.932 163.605 145.465 163.047 144.824C162.49 144.183 162.129 143.395 162.006 142.555C161.884 141.714 162.006 140.856 162.358 140.083C162.71 139.31 163.277 138.655 163.991 138.195C164.705 137.735 165.536 137.49 166.386 137.49C167.633 137.586 168.793 138.169 169.614 139.113C170.435 140.057 170.851 141.286 170.774 142.535Z" stroke="#121212" stroke-width="0.5" stroke-linecap="round" stroke-linejoin="round"/>
<path d="M159.743 142.361C159.743 142.361 161.152 141.475 162.011 142.508" stroke="#121212" stroke-width="0.5" stroke-linecap="round" stroke-linejoin="round"/>
<path d="M150.981 141.784L143.278 140.764C142.781 140.695 142.276 140.728 141.791 140.859C141.307 140.991 140.855 141.218 140.46 141.529L140.125 141.784" stroke="#121212" stroke-width="0.5" stroke-linecap="round" stroke-linejoin="round"/>
<path d="M134.529 143.703C135.3 146.055 136.969 148.008 139.172 149.137C142.111 150.613 144.204 148.131 143.923 145.031C143.641 142.28 141.816 138.107 138.555 137.959C137.858 137.932 137.165 138.081 136.54 138.391C135.915 138.701 135.378 139.163 134.978 139.734C134.577 140.305 134.326 140.968 134.248 141.661C134.17 142.354 134.266 143.056 134.529 143.703Z" fill="#FE9E76"/>
<path opacity="0.2" d="M85.4968 215.829C98.1508 210.569 108.161 188.844 108.161 188.844L100.969 184.482L91.1998 192.346C90.9046 193.406 90.6094 194.506 90.3276 195.607C88.9857 200.585 87.7244 205.885 86.5167 211.253C86.1678 212.769 85.8189 214.299 85.4968 215.829Z" fill="#121212"/>
<path d="M155.261 218.137L177.107 210.099L177.738 211.964L155.879 219.747L155.261 218.137Z" fill="#F16623"/>
<path d="M98.6509 273.323L35.3267 263.283L29.1336 302.34L92.4578 312.381L98.6509 273.323Z" fill="#F16623"/>
<path d="M57.7332 278.186L44.8645 284.856L55.036 295.175" stroke="white" stroke-width="2" stroke-linecap="round" stroke-linejoin="round"/>
<path d="M70.0249 297.55L82.8802 290.881L72.7221 280.561" stroke="white" stroke-width="2" stroke-linecap="round" stroke-linejoin="round"/>
<path d="M59.5181 295.886L68.2403 279.85" stroke="white" stroke-width="2" stroke-linecap="round" stroke-linejoin="round"/>
<path d="M93.387 172.325C93.387 172.325 69.5283 196.278 66.2675 200.947C63.0067 205.617 56.7804 257.213 56.7804 257.213C56.7804 257.213 55.4385 257.669 55.358 258.783C55.2774 259.896 55.1567 274.402 55.358 275.073C55.5592 275.744 66.5628 282.521 68.173 280.91C69.7833 279.3 71.9974 262.875 71.9974 262.875L66.2138 257.213C66.2138 257.213 72.9232 219.197 77.1636 213.051C81.404 206.905 98.8351 193.715 98.8351 193.715L93.387 172.325Z" fill="#FE9E76"/>
<path d="M111.731 162.677C115.22 170.044 112.563 185.556 106.162 191.031C99.3736 196.657 92.1993 201.8 84.6918 206.422L72.9636 191.098C72.9636 191.098 85.4164 178.94 92.9578 171.936C98.0936 166.963 104.659 163.725 111.731 162.677Z" fill="#F16623"/>
<path opacity="0.4" d="M111.731 162.677C115.22 170.044 112.563 185.556 106.162 191.031C99.3736 196.657 92.1993 201.8 84.6918 206.422L72.9636 191.098C72.9636 191.098 85.4164 178.94 92.9578 171.936C98.0936 166.963 104.659 163.725 111.731 162.677Z" fill="white"/>
<path d="M72.9905 190.105L71.5413 192.091L83.7658 208.073L85.4969 206.825L72.9905 190.105Z" fill="#F16623"/>
</g>
<defs>
<clipPath id="clip0_1_149">
<rect width="670.943" height="500" fill="white" transform="translate(0.528564)"/>
</clipPath>
</defs>
</svg>
