<svg width="110" height="110" viewBox="0 0 110 110" fill="none" xmlns="http://www.w3.org/2000/svg">
<circle cx="55" cy="55" r="55" fill="#F16623" fill-opacity="0.11"/>
<path d="M63.6394 85.2412H46.3594C45.8934 85.2412 45.5156 84.8634 45.5156 84.3975C45.5156 83.9315 45.8934 83.5537 46.3594 83.5537H63.6394C64.1053 83.5537 64.4831 83.9315 64.4831 84.3975C64.4831 84.8634 64.1053 85.2412 63.6394 85.2412Z" fill="#F16623"/>
<path d="M81.1562 70.7456H28.8438C28.3778 70.7456 28 70.3678 28 69.9019V40.2187C28 39.1003 28.4445 38.027 29.2356 37.236C30.027 36.4446 31.0998 36 32.2188 36H77.7812C78.9002 36 79.973 36.4445 80.7644 37.236C81.5554 38.027 82 39.1003 82 40.2187V69.9019C82 70.1256 81.911 70.3402 81.7528 70.4984C81.5946 70.6566 81.3799 70.7456 81.1562 70.7456ZM29.6875 69.0581H80.3125V40.2187C80.3125 39.5476 80.046 38.9037 79.5709 38.4291C79.0963 37.9544 78.4524 37.6875 77.7812 37.6875H32.2187C31.5476 37.6875 30.9036 37.9544 30.429 38.4291C29.954 38.9037 29.6875 39.5475 29.6875 40.2187L29.6875 69.0581Z" fill="#F16623"/>
<path d="M77.7812 78.0695H32.2188C31.0998 78.0695 30.027 77.6249 29.2356 76.8335C28.4446 76.0425 28 74.9692 28 73.8507V69.9019C28 69.4359 28.3778 69.0581 28.8438 69.0581H81.1562C81.38 69.0581 81.5946 69.1471 81.7528 69.3053C81.911 69.4635 82 69.6782 82 69.9019V73.8677C81.9955 74.9833 81.5493 76.0521 80.7583 76.8398C79.9677 77.6271 78.8973 78.0696 77.7812 78.0696V78.0695ZM29.6875 70.7456V73.8677C29.6875 74.5388 29.9541 75.1828 30.4291 75.6574C30.9037 76.132 31.5476 76.399 32.2188 76.399H77.7813C78.4524 76.399 79.0964 76.132 79.571 75.6574C80.046 75.1828 80.3125 74.5389 80.3125 73.8677V70.7456H29.6875Z" fill="#F16623"/>
<path d="M60.9062 85.2412H49.0938C48.6278 85.2412 48.25 84.8634 48.25 84.3975V77.2256C48.25 76.7596 48.6278 76.3818 49.0938 76.3818H60.9062C61.13 76.3818 61.3446 76.4704 61.5028 76.6286C61.661 76.7872 61.75 77.0015 61.75 77.2256V84.3975C61.75 84.6212 61.661 84.8358 61.5028 84.994C61.3446 85.1522 61.1299 85.2412 60.9062 85.2412ZM49.9375 83.5537H60.0625V78.0693H49.9375V83.5537Z" fill="#F16623"/>
<path d="M54.9489 59.9624C53.6548 59.9624 52.4144 59.4478 51.4994 58.5327C50.5847 57.6177 50.0714 56.3764 50.0723 55.0823C50.0731 53.7886 50.5877 52.5478 51.5035 51.634C52.4193 50.7198 53.6606 50.2069 54.9547 50.2085C56.2484 50.2097 57.4888 50.7255 58.4026 51.6418C59.316 52.5581 59.8281 53.7998 59.826 55.0938C59.8235 56.3858 59.309 57.6238 58.3944 58.5368C57.4802 59.4494 56.2409 59.9624 54.9489 59.9624ZM54.9489 51.9043C54.1031 51.9043 53.2919 52.2405 52.6937 52.8387C52.0955 53.4365 51.7597 54.2477 51.7597 55.094C51.7597 55.9398 52.0955 56.751 52.6937 57.3492C53.2919 57.947 54.1031 58.2832 54.9489 58.2832C55.7948 58.2832 56.6059 57.947 57.2042 57.3492C57.8024 56.751 58.1386 55.9398 58.1386 55.094C58.1386 54.2478 57.8024 53.4365 57.2042 52.8387C56.606 52.2405 55.7948 51.9043 54.9489 51.9043Z" fill="#F16623"/>
<path d="M44.5116 53.9635C43.747 53.9615 43.0145 53.6558 42.4748 53.1136C41.9355 52.5714 41.6331 51.8372 41.6348 51.0726C41.636 50.3075 41.9413 49.5746 42.4826 49.0345C43.0244 48.4944 43.7582 48.1916 44.5233 48.1924C45.2879 48.1932 46.0212 48.4977 46.5618 49.0386C47.1023 49.5795 47.4059 50.3133 47.4059 51.0779C47.4059 51.8447 47.1006 52.58 46.5576 53.1214C46.0146 53.6628 45.2788 53.966 44.5117 53.9635L44.5116 53.9635ZM44.5116 49.8881C44.0271 49.8918 43.5925 50.1868 43.41 50.6359C43.2279 51.0845 43.3342 51.5991 43.679 51.9394C44.0243 52.2797 44.5401 52.3785 44.9866 52.1898C45.4328 52.0016 45.7216 51.5624 45.7183 51.0779C45.7183 50.7594 45.5906 50.4541 45.364 50.2308C45.137 50.0071 44.8301 49.8836 44.5116 49.8881Z" fill="#F16623"/>
<path d="M51.5661 47.8882C50.7998 47.8902 50.064 47.5878 49.521 47.0469C48.978 46.506 48.6727 45.7714 48.6719 45.0051C48.6711 44.2388 48.9751 43.5039 49.5173 42.9621C50.059 42.4203 50.794 42.1163 51.5603 42.1167C52.3266 42.1175 53.0611 42.4232 53.6021 42.9662C54.1426 43.5088 54.4454 44.2446 54.4429 45.0109C54.4429 45.7739 54.1401 46.5061 53.6004 47.0453C53.0607 47.585 52.329 47.8883 51.566 47.8883L51.5661 47.8882ZM51.5661 43.8128C51.0808 43.8095 50.6412 44.0991 50.4529 44.5465C50.265 44.9939 50.3652 45.5106 50.7075 45.855C51.0495 46.1994 51.5653 46.3036 52.014 46.1186C52.463 45.9336 52.7555 45.4961 52.7555 45.0108C52.7555 44.3524 52.2244 43.8173 51.5661 43.8128Z" fill="#F16623"/>
<path d="M65.488 63.3966C64.7217 63.3986 63.9859 63.0962 63.4429 62.5553C62.8999 62.0143 62.5946 61.2802 62.5938 60.5139C62.5929 59.7477 62.897 59.0123 63.4391 58.4705C63.9809 57.9287 64.7158 57.6247 65.4822 57.6255C66.2485 57.6259 66.983 57.9316 67.524 58.4746C68.0645 59.0176 68.3673 59.753 68.3648 60.5193C68.3628 61.2819 68.0587 62.0123 67.5198 62.5513C66.9805 63.0906 66.2501 63.3946 65.4879 63.3967L65.488 63.3966ZM65.488 59.3211C65.0027 59.3178 64.5631 59.6075 64.3748 60.0549C64.1869 60.5023 64.287 61.0189 64.6294 61.3633C64.9713 61.7078 65.4871 61.812 65.9358 61.627C66.3849 61.442 66.6774 61.0045 66.6774 60.5192C66.6799 60.2023 66.5555 59.8975 66.3322 59.6725C66.1089 59.4476 65.8048 59.3211 65.488 59.3211Z" fill="#F16623"/>
<path d="M65.2604 53.6261C64.4946 53.6286 63.7592 53.3262 63.2166 52.7861C62.6736 52.246 62.3679 51.5118 62.3662 50.7463C62.3646 49.9804 62.6678 49.2455 63.2083 48.7033C63.7493 48.1607 64.4834 47.8558 65.2489 47.855C66.0148 47.8542 66.7494 48.1578 67.2911 48.6991C67.8329 49.2405 68.1373 49.9747 68.1373 50.7405C68.1373 51.5043 67.8345 52.2369 67.2952 52.7777C66.7559 53.3187 66.0242 53.624 65.2604 53.6261ZM65.2604 49.5507C64.7743 49.5474 64.3343 49.8378 64.1465 50.2865C63.959 50.7352 64.0612 51.2522 64.4048 51.5962C64.7484 51.9398 65.2658 52.042 65.7145 51.8541C66.1627 51.6667 66.4536 51.2267 66.4499 50.7405C66.4499 50.4249 66.3247 50.1225 66.1018 49.8992C65.8785 49.6759 65.576 49.5507 65.2604 49.5507Z" fill="#F16623"/>
<path d="M45.82 64.6031C45.0541 64.6052 44.3188 64.3027 43.7761 63.7626C43.2331 63.2225 42.9274 62.4888 42.9258 61.7229C42.9245 60.957 43.2274 60.222 43.7679 59.6798C44.3088 59.1377 45.043 58.8324 45.8085 58.8315C46.5744 58.8307 47.3093 59.1348 47.8511 59.6757C48.3929 60.2171 48.6969 60.9517 48.6969 61.7171C48.6969 62.4809 48.3941 63.2138 47.8548 63.7547C47.3155 64.2956 46.5838 64.6006 45.82 64.6031ZM45.82 60.5277C45.3339 60.524 44.8939 60.8148 44.706 61.2631C44.5186 61.7117 44.6208 62.2292 44.9644 62.5728C45.308 62.9168 45.8254 63.0186 46.2741 62.8311C46.7223 62.6432 47.0132 62.2032 47.0095 61.7171C47.0095 61.0604 46.4772 60.5278 45.8201 60.5278L45.82 60.5277Z" fill="#F16623"/>
<path d="M53.675 52.1158C53.2968 52.1355 52.9516 51.9011 52.8313 51.5423L51.4137 47.2053C51.2687 46.7649 51.506 46.2903 51.9451 46.142C52.3856 45.9912 52.8651 46.2252 53.0167 46.6652L54.4682 51.0022C54.6194 51.4426 54.3849 51.9221 53.9449 52.0737C53.858 52.1034 53.7665 52.1178 53.675 52.1158Z" fill="#F16623"/>
<path d="M58.6534 54.3435C58.2616 54.3208 57.9369 54.0308 57.8706 53.6439C57.8043 53.257 58.0132 52.8755 58.3749 52.7235L63.1082 50.7661V50.7657C63.5396 50.5865 64.0344 50.7904 64.2135 51.2214C64.3931 51.6527 64.1888 52.1475 63.7579 52.3267L59.0159 54.2841V54.2845C58.9009 54.3302 58.777 54.3505 58.6534 54.3435Z" fill="#F16623"/>
<path d="M63.6743 60.4265C63.54 60.4237 63.4078 60.3924 63.2862 60.3339L58.1479 57.6844C57.733 57.4701 57.5707 56.9601 57.7849 56.5452C57.9996 56.1303 58.5096 55.968 58.9241 56.1827L64.0624 58.8321L64.0628 58.8317C64.4101 59.0097 64.5902 59.4032 64.4979 59.7822C64.4056 60.1616 64.0649 60.4282 63.6743 60.4265Z" fill="#F16623"/>
<path d="M47.4651 61.3633C47.1038 61.36 46.7845 61.126 46.672 60.7824C46.5591 60.4388 46.6782 60.0614 46.9674 59.8447L51.1862 56.7733C51.5635 56.4985 52.0925 56.5818 52.3673 56.9591C52.6425 57.3365 52.5593 57.8655 52.1819 58.1403L47.9632 61.203C47.8182 61.308 47.6439 61.3641 47.4651 61.3633Z" fill="#F16623"/>
<path d="M51.1866 54.5202C51.0799 54.5177 50.9744 54.4975 50.8743 54.4613L46.1072 52.5879C45.8975 52.5068 45.7286 52.3457 45.6384 52.1397C45.5482 51.9337 45.5436 51.7001 45.6264 51.4912C45.7088 51.2827 45.8712 51.1159 46.0767 51.0273C46.2827 50.9387 46.5151 50.9355 46.7232 51.0187L51.4902 52.8834C51.8783 53.0238 52.1078 53.4247 52.0324 53.8305C51.957 54.2363 51.5994 54.528 51.1866 54.5202Z" fill="#F16623"/>
</svg>
