<svg width="110" height="110" viewBox="0 0 110 110" fill="none" xmlns="http://www.w3.org/2000/svg">
<path d="M45.8679 61.3695C45.7105 61.3695 45.5551 61.3123 45.4318 61.2028L33.741 50.7932C32.7887 49.9789 32.2432 48.7844 32.2432 47.515C32.2432 45.1548 34.1259 43.2344 36.4403 43.2344C37.4025 43.2344 38.3121 43.5722 39.0733 44.2116L46.2447 49.2746C46.4243 49.4016 46.5315 49.61 46.5315 49.833V60.6909C46.5315 60.957 46.3793 61.1984 46.1428 61.3084C46.0551 61.3492 45.9613 61.3695 45.8679 61.3695ZM36.4404 44.5913C35.0602 44.5913 33.5705 45.7091 33.5705 47.5147C33.5705 48.3829 33.9444 49.1996 34.5966 49.7552C34.6004 49.7581 34.6038 49.7615 34.6075 49.7649L45.2044 59.1996V50.1885L38.2956 45.3111C38.279 45.2995 38.2628 45.2869 38.2477 45.2743C37.7235 44.8274 37.0988 44.5913 36.4404 44.5913Z" fill="#F16623"/>
<path d="M62.0582 61.3695C61.9618 61.3695 61.8643 61.3496 61.7728 61.3084C61.5266 61.1979 61.3691 60.957 61.3691 60.6909V49.833C61.3691 49.61 61.4804 49.4011 61.6669 49.2746L69.1142 44.2116C69.9042 43.5722 70.8488 43.2344 71.8484 43.2344C74.2519 43.2344 76.207 45.1544 76.207 47.515C76.207 48.7844 75.6404 49.9788 74.6515 50.7932L62.511 61.2028C62.3826 61.3123 62.2217 61.3695 62.0582 61.3695ZM62.7473 50.1887V59.1998L73.7518 49.7646C73.7557 49.7617 73.7591 49.7583 73.7631 49.7549C74.4404 49.1994 74.8287 48.3826 74.8287 47.5145C74.8287 45.7088 73.2817 44.591 71.8484 44.591C71.1647 44.591 70.516 44.8271 69.9715 45.274C69.9558 45.2871 69.9391 45.2997 69.9218 45.3108L62.7473 50.1887Z" fill="#F16623"/>
<path d="M53.9504 48.1801C50.163 48.1801 47.0811 45.0987 47.0811 41.3108C47.0811 37.5233 50.1625 34.4414 53.9504 34.4414C57.7384 34.4414 60.8198 37.5228 60.8198 41.3108C60.8198 45.0982 57.7384 48.1801 53.9504 48.1801ZM53.9504 35.7894C50.9061 35.7894 48.4288 38.2663 48.4288 41.311C48.4288 44.3558 50.9057 46.8326 53.9504 46.8326C56.9952 46.8326 59.472 44.3557 59.472 41.311C59.472 38.2662 56.9951 35.7894 53.9504 35.7894Z" fill="#F16623"/>
<path d="M60.6948 64.1169H46.1074C45.7348 64.1169 45.4326 63.7477 45.4326 63.2926C45.4326 62.8374 45.7348 62.4683 46.1074 62.4683H60.6948C61.0673 62.4683 61.3696 62.8374 61.3696 63.2926C61.3696 63.7477 61.0673 64.1169 60.6948 64.1169Z" fill="#F16623"/>
<path d="M63.7759 85.0001H63.7754C61.8245 85.0001 60.0967 83.8695 59.3741 82.1196L53.1764 67.2374C53.0899 67.0306 53.1158 66.7956 53.2455 66.6109C53.3747 66.4262 53.5908 66.3154 53.8219 66.3154H62.1703C62.448 66.3154 62.699 66.4752 62.8093 66.7213L68.1666 78.7164C68.1691 78.7222 68.1716 78.7279 68.1741 78.7337C68.6427 79.8681 68.6253 81.111 68.1254 82.233C67.6255 83.355 66.7032 84.2222 65.528 84.6741C64.9659 84.8905 64.3766 84.9998 63.7758 84.9998L63.7759 85.0001ZM54.8522 67.6595L60.6662 81.6206C61.1775 82.8582 62.3974 83.6569 63.7759 83.6569H63.7764C64.1998 83.6569 64.6157 83.5792 65.0133 83.4267C65.8431 83.1072 66.4947 82.4951 66.8479 81.7027C67.1998 80.9131 67.2132 80.0386 66.8857 79.2394L61.7132 67.6592L54.8521 67.6587L54.8522 67.6595Z" fill="#F16623"/>
<path d="M44.5316 84.9998C43.949 84.9998 43.3774 84.8904 42.8319 84.6736C41.6921 84.2217 40.7972 83.3545 40.3128 82.2324C39.828 81.1105 39.8111 79.8681 40.2656 78.7331C40.2675 78.7288 40.2694 78.724 40.2713 78.7197L45.3818 66.7246C45.4874 66.4766 45.7322 66.3154 46.0031 66.3154H54.0996C54.3232 66.3154 54.5319 66.4258 54.6577 66.6095C54.7835 66.7937 54.809 67.0273 54.7271 67.234L48.8007 82.1186C48.0995 83.8695 46.4243 85.0001 44.5317 85.0001L44.5316 84.9998ZM41.5166 79.2373C41.1985 80.0369 41.211 80.9119 41.5527 81.7023C41.8949 82.4948 42.5272 83.1069 43.332 83.4263C43.7176 83.5794 44.1215 83.6566 44.5321 83.6566C45.8685 83.6566 47.0522 82.8579 47.5472 81.6223L53.1064 67.6587H46.4498L41.5166 79.2373Z" fill="#F16623"/>
<path d="M62.3418 67.964H46.109C45.7355 67.964 45.4326 67.6651 45.4326 67.2967V49.9466C45.4326 49.5782 45.7355 49.2793 46.109 49.2793H62.3418C62.7153 49.2793 63.0182 49.5781 63.0182 49.9466V67.2967C63.0182 67.6651 62.7153 67.964 62.3418 67.964ZM46.7855 66.6293H61.6653V50.6141H46.7855V66.6293Z" fill="#F16623"/>
<path d="M33.7818 38.8378H28.5061C28.142 38.8378 27.8467 38.5358 27.8467 38.1634V24.6744C27.8467 24.3021 28.142 24 28.5061 24H33.7818C34.1459 24 34.4413 24.302 34.4413 24.6744V38.1634C34.4413 38.5358 34.1459 38.8378 33.7818 38.8378ZM29.1656 37.4889H33.1223V25.3493H29.1656V37.4889Z" fill="#F16623"/>
<path d="M81.0435 38.8378H75.7679C75.4038 38.8378 75.1084 38.5358 75.1084 38.1634V24.6744C75.1084 24.3021 75.4037 24 75.7679 24H81.0435C81.4076 24 81.703 24.302 81.703 24.6744V38.1634C81.703 38.5358 81.4077 38.8378 81.0435 38.8378ZM76.4274 37.4889H80.384V25.3493H76.4274V37.4889Z" fill="#F16623"/>
<path d="M84.8623 34.4413H80.7407C80.3614 34.4413 80.0537 34.1459 80.0537 33.7818V28.5061C80.0537 28.142 80.3614 27.8467 80.7407 27.8467H84.8623C85.2415 27.8467 85.5492 28.142 85.5492 28.5061V33.7818C85.5492 34.1459 85.2416 34.4413 84.8623 34.4413ZM81.4275 33.1223H84.1753V29.1656H81.4275V33.1223Z" fill="#F16623"/>
<path d="M28.8085 34.4413H24.6869C24.3077 34.4413 24 34.1459 24 33.7818V28.5061C24 28.142 24.3076 27.8467 24.6869 27.8467H28.8085C29.1878 27.8467 29.4955 28.142 29.4955 28.5061V33.7818C29.4955 34.1459 29.1878 34.4413 28.8085 34.4413ZM25.3738 33.1223H28.1216V29.1656H25.3738V33.1223Z" fill="#F16623"/>
<path d="M75.5379 31.6938H34.0125C33.6427 31.6938 33.3428 31.4477 33.3428 31.1443C33.3428 30.8408 33.6427 30.5947 34.0125 30.5947H75.5379C75.9077 30.5947 76.2076 30.8408 76.2076 31.1443C76.2076 31.4477 75.9077 31.6938 75.5379 31.6938Z" fill="#F16623"/>
<circle cx="55" cy="55" r="55" fill="#F16623" fill-opacity="0.11"/>
</svg>
