<svg width="313" height="197" viewBox="0 0 313 197" fill="none" xmlns="http://www.w3.org/2000/svg">
<g clip-path="url(#clip0_1298_2147)">
<path d="M256.224 78.7598C255.393 79.1729 254.525 79.5069 253.632 79.7575C252.764 80.0902 251.868 80.344 250.955 80.5158C251.785 80.1001 252.653 79.766 253.547 79.518C254.415 79.1853 255.31 78.9315 256.224 78.7598Z" fill="#E0E0E0"/>
<path d="M189.269 174.646V196.491H192.195L196.125 174.401L189.269 174.646Z" fill="#E0E0E0"/>
<path d="M215.887 174.646V196.491H218.818L222.743 174.401L215.887 174.646Z" fill="#E0E0E0"/>
<path d="M249.177 174.646V196.491H246.246L242.315 174.401L249.177 174.646Z" fill="#E0E0E0"/>
<path d="M267.874 174.646V196.491H264.948L261.018 174.401L267.874 174.646Z" fill="#E0E0E0"/>
<path d="M207.561 126.596C207.561 126.596 195.99 123.263 192.799 127.708C189.608 132.153 189.278 174.95 189.278 174.95C189.278 174.95 209.934 175.329 210.313 174.95C210.693 174.571 207.561 126.596 207.561 126.596Z" fill="#E0E0E0"/>
<path d="M267.29 167.143L267.789 92.9323C267.805 90.6574 267.369 88.4019 266.506 86.2965C265.643 84.1912 264.37 82.2778 262.762 80.6672C261.153 79.0567 259.241 77.781 257.135 76.9141C255.029 76.0472 252.772 75.6063 250.495 75.6169H223.238C220.973 75.6162 218.731 76.0681 216.644 76.946C214.556 77.8238 212.666 79.1099 211.084 80.7285C209.502 82.3471 208.26 84.2654 207.431 86.3707C206.602 88.476 206.203 90.7256 206.258 92.9872L208.011 167.133L267.29 167.143Z" fill="#EBEBEB"/>
<path d="M267.29 167.143C267.29 167.143 256.772 151.678 244.417 151.144C232.062 150.611 205.429 151.144 205.429 151.144C205.429 151.144 193.623 151.593 192.799 166.2V174.8H267.29V167.143Z" fill="#EBEBEB"/>
<path d="M243.114 151.588L212.536 151.429C209.344 151.429 205.714 151.02 202.617 151.898C193.503 154.482 192.165 166.125 192.889 174.157C192.919 174.486 192.39 174.486 192.39 174.157C191.785 167.422 192.495 157.989 198.263 153.504C201.589 150.92 205.454 150.88 209.424 150.9L243.129 151.075C243.183 151.09 243.231 151.123 243.265 151.168C243.299 151.213 243.317 151.268 243.317 151.324C243.317 151.38 243.299 151.435 243.265 151.48C243.231 151.525 243.183 151.558 243.129 151.573L243.114 151.588Z" fill="#E0E0E0"/>
<path d="M214.653 77.9368C214.91 77.8453 215.172 77.767 215.437 77.7024C215.697 77.6575 216.027 77.5976 216.436 77.5377C216.846 77.4779 217.275 77.438 217.78 77.3931C219.807 77.2185 222.774 77.1137 226.394 77.0938C228.212 77.0938 230.205 77.0937 232.342 77.1237C234.623 77.1023 236.904 77.2072 239.174 77.438C240.401 77.5833 241.618 77.8015 242.82 78.0915C244.082 78.3824 245.307 78.8176 246.47 79.3885C247.65 80.0332 248.729 80.8447 249.676 81.798C250.672 82.764 251.514 83.8759 252.173 85.0955C252.499 85.715 252.754 86.3694 252.932 87.046C253.087 87.7141 253.192 88.3928 253.247 89.0764C253.407 90.4183 253.537 91.7453 253.667 93.0673C253.916 95.6713 254.101 98.1906 254.256 100.59C254.556 105.384 254.69 109.714 254.78 113.346C254.87 116.978 254.9 119.921 254.925 121.951C254.925 122.949 254.925 123.742 254.925 124.291V124.9C254.929 124.968 254.929 125.036 254.925 125.104C254.92 125.036 254.92 124.968 254.925 124.9C254.925 124.75 254.925 124.55 254.925 124.291C254.925 123.742 254.885 122.959 254.855 121.951C254.805 119.906 254.725 116.963 254.63 113.351C254.536 109.739 254.366 105.394 254.051 100.605C253.891 98.2105 253.702 95.6963 253.447 93.0922C253.317 91.7952 253.187 90.4732 253.022 89.1313C252.972 88.4594 252.87 87.7923 252.718 87.1358C252.543 86.4785 252.295 85.8427 251.979 85.2401C251.337 84.0438 250.515 82.9535 249.542 82.0075C248.614 81.0698 247.554 80.2731 246.395 79.6429C245.252 79.0777 244.047 78.6458 242.805 78.3559C241.613 78.0663 240.406 77.8465 239.189 77.6974C236.929 77.4649 234.659 77.3533 232.387 77.3631C230.25 77.3232 228.257 77.3033 226.439 77.3033C222.804 77.3033 219.862 77.3781 217.835 77.5178C217.335 77.5577 216.881 77.6076 216.486 77.6375L215.487 77.7772C215.223 77.8271 215.028 77.8919 214.893 77.9219L214.653 77.9368Z" fill="#E0E0E0"/>
<path d="M258.256 97.4771C256.906 98.14 255.483 98.6423 254.016 98.9736C254.674 98.6103 255.371 98.3208 256.093 98.1106C256.787 97.8173 257.513 97.6047 258.256 97.4771Z" fill="#E0E0E0"/>
<path d="M255.954 101.718C255.954 101.788 255.514 101.827 254.955 101.803C254.396 101.778 253.991 101.703 253.991 101.633C253.991 101.563 254.431 101.518 254.99 101.543C255.549 101.568 255.959 101.648 255.954 101.718Z" fill="#E0E0E0"/>
<path d="M238.459 100.296C238.459 100.296 238.549 100.226 238.749 100.216C239.031 100.211 239.305 100.31 239.518 100.495C239.688 100.629 239.815 100.811 239.882 101.017C239.95 101.222 239.955 101.444 239.898 101.652C239.827 101.909 239.681 102.138 239.478 102.31C239.275 102.482 239.024 102.588 238.759 102.615C238.494 102.623 238.231 102.553 238.005 102.414C237.779 102.274 237.598 102.072 237.486 101.832C237.394 101.639 237.355 101.425 237.371 101.212C237.386 100.998 237.457 100.793 237.576 100.615C237.723 100.377 237.941 100.192 238.2 100.086C238.38 100.016 238.489 100.021 238.494 100.036C238.178 100.179 237.911 100.413 237.73 100.71C237.646 100.861 237.599 101.031 237.594 101.205C237.589 101.378 237.625 101.551 237.7 101.707C237.796 101.9 237.946 102.062 238.13 102.174C238.315 102.285 238.528 102.341 238.744 102.336C238.956 102.312 239.157 102.226 239.321 102.09C239.485 101.953 239.606 101.772 239.668 101.568C239.718 101.399 239.719 101.219 239.672 101.05C239.624 100.88 239.529 100.728 239.398 100.61C239.22 100.437 238.99 100.327 238.744 100.296C238.569 100.296 238.464 100.32 238.459 100.296Z" fill="#E0E0E0"/>
<path d="M239.458 93.4263C239.488 93.4612 239.129 93.7256 238.684 94.2693C238.104 94.9718 237.713 95.811 237.55 96.707C237.386 97.603 237.455 98.5258 237.75 99.3876C237.97 100.051 238.215 100.425 238.175 100.445C237.902 100.162 237.697 99.8213 237.575 99.4475C237.218 98.5623 237.119 97.5938 237.292 96.6548C237.464 95.7159 237.9 94.8453 238.549 94.1446C238.795 93.841 239.106 93.5957 239.458 93.4263Z" fill="#E0E0E0"/>
<path d="M238.79 109.949C238.475 109.657 238.217 109.31 238.026 108.926C237.518 108.023 237.203 107.024 237.102 105.993C237.043 105.425 237.054 104.852 237.132 104.287C237.186 103.811 237.369 103.359 237.661 102.98C237.861 102.723 238.137 102.536 238.45 102.446C238.67 102.386 238.8 102.411 238.8 102.446C238.401 102.548 238.049 102.782 237.801 103.109C237.341 103.708 237.252 104.83 237.356 105.988C237.457 106.988 237.738 107.961 238.185 108.861C238.53 109.51 238.825 109.894 238.79 109.949Z" fill="#E0E0E0"/>
<path d="M234.564 101.199C234.723 101.019 234.922 100.88 235.145 100.793C235.369 100.706 235.61 100.674 235.848 100.7C236.088 100.676 236.33 100.708 236.554 100.795C236.779 100.882 236.98 101.02 237.141 101.199C236.72 101.079 236.289 100.998 235.853 100.959C235.417 100.998 234.985 101.078 234.564 101.199Z" fill="#E0E0E0"/>
<path d="M221.111 100.296C221.111 100.296 221.201 100.226 221.4 100.216C221.682 100.211 221.956 100.311 222.169 100.495C222.338 100.631 222.464 100.812 222.531 101.018C222.598 101.223 222.605 101.444 222.549 101.652C222.479 101.909 222.332 102.138 222.129 102.31C221.926 102.482 221.675 102.588 221.41 102.615C221.145 102.624 220.882 102.555 220.656 102.415C220.429 102.276 220.249 102.073 220.137 101.832C220.046 101.639 220.007 101.425 220.022 101.212C220.036 100.999 220.105 100.794 220.222 100.615C220.37 100.378 220.588 100.194 220.846 100.086C221.031 100.016 221.141 100.021 221.141 100.036C220.825 100.178 220.56 100.413 220.382 100.71C220.296 100.861 220.249 101.031 220.243 101.205C220.238 101.379 220.275 101.551 220.352 101.707C220.447 101.9 220.596 102.061 220.78 102.172C220.964 102.284 221.175 102.34 221.39 102.336C221.604 102.313 221.805 102.228 221.97 102.091C222.136 101.955 222.257 101.773 222.319 101.568C222.369 101.399 222.371 101.219 222.323 101.05C222.275 100.88 222.18 100.728 222.05 100.61C221.871 100.437 221.642 100.327 221.395 100.296C221.241 100.296 221.116 100.32 221.111 100.296Z" fill="#E0E0E0"/>
<path d="M222.11 93.4263C222.14 93.4612 221.78 93.7256 221.336 94.2693C220.752 94.9702 220.36 95.8095 220.196 96.7061C220.033 97.6027 220.103 98.5263 220.402 99.3876C220.621 100.051 220.861 100.425 220.826 100.445C220.553 100.162 220.348 99.8213 220.227 99.4475C219.874 98.5625 219.775 97.5968 219.942 96.6589C220.123 95.7284 220.557 94.8656 221.196 94.1646C221.441 93.8528 221.753 93.6004 222.11 93.4263Z" fill="#E0E0E0"/>
<path d="M221.44 109.949C221.124 109.658 220.865 109.312 220.676 108.926C220.158 108.014 219.84 107.002 219.742 105.958C219.684 105.39 219.694 104.817 219.772 104.252C219.825 103.776 220.008 103.324 220.302 102.945C220.502 102.688 220.778 102.501 221.091 102.411C221.31 102.351 221.44 102.376 221.44 102.411C221.041 102.512 220.689 102.746 220.442 103.075C219.977 103.673 219.892 104.796 219.997 105.953C220.098 106.952 220.377 107.925 220.821 108.826C221.181 109.51 221.475 109.894 221.44 109.949Z" fill="#E0E0E0"/>
<path d="M217.21 101.199C217.561 100.874 218.022 100.694 218.501 100.694C218.979 100.694 219.44 100.874 219.792 101.199C219.369 101.078 218.936 100.998 218.498 100.959C218.062 100.999 217.631 101.079 217.21 101.199Z" fill="#E0E0E0"/>
<path d="M266.976 126.102C266.976 126.102 249.282 121.527 246.086 127.544C242.89 133.56 242.32 175 242.32 175C242.32 175 267.865 175.938 267.925 174.866C267.985 173.793 266.976 126.102 266.976 126.102Z" fill="#F5F5F5"/>
<path d="M267.929 125.912C267.929 125.912 256.243 122.919 253.052 127.349C249.86 131.779 249.021 175.21 249.021 175.21C249.021 175.21 267.669 175.759 268.049 175.384C268.428 175.01 267.929 125.912 267.929 125.912Z" fill="#EBEBEB"/>
<path d="M261.087 147.538C261.087 147.538 261.132 147.438 261.302 147.423C261.423 147.419 261.542 147.452 261.643 147.518C261.744 147.584 261.822 147.68 261.867 147.792C261.993 148.109 262.029 148.454 261.971 148.79C261.947 149.006 261.848 149.207 261.692 149.359C261.602 149.437 261.496 149.494 261.38 149.525C261.265 149.556 261.145 149.561 261.028 149.538C260.868 149.51 260.719 149.439 260.596 149.334C260.474 149.229 260.381 149.093 260.328 148.94C260.233 148.679 260.233 148.392 260.328 148.131C260.475 147.786 260.736 147.501 261.068 147.323V147.428C260.873 147.343 260.768 147.288 260.778 147.268C260.788 147.248 260.898 147.268 261.102 147.318L261.212 147.343L261.117 147.423C260.848 147.622 260.64 147.894 260.518 148.206C260.447 148.415 260.447 148.641 260.518 148.85C260.556 148.959 260.622 149.056 260.71 149.132C260.798 149.207 260.904 149.258 261.018 149.279C261.096 149.292 261.176 149.289 261.253 149.269C261.33 149.25 261.402 149.214 261.465 149.164C261.527 149.115 261.578 149.053 261.615 148.982C261.651 148.912 261.672 148.834 261.677 148.755C261.753 148.463 261.758 148.157 261.692 147.862C261.664 147.773 261.612 147.694 261.541 147.633C261.471 147.572 261.384 147.532 261.292 147.518C261.192 147.508 261.097 147.558 261.087 147.538Z" fill="#E0E0E0"/>
<path d="M257.762 139.666C258.043 139.99 258.286 140.344 258.486 140.724C259.013 141.613 259.485 142.534 259.899 143.482C260.31 144.433 260.662 145.407 260.953 146.401C261.096 146.805 261.189 147.226 261.233 147.653C261.047 147.267 260.895 146.867 260.778 146.455C260.518 145.712 260.139 144.69 259.659 143.587C259.18 142.485 258.691 141.512 258.326 140.813C258.105 140.448 257.916 140.064 257.762 139.666Z" fill="#E0E0E0"/>
<path d="M264.733 140.379C264.622 140.758 264.471 141.124 264.284 141.472C263.979 142.13 263.565 143.043 263.12 144.056C262.676 145.069 262.306 146.002 262.032 146.675C261.901 147.05 261.734 147.411 261.532 147.753C261.587 147.36 261.691 146.977 261.842 146.61C262.072 145.922 262.426 144.974 262.871 143.956C263.315 142.939 263.76 142.031 264.104 141.387C264.274 141.028 264.485 140.69 264.733 140.379Z" fill="#E0E0E0"/>
<path d="M257.842 161.666C257.825 161.499 257.835 161.331 257.872 161.167C257.907 160.843 257.971 160.384 258.061 159.815C258.241 158.678 258.531 157.111 258.92 155.395C259.31 153.679 259.719 152.142 260.044 151.035C260.209 150.481 260.349 150.037 260.454 149.733C260.496 149.571 260.558 149.416 260.638 149.269C260.538 149.882 260.399 150.489 260.224 151.085C259.939 152.197 259.56 153.739 259.17 155.45C258.781 157.161 258.471 158.717 258.241 159.845C258.144 160.459 258.01 161.067 257.842 161.666Z" fill="#E0E0E0"/>
<path d="M264.723 156.911C264.545 156.549 264.405 156.17 264.304 155.779C264.064 155.075 263.72 154.108 263.305 153.06C262.891 152.012 262.446 151.065 262.121 150.411C261.92 150.06 261.753 149.691 261.622 149.309C261.882 149.612 262.102 149.947 262.276 150.306C263.222 152.012 263.963 153.824 264.484 155.704C264.612 156.095 264.693 156.501 264.723 156.911Z" fill="#E0E0E0"/>
<path d="M111.058 196.591H114.438V183.166H111.058V196.591Z" fill="#EBEBEB"/>
<path d="M68.3886 196.591H71.7695V183.166H68.3886V196.591Z" fill="#EBEBEB"/>
<path d="M88.5741 196.591H91.9551V183.166H88.5741V196.591Z" fill="#E0E0E0"/>
<path d="M52.2929 196.591H55.6738V183.166H52.2929V196.591Z" fill="#E0E0E0"/>
<path d="M114.438 152.202H68.3232V183.161H114.438V152.202Z" fill="#EBEBEB"/>
<path d="M68.3234 152.202H51.6934V183.161H68.3234V152.202Z" fill="#E0E0E0"/>
<path d="M72.6828 167.682C72.6871 167.623 72.6871 167.565 72.6828 167.507C72.6828 167.387 72.6828 167.223 72.6828 167.008C72.6828 166.559 72.6828 165.911 72.6828 165.073C72.6828 163.386 72.7077 160.932 72.7227 157.839L72.6478 157.914L109.763 157.959L109.643 157.839V167.677L109.763 167.557L83.295 167.612L75.4994 167.647H73.3919H72.8476H72.6528H72.8276H73.4169H75.4944L83.2701 167.677L109.823 167.731H109.948V157.839L109.823 157.714L72.7077 157.764H72.6328V157.839C72.6328 160.952 72.6678 163.421 72.6778 165.117C72.6778 165.946 72.6778 166.614 72.6778 167.033C72.6778 167.243 72.6778 167.402 72.6778 167.532C72.6778 167.662 72.6828 167.687 72.6828 167.682Z" fill="#E0E0E0"/>
<path d="M89.6182 162.758C89.6172 163.08 89.712 163.395 89.8905 163.663C90.069 163.932 90.3232 164.141 90.6209 164.265C90.9186 164.388 91.2463 164.421 91.5626 164.358C91.8789 164.296 92.1694 164.141 92.3974 163.913C92.6254 163.685 92.7806 163.395 92.8432 163.079C92.9059 162.763 92.8732 162.436 92.7494 162.138C92.6255 161.841 92.4161 161.587 92.1476 161.409C91.8791 161.23 91.5636 161.136 91.2412 161.137C90.8112 161.138 90.3991 161.309 90.095 161.613C89.7909 161.917 89.6195 162.328 89.6182 162.758Z" fill="#E0E0E0"/>
<path d="M107.531 140.379L105.714 142.988C105.714 142.988 109.799 144.121 109.799 147.753C109.799 151.384 107.302 152.063 104.58 152.063C101.858 152.063 99.2413 151.27 99.3562 147.638C99.471 144.006 102.852 142.649 102.852 142.649L101.169 140.379H107.531Z" fill="#F5F5F5"/>
<path d="M56.1982 145.208V151.853H84.814C85.6961 151.853 86.5421 151.503 87.1658 150.88C87.7895 150.257 88.14 149.412 88.14 148.53C88.14 147.649 87.7895 146.804 87.1658 146.181C86.5421 145.558 85.6961 145.208 84.814 145.208" fill="#E0E0E0"/>
<path d="M66.6759 150.461H56.1884V146.6H66.6759C66.9076 146.6 67.1299 146.692 67.2938 146.855C67.4577 147.019 67.5498 147.241 67.5498 147.473V149.593C67.5485 149.824 67.4558 150.044 67.2921 150.207C67.1283 150.37 66.9068 150.461 66.6759 150.461Z" fill="#FAFAFA"/>
<path d="M56.1982 138.823V145.468H84.814C85.6961 145.468 86.5421 145.118 87.1658 144.494C87.7895 143.871 88.14 143.026 88.14 142.145C88.14 141.264 87.7895 140.419 87.1658 139.796C86.5421 139.173 85.6961 138.823 84.814 138.823H56.1982Z" fill="#F5F5F5"/>
<path d="M66.6759 144.076H56.1884V140.215H66.6759C66.9076 140.215 67.1299 140.306 67.2938 140.47C67.4577 140.634 67.5498 140.856 67.5498 141.088V143.208C67.5485 143.438 67.4558 143.659 67.2921 143.822C67.1283 143.984 66.9068 144.076 66.6759 144.076Z" fill="#E0E0E0"/>
<path d="M263.139 48.8855L262.723 49.7925L310.275 71.56L310.691 70.653L263.139 48.8855Z" fill="#E0E0E0"/>
<path d="M299.576 65.8892H298.577V196.491H299.576V65.8892Z" fill="#E0E0E0"/>
<path d="M299.042 117.956H299.301C299.941 117.956 300.46 117.437 300.46 116.798V101.583C300.46 100.944 299.941 100.426 299.301 100.426H299.042C298.402 100.426 297.883 100.944 297.883 101.583V116.798C297.883 117.437 298.402 117.956 299.042 117.956Z" fill="#F5F5F5"/>
<path d="M264.094 49.3024L262.765 51.5822L256.853 48.1501L258.351 45.8054C258.806 45.0937 259.514 44.58 260.333 44.3673C261.151 44.1546 262.02 44.2584 262.765 44.6581C263.164 44.8701 263.515 45.16 263.799 45.5106C264.082 45.8611 264.293 46.2652 264.416 46.6986C264.54 47.132 264.576 47.586 264.52 48.0333C264.465 48.4807 264.32 48.9123 264.094 49.3024Z" fill="#EBEBEB"/>
<path d="M262.95 50.6791L266.321 66.6127L241.875 52.7793L256.847 48.1499L262.95 50.6791Z" fill="#F5F5F5"/>
<path d="M240.717 53.4425C241.94 51.1827 248.707 52.4448 255.784 56.301C262.86 60.1572 267.684 65.076 266.436 67.3358C265.187 69.5956 258.446 68.3335 251.369 64.4823C244.292 60.6311 239.513 55.7024 240.717 53.4425Z" fill="#E0E0E0"/>
<path d="M313.005 196.496H284.764C284.764 196.496 288.964 192.221 299.077 192.635C309.189 193.049 313.005 196.496 313.005 196.496Z" fill="#E0E0E0"/>
<path d="M297.149 65.9142C297.149 66.2933 297.262 66.6638 297.473 66.9789C297.684 67.2941 297.984 67.5396 298.334 67.6844C298.685 67.8293 299.071 67.8669 299.443 67.7926C299.815 67.7183 300.157 67.5354 300.425 67.2669C300.693 66.9985 300.875 66.6567 300.949 66.2848C301.022 65.9129 300.983 65.5276 300.837 65.1776C300.692 64.8277 300.445 64.5288 300.129 64.319C299.813 64.1091 299.442 63.9976 299.062 63.9985C298.811 63.9985 298.561 64.0481 298.329 64.1445C298.097 64.2408 297.886 64.382 297.708 64.5599C297.53 64.7379 297.389 64.9491 297.294 65.1815C297.198 65.4138 297.149 65.6628 297.149 65.9142Z" fill="#F5F5F5"/>
<path d="M262.985 45.1916L264.324 42.9218L263.165 42.4878L262.106 44.8674L262.985 45.1916Z" fill="#EBEBEB"/>
<path d="M256.853 48.015C258.055 48.1094 259.234 48.3922 260.348 48.8531C261.427 49.398 262.412 50.1121 263.265 50.9683C263.101 50.6447 262.878 50.3552 262.606 50.1152C261.354 48.8616 259.694 48.0972 257.926 47.9602C257.568 47.9127 257.204 47.9313 256.853 48.015Z" fill="#E0E0E0"/>
<path d="M257.576 57.3141V62.0582C257.583 62.6048 257.393 63.1357 257.042 63.5548C256.433 64.2432 255.174 64.792 252.617 63.4451C249.621 61.8587 249.911 60.0778 250.395 59.115C250.606 58.7109 250.929 58.3753 251.324 58.1472L255.139 55.9272L257.576 57.3141Z" fill="#FAFAFA"/>
<path d="M255.974 56.4409C255.864 56.6174 255.769 56.8026 255.689 56.9947C255.445 57.5097 255.17 58.0095 254.865 58.4912C254.675 58.7955 254.455 59.1148 254.211 59.454C254.094 59.6236 253.955 59.7764 253.796 59.908C253.723 59.9699 253.635 60.0124 253.541 60.0316C253.446 60.0508 253.349 60.046 253.257 60.0177C253.164 59.9845 253.086 59.9211 253.033 59.8378C252.981 59.7546 252.958 59.6562 252.969 59.5585C252.979 59.4608 253.022 59.3693 253.091 59.2988C253.159 59.2284 253.249 59.1829 253.347 59.1697C253.584 59.1553 253.82 59.2108 254.026 59.3293C254.268 59.4402 254.503 59.5651 254.73 59.7035C254.961 59.8365 255.184 59.9813 255.399 60.1375C255.614 60.2871 255.784 60.4468 255.759 60.6363C255.726 60.8591 255.635 61.0692 255.494 61.2449C255.369 61.3946 255.18 61.3447 255.055 61.1901C254.999 61.1112 254.964 61.0191 254.955 60.9229C254.945 60.8268 254.961 60.7297 255 60.6413C255.077 60.4458 255.17 60.2572 255.279 60.0776C255.479 59.7134 255.669 59.3692 255.849 59.0549L256.653 57.5584C256.761 57.3805 256.85 57.1915 256.918 56.9947C256.778 57.1451 256.659 57.3128 256.563 57.4935L255.699 58.9452C255.514 59.2595 255.319 59.5987 255.105 59.9429C254.986 60.1334 254.884 60.3337 254.8 60.5416C254.755 60.6629 254.733 60.7914 254.735 60.9207C254.742 61.0622 254.793 61.1981 254.88 61.3098C254.967 61.4351 255.1 61.5211 255.249 61.5492C255.331 61.5619 255.414 61.5545 255.491 61.5275C255.569 61.5005 255.638 61.4549 255.694 61.3946C255.786 61.2892 255.86 61.1696 255.914 61.0404C255.975 60.9115 256.014 60.7732 256.029 60.6313C256.04 60.4694 255.99 60.3091 255.889 60.1824C255.797 60.0704 255.69 59.9729 255.569 59.893C255.347 59.7319 255.117 59.5821 254.88 59.4441C254.645 59.3034 254.404 59.1752 254.156 59.0599C253.902 58.9189 253.611 58.8564 253.322 58.8803C253.168 58.9071 253.028 58.9837 252.922 59.0982C252.817 59.2127 252.752 59.3588 252.738 59.5139C252.729 59.6622 252.768 59.8094 252.849 59.9341C252.929 60.0588 253.048 60.1545 253.187 60.2073C253.316 60.2506 253.453 60.2595 253.586 60.2333C253.72 60.207 253.844 60.1465 253.946 60.0577C254.122 59.9136 254.276 59.7457 254.405 59.5588C254.645 59.2096 254.86 58.8803 255.04 58.5611C255.332 58.0724 255.585 57.5621 255.799 57.0346C255.884 56.8457 255.943 56.6459 255.974 56.4409Z" fill="#E0E0E0"/>
<path d="M63.8691 48.6988V102.456H99.2518V48.6988H63.8691Z" fill="#E0E0E0"/>
<path d="M65.3125 50.5942V100.585H97.6637V50.5942H65.3125Z" fill="#FAFAFA"/>
<path d="M77.1074 67.4408V83.7485H86.0118V67.4408H77.1074Z" fill="#E0E0E0"/>
<path d="M296.649 196.606C296.649 196.676 230.229 196.735 148.327 196.735C66.4253 196.735 0.00488281 196.676 0.00488281 196.606C0.00488281 196.536 66.4253 196.476 148.327 196.476C230.229 196.476 296.649 196.536 296.649 196.606Z" fill="#263238"/>
<path d="M35.5829 11.8032H58.1309V25.5967H35.5829C34.712 25.5948 33.85 25.4214 33.0461 25.0867C32.2422 24.752 31.5122 24.2623 30.8977 23.6458C30.2833 23.0292 29.7964 22.2978 29.4649 21.4933C29.1335 20.6887 28.9639 19.8269 28.9658 18.9569V18.4331C28.9645 16.6778 29.6606 14.9937 30.9013 13.7506C32.1419 12.5076 33.8257 11.8072 35.5829 11.8032Z" fill="#F16623"/>
<g opacity="0.7">
<path d="M35.5829 11.8032H58.1309V25.5967H35.5829C34.712 25.5948 33.85 25.4214 33.0461 25.0867C32.2422 24.752 31.5122 24.2623 30.8977 23.6458C30.2833 23.0292 29.7964 22.2978 29.4649 21.4933C29.1335 20.6887 28.9639 19.8269 28.9658 18.9569V18.4331C28.9645 16.6778 29.6606 14.9937 30.9013 13.7506C32.1419 12.5076 33.8257 11.8072 35.5829 11.8032Z" fill="white"/>
</g>
<path d="M87.3109 11.8032H58.1309V25.5917H87.3109V11.8032Z" fill="#F16623"/>
<g opacity="0.5">
<path d="M87.3109 11.8032H58.1309V25.5917H87.3109V11.8032Z" fill="white"/>
</g>
<path d="M116.491 11.8032H87.3105V25.5917H116.491V11.8032Z" fill="#F16623"/>
<g opacity="0.3">
<path d="M116.491 11.8032H87.3105V25.5917H116.491V11.8032Z" fill="white"/>
</g>
<path d="M145.676 11.8032H116.496V25.5917H145.676V11.8032Z" fill="#F16623"/>
<g opacity="0.1">
<path d="M145.676 11.8032H116.496V25.5917H145.676V11.8032Z" fill="white"/>
</g>
<path d="M174.736 11.8032H145.556V25.5917H174.736V11.8032Z" fill="#F16623"/>
<path d="M203.822 11.8032H174.642V25.5917H203.822V11.8032Z" fill="#F16623"/>
<g opacity="0.2">
<path d="M203.822 11.8032H174.642V25.5917H203.822V11.8032Z" fill="black"/>
</g>
<path d="M232.902 11.8032H203.722V25.5917H232.902V11.8032Z" fill="#F16623"/>
<path d="M232.802 11.8032H255.35C256.222 11.8026 257.085 11.9736 257.89 12.3066C258.696 12.6395 259.428 13.1278 260.044 13.7436C260.661 14.3594 261.15 15.0905 261.483 15.8952C261.816 16.6998 261.987 17.5623 261.987 18.4331V18.9569C261.987 20.7139 261.288 22.399 260.044 23.6414C258.801 24.8838 257.114 25.5818 255.355 25.5818H232.802V11.8032Z" fill="#F16623"/>
<g opacity="0.4">
<path d="M232.902 11.8032H203.722V25.5917H232.902V11.8032Z" fill="black"/>
</g>
<g opacity="0.7">
<path d="M232.802 11.8032H255.35C256.222 11.8026 257.085 11.9736 257.89 12.3066C258.696 12.6395 259.428 13.1278 260.044 13.7436C260.661 14.3594 261.15 15.0905 261.483 15.8952C261.816 16.6998 261.987 17.5623 261.987 18.4331V18.9569C261.987 20.7139 261.288 22.399 260.044 23.6414C258.801 24.8838 257.114 25.5818 255.355 25.5818H232.802V11.8032Z" fill="black"/>
</g>
<path d="M167.337 21.051C168.755 15.6805 165.547 10.1781 160.17 8.76114C154.794 7.34418 149.286 10.5492 147.867 15.9198C146.449 21.2903 149.657 26.7927 155.034 28.2097C160.41 29.6266 165.918 26.4216 167.337 21.051Z" fill="#263238"/>
<path d="M167.276 25.5943C171.208 21.6668 171.208 15.299 167.276 11.3715C163.344 7.444 156.97 7.444 153.038 11.3715C149.106 15.299 149.106 21.6668 153.038 25.5943C156.97 29.5218 163.344 29.5218 167.276 25.5943Z" fill="#455A64"/>
<path d="M168.938 18.4829C168.886 17.7654 168.777 17.0532 168.613 16.3528C168.398 15.5373 168.061 14.7588 167.614 14.0431C166.977 12.99 166.125 12.0831 165.113 11.3817C164.101 10.6802 162.952 10.2 161.741 9.97236C160.218 9.69592 158.648 9.82848 157.192 10.3565C156.406 10.6379 155.666 11.0365 154.999 11.5388C154.294 12.0473 153.677 12.6674 153.172 13.3746C152.082 14.8543 151.494 16.6433 151.494 18.4804C151.494 20.3175 152.082 22.1065 153.172 23.5863C153.431 23.9386 153.714 24.272 154.021 24.584C154.334 24.8855 154.668 25.1655 155.019 25.4221C155.687 25.9228 156.426 26.3197 157.212 26.5994C159.107 27.2864 161.182 27.295 163.083 26.6235C164.984 25.9521 166.593 24.6423 167.634 22.9178C168.08 22.1999 168.417 21.4198 168.633 20.6031C168.797 19.9043 168.906 19.1937 168.958 18.4779C168.963 18.5243 168.963 18.5712 168.958 18.6176C168.958 18.7274 168.958 18.867 168.958 19.0367C168.959 19.264 168.94 19.4909 168.903 19.7151C168.871 20.0231 168.816 20.3283 168.738 20.628C168.545 21.461 168.223 22.2588 167.784 22.9926C167.145 24.0776 166.282 25.0139 165.252 25.7391C164.222 26.4643 163.049 26.9617 161.811 27.198C160.248 27.4943 158.634 27.3669 157.137 26.8289C156.329 26.5462 155.569 26.1407 154.885 25.6266C154.156 25.1054 153.519 24.4684 152.997 23.7409C151.868 22.2197 151.259 20.3764 151.259 18.4829C151.259 16.5894 151.868 14.7461 152.997 13.2249C153.26 12.8544 153.549 12.5026 153.861 12.1723C154.174 11.8654 154.508 11.5804 154.86 11.3193C155.544 10.8037 156.304 10.3965 157.112 10.112C158.609 9.57403 160.223 9.44656 161.786 9.74288C163.022 9.98027 164.192 10.4782 165.22 11.2034C166.247 11.9286 167.108 12.8644 167.744 13.9483C168.182 14.6808 168.504 15.4768 168.698 16.3079C168.776 16.6077 168.831 16.9128 168.863 17.2208C168.9 17.445 168.919 17.672 168.918 17.8993C168.918 18.0739 168.918 18.2085 168.918 18.3183C168.932 18.3721 168.938 18.4274 168.938 18.4829Z" fill="#263238"/>
<path d="M56.9773 0.0449219V4.03581H56.438V0.543782H55.5391V0.0449219H56.9773Z" fill="#263238"/>
<path d="M89.3132 3.52695V4.02581H86.4567V3.64168L88.0747 2.08025C88.4942 1.67118 88.5741 1.42175 88.5741 1.17232C88.5741 0.763257 88.2845 0.513827 87.7301 0.513827C87.542 0.50548 87.3545 0.539737 87.1815 0.614032C87.0086 0.688326 86.8547 0.800735 86.7313 0.942848L86.3418 0.608612C86.5254 0.40694 86.7513 0.248261 87.0034 0.143914C87.2554 0.0395676 87.5275 -0.00786991 87.8 0.00499117C88.6291 0.00499117 89.1634 0.434012 89.1634 1.11246C89.1563 1.35702 89.0938 1.59679 88.9805 1.81369C88.8671 2.03059 88.706 2.21896 88.5092 2.3646L87.2956 3.53193L89.3132 3.52695Z" fill="#263238"/>
<path d="M117.435 2.85355C117.435 3.52202 116.936 4.06578 115.937 4.06578C115.406 4.07588 114.888 3.89932 114.474 3.56692L114.738 3.11794C115.072 3.40163 115.499 3.55258 115.937 3.54197C116.531 3.54197 116.876 3.2676 116.876 2.83858C116.876 2.40956 116.571 2.14517 115.877 2.14517H115.557V1.74608L116.556 0.51888H114.643V0.0200195H117.265V0.40913L116.237 1.69619C117.036 1.79097 117.435 2.23995 117.435 2.85355Z" fill="#263238"/>
<path d="M147.509 3.04307H146.75V4.04079H146.201V3.04307H143.988V2.64897L146.026 0.0449219H146.64L144.687 2.53922H146.216V1.69615H146.75V2.55918H147.509V3.04307Z" fill="#263238"/>
<path d="M175.231 2.8285C175.231 3.51692 174.732 4.06567 173.733 4.06567C173.202 4.07326 172.685 3.89699 172.27 3.56681L172.534 3.11784C172.867 3.40037 173.291 3.55124 173.728 3.54187C174.327 3.54187 174.672 3.26251 174.672 2.83349C174.672 2.40447 174.387 2.10515 173.463 2.10515H172.549L172.764 0.0249023H175.006V0.523763H173.238L173.134 1.61626H173.573C174.762 1.63123 175.231 2.1251 175.231 2.8285Z" fill="#263238"/>
<path d="M205.045 2.81357C205.042 2.99044 205.002 3.1647 204.928 3.32542C204.854 3.48613 204.748 3.62981 204.615 3.74741C204.483 3.86502 204.328 3.95402 204.159 4.0088C203.991 4.06357 203.813 4.08295 203.637 4.06571C202.568 4.06571 201.964 3.35234 201.964 2.07027C201.964 0.713372 202.733 -0.0149644 203.847 -0.0149644C204.195 -0.0293869 204.54 0.0517014 204.845 0.219501L204.631 0.663486C204.4 0.526337 204.134 0.460378 203.867 0.473921C203.063 0.473921 202.543 0.972781 202.543 1.9705C202.541 2.01703 202.541 2.06365 202.543 2.11018C202.678 1.93983 202.853 1.80524 203.053 1.71826C203.252 1.63127 203.47 1.59455 203.687 1.61132C203.857 1.59327 204.028 1.61079 204.191 1.66275C204.354 1.71471 204.504 1.79998 204.632 1.91311C204.759 2.02624 204.862 2.16474 204.933 2.31979C205.005 2.47483 205.043 2.643 205.045 2.81357ZM204.496 2.81357C204.496 2.34963 204.141 2.05032 203.587 2.05032C203.475 2.03793 203.363 2.04839 203.255 2.08106C203.148 2.11372 203.049 2.16791 202.963 2.24029C202.878 2.31267 202.808 2.40174 202.758 2.50203C202.708 2.60232 202.679 2.71172 202.673 2.82355C202.673 3.22763 203.003 3.58681 203.612 3.58681C203.72 3.6 203.83 3.59057 203.935 3.55911C204.039 3.52765 204.136 3.47484 204.219 3.40403C204.303 3.33323 204.37 3.24596 204.418 3.14776C204.465 3.04955 204.492 2.94255 204.496 2.83353V2.81357Z" fill="#263238"/>
<path d="M235.144 0.0449219V0.434032L233.536 4.02084H232.932L234.51 0.528817H232.687V1.24218H232.143V0.0449219H235.144Z" fill="#263238"/>
<path d="M157.671 20.4186C156.916 19.9409 156.21 19.3895 155.564 18.7723H155.539L155.419 18.6725L155.544 18.5728C156.199 17.9817 156.912 17.457 157.671 17.0063C157.073 17.6578 156.414 18.2508 155.704 18.7773V18.5778H155.729C156.433 19.1289 157.083 19.7452 157.671 20.4186Z" fill="#263238"/>
<path d="M163.555 16.9863C164.309 17.4655 165.015 18.0168 165.662 18.6326H165.687L165.802 18.7373L165.682 18.8321C165.026 19.4243 164.314 19.9507 163.555 20.4035C164.15 19.7513 164.807 19.1582 165.517 18.6326V18.8321H165.492C164.79 18.2792 164.141 17.6612 163.555 16.9863Z" fill="#263238"/>
<path d="M165.332 18.6575C163.718 18.786 162.097 18.8293 160.478 18.7872C158.859 18.8293 157.239 18.786 155.624 18.6575C157.238 18.5227 158.859 18.4777 160.478 18.5228C162.098 18.4777 163.718 18.5227 165.332 18.6575Z" fill="#263238"/>
<path d="M21.285 19.5355C21.2317 18.8521 21.1282 18.1735 20.9753 17.5052C20.7736 16.7277 20.4572 15.9846 20.0365 15.3002C19.0425 13.6571 17.5076 12.4102 15.6946 11.7731C13.8816 11.1361 11.9033 11.1485 10.0984 11.8082C9.34408 12.0657 8.63469 12.4393 7.9959 12.9157C7.32721 13.4002 6.74335 13.9918 6.26797 14.6667C5.22649 16.0768 4.66457 17.7831 4.66457 19.5355C4.66457 21.2879 5.22649 22.9942 6.26797 24.4044C6.74846 25.0707 7.33168 25.6566 7.9959 26.1404C8.63016 26.619 9.33419 26.9976 10.0834 27.2629C11.4715 27.7689 12.9695 27.8964 14.4232 27.632C15.5764 27.4147 16.6709 26.9572 17.6355 26.2894C18.6 25.6215 19.413 24.7583 20.0215 23.7559C20.4422 23.0715 20.7586 22.3284 20.9604 21.5509C21.1128 20.8826 21.2163 20.204 21.27 19.5206C21.2755 19.5653 21.2755 19.6105 21.27 19.6553V20.0544C21.2709 20.2717 21.2525 20.4887 21.2151 20.7029C21.1848 20.9976 21.1313 21.2895 21.0553 21.5759C20.8716 22.3686 20.5649 23.1277 20.1463 23.8257C19.5368 24.8567 18.7141 25.7459 17.7332 26.4341C16.7523 27.1223 15.6358 27.5936 14.4582 27.8166C12.9684 28.1008 11.4295 27.9784 10.0035 27.4624C9.22906 27.1942 8.50119 26.8071 7.84608 26.315C7.50775 26.063 7.18581 25.7898 6.88223 25.4969C6.58131 25.1842 6.30263 24.8508 6.04823 24.4992C4.97167 23.046 4.39063 21.286 4.39062 19.4782C4.39063 17.6704 4.97167 15.9103 6.04823 14.4571C6.30523 14.1076 6.58377 13.7744 6.88223 13.4594C7.18459 13.1667 7.50662 12.8951 7.84608 12.6463C8.50173 12.1538 9.2294 11.7651 10.0035 11.4939C11.3331 11.0152 12.762 10.8785 14.1584 11.0964C15.5548 11.3144 16.8739 11.88 17.9939 12.7411C18.8528 13.4008 19.5753 14.2208 20.1214 15.1555C20.5401 15.8553 20.8468 16.6161 21.0303 17.4104C21.1068 17.6967 21.1602 17.9886 21.1901 18.2834C21.2277 18.4975 21.2461 18.7145 21.245 18.9319V19.331C21.2713 19.396 21.2849 19.4654 21.285 19.5355Z" fill="#263238"/>
<path d="M16.7303 19.5356C15.3843 19.664 14.0316 19.7073 12.6801 19.6653C11.327 19.7072 9.97264 19.6639 8.625 19.5356C9.97245 19.4043 11.327 19.3609 12.6801 19.4059C14.0316 19.3609 15.3845 19.4042 16.7303 19.5356Z" fill="#263238"/>
<path d="M282.667 18.4828C282.613 17.7991 282.508 17.1204 282.352 16.4525C282.155 15.6744 281.84 14.9309 281.418 14.2475C280.812 13.2425 279.999 12.3773 279.033 11.7092C278.067 11.041 276.97 10.5851 275.815 10.3713C274.363 10.1056 272.867 10.2313 271.48 10.7355C270.73 11.0006 270.026 11.381 269.393 11.8629C269.058 12.1094 268.74 12.3795 268.444 12.6711C268.153 12.9719 267.883 13.2919 267.635 13.6289C266.593 15.0391 266.031 16.7454 266.031 18.4978C266.031 20.2502 266.593 21.9565 267.635 23.3667C268.119 24.0394 268.707 24.6306 269.378 25.1177C270.012 25.5963 270.716 25.9748 271.465 26.2401C272.762 26.7166 274.158 26.8594 275.525 26.6554C276.892 26.4514 278.185 25.9072 279.286 25.0728C280.137 24.4357 280.856 23.6394 281.403 22.7281C281.824 22.046 282.139 21.3043 282.337 20.5281C282.492 19.8601 282.598 19.1814 282.652 18.4978C282.657 18.5425 282.657 18.5877 282.652 18.6325C282.652 18.7372 282.652 18.8669 282.652 19.0316C282.653 19.2489 282.634 19.4659 282.597 19.6801C282.567 19.9748 282.513 20.2667 282.437 20.5531C282.251 21.3451 281.945 22.1039 281.528 22.8029C280.919 23.8339 280.096 24.7231 279.115 25.4113C278.134 26.0995 277.018 26.5708 275.84 26.7938C274.348 27.0762 272.808 26.9539 271.38 26.4396C270.608 26.1703 269.882 25.7833 269.228 25.2923C268.89 25.0402 268.568 24.767 268.264 24.4741C267.962 24.1627 267.683 23.8292 267.43 23.4764C266.353 22.0232 265.772 20.2632 265.772 18.4554C265.772 16.6476 266.353 14.8875 267.43 13.4343C267.687 13.0848 267.966 12.7516 268.264 12.4366C268.568 12.1611 268.89 11.9061 269.228 11.6734C269.882 11.1809 270.608 10.7922 271.38 10.521C272.714 10.0378 274.149 9.8988 275.551 10.1168C276.953 10.3348 278.277 10.9028 279.401 11.7682C280.258 12.4235 280.981 13.2383 281.528 14.1677C281.945 14.8685 282.251 15.629 282.437 16.4225C282.514 16.7088 282.567 17.0007 282.597 17.2955C282.634 17.508 282.653 17.7233 282.652 17.9391C282.652 18.1037 282.652 18.2334 282.652 18.3381C282.663 18.3856 282.668 18.4342 282.667 18.4828Z" fill="#263238"/>
<path d="M278.097 18.4827C275.398 18.6557 272.691 18.6557 269.992 18.4827C272.691 18.3098 275.398 18.3098 278.097 18.4827Z" fill="#263238"/>
<path d="M274.047 22.1096C273.916 20.812 273.873 19.507 273.918 18.2035C273.873 16.8984 273.916 15.5917 274.047 14.2925C274.176 15.592 274.219 16.8984 274.177 18.2035C274.219 19.507 274.176 20.8118 274.047 22.1096Z" fill="#263238"/>
<path d="M52.2426 166.32C47.4483 162.329 46.7841 155.645 47.4483 149.723C47.5632 148.725 47.5332 147.678 48.0776 146.845C48.6219 146.012 49.7655 145.503 50.6195 145.992C51.3287 146.396 51.5834 147.279 51.9429 148.017C52.418 149.006 53.1644 149.84 54.0954 150.421C54.3796 150.638 54.7121 150.782 55.0643 150.842C55.4165 150.902 55.778 150.876 56.1179 150.766C57.0119 150.362 57.2066 149.189 57.2765 148.202C57.4114 146.366 57.5412 144.525 57.6761 142.684C57.6954 141.694 57.8741 140.714 58.2054 139.781C58.3734 139.317 58.6509 138.901 59.0143 138.568C59.3777 138.234 59.8163 137.993 60.2929 137.865C60.7735 137.764 61.2745 137.857 61.687 138.123C62.0994 138.39 62.3899 138.808 62.4953 139.287C62.4993 139.699 62.4759 140.11 62.4254 140.519C62.4033 140.723 62.4418 140.928 62.5359 141.11C62.6301 141.292 62.7757 141.442 62.9547 141.542C63.1572 141.583 63.3669 141.57 63.5631 141.505C63.7592 141.441 63.9351 141.326 64.0734 141.173C65.1327 140.204 66.0238 139.066 66.7102 137.805C67.4041 136.548 68.2421 135.377 69.2073 134.313C69.6887 133.786 70.2707 133.361 70.919 133.062C71.5674 132.763 72.269 132.597 72.9827 132.572C74.406 132.602 75.8443 133.595 76.089 135.007C76.3337 136.418 75.4148 137.775 74.446 138.828C73.0014 140.388 71.3397 141.732 69.5119 142.819C69.1601 142.979 68.8681 143.246 68.6779 143.582C68.4132 144.221 68.9875 144.924 69.6168 145.193C70.3626 145.416 71.1288 145.563 71.904 145.632C72.6631 145.782 73.4721 146.186 73.7069 146.939C74.0315 147.977 73.1026 148.97 72.2087 149.593C70.4368 150.849 68.462 151.79 66.3706 152.377C65.606 152.524 64.8749 152.81 64.2132 153.22C63.8856 153.436 63.636 153.751 63.5011 154.119C63.3663 154.488 63.3533 154.889 63.4641 155.265C63.7638 155.989 64.6527 156.263 65.4268 156.203C66.188 156.047 66.9347 155.826 67.6591 155.545C69.0524 155.141 70.8003 155.37 71.5744 156.612C71.8083 157.036 71.9405 157.508 71.9604 157.991C71.9803 158.474 71.8875 158.955 71.6893 159.396C71.2892 160.275 70.715 161.064 70.0013 161.716C67.6474 164.137 64.6889 165.887 61.4316 166.784C58.2004 167.627 55.259 167.692 52.2226 166.285" fill="#F16623"/>
<g opacity="0.4">
<path d="M52.2426 166.32C47.4483 162.329 46.7841 155.645 47.4483 149.723C47.5632 148.725 47.5332 147.678 48.0776 146.845C48.6219 146.012 49.7655 145.503 50.6195 145.992C51.3287 146.396 51.5834 147.279 51.9429 148.017C52.418 149.006 53.1644 149.84 54.0954 150.421C54.3796 150.638 54.7121 150.782 55.0643 150.842C55.4165 150.902 55.778 150.876 56.1179 150.766C57.0119 150.362 57.2066 149.189 57.2765 148.202C57.4114 146.366 57.5412 144.525 57.6761 142.684C57.6954 141.694 57.8741 140.714 58.2054 139.781C58.3734 139.317 58.6509 138.901 59.0143 138.568C59.3777 138.234 59.8163 137.993 60.2929 137.865C60.7735 137.764 61.2745 137.857 61.687 138.123C62.0994 138.39 62.3899 138.808 62.4953 139.287C62.4993 139.699 62.4759 140.11 62.4254 140.519C62.4033 140.723 62.4418 140.928 62.5359 141.11C62.6301 141.292 62.7757 141.442 62.9547 141.542C63.1572 141.583 63.3669 141.57 63.5631 141.505C63.7592 141.441 63.9351 141.326 64.0734 141.173C65.1327 140.204 66.0238 139.066 66.7102 137.805C67.4041 136.548 68.2421 135.377 69.2073 134.313C69.6887 133.786 70.2707 133.361 70.919 133.062C71.5674 132.763 72.269 132.597 72.9827 132.572C74.406 132.602 75.8443 133.595 76.089 135.007C76.3337 136.418 75.4148 137.775 74.446 138.828C73.0014 140.388 71.3397 141.732 69.5119 142.819C69.1601 142.979 68.8681 143.246 68.6779 143.582C68.4132 144.221 68.9875 144.924 69.6168 145.193C70.3626 145.416 71.1288 145.563 71.904 145.632C72.6631 145.782 73.4721 146.186 73.7069 146.939C74.0315 147.977 73.1026 148.97 72.2087 149.593C70.4368 150.849 68.462 151.79 66.3706 152.377C65.606 152.524 64.8749 152.81 64.2132 153.22C63.8856 153.436 63.636 153.751 63.5011 154.119C63.3663 154.488 63.3533 154.889 63.4641 155.265C63.7638 155.989 64.6527 156.263 65.4268 156.203C66.188 156.047 66.9347 155.826 67.6591 155.545C69.0524 155.141 70.8003 155.37 71.5744 156.612C71.8083 157.036 71.9405 157.508 71.9604 157.991C71.9803 158.474 71.8875 158.955 71.6893 159.396C71.2892 160.275 70.715 161.064 70.0013 161.716C67.6474 164.137 64.6889 165.887 61.4316 166.784C58.2004 167.627 55.259 167.692 52.2226 166.285" fill="black"/>
</g>
<path d="M74.7661 133.54C74.7346 133.572 74.6994 133.601 74.6612 133.625L74.3516 133.864C74.0719 134.069 73.6674 134.363 73.153 134.787C71.6966 135.94 70.3294 137.2 69.0629 138.559C68.2539 139.412 67.4099 140.389 66.521 141.452C65.6321 142.515 64.6932 143.662 63.7543 144.899C62.7572 146.189 61.8319 147.533 60.9826 148.925C60.5432 149.648 60.1436 150.421 59.7341 151.185C59.3246 151.948 58.9101 152.751 58.4956 153.549C56.9019 156.538 55.478 159.614 54.2307 162.763C53.2195 165.346 52.4554 168.018 51.9484 170.745C51.6105 172.577 51.4317 174.435 51.4141 176.297C51.4141 176.961 51.4141 177.47 51.4441 177.794C51.4441 177.959 51.4441 178.093 51.4441 178.188V178.328C51.4387 178.283 51.4387 178.238 51.4441 178.193C51.4441 178.093 51.4441 177.964 51.4141 177.799C51.3791 177.45 51.3592 176.936 51.3492 176.272C51.3382 174.401 51.497 172.533 51.8236 170.69C52.3179 167.964 53.0721 165.291 54.0759 162.708C55.3191 159.55 56.7414 156.466 58.3358 153.47L59.5793 151.105C59.9888 150.332 60.3933 149.563 60.8378 148.835C61.6909 147.439 62.6212 146.092 63.6245 144.799C64.5733 143.562 65.5172 142.42 66.4111 141.357C67.3051 140.295 68.159 139.327 68.9731 138.474C70.2505 137.119 71.635 135.87 73.1131 134.737C73.6125 134.333 74.052 134.039 74.3316 133.839L74.6562 133.615C74.6898 133.586 74.7266 133.561 74.7661 133.54Z" fill="#263238"/>
<path d="M60.8822 148.825C60.8501 148.684 60.83 148.541 60.8223 148.396C60.7923 148.122 60.7574 147.718 60.7274 147.224C60.6675 146.226 60.6275 144.854 60.5926 143.343C60.5576 141.831 60.4927 140.454 60.4178 139.467C60.3778 138.968 60.3479 138.574 60.3179 138.294C60.3003 138.152 60.3003 138.008 60.3179 137.865C60.3635 138.001 60.3936 138.142 60.4078 138.284C60.4577 138.559 60.5127 138.958 60.5626 139.457C60.6775 140.454 60.7524 141.821 60.7923 143.338C60.8323 144.854 60.8572 146.186 60.8772 147.219C60.8772 147.683 60.9022 148.077 60.9122 148.391C60.9194 148.537 60.9094 148.682 60.8822 148.825Z" fill="#263238"/>
<path d="M73.7619 147.453C73.5959 147.471 73.4285 147.471 73.2625 147.453C72.9329 147.453 72.4585 147.453 71.8742 147.483C70.7006 147.518 69.0825 147.618 67.3047 147.812C65.5268 148.007 63.9187 148.251 62.7651 148.466C62.1858 148.566 61.7214 148.661 61.4017 148.725C61.2387 148.77 61.0712 148.797 60.9023 148.805C61.0646 148.742 61.2316 148.692 61.4017 148.656C61.7214 148.571 62.1858 148.456 62.7601 148.336C63.9137 148.092 65.5218 147.837 67.3047 147.628C68.8289 147.459 70.3607 147.368 71.8942 147.354C72.4785 147.354 72.9579 147.354 73.2825 147.383C73.4439 147.394 73.6043 147.417 73.7619 147.453Z" fill="#263238"/>
<path d="M54.2457 162.479C54.2131 162.43 54.1879 162.376 54.1708 162.319C54.1209 162.19 54.0609 162.035 53.991 161.82C53.8362 161.406 53.6265 160.823 53.3768 160.049C52.8773 158.553 52.2581 156.453 51.6039 154.133C50.9497 151.813 50.3454 149.718 49.8759 148.206C49.6462 147.473 49.4614 146.869 49.3216 146.421L49.1718 145.922C49.1498 145.866 49.1363 145.807 49.1318 145.747C49.1644 145.796 49.1897 145.85 49.2068 145.907C49.2567 146.036 49.3166 146.191 49.3865 146.381C49.5414 146.795 49.7511 147.403 50.0008 148.152C50.5002 149.648 51.1195 151.748 51.7787 154.068C52.4379 156.388 53.0372 158.488 53.5016 159.995C53.7313 160.728 53.9161 161.331 54.0559 161.78L54.2058 162.279C54.2312 162.343 54.2447 162.41 54.2457 162.479Z" fill="#263238"/>
<path d="M71.54 158.379C71.4856 158.403 71.4287 158.421 71.3702 158.433L70.8708 158.558L69.0181 159.002C67.4549 159.376 65.3025 159.915 62.9204 160.499C60.5382 161.082 58.3808 161.621 56.8077 161.965C56.0236 162.135 55.3844 162.27 54.9399 162.349L54.4405 162.439C54.3257 162.439 54.2607 162.469 54.2607 162.439C54.3168 162.414 54.3754 162.396 54.4355 162.384L54.9349 162.26L56.7877 161.816C58.3508 161.442 60.5083 160.903 62.8854 160.319C65.2626 159.735 67.43 159.197 68.9981 158.852C69.7871 158.683 70.4214 158.548 70.8658 158.468L71.3652 158.374C71.4751 158.379 71.54 158.369 71.54 158.379Z" fill="#263238"/>
<path d="M47.833 160.678C55.2741 154.562 56.2579 144.216 55.2241 135.072C55.0543 133.545 55.0943 131.914 54.2603 130.632C53.4263 129.35 51.6534 128.561 50.33 129.315C49.2363 129.938 48.8318 131.31 48.2924 132.443C47.5545 133.967 46.4019 135.253 44.9664 136.154C44.0325 136.738 42.849 137.152 41.8402 136.688C40.4618 136.059 40.1622 134.248 40.0523 132.727L39.458 124.206C39.4295 122.675 39.1529 121.159 38.639 119.717C38.0547 118.31 36.9011 117.048 35.4179 116.758C33.9346 116.469 32.2067 117.442 32.0169 118.953C32.0112 119.589 32.0479 120.224 32.1268 120.854C32.1268 121.493 31.8921 122.211 31.3078 122.435C30.7235 122.66 30.0693 122.281 29.5749 121.867C27.8819 120.455 26.6584 118.559 25.5047 116.669C24.3511 114.778 23.2275 112.837 21.6643 111.271C20.1012 109.705 18.0287 108.532 15.8363 108.582C13.6439 108.632 11.4216 110.158 11.0371 112.343C10.6525 114.529 12.0808 116.609 13.579 118.24C15.8008 120.653 18.359 122.733 21.1749 124.416C21.7268 124.665 22.1837 125.085 22.4784 125.613C22.8879 126.611 21.979 127.688 21.0251 128.107C19.9214 128.571 18.6779 128.551 17.4993 128.786C16.3207 129.02 15.0772 129.644 14.7177 130.781C14.2183 132.388 15.6465 133.914 17.0099 134.882C19.7468 136.821 22.7979 138.274 26.0291 139.177C27.1827 139.501 28.3913 139.766 29.3601 140.484C30.329 141.203 30.9782 142.525 30.5137 143.642C30.0493 144.759 28.6759 145.208 27.4874 145.084C26.2988 144.959 25.1951 144.405 24.0415 144.086C21.8841 143.462 19.1923 143.817 17.9887 145.732C17.6295 146.387 17.4267 147.116 17.3964 147.862C17.3661 148.608 17.509 149.351 17.814 150.032C18.4341 151.389 19.3206 152.607 20.4208 153.614C24.0534 157.336 28.6099 160.029 33.625 161.416C38.619 162.718 43.1586 162.818 47.848 160.678" fill="#F16623"/>
<path d="M13.0547 110.083L13.2145 110.218L13.7139 110.587C14.1434 110.907 14.7726 111.381 15.5667 112.014C17.8144 113.793 19.9261 115.738 21.8841 117.831C23.1276 119.153 24.4311 120.659 25.8044 122.321C27.1778 123.982 28.621 125.733 30.0793 127.643C31.6141 129.637 33.0395 131.712 34.3492 133.859C35.0284 134.977 35.6526 136.154 36.2819 137.351L38.1996 141.003C40.6581 145.617 42.8556 150.365 44.7817 155.225C46.3412 159.205 47.5217 163.322 48.3075 167.522C48.8281 170.355 49.1021 173.228 49.1265 176.108C49.1265 177.13 49.1265 177.924 49.0815 178.457C49.0815 178.717 49.0815 178.916 49.0815 179.071C49.075 179.141 49.075 179.211 49.0815 179.28C49.0972 179.212 49.1056 179.141 49.1065 179.071C49.1065 178.921 49.1365 178.717 49.1564 178.462C49.2064 177.924 49.2413 177.13 49.2563 176.108C49.2733 173.218 49.0276 170.333 48.5222 167.487C47.7541 163.267 46.5835 159.129 45.0264 155.131C43.1069 150.255 40.9093 145.493 38.4443 140.868L36.5316 137.222C35.8973 136.024 35.2731 134.837 34.5889 133.729C33.2683 131.576 31.8312 129.496 30.284 127.499C28.8158 125.588 27.3576 123.822 25.9792 122.186C24.6009 120.55 23.2824 119.048 22.0239 117.731C20.0459 115.635 17.9033 113.7 15.6166 111.944C14.8126 111.326 14.1733 110.867 13.7339 110.557L13.2345 110.213L13.0547 110.083Z" fill="#263238"/>
<path d="M34.4893 133.69C34.5473 133.473 34.5808 133.251 34.5891 133.026C34.6341 132.602 34.684 131.979 34.729 131.216C34.8288 129.679 34.8888 127.559 34.9437 125.229C34.9986 122.9 35.0935 120.774 35.2134 119.243C35.2683 118.48 35.3233 117.861 35.3632 117.437C35.3992 117.216 35.4109 116.992 35.3982 116.769C35.3256 116.98 35.2787 117.199 35.2583 117.422C35.1784 117.841 35.0985 118.46 35.0136 119.223C34.8438 120.749 34.724 122.875 34.664 125.209C34.6041 127.544 34.5692 129.609 34.5342 131.196C34.5342 131.914 34.4942 132.523 34.4793 133.011C34.4585 133.237 34.4618 133.465 34.4893 133.69Z" fill="#263238"/>
<path d="M14.6025 131.57C14.864 131.605 15.1282 131.615 15.3916 131.6C15.891 131.6 16.6351 131.6 17.539 131.644C19.3469 131.694 21.8439 131.854 24.5956 132.143C27.3473 132.433 29.8193 132.827 31.5872 133.141C32.4811 133.296 33.2003 133.445 33.6947 133.54C33.9499 133.607 34.2106 133.65 34.4737 133.67C34.2311 133.566 33.9784 133.487 33.7196 133.435C33.2202 133.301 32.5161 133.126 31.6221 132.936C29.8443 132.562 27.3672 132.148 24.6305 131.844C22.2771 131.583 19.9118 131.441 17.544 131.42C16.6401 131.42 15.901 131.42 15.3966 131.465C15.1293 131.476 14.8635 131.511 14.6025 131.57Z" fill="#263238"/>
<path d="M44.7412 154.772C44.7892 154.693 44.8278 154.61 44.8561 154.522C44.931 154.323 45.0209 154.083 45.1357 153.789C45.3754 153.15 45.6951 152.218 46.0796 151.055C46.8487 148.741 47.8125 145.508 48.8213 141.921C49.8301 138.334 50.769 135.102 51.4881 132.772C51.8377 131.64 52.1324 130.707 52.3471 130.013C52.437 129.714 52.5119 129.465 52.5768 129.265C52.6101 129.179 52.6303 129.088 52.6368 128.996C52.5871 129.073 52.5485 129.157 52.5219 129.245C52.447 129.445 52.3521 129.684 52.2422 129.978C52.0025 130.617 51.6779 131.55 51.2984 132.707C50.5293 135.027 49.5654 138.259 48.5516 141.846C47.5379 145.433 46.609 148.666 45.8898 150.995L45.0309 153.749C44.941 154.053 44.8661 154.298 44.8011 154.502C44.7675 154.589 44.7473 154.679 44.7412 154.772Z" fill="#263238"/>
<path d="M18.0391 148.431C18.1231 148.472 18.212 148.502 18.3037 148.521L19.0828 148.715L21.9394 149.399C24.3565 149.973 27.6825 150.811 31.3531 151.739C35.0237 152.666 38.3447 153.475 40.7918 154.003C42.0103 154.268 42.9942 154.472 43.6734 154.602L44.4624 154.742C44.5537 154.765 44.6479 154.775 44.7421 154.772C44.6567 154.731 44.5659 154.702 44.4724 154.687L43.6983 154.492L40.8367 153.809C38.4246 153.23 35.0986 152.392 31.423 151.464C27.7474 150.536 24.4314 149.728 21.9843 149.199C20.7708 148.935 19.787 148.73 19.1028 148.606L18.3187 148.466C18.2266 148.447 18.1331 148.435 18.0391 148.431Z" fill="#263238"/>
<path d="M38.6338 178.223L39.318 196.586H59.1242L60.6924 178.223H38.6338Z" fill="#263238"/>
<path d="M63.0551 172.152H36.7217V178.223H63.0551V172.152Z" fill="#263238"/>
<path d="M60.9722 178.123C60.9722 178.193 56.0081 178.248 49.8854 178.248C43.7628 178.248 38.8037 178.193 38.8037 178.123C38.8037 178.053 43.7628 177.999 49.8854 177.999C56.0081 177.999 60.9722 178.053 60.9722 178.123Z" fill="#455A64"/>
<path d="M210.713 193.488L193.993 107.04H194.018C193.983 106.911 193.953 106.786 193.923 106.661C191.356 96.4943 189.328 94 189.328 94L164.308 94.6635C162.346 98.1854 162.096 106.636 162.096 106.636C161.831 107.674 165.682 191.772 165.682 191.772L176.049 191.742L178.881 111.984L201.264 193.697L210.713 193.488Z" fill="#263238"/>
<path d="M185.497 109.29C185.497 109.37 182.736 110.163 179.28 111.056C175.824 111.949 173.007 112.607 172.987 112.523C172.967 112.438 175.749 111.65 179.205 110.757C182.661 109.864 185.477 109.205 185.497 109.29Z" fill="#455A64"/>
<path d="M167.634 192.844C167.56 192.844 166.935 172.98 166.231 148.476C165.527 123.972 165.018 104.077 165.087 104.077C165.157 104.077 165.787 123.937 166.491 148.446C167.195 172.955 167.704 192.844 167.634 192.844Z" fill="#455A64"/>
<path d="M170.486 191.363C170.411 191.363 170.286 171.803 170.201 147.683C170.116 123.563 170.111 103.998 170.201 103.998C170.291 103.998 170.401 123.553 170.481 147.683C170.561 171.813 170.556 191.358 170.486 191.363Z" fill="#455A64"/>
<path d="M174.875 102.81C174.95 102.81 174.676 122.635 174.261 147.084C173.847 171.533 173.462 191.363 173.387 191.363C173.312 191.363 173.592 171.538 174.001 147.079C174.411 122.62 174.795 102.81 174.875 102.81Z" fill="#455A64"/>
<path d="M178.886 111.989C178.68 110.401 178.562 108.802 178.531 107.2C178.417 105.6 178.387 103.995 178.441 102.391C178.647 103.981 178.763 105.582 178.791 107.185C178.909 108.784 178.94 110.387 178.886 111.989Z" fill="#455A64"/>
<path d="M203.616 193.428C203.546 193.428 198.622 173.08 192.56 147.942C186.497 122.804 181.688 102.411 181.758 102.391C181.828 102.371 186.782 122.74 192.814 147.862C198.847 172.985 203.686 193.413 203.616 193.428Z" fill="#455A64"/>
<path d="M206.602 193.358C206.532 193.358 201.838 172.825 196.115 147.463C190.391 122.101 185.807 101.528 185.877 101.513C185.947 101.498 190.641 122.041 196.364 147.408C202.087 172.775 206.672 193.343 206.602 193.358Z" fill="#455A64"/>
<path d="M208.495 192.844C208.42 192.844 204.34 172.426 199.376 147.214C194.412 122.001 190.447 101.538 190.517 101.523C190.586 101.508 194.667 121.936 199.631 147.159C204.595 172.381 208.565 192.829 208.495 192.844Z" fill="#455A64"/>
<path d="M166.121 59.5639L149.471 45.2217L149.795 24.7684L150.115 24.3394C150.29 24.0999 150.485 23.8405 150.719 23.5562C150.99 23.224 151.314 22.9391 151.678 22.7131C152.119 22.4176 152.598 22.1827 153.101 22.0147C153.576 21.9099 153.686 21.2863 153.286 21.1167C152.887 20.9471 151.568 21.2065 150.29 22.1494C149.011 23.0922 149.646 20.7276 149.86 19.8596C150.075 18.9916 150.594 16.2878 150.36 16.0184C150.045 15.6243 149.551 15.8987 149.361 16.7667C149.171 17.6347 148.417 20.2088 147.963 20.0891C147.508 19.9694 148.642 15.5694 148.642 15.5694C148.642 15.5694 149.041 14.6665 148.517 14.5068C147.578 14.2225 146.724 18.9966 146.654 19.4356C146.604 19.7499 146.105 19.6351 146.155 19.3009C146.205 18.9666 147.388 14.9359 146.434 14.6365C145.7 14.4071 145.69 18.5426 144.986 19.256C144.282 19.9694 145.316 16.1132 144.607 15.9236C144.342 15.8538 144.137 15.8388 143.863 18.1286C143.608 19.7095 143.441 21.3033 143.363 22.9027L140.477 47.5264L157.231 66.3434L166.121 59.5639Z" fill="#FFBE9D"/>
<path d="M166.121 191.972L164.768 196.491L174.446 196.376L174.875 191.542L166.121 191.972Z" fill="#F16623"/>
<path d="M174.631 195.463C174.168 195.556 173.695 195.593 173.223 195.573C172.354 195.598 171.15 195.573 169.822 195.573L166.426 195.463C165.954 195.476 165.482 195.439 165.018 195.354C165.482 195.266 165.954 195.23 166.426 195.249C167.3 195.249 168.503 195.249 169.832 195.249L173.228 195.354C173.698 195.343 174.168 195.38 174.631 195.463Z" fill="#263238"/>
<path d="M170.486 191.363C170.597 192.036 170.61 192.721 170.526 193.398C170.536 194.083 170.445 194.765 170.256 195.424C170.146 194.749 170.132 194.062 170.216 193.383C170.301 192.261 170.401 191.358 170.486 191.363Z" fill="#263238"/>
<g opacity="0.6">
<path d="M164.768 196.491L174.446 196.376L174.526 195.464L164.927 195.339L164.768 196.386" fill="white"/>
</g>
<path d="M174.016 15.1104C173.382 15.4795 175.374 18.9366 174.515 18.4278C173.656 17.919 172.573 13.9381 171.923 14.3371C171.079 14.8709 173.237 18.4577 173.397 18.772C173.557 19.0863 173.097 19.3158 172.967 19.0264C172.782 18.6024 170.73 14.2274 169.896 14.7462C169.431 15.0306 170.051 15.8038 170.051 15.8038C170.051 15.8038 172.273 19.7648 171.874 19.9942C171.474 20.2237 170.076 17.9439 169.666 17.1407C169.257 16.3376 168.707 16.2129 168.503 16.6768C168.363 16.9911 169.566 19.4754 170.001 20.2586C170.435 21.0418 171.634 23.167 170.176 22.5783C168.717 21.9897 167.374 22.0795 167.029 22.3439C166.685 22.6083 166.949 23.1869 167.439 23.167C167.97 23.1997 168.494 23.3038 168.997 23.4763C169.405 23.5999 169.79 23.7904 170.136 24.04C170.435 24.2595 170.695 24.459 170.925 24.6436L171.344 24.9778L179.684 45.5209L172.098 63.1407L183.844 67.5107L189.123 44.2089L177.017 21.5307C176.529 20.0041 175.957 18.5053 175.304 17.041C174.45 14.9059 174.251 14.9757 174.016 15.1104Z" fill="#FFBE9D"/>
<path d="M211.252 194.346L211.212 193.348L201.224 193.637L201.314 196.885H201.928C204.679 196.955 215.911 197.05 217.734 196.486C219.741 195.882 211.252 194.346 211.252 194.346Z" fill="#F16623"/>
<g opacity="0.6">
<path d="M204.909 196.75C204.728 195.96 204.253 195.268 203.581 194.815C202.894 194.342 202.063 194.126 201.233 194.206L201.313 196.79L204.909 196.75Z" fill="white"/>
</g>
<g opacity="0.6">
<path d="M215.412 195.254C215.412 195.254 218.408 195.967 218.044 196.431C217.679 196.895 206.328 197.189 201.309 196.93V196.726L214.558 196.481C214.558 196.481 214.832 195.254 215.412 195.254Z" fill="white"/>
</g>
<path d="M201.159 196.686H201.334H201.833L203.646 196.711C205.174 196.711 207.287 196.711 209.639 196.651C211.991 196.591 214.079 196.496 215.632 196.406L217.435 196.286L217.934 196.247H218.104H217.929H217.43L215.622 196.326C214.094 196.396 211.986 196.481 209.654 196.541C207.322 196.601 205.214 196.621 203.686 196.631H201.873H201.374L201.159 196.686Z" fill="#263238"/>
<path d="M214.568 196.591C214.643 196.309 214.748 196.036 214.883 195.778C215.058 195.537 215.259 195.316 215.482 195.119C215.183 195.231 214.934 195.445 214.778 195.723C214.601 195.975 214.526 196.285 214.568 196.591Z" fill="#263238"/>
<path d="M211.591 195.284C211.621 195.284 211.756 195.139 211.896 194.919C212.036 194.7 212.126 194.515 212.096 194.5C212.066 194.485 211.931 194.65 211.791 194.865C211.651 195.079 211.566 195.254 211.591 195.284Z" fill="#263238"/>
<path d="M210.778 194.91C210.778 194.91 210.953 194.83 211.117 194.685C211.282 194.541 211.402 194.396 211.382 194.376C211.362 194.356 211.202 194.456 211.037 194.601C210.873 194.745 210.753 194.885 210.778 194.91Z" fill="#263238"/>
<path d="M210.253 194.051C210.415 194.098 210.585 194.114 210.752 194.096C210.921 194.112 211.091 194.092 211.252 194.036C211.091 193.983 210.92 193.966 210.752 193.987C210.583 193.975 210.414 193.997 210.253 194.051Z" fill="#263238"/>
<path d="M210.048 193.443C210.419 193.612 210.842 193.63 211.226 193.493C211.031 193.465 210.834 193.457 210.637 193.468C210.442 193.441 210.245 193.432 210.048 193.443Z" fill="#263238"/>
<path d="M211.906 194.471C212.118 194.504 212.334 194.504 212.545 194.471C212.774 194.436 213 194.382 213.22 194.311C213.353 194.272 213.482 194.219 213.604 194.152C213.642 194.133 213.675 194.106 213.702 194.073C213.729 194.041 213.748 194.003 213.759 193.962C213.768 193.917 213.762 193.87 213.743 193.828C213.725 193.786 213.694 193.751 213.654 193.728C213.408 193.623 213.134 193.601 212.875 193.666C212.615 193.731 212.384 193.879 212.216 194.087C212.122 194.204 212.053 194.34 212.016 194.486C212.004 194.54 212.004 194.596 212.016 194.65C212.078 194.469 212.171 194.301 212.291 194.152C212.435 193.99 212.622 193.873 212.83 193.812C213.079 193.726 213.351 193.735 213.594 193.837C213.694 193.907 213.659 194.017 213.549 194.082C213.436 194.143 213.317 194.195 213.195 194.236C212.981 194.309 212.762 194.368 212.54 194.411C212.151 194.446 211.906 194.451 211.906 194.471Z" fill="#263238"/>
<path d="M212.071 194.496C212.146 194.371 212.169 194.223 212.136 194.082C212.108 193.926 212.043 193.779 211.946 193.653C211.887 193.563 211.807 193.49 211.713 193.44C211.619 193.389 211.514 193.363 211.407 193.363C211.375 193.368 211.345 193.379 211.318 193.396C211.291 193.413 211.268 193.435 211.251 193.461C211.233 193.488 211.221 193.517 211.215 193.549C211.209 193.58 211.21 193.612 211.217 193.643C211.234 193.737 211.273 193.826 211.332 193.902C211.42 194.034 211.526 194.153 211.646 194.256C211.751 194.359 211.877 194.437 212.016 194.486C212.016 194.486 211.886 194.381 211.706 194.201C211.602 194.094 211.509 193.977 211.427 193.852C211.337 193.727 211.267 193.503 211.427 193.473C211.512 193.479 211.594 193.503 211.668 193.545C211.743 193.586 211.807 193.643 211.856 193.712C211.949 193.824 212.016 193.956 212.051 194.097C212.072 194.229 212.079 194.362 212.071 194.496Z" fill="#263238"/>
<path d="M201.264 194.156C201.264 194.156 201.548 194.121 202.003 194.156C202.584 194.201 203.144 194.397 203.626 194.725C204.087 195.05 204.447 195.497 204.665 196.017C204.746 196.231 204.816 196.449 204.874 196.671C204.874 196.671 204.874 196.601 204.874 196.481C204.851 196.311 204.809 196.143 204.75 195.982C204.546 195.436 204.18 194.964 203.701 194.63C203.201 194.29 202.617 194.097 202.013 194.072C201.829 194.062 201.645 194.071 201.463 194.097C201.393 194.102 201.325 194.123 201.264 194.156Z" fill="#263238"/>
<path d="M206.138 195.793C206.616 195.883 207.104 195.915 207.591 195.887C208.08 195.9 208.568 195.851 209.044 195.743C209.044 195.713 208.39 195.743 207.591 195.778C206.792 195.813 206.138 195.753 206.138 195.793Z" fill="#263238"/>
<path d="M204.185 195.843C204.16 195.868 204.245 195.967 204.315 196.107C204.385 196.247 204.425 196.362 204.46 196.362C204.495 196.362 204.505 196.212 204.42 196.057C204.335 195.903 204.205 195.818 204.185 195.843Z" fill="#263238"/>
<path d="M203.426 195.009C203.401 195.034 203.471 195.129 203.576 195.224C203.681 195.319 203.786 195.374 203.811 195.354C203.835 195.334 203.766 195.234 203.661 195.144C203.556 195.054 203.446 194.99 203.426 195.009Z" fill="#263238"/>
<path d="M202.363 194.65C202.363 194.68 202.503 194.68 202.652 194.72C202.802 194.76 202.907 194.835 202.932 194.815C202.957 194.795 202.867 194.665 202.687 194.615C202.508 194.566 202.353 194.625 202.363 194.65Z" fill="#263238"/>
<path d="M201.608 194.486C201.608 194.516 201.653 194.565 201.738 194.59C201.823 194.615 201.898 194.615 201.908 194.59C201.918 194.565 201.863 194.516 201.778 194.491C201.693 194.466 201.618 194.461 201.608 194.486Z" fill="#263238"/>
<path d="M189.123 71.9805L186.406 86.1033C192.075 93.9803 192.589 100.74 192.589 100.74L162.101 104.302C162.101 98.7843 166.121 89.8647 166.121 89.8647L161.227 73.1778L152.367 61.6541L161.157 53.7372C160.992 54.1812 169.402 59.0451 169.402 59.0451L181.482 59.1499C182.071 59.2132 182.652 59.3284 183.22 59.4941L189.123 44.209C192.357 48.4774 193.877 53.7995 193.383 59.1299C192.429 68.7779 191.276 66.3783 189.123 71.9805Z" fill="#F16623"/>
<path d="M172.383 84.387C172.383 84.387 172.383 84.4917 172.273 84.6514C172.152 84.882 171.997 85.0938 171.814 85.2799C171.531 85.5745 171.148 85.7525 170.74 85.7788C170.493 85.7888 170.248 85.7264 170.036 85.5992C169.821 85.4745 169.632 85.3099 169.437 85.1752C169.086 84.9105 168.651 84.7828 168.213 84.816C167.851 84.8393 167.503 84.9695 167.215 85.1901C166.961 85.4153 166.744 85.6777 166.57 85.9683C166.592 85.7875 166.649 85.6128 166.74 85.455C166.831 85.2972 166.954 85.1596 167.1 85.0504C167.396 84.7719 167.774 84.5968 168.178 84.5516C168.676 84.5001 169.175 84.6372 169.577 84.9357C169.981 85.245 170.321 85.5393 170.72 85.5194C171.075 85.4981 171.412 85.3554 171.674 85.1153C172.149 84.7262 172.343 84.357 172.383 84.387Z" fill="#FAFAFA"/>
<path d="M187.46 93.8254C187.46 93.8254 187.46 93.9252 187.355 94.0898C187.231 94.3204 187.075 94.5321 186.891 94.7184C186.609 95.0138 186.225 95.192 185.817 95.2173C185.569 95.2273 185.324 95.163 185.113 95.0327C184.907 94.904 184.709 94.7641 184.519 94.6136C184.2 94.3729 183.812 94.2426 183.413 94.2426C183.013 94.2426 182.625 94.3729 182.306 94.6136C182.055 94.8405 181.838 95.1026 181.662 95.3919C181.685 95.2114 181.743 95.0372 181.834 94.8796C181.925 94.722 182.047 94.5841 182.191 94.474C182.492 94.2035 182.872 94.0372 183.275 94C183.771 93.9499 184.268 94.0869 184.669 94.3842C185.073 94.6885 185.418 94.9878 185.812 94.9628C186.167 94.9471 186.506 94.8057 186.766 94.5638C187.225 94.1647 187.42 93.7955 187.46 93.8254Z" fill="#FAFAFA"/>
<path d="M177.792 78.9297C177.792 78.9297 177.882 78.9846 178.002 79.1192C178.176 79.3162 178.322 79.5361 178.436 79.7728C178.617 80.1402 178.654 80.5616 178.541 80.9551C178.463 81.1912 178.317 81.3992 178.122 81.5537C177.928 81.7008 177.726 81.8374 177.518 81.9628C177.154 82.1951 176.885 82.5487 176.758 82.9605C176.65 83.303 176.65 83.6705 176.758 84.0131C176.88 84.3289 177.049 84.6248 177.258 84.8911C177.258 84.916 176.838 84.7115 176.574 84.0729C176.424 83.6982 176.4 83.2854 176.504 82.8956C176.63 82.4125 176.933 81.9942 177.353 81.7233C177.777 81.4539 178.177 81.2244 178.292 80.8553C178.399 80.5148 178.383 80.1476 178.247 79.8177C178.002 79.2689 177.722 78.9546 177.792 78.9297Z" fill="#FAFAFA"/>
<path d="M179.29 92.399C179.29 92.399 179.29 92.2943 179.29 92.1147C179.316 91.8546 179.378 91.5994 179.475 91.3564C179.626 90.9749 179.912 90.6623 180.279 90.4784C180.504 90.3767 180.754 90.3438 180.998 90.3836C181.248 90.4186 181.497 90.4934 181.712 90.5483C182.098 90.649 182.506 90.6205 182.874 90.4674C183.242 90.3142 183.55 90.0447 183.75 89.7002C183.9 89.395 184.003 89.0686 184.054 88.7324C184.102 88.9084 184.115 89.0921 184.091 89.2728C184.066 89.4535 184.007 89.6277 183.915 89.785C183.738 90.1486 183.449 90.4459 183.09 90.6331C182.649 90.8673 182.136 90.9279 181.652 90.8027C181.251 90.6218 180.799 90.5848 180.374 90.6979C180.051 90.8481 179.793 91.1081 179.645 91.4313C179.36 91.99 179.32 92.414 179.29 92.399Z" fill="#FAFAFA"/>
<path d="M181.198 99.6222C181.198 99.6222 181.238 99.5224 181.353 99.3828C181.521 99.1806 181.716 99.0027 181.932 98.854C182.268 98.6188 182.679 98.5157 183.086 98.5646C183.331 98.6074 183.558 98.72 183.74 98.8889C183.925 99.0535 184.075 99.2481 184.24 99.4227C184.533 99.7481 184.933 99.9585 185.368 100.016C185.724 100.062 186.086 100.001 186.407 99.8417C186.702 99.6717 186.968 99.4562 187.196 99.2032C187.221 99.2032 187.086 99.6422 186.497 100.001C186.148 100.207 185.741 100.295 185.338 100.251C184.842 100.201 184.383 99.9681 184.05 99.5973C183.715 99.2181 183.436 98.859 183.051 98.8041C182.704 98.7564 182.352 98.8286 182.052 99.0086C181.493 99.3329 181.228 99.6571 181.198 99.6222Z" fill="#FAFAFA"/>
<path d="M164.772 100.106C164.772 100.106 164.837 100.022 164.982 99.9168C165.195 99.7624 165.429 99.6397 165.676 99.5527C166.058 99.403 166.483 99.403 166.865 99.5527C167.092 99.6517 167.283 99.8169 167.414 100.027C167.543 100.234 167.66 100.449 167.764 100.67C167.966 101.059 168.301 101.364 168.708 101.528C169.04 101.665 169.405 101.698 169.756 101.623C170.083 101.53 170.394 101.39 170.68 101.209C170.582 101.364 170.454 101.498 170.303 101.603C170.152 101.707 169.981 101.78 169.801 101.817C169.412 101.929 168.997 101.912 168.618 101.768C168.151 101.593 167.766 101.249 167.539 100.805C167.309 100.356 167.13 99.9368 166.765 99.7821C166.438 99.6417 166.071 99.6223 165.731 99.7273C165.132 99.9068 164.807 100.151 164.772 100.106Z" fill="#FAFAFA"/>
<path d="M181.757 75.258C181.757 75.258 181.852 75.2032 182.027 75.1632C182.284 75.1068 182.548 75.0866 182.811 75.1034C183.221 75.1291 183.608 75.307 183.894 75.6022C184.062 75.7865 184.173 76.0151 184.214 76.2607C184.259 76.5052 184.254 76.7596 184.279 76.9891C184.302 77.4234 184.479 77.8353 184.778 78.1514C185.032 78.406 185.355 78.5796 185.707 78.6503C186.038 78.7034 186.375 78.7034 186.706 78.6503C186.555 78.7538 186.385 78.825 186.205 78.8593C186.025 78.8936 185.84 78.8904 185.662 78.8498C185.264 78.7988 184.892 78.6243 184.598 78.351C184.238 78.0051 184.021 77.537 183.989 77.039C184.035 76.6021 183.927 76.1629 183.685 75.7968C183.441 75.5375 183.114 75.3731 182.761 75.3329C182.171 75.2131 181.787 75.3079 181.757 75.258Z" fill="#FAFAFA"/>
<path d="M190.776 52.54C190.776 52.54 190.871 52.5899 190.996 52.7246C191.18 52.911 191.336 53.1227 191.46 53.3532C191.658 53.7121 191.715 54.1319 191.62 54.5305C191.552 54.7683 191.417 54.9814 191.23 55.1441C191.044 55.3011 190.849 55.4476 190.646 55.5831C190.289 55.8393 190.036 56.2144 189.932 56.6407C189.846 56.9896 189.867 57.3563 189.992 57.6933C190.126 58.005 190.311 58.2918 190.541 58.5413C190.541 58.5663 190.117 58.3867 189.822 57.7631C189.655 57.3942 189.611 56.9814 189.697 56.5858C189.8 56.0992 190.082 55.6687 190.486 55.3786C190.901 55.0842 191.29 54.8498 191.39 54.4656C191.478 54.1207 191.445 53.7562 191.295 53.433C191.016 52.8693 190.726 52.5799 190.776 52.54Z" fill="#FAFAFA"/>
<path d="M175.954 72.2548C175.954 72.2548 176.044 72.1999 176.224 72.16C176.48 72.1059 176.742 72.0874 177.003 72.1052C177.415 72.127 177.802 72.3055 178.087 72.604C178.257 72.7846 178.368 73.0124 178.406 73.2575C178.44 73.4991 178.462 73.7422 178.471 73.9859C178.498 74.3831 178.654 74.7607 178.916 75.0614C179.177 75.3621 179.529 75.5694 179.919 75.6521C180.251 75.6998 180.587 75.6998 180.918 75.6521C180.766 75.7523 180.595 75.8212 180.416 75.8546C180.237 75.888 180.053 75.8853 179.874 75.8466C179.476 75.7976 179.103 75.6229 178.811 75.3478C178.451 75.0013 178.232 74.5339 178.196 74.0357C178.241 73.5997 178.136 73.1614 177.897 72.7936C177.652 72.5333 177.323 72.3687 176.968 72.3296C176.364 72.2149 175.954 72.3047 175.954 72.2548Z" fill="#FAFAFA"/>
<path d="M186.826 59.2048C186.826 59.2048 186.916 59.1499 187.096 59.11C187.353 59.0535 187.617 59.0334 187.88 59.0502C188.291 59.0759 188.677 59.2537 188.964 59.549C189.132 59.7324 189.241 59.9617 189.278 60.2075C189.315 60.4488 189.336 60.692 189.343 60.9358C189.374 61.3733 189.56 61.7855 189.868 62.0982C190.12 62.3517 190.441 62.5252 190.791 62.597C191.122 62.6495 191.459 62.6495 191.79 62.597C191.639 62.7006 191.469 62.7717 191.289 62.8061C191.11 62.8404 190.925 62.8372 190.746 62.7966C190.348 62.7466 189.976 62.572 189.683 62.2977C189.323 61.9519 189.105 61.4838 189.073 60.9857C189.117 60.5491 189.009 60.1107 188.769 59.7436C188.524 59.4832 188.195 59.3187 187.84 59.2796C187.236 59.1599 186.831 59.2547 186.826 59.2048Z" fill="#FAFAFA"/>
<path d="M164.702 75.3877C164.702 75.3877 164.807 75.3877 164.972 75.4775C165.21 75.588 165.43 75.7325 165.626 75.9065C165.938 76.1735 166.139 76.547 166.191 76.9541C166.21 77.2013 166.158 77.449 166.041 77.6675C165.926 77.887 165.776 78.0815 165.646 78.2811C165.403 78.647 165.299 79.0874 165.352 79.5232C165.394 79.8791 165.542 80.2143 165.776 80.4861C166.013 80.7281 166.286 80.9318 166.585 81.0897C166.402 81.0742 166.224 81.0221 166.062 80.9364C165.9 80.8507 165.757 80.7331 165.641 80.5908C165.356 80.3041 165.17 79.9333 165.112 79.5332C165.038 79.0393 165.152 78.5355 165.431 78.1214C165.716 77.7024 165.996 77.3482 165.931 76.9541C165.894 76.6005 165.735 76.2707 165.481 76.0213C165.052 75.6022 164.677 75.4276 164.702 75.3877Z" fill="#FAFAFA"/>
<path d="M159.369 61.6342C159.369 61.6342 159.459 61.5794 159.639 61.5345C159.891 61.4656 160.152 61.4336 160.413 61.4397C160.824 61.4418 161.219 61.5965 161.522 61.8737C161.695 62.0512 161.815 62.2744 161.866 62.5172C161.921 62.7617 161.931 63.0161 161.961 63.2406C162.01 63.6763 162.213 64.08 162.535 64.378C162.796 64.6239 163.125 64.7856 163.479 64.8419C163.813 64.8735 164.15 64.8533 164.478 64.7821C164.331 64.8906 164.164 64.9682 163.986 65.0103C163.809 65.0523 163.624 65.0578 163.444 65.0265C163.041 64.9886 162.66 64.8245 162.356 64.5576C161.982 64.228 161.745 63.7707 161.691 63.2755C161.715 62.8359 161.588 62.4012 161.332 62.0433C161.077 61.7963 160.742 61.6478 160.388 61.6243C159.779 61.5594 159.374 61.6841 159.369 61.6342Z" fill="#FAFAFA"/>
<path d="M160.163 55.8722C160.163 55.8722 160.253 55.8173 160.428 55.7674C160.682 55.7011 160.944 55.6692 161.207 55.6726C161.617 55.6758 162.011 55.8325 162.311 56.1116C162.487 56.287 162.607 56.5111 162.655 56.7551C162.703 56.9941 162.736 57.2356 162.755 57.4785C162.799 57.9114 162.995 58.3146 163.309 58.6159C163.572 58.862 163.903 59.0236 164.258 59.0798C164.592 59.1085 164.929 59.0883 165.257 59.02C165.108 59.1265 164.94 59.2026 164.762 59.2437C164.583 59.2848 164.399 59.2901 164.218 59.2594C163.816 59.2268 163.436 59.0639 163.135 58.7955C162.761 58.4652 162.522 58.0086 162.465 57.5134C162.494 57.074 162.369 56.6384 162.111 56.2812C161.855 56.0345 161.521 55.8846 161.167 55.8572C160.573 55.8123 160.168 55.922 160.163 55.8722Z" fill="#FAFAFA"/>
<path d="M160.023 69.3814C160.023 69.3814 160.113 69.3266 160.288 69.2767C160.542 69.2103 160.804 69.1785 161.067 69.1819C161.477 69.187 161.87 69.3434 162.171 69.6209C162.347 69.7963 162.467 70.0204 162.515 70.2644C162.563 70.5033 162.596 70.7449 162.615 70.9878C162.663 71.4227 162.865 71.8262 163.185 72.1252C163.447 72.3712 163.778 72.5329 164.134 72.5891C164.468 72.6188 164.804 72.5987 165.132 72.5292C164.985 72.6362 164.817 72.7124 164.64 72.7536C164.462 72.7947 164.278 72.7998 164.099 72.7687C163.696 72.7361 163.316 72.5732 163.015 72.3048C162.639 71.976 162.4 71.5186 162.346 71.0227C162.374 70.5833 162.249 70.1476 161.991 69.7905C161.734 69.5434 161.398 69.3935 161.042 69.3665C160.433 69.3216 160.028 69.4313 160.023 69.3814Z" fill="#FAFAFA"/>
<path d="M156.182 60.5615C156.182 60.5615 156.287 60.5615 156.452 60.6563C156.689 60.768 156.909 60.9124 157.106 61.0853C157.417 61.3507 157.616 61.7227 157.666 62.1279C157.689 62.3748 157.639 62.6232 157.521 62.8413C157.4 63.0544 157.269 63.2608 157.126 63.4599C156.88 63.8225 156.773 64.262 156.827 64.6971C156.868 65.0532 157.016 65.3886 157.251 65.6599C157.491 65.9013 157.765 66.1063 158.065 66.2685C157.881 66.254 157.702 66.2023 157.539 66.1165C157.376 66.0308 157.232 65.9127 157.116 65.7696C156.831 65.4831 156.647 65.112 156.592 64.712C156.518 64.2203 156.63 63.7186 156.906 63.3053C157.208 62.9844 157.393 62.5714 157.431 62.1329C157.392 61.7787 157.232 61.449 156.976 61.2001C156.532 60.7561 156.152 60.5615 156.182 60.5615Z" fill="#FAFAFA"/>
<path d="M180.898 82.671C180.898 82.671 180.988 82.6211 181.168 82.5812C181.425 82.5247 181.689 82.5046 181.952 82.5213C182.363 82.5471 182.749 82.7249 183.036 83.0202C183.203 83.2024 183.312 83.4297 183.351 83.6737C183.386 83.915 183.408 84.1582 183.415 84.402C183.444 84.8401 183.63 85.253 183.94 85.5644C184.189 85.8213 184.512 85.9955 184.864 86.0632C185.195 86.1139 185.531 86.1139 185.862 86.0632C185.711 86.1654 185.541 86.2358 185.361 86.2701C185.182 86.3044 184.997 86.3019 184.819 86.2628C184.42 86.2128 184.048 86.0382 183.755 85.7639C183.395 85.4181 183.177 84.95 183.146 84.4519C183.189 84.0137 183.082 83.5738 182.841 83.2048C182.596 82.9463 182.267 82.7836 181.912 82.7458C181.288 82.6311 180.903 82.7209 180.898 82.671Z" fill="#FAFAFA"/>
<path d="M166.67 95.7212C166.67 95.7212 166.67 95.6115 166.75 95.4469C166.852 95.2042 166.988 94.9774 167.154 94.7734C167.402 94.4572 167.758 94.2425 168.153 94.1698C168.399 94.1397 168.649 94.1813 168.872 94.2895C169.09 94.4015 169.302 94.5247 169.507 94.6587C169.882 94.8868 170.326 94.9735 170.76 94.9031C171.114 94.8471 171.443 94.6854 171.704 94.4392C171.937 94.191 172.131 93.9083 172.278 93.6011C172.274 93.7841 172.232 93.9643 172.156 94.1307C172.079 94.2971 171.97 94.4462 171.834 94.5689C171.56 94.8648 171.197 95.0642 170.8 95.1376C170.31 95.2333 169.803 95.1425 169.377 94.8831C169.045 94.5925 168.624 94.4251 168.183 94.4092C167.829 94.461 167.504 94.638 167.269 94.9081C166.875 95.3621 166.71 95.7462 166.67 95.7212Z" fill="#FAFAFA"/>
<path d="M175.689 100.046C175.689 100.046 175.62 99.9617 175.555 99.7921C175.457 99.549 175.394 99.294 175.365 99.0338C175.319 98.6275 175.426 98.2186 175.664 97.8864C175.819 97.6908 176.027 97.545 176.264 97.4674C176.495 97.3919 176.73 97.3303 176.968 97.2828C177.395 97.1823 177.772 96.9329 178.032 96.5794C178.244 96.2888 178.364 95.9412 178.376 95.5817C178.367 95.242 178.306 94.9056 178.196 94.584C178.321 94.7176 178.417 94.8747 178.48 95.046C178.542 95.2174 178.57 95.3995 178.561 95.5817C178.576 95.9855 178.459 96.3833 178.226 96.7141C177.945 97.1263 177.519 97.4182 177.033 97.5322C176.533 97.647 176.089 97.7168 175.854 98.0311C175.639 98.318 175.532 98.6709 175.55 99.0288C175.58 99.6474 175.734 100.032 175.689 100.046Z" fill="#FAFAFA"/>
<path d="M170.386 89.8147C170.386 89.8147 170.441 89.7249 170.576 89.6002C170.765 89.4177 170.98 89.2647 171.215 89.1462C171.577 88.9555 171.997 88.9057 172.393 89.0065C172.631 89.0777 172.843 89.2164 173.003 89.4056C173.156 89.5957 173.3 89.7939 173.432 89.9993C173.681 90.3591 174.052 90.6176 174.476 90.7276C174.824 90.8176 175.191 90.802 175.53 90.6827C175.843 90.5499 176.135 90.3699 176.394 90.1489C176.419 90.1489 176.229 90.573 175.599 90.8573C175.227 91.0148 174.814 91.0497 174.421 90.9571C173.934 90.8467 173.507 90.5584 173.222 90.1489C172.938 89.7299 172.723 89.3408 172.323 89.236C171.98 89.1389 171.614 89.1672 171.29 89.3158C170.72 89.5702 170.416 89.8596 170.386 89.8147Z" fill="#FAFAFA"/>
<path d="M168.628 78.4157C168.628 78.4157 168.678 78.3209 168.808 78.1962C168.992 78.0101 169.202 77.8521 169.432 77.7273C169.789 77.5238 170.21 77.4615 170.611 77.5527C170.851 77.6166 171.066 77.7503 171.23 77.9368C171.4 78.1214 171.529 78.3309 171.674 78.5155C171.933 78.8696 172.311 79.1192 172.738 79.2188C173.088 79.3018 173.455 79.2774 173.792 79.149C174.1 79.0091 174.385 78.8223 174.636 78.5953C174.661 78.5953 174.486 79.0193 173.862 79.3186C173.495 79.4895 173.084 79.5368 172.688 79.4533C172.199 79.355 171.764 79.0774 171.47 78.6751C171.17 78.266 170.93 77.8769 170.546 77.7871C170.201 77.699 169.836 77.7361 169.517 77.8919C168.953 78.1613 168.658 78.4556 168.628 78.4157Z" fill="#FAFAFA"/>
<path d="M170.031 35.4241C167.494 36.5715 166.481 39.3651 166.231 41.9093C165.981 44.4535 166.231 47.1573 165.232 49.5618C164.393 51.5922 162.675 53.443 162.87 55.613C163.015 57.2293 164.218 58.6561 164.443 60.2724C164.868 63.3952 161.552 66.1888 162.151 69.2918C162.425 70.7135 163.519 71.9307 164.823 72.7838C166.178 73.5785 167.628 74.2019 169.137 74.6395C171.135 75.308 173.397 75.9715 175.375 75.2731C177.133 74.6445 178.331 73.0432 180.149 72.5842C181.967 72.1253 183.755 72.8636 185.578 72.9035C186.404 72.9383 187.228 72.805 188 72.5117C188.773 72.2184 189.478 71.7712 190.072 71.1974C190.619 70.6496 190.997 69.9566 191.162 69.2007C191.327 68.4447 191.271 67.6574 191.001 66.9322C190.187 64.9367 187.69 63.6397 187.306 61.5445C186.956 59.6438 188.504 57.7681 188.015 55.8924C187.47 53.8021 184.674 52.7046 184.02 50.6493C183.206 48.185 185.802 45.551 184.789 43.1664C184.194 41.7497 182.486 40.8517 182.027 39.4C181.712 38.4023 182.052 37.3248 181.822 36.3071C181.433 34.5511 179.455 33.4187 177.527 33.0196C175.153 32.4984 172.669 32.8528 170.536 34.0173C169.545 34.5605 168.699 35.3317 168.067 36.2669C167.435 37.2022 167.035 38.2745 166.9 39.3951" fill="#263238"/>
<path d="M173.797 33.623C174.957 33.1803 176.201 32.996 177.44 33.083C178.679 33.17 179.884 33.5261 180.971 34.1266C182.059 34.727 183.001 35.5573 183.734 36.5595C184.467 37.5616 184.971 38.7114 185.213 39.9286C185.603 41.8841 185.313 44.0042 186.167 45.8051C187.091 47.7657 189.263 49.1126 189.588 51.2527C189.913 53.3928 188.364 55.2037 188.04 57.2739C187.705 59.424 188.719 61.604 188.474 63.7591C188.352 64.8396 187.92 65.8619 187.23 66.7027C186.539 67.5436 185.621 68.1673 184.584 68.4988C183.547 68.8304 182.436 68.8555 181.386 68.5713C180.335 68.2871 179.389 67.7057 178.661 66.897" fill="#263238"/>
<path d="M180.449 38.0328C180.546 37.2745 180.815 36.5485 181.237 35.9108C181.659 35.2732 182.223 34.741 182.883 34.3553C183.544 33.9696 184.285 33.7408 185.048 33.6864C185.811 33.6321 186.577 33.7537 187.286 34.0419C188.12 34.3614 188.818 34.9611 189.258 35.738C189.711 36.7029 189.777 37.8041 189.443 38.816C189.228 39.6004 188.844 40.3283 188.318 40.9487C187.792 41.5692 187.136 42.0672 186.397 42.4078C185.65 42.734 184.83 42.8534 184.021 42.7533C183.213 42.6532 182.446 42.3374 181.802 41.8391C181.177 41.3168 180.736 40.6088 180.542 39.8183C180.348 39.0277 180.411 38.196 180.724 37.4441" fill="#263238"/>
<path d="M184.284 42.4431C184.138 42.4912 183.984 42.5132 183.83 42.508C183.413 42.5441 182.994 42.5524 182.577 42.5329C181.944 42.5144 181.321 42.3791 180.739 42.1338C180.011 41.8169 179.431 41.2356 179.116 40.5076C178.803 39.7841 178.733 38.9792 178.916 38.2128C179.069 37.5958 179.359 37.0211 179.765 36.5316C180.032 36.2042 180.342 35.9155 180.689 35.6736C180.808 35.5751 180.946 35.5006 181.093 35.4541C180.662 35.8134 180.266 36.2126 179.91 36.6464C179.545 37.1259 179.284 37.6765 179.146 38.2627C178.994 38.9806 179.067 39.7279 179.355 40.4028C179.656 41.0673 180.188 41.5994 180.854 41.8994C181.407 42.1431 181.998 42.2883 182.601 42.3284C183.605 42.4332 184.284 42.3982 184.284 42.4431Z" fill="#E8505B"/>
<path d="M184.824 41.9244C184.58 42.2842 184.397 42.6821 184.284 43.1017C184.164 43.6062 184.132 44.1277 184.189 44.6431C184.27 45.3269 184.437 45.9976 184.689 46.6386C184.958 47.3669 185.383 48.1352 185.797 48.9433C186.277 49.8235 186.633 50.7652 186.856 51.7419C187.113 52.8849 186.907 54.0831 186.282 55.0743C185.957 55.6011 185.527 56.0552 185.018 56.408C184.509 56.7608 183.933 57.0048 183.325 57.1246L183.166 57.1596V56.9949C183.201 56.3664 183.24 55.7029 183.28 55.0244L183.53 55.0793C183.373 55.4669 183.123 55.8096 182.801 56.077C182.488 56.3462 182.117 56.5398 181.717 56.6427C181.317 56.7457 180.898 56.7552 180.494 56.6707L180.334 56.6358L180.409 56.4861C181.014 55.4069 181.449 54.2408 181.697 53.029C181.791 52.4624 181.774 51.883 181.647 51.3229C181.516 50.7817 181.277 50.2726 180.943 49.8263C180.314 48.9483 179.525 48.2399 178.981 47.4168C178.473 46.6611 178.116 45.814 177.932 44.9225C177.658 43.6416 177.738 42.3107 178.162 41.0713C178.308 40.623 178.514 40.1968 178.776 39.8042C178.806 39.8042 178.526 40.2432 178.251 41.1012C177.87 42.3283 177.818 43.6342 178.102 44.8876C178.292 45.7555 178.648 46.5787 179.15 47.3121C179.685 48.1052 180.474 48.8086 181.148 49.7016C181.498 50.1643 181.752 50.6916 181.897 51.253C182.032 51.8457 182.052 52.4587 181.957 53.0589C181.708 54.2965 181.268 55.4879 180.654 56.5909L180.569 56.4113C180.934 56.4841 181.312 56.473 181.673 56.3788C182.033 56.2846 182.368 56.1097 182.651 55.8675C182.939 55.6275 183.163 55.321 183.305 54.9745L183.6 54.2612L183.555 55.0294C183.515 55.7079 183.475 56.3714 183.435 57.0249L183.285 56.8902C183.859 56.7754 184.403 56.5444 184.884 56.2115C185.365 55.8787 185.773 55.4509 186.082 54.9546C186.661 54.0322 186.858 52.9214 186.631 51.8567C186.423 50.9 186.087 49.9756 185.633 49.1079C185.229 48.3495 184.865 47.5702 184.544 46.7733C184.285 46.1124 184.117 45.4192 184.045 44.713C183.995 44.182 184.041 43.6465 184.179 43.1316C184.27 42.8088 184.412 42.5023 184.599 42.2237C184.665 42.1174 184.74 42.0172 184.824 41.9244Z" fill="#455A64"/>
<path d="M186.576 33.9771C186.645 34.0972 186.691 34.2292 186.711 34.3662C186.798 34.7293 186.849 35.1004 186.861 35.4736C186.915 36.72 186.609 37.9556 185.981 39.0335C185.352 40.1115 184.427 40.9866 183.315 41.5547C182.983 41.7263 182.636 41.865 182.277 41.9688C182.147 42.0176 182.01 42.043 181.872 42.0436C181.872 41.9987 182.426 41.8541 183.225 41.3901C184.276 40.8001 185.15 39.9407 185.758 38.9007C186.365 37.8607 186.684 36.6777 186.681 35.4736C186.686 34.5507 186.531 33.987 186.576 33.9771Z" fill="#455A64"/>
<path d="M185.178 40.2432C184.841 40.3355 184.487 40.3475 184.145 40.2781C183.299 40.1698 182.502 39.822 181.848 39.2756C181.194 38.7293 180.71 38.0074 180.454 37.1951C180.327 36.8683 180.277 36.5166 180.309 36.1675C180.354 36.1675 180.404 36.5516 180.629 37.1353C180.919 37.8895 181.397 38.5573 182.017 39.0758C182.638 39.5943 183.38 39.9463 184.175 40.0985C184.784 40.2182 185.178 40.1983 185.178 40.2432Z" fill="#455A64"/>
<path d="M174.711 75.2829C175.288 75.0515 175.827 74.7336 176.309 74.34C177.574 73.2036 178.411 71.6683 178.681 69.99C179.038 67.4927 178.523 64.9489 177.223 62.7864C176.437 61.5258 175.575 60.3146 174.641 59.1597C174.164 58.5199 173.754 57.8329 173.417 57.1094C173.072 56.3561 172.868 55.5464 172.813 54.7199C172.766 53.0941 173.094 51.4794 173.772 50.0006C174.371 48.554 175.135 47.2619 175.77 45.9848C176.394 44.8003 176.85 43.5342 177.123 42.2234C177.372 40.8147 177.289 39.3674 176.882 37.996C176.475 36.6246 175.754 35.3666 174.776 34.3215C174.331 33.8874 173.849 33.4919 173.337 33.1392L173.447 33.194L173.757 33.3786C174.146 33.6332 174.511 33.9238 174.846 34.2466C176.057 35.486 176.891 37.0427 177.253 38.7364C177.508 39.899 177.537 41.0998 177.338 42.2733C177.072 43.6083 176.616 44.8985 175.984 46.1045C175.365 47.3966 174.611 48.6886 174.022 50.0954C173.364 51.5394 173.044 53.1141 173.088 54.6999C173.25 56.2775 173.865 57.7745 174.861 59.0101C175.8 60.1747 176.664 61.3977 177.447 62.6717C178.856 65.166 179.3 67.8798 178.876 70.0249C178.582 71.736 177.699 73.2906 176.379 74.4199C176.012 74.7083 175.609 74.948 175.18 75.1332L174.836 75.248L174.711 75.2829Z" fill="#455A64"/>
<path d="M170.461 75.0587C170.461 75.0587 170.431 75.0587 170.376 74.9888C170.296 74.9162 170.219 74.8396 170.146 74.7594C169.877 74.4354 169.663 74.0697 169.512 73.6768C169.287 73.0477 169.208 72.3754 169.282 71.7113C169.376 70.8212 169.766 69.9884 170.391 69.3467C171.1 68.6333 172.149 68.2841 173.103 67.7105C173.597 67.4363 174.009 67.0349 174.296 66.5481C174.575 66.0131 174.68 65.4044 174.596 64.8071C174.379 63.5066 173.755 62.3083 172.813 61.3849C171.874 60.3872 170.73 59.4593 169.886 58.2072C169.462 57.5918 169.174 56.8927 169.043 56.1568C168.928 55.4447 168.928 54.7189 169.043 54.0068C169.288 52.6824 169.683 51.3904 170.221 50.1556C170.698 49.0516 171.046 47.8967 171.26 46.7134C171.424 45.6857 171.323 44.6329 170.965 43.6554C170.801 43.2357 170.568 42.8463 170.276 42.503C170.003 42.2042 169.704 41.9304 169.382 41.6849C168.844 41.3038 168.335 40.8836 167.859 40.4278C167.559 40.1271 167.345 39.7515 167.24 39.3403C167.201 39.1991 167.187 39.0521 167.2 38.9062C167.2 38.9062 167.2 39.0609 167.29 39.3303C167.418 39.7111 167.64 40.0539 167.934 40.328C168.417 40.77 168.931 41.1768 169.472 41.5452C169.807 41.79 170.118 42.0655 170.401 42.3683C170.71 42.7221 170.959 43.1251 171.135 43.5606C171.519 44.5665 171.634 45.6546 171.47 46.7184C171.274 47.9174 170.939 49.0894 170.471 50.2104C169.944 51.4298 169.559 52.7051 169.322 54.0117C169.212 54.6975 169.212 55.3963 169.322 56.082C169.448 56.7835 169.722 57.4501 170.126 58.0376C170.935 59.2398 172.069 60.1577 173.023 61.1804C173.998 62.1468 174.642 63.3973 174.861 64.7522C174.944 65.3969 174.828 66.0518 174.526 66.6279C174.215 67.1534 173.771 67.5871 173.237 67.8851C172.239 68.4637 171.24 68.798 170.536 69.4664C169.932 70.076 169.548 70.8695 169.447 71.7213C169.358 72.3179 169.405 72.9267 169.584 73.5026C169.763 74.0786 170.07 74.607 170.481 75.0487L170.461 75.0587Z" fill="#455A64"/>
<path d="M184.659 71.5612C184.603 71.4895 184.558 71.4106 184.524 71.3267C184.406 71.0991 184.322 70.8554 184.274 70.6034C184.196 70.2043 184.173 69.7965 184.204 69.3912C184.252 68.859 184.335 68.3307 184.454 67.8098C184.574 67.2361 184.723 66.6075 184.818 65.9291C184.863 65.58 184.885 65.2284 184.883 64.8765C184.861 64.5058 184.803 64.1382 184.709 63.779C184.471 63.0152 184.079 62.3087 183.555 61.7037C182.986 61.044 182.375 60.4208 181.727 59.838C181.075 59.2463 180.456 58.6184 179.874 57.9573C179.328 57.3293 178.894 56.6121 178.591 55.8371C178.148 54.5008 178.079 53.0692 178.391 51.6966C178.575 50.7807 178.829 49.8802 179.15 49.0027C179.26 48.6885 179.35 48.449 179.415 48.2894C179.442 48.2033 179.481 48.1211 179.53 48.0449C179.517 48.1334 179.495 48.2204 179.465 48.3043C179.41 48.4989 179.335 48.7383 179.245 49.0327C178.966 49.9176 178.743 50.8189 178.576 51.7315C178.294 53.0707 178.376 54.461 178.816 55.7573C179.355 57.204 180.593 58.4312 181.907 59.6484C182.56 60.2397 183.175 60.8711 183.75 61.5391C184.293 62.1734 184.698 62.9142 184.938 63.7141C185.038 64.0907 185.095 64.4773 185.108 64.8665C185.109 65.232 185.084 65.5971 185.033 65.959C184.928 66.6524 184.763 67.276 184.634 67.8497C184.507 68.3623 184.412 68.882 184.349 69.4061C184.308 69.7997 184.316 70.1969 184.374 70.5884C184.443 70.9196 184.539 71.2448 184.659 71.5612Z" fill="#455A64"/>
</g>
<defs>
<clipPath id="clip0_1298_2147">
<rect width="313" height="197" fill="white"/>
</clipPath>
</defs>
</svg>
