<svg width="163" height="523" viewBox="0 0 163 523" fill="none" xmlns="http://www.w3.org/2000/svg">
<path d="M0.527344 502.679C0.527344 502.679 34.9822 522.5 76.1846 522.5C117.387 522.5 150.527 503.512 150.527 503.512C150.527 503.512 117.387 488.5 76.1846 488.5C34.9822 488.5 0.527344 502.679 0.527344 502.679Z" fill="black" fill-opacity="0.19"/>
<path d="M99.1383 68.2032H68.8154V104.473H99.1383V68.2032Z" fill="#FFA58F"/>
<path d="M99.132 68.2172V79.3714C91.591 85.5082 81.398 89.6526 68.8008 90.5257V68.2172H99.132Z" fill="#B3624B"/>
<path d="M141.279 106.748C144.588 109.345 150.292 114.689 150.632 117.555C150.971 120.42 161.807 196.55 162.483 201.477C163.841 211.364 132.505 201.217 131.317 194.761C130.129 188.306 117.042 141.377 117.042 141.377L129.687 104.103C129.687 104.103 137.787 104.008 141.279 106.748Z" fill="#EB601D"/>
<path d="M124.177 218.735C132.124 267.801 125.248 358.224 123.186 371.525C121.102 384.979 93.4669 362.761 92.5765 349.189C92.2564 344.311 93.5309 339.459 93.5393 334.573C93.5393 330.255 91.6665 326.108 91.5914 321.773C90.9653 283.97 83.5494 278.653 78.1761 255.318L69.4746 218.735H124.177Z" fill="#0E0E0E"/>
<path d="M42.4715 501.089C48.3513 498.262 53.5327 495.279 54.9936 492.24L55.642 465.376C55.8701 463.378 56.3014 460.938 54.3591 460.669L45.5297 459.427C44.6919 459.311 43.841 459.51 43.1394 459.984C42.4378 460.459 41.9346 461.177 41.7258 462.001C40.7407 465.706 37.2735 477.952 37.2735 477.952L20.0431 495.039C18.29 496.776 16.4256 498.551 16.2559 501.075C16.2614 501.17 42.4715 501.089 42.4715 501.089Z" fill="#B3B3B3"/>
<path d="M55.4693 472.467C54.9127 472.383 56.9051 486.828 50.3602 487.906C49.9402 487.97 49.5162 488.006 49.0913 488.012L48.571 481.911C48.571 481.911 39.2713 477.594 32.3006 478.139L30.6783 481.467L10.8656 492.43C9.22661 494.056 6.74725 496.513 6.51907 499.905C6.48567 500.381 6.69716 500.923 7.0756 501.503H57.1639C57.1639 501.503 56.0258 472.554 55.4693 472.467Z" fill="#1A1A1A"/>
<path d="M142.392 500.993C142.392 500.993 141.19 496.74 139.857 494.985L126.778 477.734C126.778 477.734 125.131 466.574 124.685 463.21C124.595 462.461 124.24 461.77 123.686 461.262C123.131 460.754 122.413 460.463 121.664 460.443L113.85 460.311C113.436 460.31 113.026 460.39 112.644 460.548C112.261 460.706 111.913 460.939 111.62 461.232C111.327 461.526 111.094 461.874 110.935 462.258C110.777 462.643 110.695 463.054 110.694 463.47L109.804 487.771C111.323 492.419 113.096 496.474 115.091 500.924L142.392 500.993Z" fill="#B3B3B3"/>
<path d="M141.15 493.93L132.293 482.261L131.069 478.562C125.069 477.137 116.501 479.636 116.501 479.636L115.388 484.886C115.018 484.823 114.653 484.734 114.295 484.62C108.729 482.79 110.508 473.183 110.015 473.183C109.522 473.183 103.682 501.503 103.682 501.503H144.067C144.086 501.349 144.103 501.195 144.111 501.041C144.287 498.044 142.405 495.573 141.15 493.93Z" fill="#1A1A1A"/>
<path d="M44.6278 215.937C36.5052 265.003 40.5206 355.426 42.6271 368.727C44.7558 382.181 72.9973 359.959 73.9072 346.39C74.2356 341.513 72.9333 336.66 72.9249 331.774C72.9249 327.456 73.9156 323.197 74.909 318.975C80.4048 295.648 92.0086 272.321 97.5016 248.993V215.937H44.6278Z" fill="#0E0E0E"/>
<path d="M37.5539 469.075C37.2116 449.75 37.5372 430.422 37.8655 411.099L38.3581 381.971C38.589 368.293 39.3849 354.435 44.3937 341.532C45.888 337.682 69.9554 327.745 72.9246 331.783C72.9246 331.783 74.9281 350.812 76.1831 359.436C77.0179 365.108 75.8881 370.851 74.7695 376.481C68.6949 407.086 65.5198 438.47 59.4453 469.075H37.5539Z" fill="#0E0E0E"/>
<path d="M128.629 470.634C128.965 451.309 128.164 433.22 127.844 413.898C127.683 404.187 127.522 394.478 127.363 384.77C127.134 371.091 126.358 357.234 121.455 344.331C119.994 340.48 96.4415 330.543 93.5364 334.581C93.5364 334.581 91.5746 353.61 90.3474 362.234C89.5376 367.907 90.6257 373.649 91.7387 379.279C97.6826 409.885 100.515 440.11 106.462 470.715L128.629 470.634Z" fill="#0E0E0E"/>
<path d="M62.7488 236.345C61.8528 236.345 61.2517 236.345 61.0096 236.345C56.4933 236.289 43.0557 232.366 41.1106 229.307C46.1195 203.282 43.0585 187.612 40.1228 172.436C38.4532 163.901 36.5776 145.413 36.5776 145.413C34.7661 141.999 32.6819 116.469 34.2179 105.939L67.4766 91.8801L82.8759 96.5169H85.9842L101.386 91.8801L134.642 105.939C136.184 116.469 134.086 141.999 132.285 145.413C132.285 145.413 129.951 164.346 127.833 172.957C124.241 187.531 120.528 202.6 125.562 228.364L125.585 228.479C124.586 229.995 117.108 233.891 113.46 234.47C101.745 236.325 64.3488 236.345 62.7488 236.345Z" fill="#E8D3C9"/>
<path d="M90.2835 110.808L96.0938 105.141L92.6404 95.6467L84.4315 94.9135L76.2254 95.6467L72.7693 105.141L78.5795 110.808L69.4746 199.852L84.4315 217.439L99.3884 199.852L90.2835 110.808Z" fill="#FE9E70"/>
<path d="M100.421 84.2126L84.4316 94.9135L90.2836 96.1168L94.9752 120.532L110.575 95.8397L100.421 84.2126Z" fill="#E7EBF4"/>
<path d="M68.4421 84.2126L84.4314 94.9135L78.5794 96.1168L73.8878 120.532L58.2881 95.8397L68.4421 84.2126Z" fill="#E7EBF4"/>
<path d="M27.7732 106.317C24.4646 108.911 18.7601 114.256 18.4206 117.121C18.0811 119.987 10.796 180.565 8.90661 197.196C7.72953 213.222 37.8966 213.404 39.7554 208.977C41.6143 204.55 51.9992 140.955 51.9992 140.955L39.3547 103.684C39.3547 103.684 31.2655 103.577 27.7732 106.317Z" fill="#EB601D"/>
<path d="M138.597 105.377L108.062 92.9658L98.6901 165.759L97.502 256.244C109.217 264.275 130.816 261.511 133.184 258.483C135.552 255.455 131.687 235.195 131.184 231.3C125.896 190.116 133.688 146.151 133.688 146.151C133.688 146.151 140.4 115.355 138.597 105.377Z" fill="#F16623"/>
<path d="M71.3584 165.141L60.7842 92.9658L31.0985 104.736C29.2954 114.717 35.1752 146.151 35.1752 146.151C35.1752 146.151 45.5101 189.397 38.8845 229.97C38.6062 233.51 34.4879 255.631 36.1936 258.094C37.8994 260.556 63.4111 266.209 73.7933 259.305L71.3584 165.141Z" fill="#F16623"/>
<path d="M154.063 206.713C154.363 204.698 147.663 185.253 139.699 182.485C131.735 179.718 56.0374 171.793 56.0374 171.793C56.0374 171.793 52.1193 178.397 53.4634 183.523C53.4634 183.523 109.376 202.53 116.767 204.819C124.157 207.108 153.762 208.728 154.063 206.713Z" fill="#FFA58F"/>
<path d="M59.2812 172.806C59.2812 172.806 44.0293 166.649 43.0498 166.126V188.429L57.0884 183.672L59.2812 172.806Z" fill="#FFA58F"/>
<path d="M68.005 168.79L63.1631 191.345C63.1631 191.345 113.708 207.077 134.461 211.448C155.214 215.819 163.957 207.972 162.21 200.845C160.462 193.718 154.449 183.154 141.59 179.989C128.731 176.824 68.005 168.79 68.005 168.79Z" fill="#EB601D"/>
<path d="M19.6866 207.53C19.7646 205.496 26.2621 182.488 34.5935 181.254C42.9248 180.02 127.9 192.629 127.9 192.629C127.9 192.629 124.11 204.382 121.007 205.641C121.007 205.641 78.4124 207.267 63.2607 209.137C55.586 210.094 19.6115 209.568 19.6866 207.53Z" fill="#FFA58F"/>
<path d="M114.537 204.217C119.145 206.736 124.41 207.382 129.383 208.792C131.411 209.369 133.835 209.839 135.262 208.423C136.064 207.628 136.328 206.422 136.559 205.278C137.305 201.601 134.133 196.323 134.889 191.524C135.413 188.166 135.596 180.982 133.877 181.17C129.344 181.699 121.942 189.05 117.18 191.459C116.488 191.808 115.909 192.347 115.511 193.015C113.939 195.66 110.63 202.09 114.537 204.217Z" fill="#FFA58F"/>
<path d="M133.754 194.524C138.568 194.638 141.824 194.42 145.639 193.519C148.026 192.959 150.648 190.872 157.819 186.554C160.487 184.95 156.861 182.966 154.023 184.27C149.785 186.229 150.592 186.084 145.355 187.791C141.106 189.19 137.163 187.402 132.964 188.034C130.139 188.46 130.882 194.454 133.754 194.524Z" fill="#FFA58F"/>
<path d="M134.094 199.969C140.864 199.499 143.199 200.221 147.515 199.099C150.793 198.243 152.398 196.88 157.661 194.868C161.278 193.488 159.052 189.492 155.448 190.869C150.061 192.929 148.169 193.709 148.169 193.709C142.654 195.26 136.916 193.914 131.32 194.773C127.555 195.349 130.279 200.235 134.094 199.969Z" fill="#FFA58F"/>
<path d="M133.707 204.304C139.453 205.406 144.927 205.874 147.657 205.423C148.923 205.213 154.235 203.053 155.71 202.535C157.191 201.973 158.558 201.144 159.745 200.09C160.733 198.948 159.447 197.051 157.883 197.42C156.058 197.848 150.186 199.966 146.196 200.644C140.555 201.606 137.266 198.556 131.631 198.839C127.855 199.026 129.942 203.582 133.707 204.304Z" fill="#FFA58F"/>
<path d="M131.74 209.36C136.818 210.175 138.618 209.845 140.842 209.906C141.874 209.937 145.625 209.268 147.954 209.193C149.206 209.153 152.685 208.499 152.685 208.499C153.6 207.634 152.855 206.025 151.572 206.086C150.069 206.156 147.264 206.366 144.022 206.293C139.42 206.182 135.143 204.024 130.624 203.296C127.588 202.818 128.693 208.871 131.74 209.36Z" fill="#FFA58F"/>
<path d="M132.28 193.113C134.361 188.958 135.585 186.117 137.533 185.393C139.645 184.617 142.478 183.543 143.708 182.77C144.938 181.998 146.213 180.179 146.352 178.671C146.63 175.64 141.087 177.669 136.946 178.447C133.652 179.068 131.918 180.266 130.474 181.654C128.684 183.381 122.562 189.537 122.562 189.537L132.28 193.113Z" fill="#FFA58F"/>
<path d="M110.575 209.596L115.439 186.282C115.439 186.282 40.1118 177.991 33.681 177.193C27.2502 176.396 16.6037 184.858 15.2401 193.396C13.8766 201.934 14.9619 208.854 23.7023 210.746C32.4427 212.637 110.575 209.596 110.575 209.596Z" fill="#EB601D"/>
<path d="M99.3213 64.2491C100.64 64.6213 102.084 64.3415 103.306 63.7342C104.528 63.127 105.56 62.2175 106.531 61.2773C109.097 58.7924 111.479 55.6638 111.298 52.1575C111.237 50.985 110.842 49.7677 109.932 48.9926C108.844 48.0719 107.188 47.9599 105.847 48.4776C104.505 48.9953 103.448 50.0531 102.669 51.2284L99.3213 64.2491Z" fill="#FFA58F"/>
<path d="M67.2626 64.2491C65.9436 64.6213 64.4966 64.3415 63.275 63.7342C62.0534 63.127 61.021 62.2175 60.0499 61.2773C57.4842 58.7924 55.1022 55.6638 55.2831 52.1575C55.3443 50.985 55.7395 49.7677 56.6522 48.9926C57.7375 48.0719 59.3931 47.9599 60.7344 48.4776C62.0757 48.9953 63.1331 50.0531 63.9122 51.2284L67.2626 64.2491Z" fill="#FFA58F"/>
<path d="M104.561 65.9478C105.577 54.9754 108.421 48.5784 110.179 42.2373C111.437 37.4801 112.709 29.3649 107.216 22.2207C101.79 14.7883 88.1712 10.5656 75.702 14.1055C63.1437 17.6622 56.1759 25.0471 57.698 33.4505C58.466 38.4875 59.1868 45.4471 60.0216 50.638C60.7172 54.9531 59.4122 59.2821 60.9983 63.488C63.9535 70.7217 75.3764 83.4123 84.3728 83.4123C91.7247 83.4263 103.863 70.7358 104.561 65.9478Z" fill="#FFA58F"/>
<g style="mix-blend-mode:soft-light">
<path d="M85.6197 57.2477C85.5434 57.4574 85.4504 57.6604 85.3414 57.8549C85.2565 58.0584 85.1143 58.2325 84.9324 58.3559C84.7487 58.4566 84.4704 58.3866 84.2562 58.076C84.1364 57.8951 84.062 57.6877 84.0391 57.4716C84.0134 57.2134 84.0438 56.9528 84.1282 56.7076C84.2149 56.4649 84.3536 56.2442 84.5344 56.0612C84.6857 55.9102 84.8708 55.7979 85.0743 55.7338C85.436 55.6303 85.6948 55.759 85.7755 55.9549C85.8367 56.1688 85.8367 56.3958 85.7755 56.6097C85.7402 56.8261 85.6881 57.0395 85.6197 57.2477Z" fill="#F2F2F2"/>
</g>
<path d="M83.3352 57.992C83.2991 57.8409 83.2685 57.7122 83.2462 57.5863C83.2239 57.4604 83.2045 57.3624 83.1906 57.2561C83.1746 57.1318 83.169 57.0063 83.1739 56.8811C83.1739 56.7412 83.1933 56.6013 83.2128 56.4278C83.2653 56.1238 83.2904 55.8156 83.2879 55.5071C83.2905 55.3885 83.2697 55.2706 83.2268 55.1601C83.1838 55.0496 83.1194 54.9488 83.0375 54.8635C82.976 54.8002 82.8928 54.7629 82.8049 54.7592C82.7169 54.7556 82.6309 54.7859 82.5645 54.8439C82.3394 55.0314 82.1555 55.2639 82.0246 55.5267C81.7887 55.9421 81.6418 56.4024 81.5933 56.8783C81.5686 57.1595 81.5884 57.4428 81.6517 57.7178C81.7138 57.989 81.8072 58.252 81.93 58.5013C82.0424 58.7353 82.1746 58.959 82.3251 59.1702C82.4613 59.3585 82.6081 59.5388 82.7648 59.7102C83.0121 59.9782 83.2801 60.2262 83.5662 60.4518C84.0309 60.8128 84.312 60.9443 84.465 60.6952C84.6181 60.4462 84.5958 60.172 84.3426 59.755C84.2201 59.5451 84.0393 59.3017 83.8389 59.0106C83.7377 58.8582 83.6448 58.7003 83.5606 58.5377C83.4645 58.3654 83.3888 58.1822 83.3352 57.992Z" fill="#D16343"/>
<path d="M91.4936 44.795C92.8043 44.4534 94.17 44.3811 95.509 44.5824C96.8475 44.7783 100.034 48.0747 98.8483 47.7473C97.6757 47.4139 96.4833 47.1559 95.2781 46.9749C94.0799 46.7966 92.8716 46.6957 91.6606 46.6727C90.4223 46.6391 90.183 45.1476 91.4936 44.795Z" fill="#1A1A1A"/>
<path d="M75.2595 44.6719C73.9414 44.3625 72.5748 44.3235 71.2413 44.5571C69.9057 44.7866 66.789 48.1586 67.9717 47.8005C69.1373 47.4409 70.3241 47.1549 71.5252 46.9441C72.7214 46.7365 73.9298 46.6066 75.1427 46.5552C76.3643 46.4908 76.5757 44.9909 75.2595 44.6719Z" fill="#1A1A1A"/>
<path d="M74.7087 54.3402L74.692 51.4243C74.6876 50.7482 74.4168 50.1014 73.939 49.6256C73.4612 49.1499 72.8154 48.884 72.1431 48.8862C71.4704 48.8914 70.8273 49.1643 70.3542 49.6452C69.8812 50.1262 69.6169 50.7759 69.6192 51.4523L69.6359 54.3682C69.6359 55.7702 74.717 55.7422 74.7087 54.3402Z" fill="#1A1A1A"/>
<path d="M92.1504 54.3402L92.1755 51.4271C92.1813 50.751 92.4529 50.1046 92.931 49.6291C93.4091 49.1536 94.0548 48.8875 94.7272 48.889C95.3998 48.8942 96.043 49.1671 96.516 49.648C96.989 50.129 97.2533 50.7787 97.2511 51.4551L97.2344 54.371C97.2149 55.7702 92.1421 55.7422 92.1504 54.3402Z" fill="#1A1A1A"/>
<path d="M78.8189 63.6811C79.8353 65.1378 81.3111 66.2066 83.0071 66.7145C84.703 67.2224 86.5198 67.1396 88.1631 66.4795C88.2989 66.4008 88.3985 66.2718 88.4407 66.12C88.4828 65.9683 88.4641 65.806 88.3885 65.668C88.3088 65.5331 88.1805 65.4342 88.0302 65.392C87.8799 65.3498 87.7192 65.3674 87.5815 65.4413C84.9018 66.5606 81.4875 65.5084 79.8512 63.1103C79.4227 62.4834 78.3848 63.0599 78.8189 63.6951V63.6811Z" fill="#C2502F"/>
<path d="M111.793 37.2898C112.372 34.1641 112.628 31.0019 112.113 27.8818C111.312 23.021 108.27 18.2387 103.562 16.6604C106.136 14.9506 106.372 11.0357 104.778 8.40527C103.184 5.77482 100.287 4.20774 97.4011 3.0884C87.6617 -0.692172 76.1108 -0.524277 67.2229 4.91852C58.335 10.3613 53.4013 23.1638 55.4438 31.3769C57.4863 39.5901 58.3823 43.8912 64.0312 43.5694C69.04 43.2895 73.4589 40.3261 77.2684 37.1024C81.0779 33.8787 86.788 28.0693 91.2931 25.909C94.8494 24.1992 99.2488 23.6227 102.816 25.0387C106.971 34.0969 105.913 44.4788 106.347 55.1881C107.619 51.2928 109.514 46.5356 110.588 42.478C111.042 40.7626 111.468 39.0304 111.793 37.2898Z" fill="black"/>
<path d="M60.2356 54.76L62.6955 27.616C62.6955 27.616 58.8193 24.1516 56.9048 25.7579C54.9903 27.3641 60.2356 54.76 60.2356 54.76Z" fill="#202020"/>
</svg>
