<svg width="1109" height="519" viewBox="0 0 1109 519" fill="none" xmlns="http://www.w3.org/2000/svg">
<g clip-path="url(#clip0_761_4776)">
<path d="M233.123 85.9219L250.709 88.05C258.789 99 270.673 106.533 284.025 109.167C297.378 111.802 311.233 109.348 322.868 102.289C334.502 95.2288 343.076 84.0734 346.903 71.0147C350.73 57.9561 349.534 43.9385 343.549 31.7168C337.565 19.4952 327.225 9.95324 314.562 4.96634C301.899 -0.0205672 287.829 -0.0918179 275.116 4.76655C262.403 9.62491 251.967 19.0616 245.859 31.222C239.752 43.3824 238.413 57.3871 242.108 70.4839L233.123 85.9219Z" fill="white"/>
<path d="M233.123 85.9218C233.123 85.9218 233.28 85.6079 233.646 84.945L235.391 81.9969L242.003 70.3618L242.16 70.0652L242.335 70.3618L241.986 70.5188C239.453 61.7525 239.171 52.4893 241.166 43.5852C242.441 37.833 244.663 32.3329 247.743 27.31C251.174 21.5926 255.627 16.5548 260.881 12.4476C270.277 5.07363 281.829 0.977701 293.772 0.785555C305.715 0.59341 317.393 4.31562 327.021 11.3836C334.201 16.5807 339.985 23.472 343.857 31.4442C344.328 32.4559 344.852 33.4502 345.288 34.4969L346.352 37.724L346.928 39.294L347.346 40.9163L348.201 44.126C349.1 48.4089 349.492 52.7823 349.37 57.1567C349.175 64.7738 347.394 72.2666 344.139 79.1567C340.885 86.0467 336.23 92.1827 330.471 97.1728C324.711 102.163 317.975 105.898 310.691 108.138C303.407 110.379 295.736 111.077 288.167 110.186L285.847 109.872C285.081 109.794 284.322 109.654 283.579 109.454L279.217 108.407C276.51 107.548 273.853 106.534 271.261 105.372C263.01 101.499 255.869 95.6075 250.5 88.2419H250.622L237.485 86.4975L234.152 86.0614L233.071 85.8869L234.239 86.009L237.642 86.3754L250.674 87.8232H250.762C256.154 95.0724 263.272 100.859 271.471 104.657C274.035 105.79 276.662 106.774 279.339 107.605L283.666 108.634C284.399 108.822 285.146 108.951 285.899 109.018L288.202 109.332C299.033 110.559 309.983 108.5 319.628 103.423C329.274 98.3461 337.169 90.4855 342.287 80.8631C346.141 73.4711 348.259 65.298 348.481 56.9648C348.585 52.6603 348.192 48.3581 347.312 44.1434L346.474 40.9861L346.055 39.3987L345.497 37.8462L344.346 34.7586C343.927 33.7468 343.404 32.7525 342.932 31.7582C339.129 23.9202 333.447 17.1431 326.393 12.029C320.347 7.60399 313.448 4.48319 306.132 2.86451C298.817 1.24583 291.245 1.16457 283.896 2.62586C276.548 4.08715 269.583 7.05912 263.443 11.3533C257.304 15.6476 252.124 21.1704 248.232 27.5716C245.169 32.5302 242.941 37.9576 241.637 43.6376C239.634 52.448 239.843 61.6173 242.248 70.3269L242.649 71.7573L241.899 70.4839H242.23L235.478 81.8748C234.711 83.1657 234.117 84.1425 233.734 84.8403L233.123 85.9218Z" fill="#263238"/>
<path d="M305.544 50.0567L301.845 49.8997L294.274 38.3343L294.605 30.9555C294.605 30.9555 288.917 30.3624 289.162 40.0438C289.406 49.7252 288.795 47.2133 288.795 47.2133C288.795 47.2133 276.687 46.7423 275.64 47.7541C274.873 48.4867 274.035 60.5056 273.617 66.9425C273.432 68.5286 273.798 70.1299 274.652 71.4791C275.506 72.8284 276.797 73.8439 278.31 74.3562C278.733 74.4963 279.173 74.5784 279.618 74.6004C282.637 74.7225 298.164 72.856 298.164 72.856L304.55 73.1351L305.544 50.0567Z" fill="#F16623"/>
<path d="M316.204 48.4699L312.837 73.6067L306.521 73.345L307.585 48.6094L316.204 48.4699Z" fill="#F16623"/>
<path d="M377.983 380.342C378.855 369.422 385.223 361.258 393.353 353.932C401.676 346.66 412.027 342.112 423.013 340.901C434.5 339.388 446.168 341.641 456.266 347.32C461.277 350.205 465.651 354.073 469.126 358.693C472.602 363.313 475.105 368.588 476.487 374.202C479.976 389.552 473.12 406.351 460.785 416.189C448.45 426.028 431.509 429.115 416.104 425.818C405.392 423.691 395.624 418.24 388.189 410.241C384.517 406.229 381.712 401.503 379.947 396.359C378.182 391.215 377.495 385.763 377.93 380.342" fill="#263238"/>
<path d="M421.111 359.618C416.715 360.124 412.388 358.397 408.009 357.874C398.326 356.844 388.922 362.461 383.077 370.241C377.634 377.481 375.854 387.563 376.535 398.152C376.888 405.445 379.309 412.487 383.514 418.457C386.415 422.315 390.195 425.424 394.541 427.527C398.886 429.63 403.671 430.664 408.497 430.545L413.731 380.987C418.564 377.498 423.484 373.835 426.938 368.933C428.03 367.547 428.74 365.899 428.997 364.154C429.111 363.278 428.971 362.389 428.594 361.591C428.216 360.793 427.617 360.12 426.869 359.653C425.072 358.781 423.013 359.391 421.111 359.618Z" fill="#263238"/>
<path d="M389.463 402.53L408.898 363.055C409.523 361.142 410.843 359.533 412.598 358.548C414.352 357.562 416.413 357.272 418.372 357.734L508.606 381.144C514.765 382.753 520.226 386.338 524.151 391.349L528.269 396.582C537.655 408.618 531.758 426.708 516.981 430.301C516.128 430.536 515.248 430.659 514.364 430.668C513.653 430.666 512.942 430.625 512.235 430.545C507.499 430.119 502.821 429.195 498.278 427.789C490.148 426.167 486.815 425.452 486.885 425.469C486.955 425.487 480.395 441.989 457.226 440.785C445.746 440.175 427.566 435.744 412.929 431.627C399.774 427.981 385.206 415.596 389.463 402.53Z" fill="#FFBE9D"/>
<path d="M433.376 427.074C434.123 427.243 434.906 427.113 435.558 426.712C436.21 426.311 436.679 425.671 436.866 424.928C436.969 424.571 437 424.196 436.958 423.827C436.915 423.457 436.8 423.1 436.618 422.775C436.436 422.451 436.192 422.165 435.899 421.936C435.606 421.707 435.27 421.538 434.912 421.439C434.165 421.271 433.382 421.401 432.73 421.801C432.078 422.202 431.608 422.843 431.422 423.585C431.319 423.942 431.287 424.317 431.33 424.686C431.372 425.056 431.488 425.413 431.67 425.738C431.851 426.062 432.096 426.348 432.389 426.577C432.682 426.806 433.017 426.975 433.376 427.074Z" fill="#263238"/>
<path d="M423.327 429.743C423.78 429.464 422.629 426.952 423.327 423.882C424.025 420.812 426.014 418.858 425.717 418.439C425.42 418.021 424.827 418.439 423.972 419.294C422.758 420.432 421.929 421.92 421.6 423.55C421.252 425.149 421.423 426.818 422.088 428.313C422.507 429.429 423.118 429.883 423.327 429.743Z" fill="#263238"/>
<path d="M439.378 399.564C440.124 399.724 440.903 399.59 441.552 399.191C442.202 398.791 442.673 398.157 442.867 397.419C442.973 397.06 443.005 396.684 442.963 396.313C442.92 395.942 442.804 395.583 442.62 395.257C442.436 394.932 442.189 394.647 441.892 394.419C441.596 394.191 441.257 394.025 440.896 393.93C440.149 393.757 439.363 393.885 438.71 394.286C438.057 394.688 437.588 395.331 437.406 396.076C437.303 396.434 437.273 396.81 437.316 397.18C437.36 397.551 437.477 397.909 437.66 398.233C437.844 398.558 438.09 398.843 438.385 399.072C438.68 399.3 439.017 399.468 439.378 399.564Z" fill="#263238"/>
<path d="M429.939 400.559C430.393 400.28 429.259 397.768 429.939 394.681C430.62 391.593 432.626 389.674 432.312 389.256C431.998 388.837 431.44 389.256 430.567 390.11C429.369 391.251 428.548 392.73 428.212 394.349C427.864 395.954 428.035 397.628 428.701 399.129C429.137 400.228 429.747 400.699 429.939 400.559Z" fill="#263238"/>
<path d="M450.858 415.613C449.995 417.126 449.332 418.745 448.886 420.428C448.624 421.213 448.31 421.911 447.752 421.928C446.926 421.831 446.151 421.477 445.536 420.916L440.023 417.305C432.172 412.247 425.647 408.409 425.455 408.74C425.263 409.072 431.457 413.398 439.308 418.457L444.856 421.946C445.699 422.643 446.762 423.02 447.857 423.01C448.159 422.955 448.445 422.833 448.693 422.651C448.941 422.47 449.144 422.235 449.287 421.963C449.5 421.549 449.658 421.109 449.759 420.655C450.335 419.027 450.704 417.333 450.858 415.613Z" fill="#263238"/>
<path d="M486.903 425.522C489.304 415.034 488.748 404.086 485.298 393.896C485.298 393.896 499.168 404.711 492.276 426.638L486.903 425.522Z" fill="#EB996E"/>
<path d="M458.569 415.892C457.954 415.148 457.538 414.26 457.361 413.311C457.184 412.362 457.251 411.383 457.557 410.467C457.766 409.8 458.107 409.181 458.56 408.648C459.012 408.115 459.567 407.678 460.192 407.362C460.795 407.062 461.476 406.953 462.143 407.05C462.81 407.147 463.432 407.444 463.925 407.903C464.373 408.52 464.626 409.255 464.654 410.016C464.682 410.777 464.483 411.529 464.082 412.177C463.261 413.541 462.175 414.727 460.889 415.666C460.569 415.959 460.196 416.19 459.79 416.346C459.596 416.425 459.382 416.445 459.177 416.401C458.972 416.358 458.784 416.253 458.639 416.102" fill="#EB996E"/>
<path d="M423.745 399.6C424.531 399.164 423.588 396.338 423.397 392.849C423.205 389.36 423.676 386.43 422.838 386.116C422.437 385.993 421.739 386.621 421.094 387.86C420.352 389.499 420.034 391.299 420.169 393.093C420.27 394.882 420.822 396.616 421.774 398.134C422.577 399.303 423.362 399.809 423.745 399.6Z" fill="#263238"/>
<path d="M410.032 425.975C410.835 425.591 410.573 423.306 411.079 420.742C411.585 418.178 412.545 416.119 411.917 415.509C411.62 415.212 410.835 415.404 409.98 416.206C408.911 417.304 408.193 418.695 407.92 420.202C407.646 421.709 407.829 423.264 408.445 424.667C408.968 425.696 409.631 426.15 410.032 425.975Z" fill="#263238"/>
<path d="M416.61 350.338C402.81 351.436 380.705 365.915 378.506 379.591L386.48 404.048C390.317 404.206 394.126 403.326 397.504 401.499C400.882 399.672 403.704 396.966 405.671 393.668C407.712 390.18 409.16 385.644 412.876 384.144C416.593 382.644 421.303 385.086 425.229 383.743C430.689 381.876 432.364 373.695 438.035 372.666C440.529 372.212 443.094 373.346 445.571 372.858C448.869 372.195 454.4 365.531 454.138 362.182C453.876 358.833 448.555 357.594 446.008 355.92C443.166 353.904 439.713 352.936 436.237 353.181C429.503 353.111 423.118 349.814 416.61 350.338Z" fill="#263238"/>
<path d="M454.522 372.039C452.777 371.672 449.288 368.916 449.445 367.224C449.689 362.689 451.73 354.839 462.896 357.141C478.162 360.299 471.846 374.969 471.41 374.9C470.974 374.83 460.227 373.277 454.522 372.039Z" fill="#FFBE9D"/>
<path d="M466.542 369.056C466.542 368.968 466.787 368.829 467.083 368.41C467.474 367.833 467.63 367.128 467.519 366.439C467.275 364.695 464.99 362.811 462.285 362.183C460.982 361.887 459.629 361.887 458.325 362.183C457.82 362.229 457.333 362.398 456.907 362.674C456.482 362.951 456.13 363.327 455.883 363.77C455.723 364.059 455.676 364.397 455.75 364.719C455.824 365.041 456.014 365.324 456.284 365.514C456.668 365.811 456.982 365.776 456.999 365.863C457.017 365.951 456.668 366.142 456.074 365.863C455.715 365.704 455.42 365.427 455.237 365.078C455.006 364.592 454.975 364.035 455.15 363.526C455.401 362.922 455.804 362.394 456.321 361.993C456.838 361.592 457.451 361.333 458.098 361.241C459.552 360.873 461.075 360.873 462.53 361.241C465.583 361.973 468.148 364.136 468.322 366.474C468.357 366.909 468.294 367.347 468.137 367.755C467.98 368.162 467.733 368.529 467.415 368.829C466.909 369.16 466.56 369.16 466.542 369.056Z" fill="#EB996E"/>
<path d="M382.99 398.536C388.782 401.484 394.296 412.823 398.029 418.126C405.165 428.261 407.817 430.581 428.229 435.674C420.239 437.576 412.615 438.657 404.746 436.355C396.753 434.138 389.846 429.076 385.328 422.12C383.132 418.642 381.777 414.699 381.371 410.605C380.965 406.511 381.519 402.378 382.99 398.536Z" fill="#263238"/>
<path d="M393.65 356.146C394.377 353.962 394.51 351.623 394.035 349.37C393.56 347.116 392.494 345.03 390.946 343.325C387.793 339.959 383.713 337.604 379.222 336.557C373.2 334.966 366.89 334.805 360.795 336.086C354.701 337.367 348.99 340.055 344.119 343.936C341.043 346.268 338.606 349.341 337.035 352.867C336.277 354.632 335.936 356.548 336.039 358.466C336.142 360.384 336.686 362.253 337.629 363.927C338.617 365.581 340.125 366.861 341.918 367.568C343.71 368.275 345.687 368.369 347.538 367.834C346.442 369.865 346.048 372.2 346.418 374.478C346.787 376.756 347.898 378.848 349.58 380.429C351.3 381.965 353.337 383.105 355.548 383.765C357.758 384.425 360.087 384.59 362.368 384.249C366.928 383.529 371.272 381.807 375.087 379.207C384.595 373.224 392.743 364.171 395.098 353.164L393.65 356.146Z" fill="#263238"/>
<path d="M394.61 353.024C394.941 353.582 393.772 354.891 391.975 356.949C389.658 359.423 387.627 362.15 385.921 365.078C382.257 372.579 379.379 378.841 378.175 378.51C376.971 378.178 377.965 370.992 381.856 363.055C382.886 361.078 384.23 359.281 385.834 357.734C387.071 356.512 388.433 355.425 389.899 354.49C392.429 352.902 394.313 352.501 394.61 353.024Z" fill="#F16623"/>
<path d="M462.268 417.323C461.566 415.353 461.086 413.311 460.837 411.235C460.288 409.214 459.978 407.135 459.913 405.042C460.864 406.928 461.483 408.964 461.745 411.06C462.28 413.102 462.457 415.221 462.268 417.323Z" fill="#263238"/>
<path d="M412.091 500.792C411.712 500.56 411.38 500.259 411.114 499.902C410.306 498.903 409.803 497.692 409.666 496.414C409.448 494.423 409.674 492.41 410.329 490.518C411.009 488.267 412.335 485.982 413.365 483.313C413.912 481.952 414.259 480.518 414.394 479.057C414.511 477.481 414.185 475.904 413.452 474.504C411.917 471.539 408.846 469.428 406.072 466.776C404.586 465.426 403.397 463.78 402.583 461.944C401.797 459.955 401.585 457.785 401.972 455.682C402.583 451.495 404.554 447.448 404.292 443.157C404.13 441.052 403.407 439.028 402.199 437.296C400.986 435.604 399.561 434.074 397.959 432.743C394.836 430.057 391.434 427.876 388.573 425.242C384.377 421.283 381.248 416.331 379.473 410.843C377.698 405.355 377.336 399.508 378.419 393.843C378.682 392.625 379.02 391.425 379.431 390.249C379.56 389.83 379.724 389.421 379.919 389.028C380.024 389.028 379.361 390.773 378.768 393.913C378.034 398.4 378.194 402.989 379.239 407.414C380.729 413.998 384.178 419.976 389.131 424.562C391.94 427.109 395.342 429.272 398.535 431.993C400.206 433.369 401.69 434.959 402.949 436.72C404.248 438.581 405.025 440.755 405.2 443.018C405.444 447.675 403.455 451.74 402.862 455.752C402.486 457.693 402.667 459.701 403.385 461.543C404.168 463.28 405.309 464.832 406.735 466.096C409.404 468.73 412.562 470.876 414.185 474.085C414.971 475.612 415.31 477.329 415.162 479.039C415.002 480.582 414.614 482.093 414.01 483.523C412.911 486.244 411.55 488.494 410.835 490.657C410.174 492.482 409.906 494.426 410.05 496.361C410.164 497.58 410.598 498.747 411.306 499.745C411.76 500.478 412.143 500.74 412.091 500.792Z" fill="#263238"/>
<path d="M448.502 361.345C448.697 362.063 448.814 362.8 448.851 363.543C449.088 365.557 449.176 367.586 449.113 369.613C449.087 372.652 448.34 375.642 446.932 378.335C445.001 381.609 441.873 384.005 438.209 385.016C434.621 386.032 430.872 386.346 427.165 385.941C423.78 385.644 420.78 385.138 418.25 384.842C415.72 384.545 413.679 384.406 412.266 384.388C411.523 384.45 410.776 384.45 410.032 384.388C410.757 384.201 411.5 384.102 412.248 384.092C414.274 384.005 416.303 384.069 418.32 384.284C420.867 384.493 423.885 384.929 427.235 385.191C430.834 385.526 434.465 385.201 437.947 384.231C441.416 383.296 444.391 381.059 446.252 377.986C447.642 375.394 448.418 372.518 448.52 369.578C448.729 364.52 448.311 361.345 448.502 361.345Z" fill="#263238"/>
<path d="M354.953 355.815C354.774 355.577 354.633 355.312 354.535 355.03C354.29 354.49 353.941 353.705 353.523 352.675C352.279 349.762 351.36 346.72 350.783 343.604C349.854 338.882 350.765 333.983 353.331 329.911C354.942 327.534 357.318 325.779 360.065 324.939C362.971 324.141 365.991 323.841 368.998 324.05C374.807 323.998 380.532 325.44 385.625 328.236C387.702 329.417 389.513 331.016 390.942 332.932C392.372 334.847 393.389 337.038 393.929 339.366C394.564 342.542 393.985 345.841 392.307 348.611C391.849 349.348 391.298 350.022 390.667 350.617C390.438 350.818 390.193 350.999 389.934 351.158C390.712 350.319 391.407 349.408 392.01 348.436C393.492 345.702 393.95 342.529 393.301 339.488C392.727 337.285 391.712 335.222 390.317 333.423C388.923 331.624 387.178 330.127 385.188 329.021C380.204 326.342 374.622 324.968 368.963 325.027C366.063 324.82 363.15 325.103 360.344 325.864C357.774 326.631 355.545 328.257 354.029 330.469C352.666 332.488 351.783 334.791 351.446 337.203C351.123 339.318 351.123 341.471 351.446 343.587C351.97 346.665 352.788 349.685 353.889 352.606C354.238 353.582 354.517 354.35 354.744 355.03C354.848 355.281 354.919 355.545 354.953 355.815Z" fill="#263238"/>
<path d="M372.086 366.229C372.181 366.871 372.181 367.524 372.086 368.166C371.932 369.928 371.652 371.677 371.248 373.399C370.658 375.952 369.834 378.445 368.788 380.847C367.676 383.936 365.688 386.634 363.066 388.61C361.583 389.596 359.775 389.966 358.024 389.639C356.426 389.267 354.993 388.385 353.941 387.127C352.997 386.02 352.327 384.705 351.987 383.29C351.716 382.064 351.657 380.802 351.813 379.557C352.035 377.764 352.547 376.02 353.331 374.393C353.572 373.765 353.907 373.176 354.325 372.649C354.159 373.249 353.937 373.833 353.662 374.393C353.013 375.993 352.601 377.68 352.441 379.4C352.295 380.646 352.41 381.91 352.776 383.111C353.142 384.312 353.753 385.424 354.569 386.377C355.509 387.475 356.774 388.245 358.181 388.575C359.711 388.84 361.284 388.51 362.577 387.651C365.043 385.759 366.928 383.215 368.021 380.307C369.08 377.963 369.944 375.536 370.603 373.05C371.737 368.968 371.929 366.212 372.086 366.229Z" fill="#263238"/>
<path d="M613.129 458.857C613.129 459.294 610.652 484.483 610.652 484.483C610.652 484.483 605.68 487.466 605.68 487.64C605.68 487.814 587.622 489.018 587.622 489.018L579.074 492.263L569.897 493.117L548.053 501.351C548.053 501.351 548.263 503.392 550.967 503.392L571.188 503.078L590.867 497.007L590.431 503.479C592.551 503.313 594.68 503.313 596.799 503.479C597.34 503.811 612.693 502.398 615.188 502.066C617.683 501.735 626.93 500.025 631.187 495.472C635.444 490.919 636.909 459.869 636.909 459.869L613.129 458.857Z" fill="#FFBE9D"/>
<path d="M498.923 378.074C498.923 378.074 545.523 357.141 571.397 361.572C597.27 366.003 622.725 375.527 644.673 373.783C666.621 372.038 699.822 373.957 699.822 373.957L689.686 455.299L607.529 464.858C607.529 464.858 579.963 472.743 567.018 467.666C554.072 462.59 504.21 428.225 504.21 428.225L498.923 378.074Z" fill="black"/>
<path d="M601.964 491.722C606.814 492.245 620.981 491.722 620.981 491.722L629.844 487.657L650.78 495.716L647.587 504.683C646.904 506.117 645.829 507.33 644.486 508.179C643.143 509.028 641.587 509.479 639.998 509.48H594.252C594.307 508.671 594.642 507.906 595.199 507.317C595.756 506.728 596.501 506.352 597.305 506.252C600.359 505.537 605.191 503.915 605.191 503.915L579.196 509.48H571.415C571.415 509.48 559.202 510.195 565.64 505.991C573.159 501.194 599.329 491.425 601.964 491.722Z" fill="#FFBE9D"/>
<path d="M505.675 403.455C505.675 403.455 507.42 433.267 545.628 433.825C583.837 434.384 636.229 415.265 636.229 415.265L629.477 491.774L650.291 497.531C650.291 497.531 659.363 466.568 662.922 453.537C669.517 429.482 671.245 393.774 668.436 386.447C665.627 379.121 638.48 375.318 618.224 374.237C597.968 373.155 540.569 374.237 540.569 374.237C516.388 375.597 506.024 386.203 505.675 403.455Z" fill="#FFBE9D"/>
<path d="M632.112 461.91C632.117 462.577 632.058 463.243 631.937 463.899C631.728 465.294 631.466 467.143 631.152 469.411C630.402 474.26 629.407 480.889 628.186 488.599V488.826L627.959 488.913L620.056 492.193H619.969H602.173C601.486 492.158 600.796 492.187 600.114 492.28C599.442 492.426 598.778 492.606 598.125 492.821C596.799 493.205 595.526 493.658 594.287 494.112C589.315 495.856 584.883 497.723 581.15 499.223L572.426 502.799L570.019 503.741C570.053 503.848 570.046 503.964 569.999 504.066C569.952 504.169 569.869 504.25 569.766 504.295C569.663 504.339 569.547 504.344 569.44 504.308C569.334 504.271 569.245 504.197 569.19 504.099C569.135 504 569.119 503.885 569.145 503.776C569.17 503.666 569.235 503.57 569.328 503.506C569.42 503.442 569.533 503.414 569.645 503.428C569.756 503.443 569.858 503.498 569.931 503.584L572.269 502.467C574.311 501.526 577.277 500.2 580.993 498.63C584.709 497.06 589.105 495.141 594.078 493.397C595.334 492.943 596.625 492.472 597.951 492.053C598.638 491.828 599.337 491.642 600.045 491.495C600.776 491.37 601.519 491.329 602.26 491.373H619.794L627.732 488.163L627.471 488.477C628.814 480.732 629.948 474.103 630.768 469.289C631.187 467.039 631.518 465.207 631.78 463.812C631.851 463.171 631.962 462.536 632.112 461.91Z" fill="#EB996E"/>
<path d="M636.752 494.46C635.026 493.959 633.401 493.156 631.954 492.088C630.35 491.285 628.888 490.224 627.628 488.948C629.369 489.428 631.012 490.213 632.478 491.268C634.067 492.092 635.511 493.17 636.752 494.46Z" fill="#EB996E"/>
<path d="M647.796 396.512C647.796 396.669 646.523 397.244 644.656 398.622C642.246 400.425 640.248 402.72 638.795 405.355C637.342 407.99 636.467 410.904 636.229 413.903C636.055 416.206 636.229 417.654 636.124 417.671C635.674 416.457 635.489 415.16 635.584 413.869C635.648 410.732 636.481 407.66 638.009 404.92C639.507 402.162 641.665 399.819 644.289 398.099C645.332 397.327 646.528 396.786 647.796 396.512Z" fill="#EB996E"/>
<path d="M1077.07 427.214C1076.01 426.655 1046.82 425.295 1046.82 425.295L1048.13 458.107L1079.67 458.543L1077.07 427.214Z" fill="#FFBE9D"/>
<path d="M1075 462.713L1077.4 462.451C1077.4 462.451 1098.24 500.828 1106.03 500.426L1096.84 420.62L1069.97 424.824C1076.93 436.041 1078.99 448.391 1075 462.713Z" fill="#F16623"/>
<path d="M1077.67 462.712C1078.07 462.712 1078.01 460.671 1079.06 458.613C1080.11 456.554 1081.66 455.333 1081.47 455.002C1081.28 454.671 1079.04 455.508 1077.82 458.02C1076.6 460.532 1077.37 462.834 1077.67 462.712Z" fill="white"/>
<path d="M1082.15 470.666C1082.53 470.666 1083.02 468.922 1084.54 467.439C1086.06 465.956 1087.78 465.328 1087.73 464.945C1087.68 464.561 1085.39 464.561 1083.55 466.48C1081.7 468.399 1081.77 470.701 1082.15 470.666Z" fill="white"/>
<path d="M1092.88 474.243C1092.88 473.876 1090.87 473.562 1088.83 474.818C1086.79 476.074 1086.13 477.993 1086.48 478.115C1086.83 478.237 1087.85 476.981 1089.55 475.987C1091.24 474.993 1092.88 474.644 1092.88 474.243Z" fill="white"/>
<path d="M1090.87 421.492C1092.15 421.327 1093.41 421.053 1094.64 420.672C1095.57 420.386 1096.56 420.337 1097.52 420.529C1098.48 420.721 1099.37 421.147 1100.12 421.771L1105.35 467.125L1109.07 500.635C1109.07 500.635 1106.03 502.379 1102.09 498.559L1090.87 421.492Z" fill="#E0E0E0"/>
<path d="M808.428 393.32C808.428 393.32 787.492 365.288 754.343 360.787C734.437 358.083 691.361 373.696 691.361 373.696L689.616 455.212C689.616 455.212 739.705 458.02 761.653 460.829C783.601 463.637 873.068 462.573 889.939 460.829C906.81 459.084 934.393 454.078 934.393 454.078L1061.67 458.578V426.045C1061.67 426.045 999.784 407.956 971.642 403.455C943.501 398.955 808.428 393.32 808.428 393.32Z" fill="#F16623"/>
<path d="M1061.35 436.267C1061.03 436.286 1060.71 436.286 1060.39 436.267L1057.58 436.075L1046.78 435.203C1037.4 434.418 1023.83 433.459 1007.02 432.133C973.456 429.656 927.048 426.778 875.755 424.109L744.364 417.462L704.55 415.282L693.733 414.619L690.924 414.427L689.965 414.34H690.924L693.751 414.445L704.568 414.933L744.399 416.817C778.018 418.439 824.479 420.533 875.807 423.202C927.135 425.87 973.509 428.853 1007.08 431.505C1023.86 432.813 1037.43 433.964 1046.8 434.854L1057.6 435.883L1060.41 436.18L1061.35 436.267Z" fill="white"/>
<path d="M1061.67 431.627H1060.71L1057.9 431.435L1047.1 430.563C1037.71 429.778 1024.14 428.731 1007.34 427.493C973.77 425.016 927.362 422.137 876.069 419.468L744.643 412.77L704.829 410.589L694.012 409.927L691.203 409.735L690.244 409.63H691.203L694.03 409.735L704.847 410.223L744.678 412.107C778.297 413.712 824.758 415.823 876.086 418.492C927.414 421.161 973.788 424.144 1007.36 426.795C1024.14 428.103 1037.71 429.255 1047.08 430.144L1057.88 431.173L1060.69 431.47L1061.67 431.627Z" fill="white"/>
<path d="M77.0448 502.519C76.0141 498.17 74.5105 493.947 72.561 489.924C70.8355 486.242 69.9137 482.234 69.8568 478.167L69.6823 477.051C68.8449 465.607 67.0653 452.838 66.4023 441.604L29.6247 442.424C26.4843 445.826 25.9958 450.937 26.6762 455.525C27.3566 460.113 29.0315 464.491 29.5898 469.079C30.4098 475.795 28.8221 482.615 29.4502 489.366C30.2841 497.283 34.0117 504.613 39.9182 509.95C45.879 515.2 53.4438 518.275 61.3777 518.672C65.8615 518.916 70.764 518.149 73.9219 514.939C77.0797 511.729 77.795 506.967 77.0448 502.519Z" fill="#F16623"/>
<path d="M82.3484 353.704L24.1288 363.42L10.9216 386.098V391.645C10.9216 391.645 10.9216 401.797 10.9216 407.344C10.9216 412.892 31.4041 445.46 31.4041 445.46L64.5528 446.838C64.5528 446.838 65.7217 440.854 72.4736 431.469C77.7076 424.143 85.7855 420.515 88.9084 410.345C90.9078 403.342 92.2282 396.162 92.8514 388.906L82.3484 353.704Z" fill="#AE7461"/>
<path d="M24.8093 436.528C24.2819 435.715 23.8265 434.857 23.4484 433.964C22.6459 432.22 21.4944 429.865 20.2382 426.777C18.7416 423.155 17.6135 419.391 16.871 415.543C15.9504 410.792 16.0396 405.901 17.1327 401.187C18.3233 396.455 20.8629 392.17 24.4429 388.854C27.3241 386.166 30.6091 383.947 34.1782 382.277C36.5469 381.126 38.9959 380.146 41.5058 379.347C42.3955 379.068 43.0934 378.876 43.5645 378.754C43.7987 378.665 44.0467 378.618 44.2972 378.614C43.4362 379.042 42.5438 379.404 41.6279 379.696C39.1786 380.609 36.7844 381.663 34.4573 382.853C31.0075 384.579 27.8326 386.807 25.0361 389.464C21.6218 392.704 19.2011 396.849 18.0574 401.414C16.996 405.994 16.8891 410.745 17.7434 415.369C18.4349 419.17 19.4864 422.896 20.8838 426.498C22.0352 429.603 23.0995 432.063 23.8148 433.79C24.2207 434.674 24.5533 435.59 24.8093 436.528Z" fill="#6F4439"/>
<path d="M28.1241 440.209C28.2288 440.366 32.4334 447.588 35.4866 452.856C36.6624 454.897 38.2393 456.679 40.1224 458.094C42.0054 459.509 44.1555 460.528 46.4431 461.09C51.2235 462.259 56.9984 462.468 60.0516 458.264L60.9065 457.078C62.7533 454.528 64.13 451.669 64.9715 448.635C65.6268 446.017 66.5083 443.46 67.606 440.994C68.4556 439.665 68.9759 438.152 69.1239 436.581C56.6146 441.099 42.6398 441.587 27.8101 439.686" fill="#FAFAFA"/>
<path d="M29.6245 442.425H33.236C33.236 442.425 28.2986 450.85 29.6245 454.112C31.3239 459.378 32.4127 464.821 32.8696 470.335C33.2011 475.08 31.596 489.402 35.19 495.769C38.7841 502.136 44.3146 511.05 54.1023 513.422C63.8899 515.794 71.4094 512.166 73.2936 507.596C75.1779 503.025 70.0834 482.197 70.0834 482.197L72.4911 489.89C74.4406 493.912 75.9441 498.135 76.9749 502.485C77.7251 506.88 76.9749 511.817 73.8694 515.009C70.7639 518.202 65.809 518.987 61.3252 518.742C53.3913 518.345 45.8265 515.271 39.8657 510.02C33.9593 504.683 30.2316 497.353 29.3977 489.436C28.7696 482.686 30.3573 475.865 29.5373 469.149C28.979 464.561 27.3041 460.165 26.6237 455.595C25.9433 451.025 26.4841 445.914 29.6245 442.425Z" fill="#E0E0E0"/>
<path d="M59.1094 469.847C59.1094 469.847 58.6035 470.614 57.3648 471.364C55.7712 472.327 53.9833 472.923 52.1307 473.109C50.2652 473.302 48.3801 473.07 46.6176 472.429C45.2916 471.923 44.5763 471.382 44.6287 471.277C47.0346 471.98 49.539 472.287 52.0435 472.184C54.5088 471.788 56.8944 470.999 59.1094 469.847Z" fill="#263238"/>
<path d="M60.9239 477.312C60.9239 477.312 60.4179 478.063 59.1792 478.83C57.5856 479.793 55.7977 480.389 53.9452 480.575C52.081 480.772 50.1962 480.546 48.432 479.912C47.1061 479.406 46.3908 478.848 46.4431 478.76C48.849 479.464 51.3535 479.77 53.858 479.667C56.3242 479.266 58.7099 478.471 60.9239 477.312Z" fill="#263238"/>
<path d="M62.8605 484.064C62.8605 484.151 62.4069 484.866 61.2379 485.703C59.7033 486.777 57.9503 487.498 56.1044 487.815C54.2584 488.131 52.3653 488.036 50.5605 487.535C49.1997 487.116 48.4495 486.628 48.5018 486.523C50.9469 487.061 53.4642 487.191 55.9516 486.907C58.3929 486.338 60.7261 485.378 62.8605 484.064Z" fill="#263238"/>
<path d="M53.2474 469.551C53.2474 469.551 53.2474 469.306 53.2474 468.818C53.229 468.124 53.2698 467.429 53.3695 466.742C53.7324 464.162 54.7141 461.708 56.2307 459.59C57.2636 458.099 58.5724 456.82 60.0865 455.822C60.5731 455.527 61.1427 455.398 61.709 455.456C62.0424 455.509 62.3486 455.671 62.5793 455.918C62.81 456.164 62.9519 456.48 62.9826 456.816C63.0278 457.412 62.9322 458.009 62.7035 458.561C62.529 459.049 62.3371 459.555 62.1103 460.061C61.2045 462.15 59.9803 464.086 58.4814 465.8C57.6907 466.727 56.7949 467.558 55.812 468.277C55.2796 468.684 54.667 468.974 54.0144 469.128C53.3618 469.281 52.6842 469.294 52.0261 469.167C50.8208 468.822 49.6521 468.361 48.5368 467.789C47.4551 467.283 46.3734 466.777 45.3266 466.254C43.301 465.256 41.3634 464.089 39.5342 462.765C39.0651 462.439 38.6526 462.038 38.313 461.579C37.9566 461.072 37.8125 460.446 37.9117 459.834C37.9795 459.517 38.1347 459.224 38.3597 458.99C38.5847 458.756 38.8706 458.589 39.1853 458.509C39.7322 458.428 40.2905 458.488 40.8079 458.683C42.4944 459.267 44.1097 460.04 45.6231 460.986C47.8101 462.362 49.7504 464.095 51.3631 466.114C51.8012 466.669 52.2033 467.252 52.5669 467.858C52.7099 468.055 52.8217 468.273 52.8984 468.504C52.8984 468.504 52.2704 467.719 51.1538 466.376C49.4777 464.492 47.5245 462.875 45.3615 461.579C43.872 460.691 42.2856 459.977 40.6334 459.451C39.7785 459.137 38.8887 459.206 38.784 460.026C38.6794 460.846 39.2726 461.561 40.11 462.154C41.9198 463.42 43.8275 464.54 45.8151 465.504C46.8444 466.009 47.9087 466.515 48.9904 467.004C50.0357 467.552 51.1349 467.99 52.2703 468.312C52.8103 468.419 53.3668 468.408 53.9025 468.282C54.4381 468.156 54.9405 467.916 55.3759 467.579C56.2934 466.904 57.1305 466.125 57.8707 465.259C59.2983 463.61 60.4741 461.758 61.3601 459.764C61.8048 458.911 62.0887 457.982 62.1975 457.026C62.1975 456.223 61.2205 456.171 60.4528 456.607C59.0212 457.533 57.7732 458.716 56.7716 460.096C55.2718 462.113 54.2353 464.436 53.7359 466.899C53.2474 468.591 53.2474 469.551 53.2474 469.551Z" fill="#263238"/>
<path d="M192.402 294.657C192.402 294.657 215.258 284.19 234.885 278.957C245.353 276.148 254.984 274.892 259.624 277.561C272.936 285.237 281.032 294.22 282.829 308.158C284.626 322.096 285.376 468.643 285.376 468.643L251.372 474.469L238.043 412.578C238.043 412.578 229.006 393.878 228.098 375.318C227.191 356.757 227.348 353.792 227.348 353.792L196.084 375.318L184.394 325.55L192.402 294.657Z" fill="#AE7461"/>
<path d="M250.395 472.463C249.61 471.33 243.417 438.046 243.417 438.046L285.498 432.377L286.702 470.562L250.395 472.463Z" fill="#FAFAFA"/>
<path d="M290.871 464.544L290.959 467.352C290.959 467.352 338.274 485.267 338.989 494.286L245.999 496.152L246.627 464.753C260.584 470.928 275.065 471.364 290.871 464.544Z" fill="#F16623"/>
<g opacity="0.6">
<path d="M256.24 474.557C255.338 474.865 254.582 475.494 254.115 476.324C253.649 477.154 253.504 478.127 253.71 479.057C253.957 479.965 254.545 480.742 255.351 481.226C256.157 481.711 257.12 481.865 258.037 481.656C258.984 481.333 259.779 480.672 260.271 479.801C260.763 478.929 260.918 477.907 260.706 476.929C260.35 476.01 259.649 475.267 258.753 474.857C257.857 474.446 256.837 474.401 255.908 474.731" fill="white"/>
</g>
<path d="M291.29 467.614C291.29 468.068 289.022 468.33 286.806 469.847C284.591 471.365 283.457 473.336 283.038 473.179C282.619 473.022 283.23 470.318 285.934 468.521C288.638 466.725 291.377 467.178 291.29 467.614Z" fill="#263238"/>
<path d="M301.13 471.504C301.235 471.957 299.298 472.777 297.78 474.766C296.263 476.754 295.879 478.813 295.425 478.813C294.971 478.813 294.64 476.196 296.542 473.771C298.443 471.347 301.113 471.068 301.13 471.504Z" fill="#263238"/>
<path d="M306.905 483.261C306.486 483.366 305.823 481.081 306.905 478.534C307.987 475.987 310.115 474.923 310.394 475.307C310.674 475.691 309.295 477.051 308.405 479.179C307.516 481.308 307.359 483.209 306.905 483.261Z" fill="#263238"/>
<path d="M245.999 489.21C246.005 490.695 245.882 492.177 245.632 493.641C245.465 494.757 245.572 495.898 245.942 496.964C246.313 498.031 246.937 498.991 247.761 499.764L300.537 498.612L339.565 497.653C339.565 497.653 341.17 493.885 336.076 489.925L245.999 489.21Z" fill="#E0E0E0"/>
<path d="M291.482 466.847C291.482 466.847 291.273 466.847 290.889 466.568C290.342 466.235 289.833 465.843 289.371 465.399C287.683 463.708 286.603 461.506 286.3 459.136C286.074 457.483 286.26 455.799 286.841 454.235C286.99 453.742 287.259 453.293 287.624 452.931C287.99 452.568 288.441 452.303 288.935 452.159C289.489 452.107 290.047 452.22 290.537 452.484C291.028 452.748 291.429 453.15 291.691 453.642C293.553 457.614 293.966 462.113 292.86 466.358L291.953 466.236V465.451C292.109 463.226 292.705 461.055 293.709 459.063C294.712 457.072 296.102 455.3 297.798 453.851C298.259 453.51 298.812 453.315 299.386 453.293C299.692 453.278 299.997 453.345 300.27 453.485C300.542 453.626 300.773 453.837 300.938 454.095C301.196 454.549 301.342 455.059 301.363 455.58C301.384 456.102 301.28 456.622 301.06 457.095C300.476 458.663 299.709 460.156 298.775 461.544C297.424 463.537 295.728 465.274 293.768 466.672C293.244 467.06 292.69 467.404 292.11 467.701C291.917 467.828 291.705 467.922 291.482 467.981C291.482 467.981 292.25 467.44 293.558 466.393C295.386 464.909 296.965 463.143 298.234 461.16C299.1 459.799 299.803 458.341 300.328 456.816C300.51 456.466 300.605 456.077 300.605 455.682C300.605 455.288 300.51 454.899 300.328 454.549C299.926 453.921 299.054 453.99 298.321 454.549C295.16 457.356 293.219 461.287 292.913 465.503V466.236L292.006 466.114C293.04 462.104 292.69 457.863 291.011 454.078C290.837 453.722 290.563 453.424 290.222 453.223C289.881 453.021 289.488 452.924 289.092 452.944C288.394 453.031 287.888 453.764 287.592 454.496C287.016 455.941 286.801 457.503 286.963 459.049C287.211 461.31 288.156 463.438 289.668 465.137C290.732 466.376 291.534 466.847 291.482 466.847Z" fill="#263238"/>
<path d="M243.87 314.944C243.992 315.049 242.318 317.107 239.962 320.683C233.81 329.997 229.702 340.508 227.907 351.524C227.209 355.746 227.052 358.397 226.895 358.397C226.805 357.778 226.805 357.15 226.895 356.531C226.949 354.827 227.089 353.127 227.313 351.437C228.793 340.225 232.985 329.543 239.526 320.317C240.5 318.919 241.549 317.574 242.666 316.287C243.417 315.38 243.818 314.892 243.87 314.944Z" fill="#6F4439"/>
<path d="M206.43 384.528L157.404 392.64C157.404 392.64 105.954 410.31 90.217 405.374C90.217 405.374 99.551 358.083 62.6163 362.496C14.9868 368.201 10.9217 403.786 10.9217 403.786C4.72502 395.475 1.02713 385.569 0.261775 375.23C-1.20375 357.56 3.75112 338.232 3.75112 338.232L8.68854 325.55L144.476 302.751L211.821 281.643L234.885 278.957C234.885 278.957 210.913 313.095 208.227 331.062C205.54 349.03 206.43 384.528 206.43 384.528Z" fill="black"/>
<path d="M101.522 350.773C101.867 351.423 102.142 352.107 102.342 352.814C102.644 353.618 102.895 354.439 103.093 355.274C103.354 356.251 103.686 357.35 103.895 358.588C104.491 361.502 104.847 364.46 104.959 367.433C105.246 374.723 104.157 382.001 101.749 388.889C100.767 391.691 99.5591 394.41 98.1377 397.018C97.562 398.151 96.9339 399.093 96.3931 399.948C95.9483 400.683 95.4649 401.393 94.945 402.076C94.5564 402.71 94.0938 403.296 93.5667 403.821C93.4097 403.716 95.3114 401.204 97.5445 396.738C98.8634 394.124 99.9945 391.419 100.929 388.644C102.054 385.231 102.895 381.73 103.442 378.178C103.944 374.631 104.166 371.049 104.104 367.467C104.019 364.543 103.727 361.629 103.232 358.745C102.395 353.774 101.348 350.826 101.522 350.773Z" fill="#263238"/>
<path d="M140.917 353.704C140.262 355.366 139.492 356.98 138.614 358.536C137.149 361.484 135.125 365.514 133.38 370.224C131.636 374.933 129.978 379.155 128.949 382.277C128.48 384.001 127.898 385.691 127.204 387.336C127.393 385.556 127.773 383.802 128.338 382.103C129.497 377.953 130.901 373.876 132.543 369.892C134.178 365.904 136.042 362.013 138.126 358.24C138.896 356.635 139.832 355.115 140.917 353.704Z" fill="#263238"/>
<path d="M192.49 345.017C192.457 345.562 192.339 346.097 192.141 346.605C191.862 347.617 191.408 349.047 190.797 350.809C189.199 355.388 187.329 359.867 185.197 364.223C183.082 368.592 180.711 372.833 178.096 376.923C177.102 378.475 176.247 379.731 175.619 380.568C174.991 381.406 174.642 381.842 174.589 381.807C175.482 380.013 176.467 378.267 177.538 376.574C179.405 373.381 181.9 368.898 184.377 363.822C186.854 358.746 188.826 354.019 190.187 350.582C190.852 348.686 191.621 346.829 192.49 345.017Z" fill="#263238"/>
<path d="M47.0539 161.297C47.0539 161.297 25.6817 170.298 18.075 192.173C10.4682 214.048 -6.14108 298.581 2.87887 322.794C11.8988 347.006 108.815 349.867 108.815 349.867L128.774 347.965V318.049L112.566 315.659C112.566 315.659 103.058 310.914 101.645 310.914C100.232 310.914 50.805 293.819 50.805 293.819L53.1777 285.272C53.1777 285.272 66.9606 264.845 67.4317 255.617C67.9027 246.389 64.4658 207.402 64.4658 207.402L47.0539 161.297Z" fill="#F16623"/>
<path d="M158.556 144.341L47.0537 161.297L44.175 290.016L84.1106 320.892L169.599 310.426L195.578 213.629C195.578 213.629 209.081 187.463 199.241 165.501C196.066 158.401 186.453 146.313 178.619 144.673C172.004 143.37 165.21 143.258 158.556 144.341Z" fill="#F16623"/>
<path d="M128.46 195.644C118.114 188.788 105.779 185.474 97.4574 176.299C89.1353 167.123 90.4787 162.797 87.286 151.877L69.438 160.599C71.6363 178.654 80.6388 188.98 95.608 199.412C100.612 203.124 106.402 205.636 112.531 206.756C115.596 207.293 118.736 207.212 121.769 206.517C124.801 205.822 127.664 204.527 130.187 202.709C130.843 202.267 131.377 201.667 131.74 200.964C132.473 198.871 130.327 196.882 128.46 195.644Z" fill="#F16623"/>
<path d="M199.503 188.649C199.541 189.234 199.5 189.82 199.381 190.394C199.241 191.458 198.997 193.01 198.683 194.929C198.055 198.767 197.078 204.035 195.892 209.826C194.705 215.618 193.467 220.851 192.524 224.601C192.053 226.485 191.652 228.003 191.338 229.05C191.236 229.61 191.047 230.151 190.78 230.654C191.01 228.568 191.377 226.5 191.879 224.462C192.734 220.432 193.798 215.304 194.984 209.634L198.055 194.72C198.395 192.665 198.879 190.636 199.503 188.649Z" fill="#263238"/>
<path d="M83.7267 172.88C82.0931 171.41 80.2607 170.176 78.2833 169.217C76.1121 168.26 73.8148 167.62 71.4617 167.315C68.5664 166.981 65.6471 166.905 62.7383 167.088C59.6154 167.245 56.632 167.49 53.8929 167.542C51.4655 167.61 49.0368 167.464 46.635 167.106C45.0129 166.849 43.4223 166.422 41.8895 165.833C41.3085 165.652 40.7648 165.369 40.2844 164.995C42.3919 165.639 44.5436 166.129 46.7223 166.46C49.0971 166.722 51.4888 166.798 53.8754 166.687C56.5622 166.6 59.5456 166.321 62.5988 166.164C65.5679 165.982 68.5477 166.087 71.4966 166.478C73.9214 166.831 76.276 167.561 78.4753 168.641C79.9573 169.368 81.317 170.321 82.5054 171.467C82.994 171.861 83.4077 172.34 83.7267 172.88Z" fill="#263238"/>
<path d="M108.082 201.593C107.59 201.533 107.108 201.404 106.652 201.209C105.368 200.762 104.115 200.231 102.901 199.622C94.8128 195.609 88.124 189.25 83.7094 181.375C83.0486 180.199 82.4658 178.982 81.9647 177.729C81.7294 177.282 81.5702 176.799 81.4937 176.299C81.6507 176.299 82.523 178.165 84.2851 181.044C88.9294 188.588 95.4596 194.793 103.232 199.046C106.181 200.668 108.152 201.436 108.082 201.593Z" fill="#263238"/>
<path d="M150.74 160.687C150.74 160.687 150.914 161.175 151.054 162.099C151.264 163.404 151.386 164.721 151.42 166.042C151.541 170.416 151.042 174.786 149.937 179.02C148.833 183.256 147.123 187.31 144.86 191.057C144.18 192.196 143.428 193.292 142.609 194.336C142.034 195.069 141.685 195.452 141.632 195.418C141.58 195.383 142.697 193.673 144.284 190.743C146.353 186.968 147.952 182.956 149.047 178.793C150.137 174.634 150.723 170.359 150.792 166.059C150.792 162.745 150.583 160.704 150.74 160.687Z" fill="#263238"/>
<path d="M69.2985 264.182C69.3018 263.88 69.3488 263.58 69.4381 263.292C69.5776 262.612 69.7521 261.775 69.9789 260.763C70.2057 259.751 70.5372 258.338 70.764 256.768C70.9908 255.198 71.3921 253.419 71.5491 251.43C71.6538 250.436 71.7585 249.389 71.8806 248.308C72.0027 247.226 72.0027 246.092 72.0725 244.924C72.247 242.586 72.0725 240.074 72.0725 237.44C71.8225 231.719 71.0871 226.029 69.8742 220.432C68.5886 214.853 66.8378 209.392 64.6402 204.105C63.5411 201.715 62.5466 199.412 61.3951 197.354C60.8368 196.325 60.3483 195.295 59.7726 194.371L58.1501 191.685C57.1556 189.94 56.0564 188.51 55.1667 187.201C54.417 186.066 53.6075 184.971 52.7416 183.922L51.1888 181.864C50.9858 181.639 50.8154 181.386 50.6829 181.113C50.9236 181.295 51.1405 181.506 51.3284 181.741L53.0731 183.695C53.9855 184.712 54.8416 185.777 55.6377 186.887C56.5799 188.196 57.7139 189.609 58.7432 191.336L60.4879 194.005C61.0637 194.947 61.5696 195.958 62.2326 197.005C63.419 199.046 64.4483 201.366 65.5824 203.773C70.2408 214.392 72.7944 225.814 73.1019 237.405C73.1019 240.074 73.1019 242.638 72.9623 244.959C72.9623 246.145 72.8576 247.296 72.7355 248.447C72.6134 249.599 72.4564 250.576 72.3342 251.587C72.1249 253.593 71.7062 255.373 71.4096 256.943C71.1676 258.284 70.8531 259.612 70.4674 260.92C70.1708 261.914 69.944 262.664 69.7521 263.414C69.6422 263.692 69.4891 263.951 69.2985 264.182Z" fill="#263238"/>
<path d="M57.679 283.684C58.4994 280.485 59.6089 277.367 60.9938 274.369C62.0918 271.258 63.4882 268.261 65.1636 265.42C64.3384 268.612 63.229 271.723 61.8487 274.718C60.744 277.831 59.3479 280.833 57.679 283.684Z" fill="#263238"/>
<path d="M131.845 318.572C131.515 318.618 131.18 318.618 130.85 318.572L128.076 318.223L117.905 316.776L84.3549 311.595L82.174 311.246H82.017L81.8949 311.124C74.8401 302.952 66.5589 295.926 57.3474 290.296C53.858 288.15 50.9095 286.597 48.8508 285.568L46.4781 284.382C46.197 284.256 45.9283 284.104 45.6755 283.928C45.9854 283.982 46.2853 284.082 46.5653 284.225C47.1236 284.452 47.961 284.766 49.0079 285.254C51.9971 286.591 54.9094 288.094 57.7312 289.755C67.1148 295.266 75.5311 302.279 82.6451 310.513L82.3834 310.356L84.5642 310.705L118.062 316.078L128.198 317.822L130.938 318.328C131.247 318.379 131.551 318.461 131.845 318.572Z" fill="#263238"/>
<path d="M165.604 245.168C165.511 245.445 165.382 245.709 165.22 245.953L163.964 248.133C163.315 249.287 162.605 250.405 161.836 251.483C160.963 252.756 160.091 254.256 158.783 255.756C157.474 257.257 156.27 259.001 154.718 260.676C153.165 262.35 151.49 264.164 149.675 265.996C141.606 273.801 132.221 280.12 121.953 284.661C119.562 285.655 117.329 286.65 115.131 287.347C112.933 288.045 110.926 288.743 109.042 289.249C107.158 289.755 105.448 290.156 103.93 290.487C102.642 290.799 101.337 291.038 100.022 291.203L97.5447 291.534C97.2546 291.561 96.9625 291.561 96.6724 291.534C96.9365 291.408 97.2193 291.325 97.5098 291.29L99.9698 290.784C101.034 290.575 102.325 290.313 103.826 289.912C105.326 289.511 107.036 289.179 108.868 288.551C110.7 287.923 112.758 287.382 114.869 286.562C116.98 285.743 119.248 284.818 121.604 283.824C126.642 281.494 131.495 278.782 136.119 275.712C140.705 272.564 145.039 269.065 149.082 265.246C150.827 263.502 152.572 261.757 154.159 260.013C155.747 258.268 157.055 256.716 158.259 255.198C159.463 253.681 160.492 252.268 161.417 251.029C162.342 249.791 163.075 248.692 163.668 247.784L165.063 245.709C165.377 245.395 165.569 245.15 165.604 245.168Z" fill="#263238"/>
<path d="M128.774 342.592C128.561 342.68 128.338 342.744 128.111 342.784C127.675 342.906 127.012 343.063 126.157 343.238C124.412 343.604 121.865 344.058 118.533 344.459C115.201 344.86 111.118 345.209 106.32 345.296C103.947 345.296 101.4 345.296 98.696 345.296C95.9918 345.296 93.148 344.912 90.1646 344.598C78.2485 343.308 64.1515 341.197 48.6065 338.179C40.8427 336.627 32.6951 334.917 24.4079 332.457C22.3318 331.847 20.2731 331.149 18.2143 330.329C16.0495 329.609 14.0713 328.417 12.422 326.84C9.23886 323.479 7.17831 319.212 6.52505 314.63C6.09925 312.154 5.96457 309.636 6.12377 307.129C5.69153 290.786 6.98391 274.444 9.97949 258.373C12.6314 243.615 15.9637 230.584 18.8599 219.717C21.756 208.849 24.2684 200.127 25.9607 194.092C26.7981 191.126 27.4611 188.858 27.9322 187.114C28.1415 186.364 28.316 185.771 28.4556 185.37C28.5035 185.165 28.5737 184.966 28.6649 184.776C28.6508 184.99 28.6097 185.201 28.5428 185.404L28.1066 187.149C27.6705 188.789 27.0598 191.126 26.362 194.126L19.5403 219.821C16.7139 230.707 13.4688 243.737 10.8169 258.46C7.88076 274.479 6.61781 290.761 7.04845 307.042C6.90819 309.468 7.04281 311.902 7.44973 314.298C8.04944 318.754 10.0327 322.909 13.1199 326.178C14.6915 327.644 16.5597 328.757 18.5982 329.44C20.622 330.242 22.6633 330.922 24.722 331.533C32.9568 333.992 41.0695 335.719 48.8159 337.289C64.326 340.36 78.4753 342.523 90.2867 343.883C99.6577 345.027 109.129 345.097 118.515 344.093C121.848 343.761 124.412 343.36 126.14 343.063L128.111 342.697C128.328 342.638 128.55 342.603 128.774 342.592Z" fill="white"/>
<path d="M128.774 339.016C128.566 339.102 128.35 339.167 128.129 339.208C127.692 339.313 127.064 339.522 126.21 339.679C123.731 340.141 121.225 340.438 118.707 340.569C109.458 340.95 100.193 340.665 90.9846 339.714C79.3128 338.633 65.4601 336.801 50.2465 333.836C42.2576 332.369 34.368 330.406 26.6237 327.957C24.5568 327.295 22.577 326.387 20.7267 325.253C19.0099 323.845 17.521 322.179 16.3127 320.316C13.9633 316.497 12.3479 312.273 11.5497 307.861C11.3404 306.762 11.1659 305.646 11.0438 304.53C10.9217 303.413 11.0438 302.297 11.0438 301.18C11.0438 298.965 10.9217 296.767 11.0438 294.587L11.2008 288.097L11.6195 281.713C12.2825 273.305 13.3642 265.228 14.6552 257.588C17.3595 242.324 20.779 228.77 23.8148 217.467C26.8505 206.163 29.485 197.04 31.2645 190.742C32.1369 187.637 32.8347 185.195 33.3232 183.486C33.55 182.701 33.742 182.073 33.8815 181.619C33.9284 181.395 34.0046 181.178 34.1083 180.974C34.1083 180.974 34.1083 181.2 33.9688 181.637C33.8292 182.073 33.7071 182.735 33.4977 183.538C33.0615 185.282 32.416 187.707 31.6134 190.829L24.4429 217.624C21.4944 228.945 18.1446 242.499 15.4927 257.745C14.2191 265.368 13.1723 273.444 12.5093 281.8L12.1255 288.15L11.951 294.621C11.8638 296.784 11.951 298.965 11.951 301.163C11.951 302.262 11.951 303.396 11.951 304.442C11.951 305.489 12.2302 306.623 12.4395 307.704C13.2107 312.026 14.7785 316.166 17.0629 319.915C18.208 321.686 19.6205 323.269 21.2501 324.608C23.026 325.688 24.9234 326.554 26.9028 327.189C34.6047 329.63 42.4467 331.605 50.3861 333.103C65.5647 336.103 79.3825 337.987 91.0195 339.139C100.2 340.154 109.439 340.545 118.673 340.307C121.179 340.204 123.678 339.96 126.157 339.575C127.012 339.453 127.658 339.278 128.094 339.208C128.312 339.117 128.54 339.053 128.774 339.016Z" fill="white"/>
<path d="M269.831 219.438C274.035 223.45 281.939 235.417 283.404 241.051C285.69 249.773 287.33 262.49 280.299 268.648C268.906 278.626 207.616 289.58 207.616 289.58L195.752 260.606L225.115 239.115L190.849 223.659L181.533 145.72C198.264 155.424 213.744 167.141 227.627 180.608C244.393 197.354 260.113 210.193 269.831 219.438Z" fill="#F16623"/>
<path d="M257.688 229.102C257.688 229.242 255.629 229.399 252.332 229.887C248.045 230.532 243.82 231.536 239.7 232.887C235.579 234.285 231.587 236.036 227.767 238.121C224.836 239.691 223.091 240.807 223.004 240.685C222.917 240.563 223.37 240.301 224.12 239.743C225.192 238.952 226.304 238.219 227.453 237.545C235.026 233.044 243.483 230.236 252.245 229.311C253.989 229.137 255.28 229.067 256.222 229.067C256.709 228.991 257.205 229.002 257.688 229.102Z" fill="#263238"/>
<path d="M285.481 252.529C285.428 252.817 285.328 253.094 285.184 253.349C284.843 254.112 284.421 254.837 283.928 255.512C282.065 257.991 279.636 259.988 276.845 261.338C272.756 263.327 268.477 264.899 264.074 266.031C259.188 267.479 253.797 269.049 248.127 270.636C236.787 273.811 226.458 276.48 218.974 278.312C215.223 279.236 212.17 279.951 210.076 280.405L207.633 280.928C207.353 280.996 207.067 281.037 206.779 281.05C206.779 281.05 207.04 280.911 207.599 280.754L209.989 280.073L218.712 277.684C226.162 275.695 236.455 272.921 247.796 269.747L263.76 265.211C268.123 264.128 272.375 262.639 276.461 260.763C279.2 259.495 281.621 257.63 283.544 255.303C284.957 253.628 285.393 252.494 285.481 252.529Z" fill="white"/>
<path d="M284.783 247.593C284.655 247.859 284.49 248.105 284.294 248.326C283.815 249.01 283.284 249.658 282.707 250.262C280.621 252.561 278.176 254.505 275.466 256.018C271.415 258.154 267.16 259.878 262.765 261.164C257.88 262.734 252.559 264.653 246.871 266.398C235.531 269.886 225.098 272.538 217.491 274.195C213.687 275.05 210.599 275.643 208.471 276.044L205.993 276.463C205.705 276.513 205.41 276.513 205.121 276.463C205.39 276.345 205.671 276.257 205.959 276.201L208.384 275.625L217.351 273.497C224.888 271.666 235.286 268.962 246.592 265.438C252.262 263.694 257.583 261.827 262.503 260.292C266.867 259.068 271.103 257.427 275.152 255.39C277.836 253.95 280.294 252.122 282.445 249.965C283.98 248.5 284.696 247.541 284.783 247.593Z" fill="white"/>
<path d="M265.312 218.583C265.312 218.583 265.033 218.391 264.527 217.955L262.399 216.002L254.583 208.797C247.97 202.762 238.654 194.58 227.976 186.033C217.299 177.485 207.267 170.176 199.922 165.1L191.199 159.047L188.843 157.407C188.55 157.225 188.281 157.009 188.041 156.762C188.355 156.889 188.654 157.053 188.931 157.25C189.594 157.634 190.396 158.14 191.408 158.75C193.536 160.076 196.642 162.047 200.306 164.559C207.756 169.566 217.857 176.77 228.569 185.37C239.282 193.97 248.529 202.221 255.054 208.396C258.316 211.483 260.916 214.013 262.66 215.81L264.684 217.885C265.12 218.304 265.347 218.566 265.312 218.583Z" fill="white"/>
<path d="M137.375 314.386C136.992 313.147 135.98 306.431 135.98 306.431L144.703 292.214L163.615 277.282L196.241 261.687L206.709 287.225L191.53 294.674L183.574 312.24L177.294 320.386L176.072 339.278C175.417 339.666 174.639 339.791 173.895 339.63C173.15 339.468 172.495 339.031 172.06 338.406C170.629 336.121 170.315 322.27 170.559 323.055C170.803 323.84 168.814 340.325 166.93 340.342C165.046 340.36 160.614 337.534 160.614 337.534L162.01 320.892C162.01 320.892 159.376 340.866 157.788 340.342C156.472 340.043 155.288 339.326 154.413 338.298C153.539 337.269 153.021 335.985 152.938 334.638C152.938 330.853 151.961 308.472 151.961 308.472L144.511 313.444C144.511 313.444 150.548 326.562 148.821 327.8C147.093 329.039 140.708 325.149 137.375 314.386Z" fill="#AE7461"/>
<path d="M114.765 139.178C107.437 133.945 76.8878 129.165 68.1121 127.124C63.6457 126.095 58.1849 125.816 55.2888 129.375C53.1428 131.921 53.2475 135.794 51.5028 138.672C48.0135 144.376 38.8365 144.254 35.1727 149.889C32.0497 154.703 34.7714 161.506 39.3948 164.925C44.0182 168.345 49.8628 169.321 55.5156 170.525C66.1808 172.843 76.5513 176.354 86.4311 180.991C88.6643 182.055 91.4034 183.154 93.4098 181.794C94.7107 180.706 95.5521 179.167 95.7651 177.485C99.2545 162.832 102.203 149.749 92.5898 138.166L114.765 139.178Z" fill="#F16623"/>
<g opacity="0.3">
<path d="M101.993 138.271C97.3701 137.329 78.8068 134.032 73.7298 131.293C72.1331 130.421 70.2849 130.126 68.4958 130.456C62.4941 131.729 62.721 140.015 58.3593 143.8C55.8818 145.929 52.3925 146.225 49.3044 147.289C46.2164 148.353 42.5002 151.284 43.6517 154.843C44.0248 155.935 44.7486 156.873 45.7104 157.511C47.8311 158.726 50.2464 159.329 52.6891 159.256C59.2189 159.832 65.7868 159.832 72.3166 159.256C77.9033 158.259 83.0933 155.701 87.2859 151.877V144.987C130.013 148.196 108.641 139.649 101.993 138.271Z" fill="black"/>
</g>
<path d="M161.208 76.5192C163.606 76.8223 166.031 76.229 168.019 74.8532C170.006 73.4775 171.415 71.4163 171.975 69.0653C172.536 66.7143 172.208 64.2393 171.054 62.1153C169.901 59.9914 168.004 58.3682 165.726 57.5575C167.248 56.0543 168.258 54.1104 168.613 52.0012C168.968 49.892 168.65 47.7246 167.704 45.8062C166.758 43.8877 165.233 42.3156 163.343 41.3127C161.454 40.3097 159.297 39.9268 157.178 40.2182C157.129 38.1107 156.536 36.0516 155.455 34.2415C154.375 32.4313 152.844 30.9316 151.012 29.8884C149.18 28.8451 147.109 28.2939 145 28.2883C142.892 28.2827 140.818 28.8229 138.981 29.8564C136.644 27.8829 133.715 26.7459 130.659 26.6258C127.603 26.5057 124.594 27.4094 122.11 29.1936C120.062 28.7709 117.933 29.0172 116.037 29.8961C114.14 30.775 112.576 32.2401 111.575 34.0752C110.574 35.9103 110.19 38.0185 110.478 40.0887C110.766 42.1589 111.713 44.0817 113.177 45.5735" fill="#263238"/>
<path d="M162.603 77.9321C161.974 67.5046 157.444 57.6956 149.912 50.4556C142.38 43.2157 132.398 39.0752 121.952 38.8575H119.806C96.5849 39.7297 84.3373 59.9474 85.8727 83.1479L87.6173 160.477L90.5484 165.03C99.3939 176.334 117.416 188.981 125.145 196.656C137.166 190.481 140.847 187.341 141.126 172.531L141.406 156.36C141.406 156.36 163.772 153.36 164.505 131.067C164.906 120.269 163.807 98.0276 162.603 77.9321Z" fill="#AE7461"/>
<path d="M141.597 156.343C131.239 156.122 121.163 152.932 112.566 147.15C112.566 147.15 119.109 163.338 141.406 161.786L141.597 156.343Z" fill="#6F4439"/>
<path d="M154.438 100.051C154.429 100.878 154.098 101.669 153.515 102.255C152.931 102.841 152.142 103.177 151.315 103.191C150.909 103.217 150.503 103.161 150.119 103.026C149.735 102.892 149.382 102.682 149.081 102.409C148.78 102.135 148.537 101.804 148.366 101.435C148.196 101.066 148.101 100.667 148.088 100.26C148.092 99.4301 148.421 98.6349 149.005 98.0447C149.589 97.4545 150.381 97.1164 151.211 97.1027C151.617 97.0792 152.025 97.1374 152.409 97.2737C152.792 97.41 153.145 97.6218 153.446 97.8965C153.747 98.1713 153.989 98.5034 154.16 98.8734C154.33 99.2433 154.425 99.6437 154.438 100.051Z" fill="#263238"/>
<path d="M157.579 88.73C157.178 89.1486 154.805 87.2996 151.368 87.2472C147.931 87.1949 145.401 88.8521 145.035 88.416C144.668 87.9799 145.279 87.4915 146.395 86.6716C147.898 85.6762 149.671 85.1704 151.472 85.2237C153.261 85.271 154.989 85.8814 156.41 86.9681C157.439 87.788 157.788 88.5555 157.579 88.73Z" fill="#263238"/>
<path d="M123.767 99.4755C123.758 100.305 123.424 101.099 122.837 101.686C122.25 102.273 121.457 102.606 120.627 102.615C120.221 102.641 119.814 102.585 119.43 102.451C119.046 102.317 118.693 102.107 118.392 101.833C118.091 101.56 117.848 101.229 117.677 100.86C117.507 100.491 117.412 100.091 117.399 99.6848C117.408 98.8532 117.741 98.058 118.328 97.4683C118.914 96.8786 119.708 96.5411 120.539 96.5275C120.946 96.5064 121.352 96.5662 121.735 96.7034C122.118 96.8406 122.469 97.0525 122.77 97.3267C123.07 97.601 123.313 97.9322 123.484 98.3011C123.655 98.67 123.751 99.0691 123.767 99.4755Z" fill="#263238"/>
<path d="M123.872 88.6772C123.47 89.0959 121.098 87.2642 117.678 87.1944C114.259 87.1247 111.694 88.7993 111.328 88.3632C110.961 87.9271 111.572 87.4387 112.688 86.6188C114.189 85.6173 115.962 85.1054 117.765 85.1535C119.555 85.1935 121.285 85.8048 122.703 86.8979C123.732 87.7352 124.081 88.5028 123.872 88.6772Z" fill="#263238"/>
<path d="M135.805 114.355C137.621 113.824 139.497 113.525 141.388 113.466C142.26 113.466 143.133 113.239 143.255 112.646C143.346 111.739 143.157 110.826 142.714 110.029C141.946 107.901 141.126 105.668 140.272 103.313C136.869 93.7541 134.427 85.8694 134.811 85.7647C135.195 85.6601 138.3 93.2831 141.667 102.842C142.487 105.197 143.272 107.448 144.005 109.593C144.555 110.67 144.691 111.911 144.389 113.082C144.257 113.39 144.057 113.663 143.803 113.881C143.549 114.099 143.248 114.255 142.923 114.338C142.438 114.458 141.94 114.517 141.44 114.512C139.563 114.7 137.669 114.648 135.805 114.355Z" fill="#263238"/>
<path d="M125.041 75.281C124.692 76.2055 121.272 75.6822 117.242 76.0834C113.212 76.4847 109.932 77.5138 109.426 76.6765C109.182 76.2753 109.775 75.4031 111.171 74.5309C112.944 73.464 114.936 72.8138 116.997 72.6295C119.059 72.4452 121.135 72.7315 123.069 73.4668C124.465 74.0948 125.198 74.8275 125.041 75.281Z" fill="#263238"/>
<path d="M156.532 78.7869C155.904 79.5544 153.566 78.7869 150.722 78.6124C147.878 78.438 145.488 79.0136 144.93 78.1938C144.703 77.7926 145.087 77.025 146.151 76.3098C147.575 75.4388 149.231 75.0249 150.897 75.1236C152.576 75.2104 154.187 75.8203 155.503 76.868C156.48 77.6181 156.794 78.4205 156.532 78.7869Z" fill="#263238"/>
<path d="M160.667 67.6576C160.667 67.6576 155.067 53.5629 148.454 50.2136C140.376 46.0968 136.695 54.9758 128.966 52.6383C121.237 50.3008 113.526 46.3585 105.466 52.2022C96.6375 58.6042 100.615 63.2966 99.8826 73.135C96.8817 113.256 89.4146 124.403 87.6699 105.476C87.4954 103.4 81.7729 101.621 81.1099 92.8642C80.2376 81.5082 80.0806 67.7274 82.8546 59.7206C85.1227 52.9872 89.0831 48.382 96.1315 43.3581C107.245 35.4211 122.302 35.5606 132.49 36.7992C142.679 38.0377 161.958 50.1787 160.667 67.6576Z" fill="#263238"/>
<path d="M88.9958 104.883C88.9854 104.065 88.8093 103.258 88.4783 102.51C88.1472 101.763 87.668 101.089 87.0696 100.532C86.4712 99.9744 85.766 99.5438 84.9966 99.2663C84.2272 98.9888 83.4095 98.8701 82.5929 98.9173C78.4231 99.2313 73.7474 101.499 73.8695 110.099C74.044 125.362 89.3273 122.031 89.3622 121.595C89.3971 121.158 89.1354 111.268 88.9958 104.883Z" fill="#AE7461"/>
<path d="M85.9251 115.89C85.9251 115.89 85.6634 116.082 85.2273 116.292C84.5887 116.546 83.8769 116.546 83.2383 116.292C81.6158 115.716 80.2375 113.169 80.1328 110.43C80.0654 109.12 80.3043 107.812 80.8307 106.61C80.9697 106.134 81.2215 105.698 81.5647 105.34C81.9079 104.982 82.3323 104.711 82.8022 104.552C83.1042 104.47 83.4253 104.494 83.7113 104.621C83.9974 104.749 84.2308 104.97 84.3724 105.249C84.5817 105.686 84.4945 105.982 84.5817 106.017C84.669 106.052 84.8958 105.755 84.7737 105.127C84.683 104.748 84.468 104.411 84.163 104.168C83.734 103.86 83.2031 103.729 82.6801 103.802C82.0557 103.935 81.4761 104.227 80.9965 104.648C80.517 105.07 80.1535 105.607 79.9409 106.209C79.3021 107.534 79.0023 108.996 79.0686 110.465C79.1907 113.535 80.8132 116.396 83.0115 117.007C83.4226 117.121 83.854 117.14 84.2738 117.065C84.6936 116.989 85.091 116.82 85.4366 116.571C85.9077 116.222 85.9949 115.925 85.9251 115.89Z" fill="#6F4439"/>
<path d="M89.8855 75.3674C91.7295 76.9169 93.9298 77.9839 96.2885 78.4724C97.4708 78.6768 98.6872 78.4468 99.7133 77.8248C100.739 77.2029 101.506 76.2309 101.871 75.0883C102.081 74.0242 101.871 72.8031 102.552 71.9832C103.232 71.1634 104.942 71.3727 106.216 71.5297C108.441 71.7521 110.675 71.2002 112.541 69.9672C114.406 68.7342 115.789 66.8956 116.457 64.7614C117.556 66.5058 120.19 66.5058 121.935 65.3894C123.54 64.1357 124.967 62.6685 126.175 61.0284C126.782 60.2206 127.574 59.5707 128.485 59.1335C129.396 58.6963 130.399 58.4847 131.409 58.5165C132.474 58.9066 133.58 59.1758 134.706 59.3189C136.713 59.1793 137.742 56.8593 138.091 54.8707C138.44 52.8821 138.719 50.5795 140.429 49.5328C142.138 48.4862 144.058 49.1839 145.889 49.5328C147.721 49.8817 150.112 49.5328 150.618 47.6663C150.713 47.1858 150.707 46.6905 150.599 46.2126C150.491 45.7347 150.283 45.285 149.989 44.8927C148.793 43.0219 146.999 41.6108 144.899 40.8887C142.799 40.1666 140.516 40.176 138.422 40.9155C137.72 38.3774 136.284 36.1027 134.296 34.3757C132.307 32.6487 129.854 31.5459 127.242 31.2053C124.63 30.8647 121.976 31.3013 119.611 32.4606C117.246 33.6198 115.275 35.4503 113.945 37.7232C112.357 36.2197 110.43 35.1218 108.327 34.5231C106.224 33.9244 104.007 33.8425 101.866 34.2844C99.7245 34.7263 97.7215 35.679 96.0275 37.0613C94.3334 38.4436 92.9984 40.2147 92.1362 42.2238C90.2776 41.6904 88.303 41.7163 86.4591 42.2983C84.6151 42.8803 82.9836 43.9926 81.7682 45.4963C80.5528 46.9999 79.8074 48.8283 79.6252 50.753C79.4429 52.6778 79.8319 54.6135 80.7435 56.3185C79.3245 57.0048 78.1012 58.0372 77.1864 59.3207C76.2717 60.6042 75.695 62.0974 75.5094 63.6624C75.3873 66.8198 78.4056 70.0295 81.4588 69.262C80.7766 70.4943 80.5988 71.9431 80.9628 73.3037C81.3267 74.6644 82.2041 75.831 83.4105 76.5583C84.6168 77.2856 86.0582 77.517 87.4317 77.2038C88.8051 76.8907 90.0036 76.0573 90.7753 74.879" fill="#263238"/>
<path d="M139.521 45.3816C139.521 45.3816 139.521 45.4863 139.521 45.6607C139.521 45.8351 139.521 46.1317 139.399 46.4806C139.172 47.5092 138.777 48.4934 138.23 49.3937C137.358 50.8152 136.163 52.0105 134.741 52.8825C132.89 54.1173 130.68 54.7004 128.46 54.5397L128.722 54.2083C128.939 54.8995 129.017 55.6271 128.951 56.3487C128.885 57.0704 128.677 57.7718 128.338 58.4123C127.628 59.7694 126.723 61.0153 125.651 62.1104C125.133 62.7522 124.549 63.337 123.907 63.8548C123.182 64.3369 122.348 64.6307 121.482 64.7096C120.577 64.8193 119.659 64.7067 118.808 64.3814C117.956 64.0562 117.197 63.5281 116.596 62.843L117.172 62.7035C116.93 64.2811 116.359 65.7903 115.496 67.1334C114.634 68.4766 113.499 69.6238 112.165 70.501C110.696 71.5481 108.927 72.0926 107.123 72.0535C105.43 71.9267 103.768 71.5261 102.203 70.8673L102.622 70.6928C101.8 72.5219 100.527 74.1125 98.923 75.3155C98.1876 75.9259 97.3246 76.3635 96.3976 76.5959C95.4706 76.8284 94.5033 76.8499 93.5668 76.6587C91.9745 76.278 90.5276 75.4418 89.4028 74.2522C88.2781 73.0626 87.5244 71.5712 87.2337 69.9602L87.5826 70.1172C85.968 70.9394 84.1173 71.1738 82.3486 70.7801C81.0195 70.4895 79.7767 69.8921 78.7197 69.0357C78.0307 68.5095 77.4401 67.8658 76.975 67.1343C76.814 66.8863 76.6906 66.6159 76.6086 66.3318C77.1695 67.295 77.9098 68.1418 78.7895 68.8263C79.82 69.5978 81.0137 70.123 82.2788 70.3614C83.9616 70.7055 85.7115 70.4591 87.2337 69.6637L87.5303 69.5067V69.8206C87.8213 71.3278 88.5431 72.7182 89.6083 73.8235C90.6735 74.9288 92.0364 75.7015 93.5319 76.0482C94.3814 76.2114 95.2568 76.1816 96.0932 75.9612C96.9297 75.7408 97.706 75.3354 98.3647 74.7748C99.8747 73.6218 101.074 72.111 101.854 70.3789L101.976 70.0998L102.273 70.2044C103.762 70.8429 105.349 71.2263 106.966 71.3383C108.632 71.3762 110.266 70.8744 111.624 69.9079C112.88 69.0747 113.951 67.9906 114.767 66.7237C115.584 65.4568 116.13 64.0345 116.37 62.5465L116.474 61.8138L116.928 62.3895C117.461 62.9892 118.132 63.4514 118.882 63.7369C119.632 64.0224 120.44 64.1226 121.237 64.0292C122.008 63.9691 122.752 63.7172 123.401 63.2966C124.002 62.8207 124.552 62.2828 125.041 61.6918C126.075 60.6594 126.956 59.4846 127.658 58.203C127.974 57.6278 128.174 56.9958 128.246 56.3433C128.318 55.6907 128.26 55.0304 128.076 54.4001L127.954 54.0338H128.338C130.452 54.2009 132.563 53.6808 134.357 52.5511C135.757 51.7104 136.949 50.5657 137.847 49.2018C138.634 48.0416 139.202 46.7467 139.521 45.3816Z" fill="#455A64"/>
<path d="M139.801 122.868L132.473 120.356C131.526 119.916 130.468 119.771 129.437 119.937C128.57 120.307 127.862 120.973 127.44 121.817C127.018 122.66 126.91 123.626 127.134 124.542C127.448 126.189 128.327 127.675 129.621 128.743C130.915 129.81 132.541 130.391 134.218 130.386C137.55 130.281 138.841 126.269 139.801 122.868Z" fill="#6F4439"/>
<path d="M136.521 130.456C135.899 130.804 135.211 131.017 134.501 131.08C133.791 131.143 133.076 131.055 132.403 130.822C130.866 130.436 129.506 129.537 128.547 128.275C127.981 127.49 127.576 126.599 127.358 125.656C127.139 124.712 127.111 123.735 127.274 122.78C127.442 121.772 127.829 120.814 128.408 119.972C128.576 119.733 128.797 119.536 129.053 119.396C129.346 119.253 129.679 119.215 129.996 119.292C130.501 119.414 130.85 119.553 131.269 119.675L135.491 121.088C136.818 121.447 138.1 121.957 139.312 122.606C137.945 122.464 136.598 122.165 135.299 121.716L131.007 120.495L129.821 120.146C129.524 120.146 129.385 120.146 129.123 120.513C128.651 121.244 128.331 122.063 128.181 122.92C127.901 124.613 128.282 126.349 129.245 127.769C130.068 128.913 131.236 129.763 132.578 130.194C133.863 130.531 135.202 130.62 136.521 130.456Z" fill="#263238"/>
<path d="M188.093 326.23C188.17 324.727 187.841 323.232 187.141 321.9C186.441 320.568 185.396 319.448 184.115 318.659C181.522 317.122 178.545 316.353 175.531 316.444C167.585 316.376 159.932 319.44 154.229 324.974L152.903 328.463C152.903 328.463 161.033 334.551 161.975 334.638C162.918 334.725 178.393 332.353 178.393 332.353L188.093 326.23Z" fill="#263238"/>
<path d="M164.261 348.053C164.317 348.299 164.352 348.55 164.366 348.803C164.366 349.326 164.488 350.041 164.575 350.966C164.749 352.92 164.994 355.728 165.308 359.321C165.901 366.613 166.756 377.097 167.82 390.04C168.884 402.984 170.053 418.457 171.414 435.604C172.077 444.187 172.775 453.188 173.49 462.52C174.024 467.307 173.783 472.149 172.775 476.859C172.179 479.293 171.112 481.586 169.635 483.61C168.888 484.678 167.924 485.575 166.805 486.243C165.686 486.91 164.439 487.333 163.144 487.483C161.785 487.539 160.452 487.099 159.393 486.244C158.393 485.413 157.589 484.37 157.038 483.191C156.496 482.075 156.069 480.906 155.764 479.703C155.45 478.516 155.049 477.365 154.84 476.214C153.832 471.521 153.369 466.727 153.461 461.927C153.793 452.901 154.961 443.926 156.951 435.116C158.695 426.673 160.318 418.683 161.347 411.113C162.377 403.542 163.092 396.46 163.423 389.971C163.987 379.719 163.929 369.444 163.249 359.199C163.022 355.571 162.778 352.763 162.603 350.844C162.603 349.937 162.446 349.204 162.412 348.681C162.392 348.431 162.392 348.18 162.412 347.931C162.471 348.171 162.512 348.416 162.534 348.663C162.534 349.204 162.691 349.919 162.813 350.826C163.057 352.728 163.354 355.536 163.65 359.164C164.467 369.424 164.619 379.726 164.104 390.006C163.79 396.512 163.179 403.629 162.132 411.217C161.086 418.806 159.515 426.917 157.806 435.273C155.833 444.033 154.665 452.955 154.316 461.927C154.225 466.656 154.681 471.38 155.677 476.005C155.887 477.191 156.288 478.325 156.584 479.493C156.878 480.653 157.287 481.781 157.806 482.86C158.295 483.924 159.017 484.866 159.917 485.616C160.804 486.331 161.919 486.702 163.057 486.663C164.214 486.521 165.327 486.137 166.325 485.536C167.323 484.935 168.183 484.13 168.849 483.174C170.245 481.251 171.258 479.077 171.833 476.772C172.821 472.159 173.057 467.417 172.531 462.73C171.833 453.397 171.152 444.379 170.507 435.813C169.233 418.666 168.082 403.211 167.018 390.215L164.906 359.339C164.662 355.745 164.47 352.937 164.348 350.983L164.226 348.803C164.222 348.552 164.234 348.302 164.261 348.053Z" fill="#263238"/>
<path d="M128.774 320.892C128.774 320.892 141.667 310.652 144.476 310.059C147.285 309.466 150.827 311.647 156.183 311.054C159.532 310.698 162.907 310.634 166.267 310.862C166.267 310.862 167.89 316.008 163.912 317.996C160.678 319.395 157.277 320.368 153.793 320.892L150.112 324.224L163.319 329.893H175.619L189.907 325.811C189.907 325.811 193.868 326.718 191.879 329.893C189.89 333.068 179.195 339.418 179.195 339.418C179.195 339.418 179.579 341.389 175.811 344.564C175.811 344.564 160.545 358.519 156.619 359.042C154.519 359.422 152.368 359.422 150.269 359.042L128.844 347.145L128.774 320.892Z" fill="#AE7461"/>
<path d="M128.774 320.892C128.774 320.892 128.774 321.049 128.774 321.363V322.724C128.774 323.963 128.774 325.689 128.774 327.957C128.774 332.528 128.774 339.052 128.931 347.146L128.774 346.884L150.391 358.694H150.286C151.628 358.925 152.993 358.99 154.351 358.885C155.049 358.885 155.764 358.763 156.462 358.659C157.119 358.48 157.752 358.222 158.346 357.891C160.889 356.316 163.32 354.567 165.622 352.658C168.029 350.716 170.443 348.681 172.862 346.553C174.066 345.506 175.305 344.389 176.474 343.308C177.05 342.759 177.56 342.145 177.991 341.476C178.416 340.896 178.664 340.205 178.707 339.488V339.156L178.934 338.999C181.69 337.255 184.447 335.51 187.116 333.609C188.469 332.652 189.731 331.572 190.885 330.382C191.417 329.847 191.781 329.168 191.931 328.428C191.97 328.076 191.901 327.721 191.732 327.409C191.564 327.098 191.305 326.845 190.989 326.684C190.613 326.461 190.208 326.291 189.785 326.178H190.012L175.723 330.26H163.162H163.075L149.885 324.591L149.274 324.329L149.763 323.875C151.019 322.759 152.24 321.642 153.444 320.544H153.549H153.671C156.851 320.067 159.966 319.224 162.952 318.032C163.67 317.75 164.332 317.343 164.906 316.828C165.395 316.339 165.76 315.741 165.971 315.084C166.363 313.739 166.363 312.311 165.971 310.967L166.302 311.211C163.334 310.992 160.355 310.992 157.387 311.211C154.697 311.573 151.962 311.425 149.327 310.775C144.215 308.629 140.743 312.606 137.829 314.264C134.916 316.305 132.7 317.979 131.182 319.096L129.437 320.369C129.252 320.525 129.053 320.665 128.844 320.788C129.001 320.601 129.183 320.437 129.385 320.299C129.786 319.95 130.345 319.497 131.13 318.939C132.595 317.752 134.776 316.043 137.655 313.932C139.103 312.903 140.708 311.734 142.575 310.618C143.057 310.323 143.565 310.072 144.093 309.868C144.647 309.651 145.242 309.555 145.837 309.589C147.066 309.679 148.286 309.872 149.484 310.164C152.067 310.776 154.742 310.895 157.369 310.513C160.368 310.235 163.384 310.194 166.389 310.391H166.634V310.618C167.061 312.111 167.061 313.695 166.634 315.188C166.401 315.978 165.975 316.697 165.395 317.281C164.784 317.831 164.081 318.268 163.319 318.572C160.276 319.814 157.096 320.686 153.845 321.171L154.055 321.067L150.391 324.416L150.269 323.718L163.476 329.37H163.301H175.514L189.785 325.288H189.908H190.012C190.544 325.42 191.051 325.638 191.513 325.934C191.944 326.187 192.309 326.54 192.577 326.963C192.845 327.421 192.955 327.954 192.891 328.481C192.721 329.413 192.27 330.271 191.6 330.94C190.409 332.174 189.106 333.295 187.709 334.289C184.988 336.278 182.214 338.057 179.44 339.732L179.649 339.261C179.672 340.213 179.377 341.146 178.811 341.912C178.341 342.639 177.784 343.307 177.154 343.901C175.915 345.035 174.729 346.099 173.49 347.163C171.071 349.291 168.646 351.326 166.215 353.268C163.872 355.197 161.388 356.946 158.783 358.502C158.11 358.885 157.388 359.172 156.637 359.356C155.904 359.461 155.189 359.548 154.456 359.583C153.015 359.685 151.567 359.603 150.147 359.339L128.757 347.355H128.6V347.18C128.6 338.982 128.722 332.423 128.757 327.835C128.757 325.637 128.757 323.91 128.757 322.602V321.276C128.745 321.148 128.751 321.019 128.774 320.892Z" fill="#6F4439"/>
<path d="M156.427 320.317C156.427 320.491 153.549 320.892 150.251 322.323C148.889 322.988 147.587 323.77 146.361 324.66C145.383 325.341 144.755 325.742 144.616 325.637C144.476 325.532 145.017 324.974 145.907 324.154C147.062 323.058 148.388 322.156 149.832 321.485C153.322 320.055 156.462 320.038 156.427 320.317Z" fill="#6F4439"/>
<path d="M178.393 340.744C176.957 341.093 175.49 341.291 174.014 341.337C171.309 341.599 167.576 341.895 163.441 342.157C159.896 342.564 156.318 342.611 152.763 342.296C151.236 342.18 149.812 341.48 148.786 340.343C150.055 341.011 151.43 341.453 152.851 341.651C156.346 341.761 159.844 341.621 163.319 341.232C167.454 340.971 171.205 340.779 173.926 340.692C175.412 340.541 176.911 340.559 178.393 340.744Z" fill="#6F4439"/>
<path d="M172.025 345.942C168.908 347.643 165.651 349.073 162.289 350.216C159.977 351.32 157.454 351.915 154.892 351.961C152.868 351.821 151.839 350.949 151.926 350.862C152.9 351.124 153.901 351.27 154.909 351.298C157.337 351.04 159.699 350.355 161.888 349.274C165.167 347.88 168.558 346.765 172.025 345.942Z" fill="#6F4439"/>
</g>
<defs>
<clipPath id="clip0_761_4776">
<rect width="1109" height="518" fill="white" transform="translate(0 0.8125)"/>
</clipPath>
</defs>
</svg>
