<svg width="571" height="652" viewBox="0 0 571 652" fill="none" xmlns="http://www.w3.org/2000/svg">
<g clip-path="url(#clip0_761_9147)">
<path d="M494.229 448.247C596.595 345.819 596.594 179.75 494.229 77.3218C391.863 -25.1062 225.895 -25.1063 123.529 77.3218C21.1636 179.75 21.1635 345.819 123.529 448.247C225.895 550.675 391.863 550.675 494.229 448.247Z" fill="#F3BFA5"/>
<mask id="mask0_761_9147" style="mask-type:luminance" maskUnits="userSpaceOnUse" x="0" y="0" width="572" height="523">
<path d="M571.001 262.784C570.318 331.899 542.399 397.952 493.313 446.585C444.227 495.217 377.941 522.498 308.864 522.498C239.787 522.498 173.501 495.217 124.415 446.585C75.3293 397.952 47.4105 331.899 46.7273 262.784C6.05331 222.085 -29.1325 178.101 36.469 84.2583C54.8826 57.9042 121.664 76.5599 146.745 56.7238C185.405 26.2628 231.852 7.30409 280.774 2.01612C329.696 -3.27184 379.117 5.32444 423.386 26.8217C467.655 48.319 504.983 81.8493 531.101 123.578C557.22 165.306 571.073 213.547 571.078 262.784H571.001Z" fill="white"/>
</mask>
<g mask="url(#mask0_761_9147)">
<path d="M343.166 168.453C338.037 182.002 332.446 217.209 332.446 217.209C303.877 235.403 294.157 219.493 290.336 214.489L299.184 177.947L343.166 168.453Z" fill="url(#paint0_linear_761_9147)"/>
<path d="M306.57 98.7052C291.183 106.84 286.054 117.977 280.309 148.616C276.59 168.683 271.743 195.705 280.309 197.167C294.927 199.734 329.369 189.469 343.782 173.225C358.195 156.982 363.863 130.243 359.169 117.233C354.476 104.222 329.856 86.4905 306.57 98.7052Z" fill="url(#paint1_linear_761_9147)"/>
<path d="M321.316 148.873C322.298 146.622 323.905 144.7 325.946 143.335C327.987 141.97 330.377 141.221 332.831 141.175C337.601 141.175 341.551 143.946 339.294 151.439C335.165 165.245 323.548 165.989 322.984 169.402C322.419 172.815 318.136 183.49 321.445 188.135C324.753 192.78 335.088 197.963 335.781 198.066C336.473 198.169 345.141 168.709 357.272 157.495C366.914 154.929 371.223 147.744 369.043 135.529C375.583 128.036 371.864 112.845 359.657 110.766C354.938 88.7234 296.056 87.1067 290.414 72.8904C279.36 82.616 266.563 100.502 285.131 119.081C293.26 127.215 310.597 117.079 310.597 117.079C314.572 126.959 325.317 124.008 325.317 124.008C315.469 139.404 316.316 150.054 318.675 151.183C319.701 151.747 320.675 150.387 321.316 148.873Z" fill="url(#paint2_linear_761_9147)"/>
<path d="M278.411 159.163C283.207 156.597 289.9 161.242 293.645 165.014C297.389 168.786 306.775 166.4 317.136 144.485L321.316 148.873C315.597 162.294 315.366 189.7 310.75 192.626C306.134 195.551 290.465 201.171 282.309 199.76C274.154 198.348 272.615 193.19 272.615 184.722C273.095 175.937 275.055 167.296 278.411 159.163Z" fill="url(#paint3_linear_761_9147)"/>
<path d="M279.769 164.912C284.334 166.503 295.49 168.273 294.105 170.224C292.72 172.174 279.82 176.69 278.102 173.149C277.496 171.772 277.331 170.241 277.629 168.766C277.928 167.291 278.675 165.945 279.769 164.912Z" fill="#F4EEFF"/>
<path d="M197.242 298.709L186.573 322.215C186.573 322.215 158.055 252.93 155.234 245.719C152.413 238.508 145.514 234.736 143.95 223.445C142.386 212.154 143.796 206.97 138.949 202.12C134.102 197.27 125.613 198.502 123.434 196.321C121.254 194.14 118.715 192.549 115.586 194.448C112.457 196.347 101.814 211.897 105.328 220.417C106.96 224.718 109.457 228.638 112.664 231.935C115.871 235.232 119.72 237.836 123.972 239.586C133.538 243.82 134.461 251.518 137.923 260.602C141.385 269.686 162.723 365.813 170.263 377.207C177.802 388.601 193.703 393.245 201.037 384.161C208.372 375.077 232.171 321.112 232.171 321.112L197.242 298.709Z" fill="url(#paint4_linear_761_9147)"/>
<path d="M249.251 465.097C263.971 465.097 379.069 459.58 379.069 459.58L357.988 647.01L298.465 651.398L292.182 591.838L267.741 651.398L206.936 642.622C206.936 642.622 232.658 502.639 249.251 465.097Z" fill="url(#paint5_linear_761_9147)"/>
<path d="M385.378 337.894C385.378 337.894 408.766 390.166 408.766 396.427C408.766 402.689 393.379 519.165 390.379 522.167C384.121 522.167 357.783 533.022 356.219 537.308C355.814 538.668 355.755 540.107 356.046 541.496C356.337 542.885 356.969 544.179 357.886 545.263C351.115 549.651 333.343 562.917 336.471 566.074C337.687 567.416 339.161 568.499 340.806 569.256L341.293 569.41C341.293 569.41 336.805 577.878 344.935 576.723C345.781 581.522 349.551 581.009 352.628 579.649C354.915 578.512 357.081 577.145 359.091 575.568C359.091 580.059 362.015 582.471 368.093 577.467C374.171 572.463 384.89 564.38 390.02 560.197C395.149 556.015 404.535 535.332 407.766 527.71C410.998 520.089 435.976 434.611 439.849 421.011C443.721 407.41 448.517 401.791 444.747 388.806C440.977 375.821 421.666 320.624 421.666 320.624L385.378 337.894Z" fill="url(#paint6_linear_761_9147)"/>
<path d="M291.72 208.716C272.691 210.384 244.353 217.286 223.657 237.969C202.961 258.652 196.908 287.316 193.164 300.275C193.164 300.275 219.066 325.372 232.017 325.372L248.738 302.276C244.968 331.556 242.378 464.455 244.071 479.082C244.071 479.082 355.296 467.868 378.685 472.051C381.608 449.88 367.811 307.306 367.811 307.306L383.198 342.436C383.198 342.436 417.897 336.149 423.744 324.037C426.668 306.074 405.561 254.418 389.892 238.739C374.222 223.06 333.138 212.257 333.138 212.257C330.83 214.566 311.749 223.881 304.748 223.881C301.389 223.958 293.028 213.899 291.72 208.716Z" fill="url(#paint7_linear_761_9147)"/>
<path d="M247.43 345.284C247.208 345.271 246.999 345.173 246.846 345.011C246.694 344.849 246.609 344.634 246.609 344.412L247.43 316.544C247.558 312.104 247.661 307.716 247.943 303.405C248.564 292.719 250.013 282.098 252.277 271.636C252.298 271.527 252.341 271.424 252.404 271.332C252.466 271.24 252.546 271.161 252.64 271.101C252.733 271.041 252.838 271.001 252.948 270.983C253.057 270.964 253.169 270.969 253.277 270.995C253.383 271.016 253.483 271.058 253.572 271.119C253.661 271.18 253.737 271.259 253.794 271.35C253.852 271.441 253.89 271.543 253.907 271.65C253.924 271.756 253.919 271.865 253.893 271.97C251.677 282.361 250.237 292.903 249.584 303.508C249.328 307.793 249.2 312.156 249.097 316.338L248.276 344.412C248.284 344.526 248.267 344.64 248.227 344.748C248.188 344.855 248.126 344.953 248.046 345.035C247.967 345.118 247.871 345.182 247.764 345.225C247.658 345.268 247.544 345.288 247.43 345.284Z" fill="#F16623"/>
<path d="M384.788 343.257C384.636 343.26 384.486 343.221 384.354 343.144C384.223 343.067 384.116 342.955 384.045 342.821C374.401 324.218 366.079 304.959 359.143 285.186C359.106 285.083 359.091 284.974 359.097 284.865C359.103 284.756 359.131 284.65 359.179 284.552C359.226 284.454 359.293 284.367 359.375 284.295C359.457 284.223 359.552 284.168 359.656 284.133C359.756 284.093 359.864 284.073 359.973 284.076C360.081 284.079 360.188 284.104 360.287 284.15C360.385 284.195 360.473 284.261 360.546 284.342C360.618 284.423 360.673 284.518 360.707 284.621C367.637 304.372 375.959 323.606 385.609 342.179C385.707 342.373 385.725 342.598 385.658 342.805C385.59 343.012 385.444 343.184 385.25 343.283C385.097 343.325 384.935 343.316 384.788 343.257Z" fill="#F16623"/>
<path d="M123.204 188.853L107.252 229.757C106.701 231.17 106.457 232.685 106.536 234.2C106.616 235.715 107.017 237.196 107.714 238.544C108.41 239.891 109.386 241.075 110.575 242.016C111.765 242.956 113.141 243.633 114.613 243.999C117.091 244.61 119.707 244.312 121.984 243.158C124.261 242.005 126.05 240.073 127.025 237.712L145.31 193.421C145.31 193.421 129.026 182.002 123.204 188.853Z" fill="url(#paint8_linear_761_9147)"/>
<path d="M46.4459 85.567L80.1955 117.182C99.3662 135.18 122.825 147.964 148.336 154.313L154.645 155.853C155.884 162.437 155.695 169.211 154.089 175.715C152.482 182.219 149.497 188.301 145.335 193.549L139.052 192.01C113.54 185.7 86.8361 186.053 61.4999 193.036L16.9277 205.277L46.4459 85.567Z" fill="url(#paint9_linear_761_9147)"/>
<path d="M20.236 142.535C12.0807 175.561 10.5932 203.609 16.9277 205.148C23.2621 206.688 35.0078 181.206 43.1375 148.206C51.2672 115.206 52.7547 87.1324 46.4458 85.567C40.137 84.0017 28.3144 109.509 20.236 142.535Z" fill="url(#paint10_linear_761_9147)"/>
<mask id="mask1_761_9147" style="mask-type:luminance" maskUnits="userSpaceOnUse" x="13" y="85" width="38" height="121">
<path d="M20.236 142.535C12.0807 175.561 10.5932 203.609 16.9277 205.148C23.2621 206.688 35.0078 181.206 43.1375 148.206C51.2672 115.206 52.7547 87.1324 46.4458 85.567C40.137 84.0017 28.3144 109.509 20.236 142.535Z" fill="white"/>
</mask>
<g mask="url(#mask1_761_9147)">
<path d="M34.0072 159.959L40.3417 161.525C42.0762 161.954 43.8783 162.037 45.6449 161.769C47.4115 161.501 49.1079 160.887 50.6371 159.962C52.1663 159.038 53.4983 157.82 54.5569 156.38C55.6155 154.939 56.3797 153.304 56.8061 151.568C57.2354 149.833 57.3184 148.029 57.0505 146.262C56.7825 144.494 56.169 142.797 55.2448 141.266C54.3206 139.736 53.1039 138.404 51.6644 137.344C50.2249 136.285 48.5909 135.52 46.8557 135.094L40.5468 133.528C38.8107 133.099 37.007 133.015 35.2387 133.283C33.4704 133.551 31.772 134.164 30.2407 135.089C28.7095 136.014 27.3752 137.231 26.3141 138.671C25.2531 140.112 24.486 141.748 24.0567 143.485C23.1969 146.99 23.7618 150.693 25.6272 153.781C27.4927 156.87 30.5065 159.092 34.0072 159.959Z" fill="url(#paint11_radial_761_9147)"/>
</g>
<path d="M141.154 205.148C138.154 199.811 129.28 196.064 126.87 196.885C124.459 197.706 119.355 209.972 123.433 211.846C127.511 213.719 129.28 205.79 130.537 205.79C131.793 205.79 130.229 219.313 133.486 222.572C133.461 222.033 141.154 205.148 141.154 205.148Z" fill="url(#paint12_linear_761_9147)"/>
<path d="M120.92 194.319C123.818 195.987 121.074 208.074 118.894 214.258C116.714 220.442 111.944 229.911 108.354 226.524L120.92 194.319Z" fill="url(#paint13_linear_761_9147)"/>
</g>
<path d="M502.577 282.286C503.232 285.877 504.965 289.183 507.544 291.764C510.123 294.345 513.427 296.078 517.016 296.733C513.424 297.39 510.117 299.127 507.538 301.713C504.958 304.299 503.227 307.611 502.577 311.206C501.909 307.615 500.169 304.31 497.587 301.726C495.006 299.143 491.703 297.402 488.113 296.733C491.699 296.066 495 294.329 497.581 291.751C500.163 289.172 501.904 285.873 502.577 282.286Z" fill="#E27E4D"/>
<path d="M479.163 22.8507C479.813 26.4462 481.544 29.7578 484.123 32.3437C486.703 34.9296 490.01 36.6669 493.602 37.3237C490.027 37.9721 486.733 39.6904 484.156 42.2515C481.578 44.8127 479.837 48.0963 479.163 51.6683C478.507 48.074 476.771 44.7654 474.187 42.1841C471.602 39.6027 468.292 37.8714 464.699 37.221C468.296 36.569 471.608 34.8338 474.193 32.2475C476.778 29.6612 478.512 26.347 479.163 22.748V22.8507Z" fill="#DE855A"/>
<path d="M14.4642 34.3728C15.1189 37.9636 16.8513 41.2696 19.4307 43.8506C22.0101 46.4316 25.3141 48.165 28.9027 48.8201C25.3106 49.4768 22.004 51.2141 19.4242 53.8C16.8445 56.386 15.1142 59.6976 14.4642 63.293C13.8125 59.694 12.0784 56.3799 9.49369 53.7936C6.90897 51.2073 3.5968 49.4721 0 48.8201C3.59328 48.1697 6.90292 46.4383 9.48727 43.857C12.0716 41.2757 13.8078 37.9671 14.4642 34.3728Z" fill="#E08255"/>
<path d="M65.6521 321.933C66.7054 327.67 69.477 332.951 73.5992 337.076C77.7214 341.201 82.9994 343.974 88.7332 345.028C82.9965 346.075 77.7148 348.846 73.5915 352.972C69.4681 357.098 66.6987 362.383 65.6521 368.123C64.624 362.396 61.8769 357.118 57.7765 352.992C53.6761 348.867 48.4169 346.088 42.6992 345.028C48.4125 343.957 53.6661 341.176 57.7648 337.052C61.8634 332.927 64.6139 327.655 65.6521 321.933Z" fill="#E18051"/>
<path d="M220.655 139.379C221.203 142.325 222.631 145.036 224.751 147.153C226.871 149.27 229.583 150.693 232.529 151.234C229.584 151.788 226.875 153.218 224.756 155.338C222.638 157.458 221.208 160.169 220.655 163.116C220.112 160.165 218.686 157.448 216.566 155.326C214.445 153.205 211.73 151.778 208.781 151.234C211.73 150.7 214.446 149.279 216.567 147.161C218.688 145.043 220.114 142.328 220.655 139.379Z" fill="url(#paint14_linear_761_9147)"/>
</g>
<defs>
<linearGradient id="paint0_linear_761_9147" x1="314.985" y1="222.67" x2="316.602" y2="193.139" gradientUnits="userSpaceOnUse">
<stop stop-color="#FFC085"/>
<stop offset="1" stop-color="#FA976E"/>
</linearGradient>
<linearGradient id="paint1_linear_761_9147" x1="284.991" y1="149.701" x2="360.932" y2="162.733" gradientUnits="userSpaceOnUse">
<stop stop-color="#FFC085"/>
<stop offset="1" stop-color="#FA976E"/>
</linearGradient>
<linearGradient id="paint2_linear_761_9147" x1="334.857" y1="86.2855" x2="296.579" y2="191.944" gradientUnits="userSpaceOnUse">
<stop stop-color="#263681"/>
<stop offset="1" stop-color="#1A1248"/>
</linearGradient>
<linearGradient id="paint3_linear_761_9147" x1="328.189" y1="83.8734" x2="289.91" y2="189.531" gradientUnits="userSpaceOnUse">
<stop stop-color="#263681"/>
<stop offset="1" stop-color="#1A1248"/>
</linearGradient>
<linearGradient id="paint4_linear_761_9147" x1="216.861" y1="254.7" x2="151.854" y2="293.542" gradientUnits="userSpaceOnUse">
<stop stop-color="#FFC085"/>
<stop offset="1" stop-color="#FA976E"/>
</linearGradient>
<linearGradient id="paint5_linear_761_9147" x1="206.936" y1="555.527" x2="379.069" y2="555.527" gradientUnits="userSpaceOnUse">
<stop stop-color="#263681"/>
<stop offset="1" stop-color="#1A1248"/>
</linearGradient>
<linearGradient id="paint6_linear_761_9147" x1="336.112" y1="450.752" x2="446.055" y2="450.752" gradientUnits="userSpaceOnUse">
<stop stop-color="#FFC085"/>
<stop offset="1" stop-color="#FA976E"/>
</linearGradient>
<linearGradient id="paint7_linear_761_9147" x1="306.518" y1="199.991" x2="311.525" y2="460.863" gradientUnits="userSpaceOnUse">
<stop stop-color="#F16623"/>
<stop offset="1" stop-color="#F16623"/>
</linearGradient>
<linearGradient id="paint8_linear_761_9147" x1="141.861" y1="214.323" x2="124.695" y2="208.258" gradientUnits="userSpaceOnUse">
<stop stop-color="#ED4D00"/>
<stop offset="1" stop-color="#FA6720"/>
</linearGradient>
<linearGradient id="paint9_linear_761_9147" x1="109.212" y1="122.584" x2="81.7783" y2="193.792" gradientUnits="userSpaceOnUse">
<stop stop-color="#F59513"/>
<stop offset="0.37" stop-color="#FAAD1E"/>
<stop offset="1" stop-color="#F2830B"/>
</linearGradient>
<linearGradient id="paint10_linear_761_9147" x1="26.6207" y1="137.163" x2="50.1553" y2="142.983" gradientUnits="userSpaceOnUse">
<stop stop-color="#E6971C"/>
<stop offset="1" stop-color="#DE6D0A"/>
</linearGradient>
<radialGradient id="paint11_radial_761_9147" cx="0" cy="0" r="1" gradientUnits="userSpaceOnUse" gradientTransform="translate(36.4063 141.039) rotate(-166.095) scale(19.8611 19.8718)">
<stop stop-color="#FFD042"/>
<stop offset="1" stop-color="#F2830B"/>
</radialGradient>
<linearGradient id="paint12_linear_761_9147" x1="174.237" y1="183.387" x2="109.23" y2="222.229" gradientUnits="userSpaceOnUse">
<stop stop-color="#FFC085"/>
<stop offset="1" stop-color="#FA976E"/>
</linearGradient>
<linearGradient id="paint13_linear_761_9147" x1="171.237" y1="177.588" x2="105.896" y2="216.635" gradientUnits="userSpaceOnUse">
<stop stop-color="#FFC085"/>
<stop offset="1" stop-color="#FA976E"/>
</linearGradient>
<linearGradient id="paint14_linear_761_9147" x1="216.654" y1="142.458" x2="224.561" y2="160.033" gradientUnits="userSpaceOnUse">
<stop stop-color="#D3997D"/>
<stop offset="1" stop-color="#F16623"/>
</linearGradient>
<clipPath id="clip0_761_9147">
<rect width="571" height="651" fill="white" transform="translate(0 0.5)"/>
</clipPath>
</defs>
</svg>
