<svg width="115" height="38" viewBox="0 0 115 38" fill="none" xmlns="http://www.w3.org/2000/svg">
<path d="M60.9759 25.9855L49.2137 37.097H37.665C41.183 33.7787 44.3946 30.7771 47.5787 27.7445C50.7627 24.7119 53.8435 21.7102 57.0999 18.5709L47.7749 0.402811C51.7094 0.244468 55.3478 0.34772 59.21 0.323625C61.0791 3.84159 62.9517 7.35957 64.9723 11.1564L76.2973 0.454431H87.8666L68.7484 18.6363C71.8843 24.6843 75.003 30.6842 78.28 37.0282C76.1492 37.3724 74.2973 37.1659 72.4626 37.2038C70.6279 37.2416 68.8448 37.2038 66.8586 37.2038C64.9241 33.5206 62.9964 29.8339 60.9759 25.9855Z" fill="#F16623"/>
<path d="M81.9736 36.8699L91.7461 0.313354H101.457C100.166 5.11183 98.8819 9.85179 97.6186 14.5986C96.3553 19.3455 95.123 24.0441 93.8321 28.939C96.166 29.4312 98.4585 29.1145 100.717 29.1731C102.975 29.2316 105.192 29.1731 107.446 29.1731H114.675C113.9 31.9027 113.202 34.3364 112.506 36.7942C110.703 37.3071 84.9202 37.4035 81.9736 36.8699Z" fill="#231F20"/>
<path d="M8.56084 0.313354H45.2861C43.1725 9.38709 41.0762 18.3817 38.9696 27.4175H15.2904C15.9376 24.6637 16.5675 21.9719 17.2077 19.2353H31.2211C32.0541 15.6692 32.8734 12.165 33.6926 8.66765C32.8355 8.38883 19.1595 8.27524 16.2852 8.51963C14.0581 18.0305 11.7897 27.5827 9.57975 37.2279H0C0.802041 33.0662 1.88636 29.0113 2.80888 24.9253C3.7314 20.8394 4.69522 16.781 5.64528 12.7123C6.59533 8.64355 7.57292 4.50944 8.56084 0.313354Z" fill="#231F20"/>
</svg>
