<svg width="203" height="66" viewBox="0 0 203 66" fill="none" xmlns="http://www.w3.org/2000/svg">
<g clip-path="url(#clip0_761_3859)">
<path d="M108.413 46.1809L87.6719 65.7606H67.3316C73.5291 59.92 79.1879 54.6347 84.7934 49.2933C90.3372 44.0107 95.8304 38.6721 101.568 33.1428C96.2373 22.7684 90.8646 12.2762 85.1413 1.12786C92.0738 0.847472 98.4901 1.02973 105.288 0.990474L115.447 20.057L135.403 1.21198H155.788L122.099 33.2353C127.623 43.8901 133.116 54.4805 138.89 65.6176C135.136 66.212 131.876 65.8615 128.641 65.9288C125.454 65.9933 122.267 65.9288 118.766 65.9288L108.413 46.1809Z" fill="#F16623"/>
<path d="M145.405 65.34C151.131 43.9406 156.846 22.5777 162.625 0.973633H179.719C177.447 9.42459 175.183 17.7746 172.955 26.1302C170.742 34.441 168.562 42.7573 166.286 51.3653C170.402 52.2317 174.439 51.6737 178.432 51.7775C182.379 51.8784 186.332 51.7999 190.285 51.7999H202.98C201.611 56.6002 200.385 60.9098 199.156 65.2166C196.008 66.111 150.584 66.2821 145.405 65.34Z" fill="white"/>
<path d="M16.0601 0.973633H80.7618C77.036 16.9559 73.3439 32.7895 69.635 48.7016H27.9136C29.0582 43.8284 30.158 39.1123 31.2971 34.2952H55.9859C57.4561 28.0116 58.9009 21.8459 60.343 15.6857C58.8364 15.1922 34.7395 14.9959 29.6726 15.4249C25.7449 32.1698 21.7526 48.9904 17.8641 65.9736H0.980225C2.383 58.6442 4.30201 51.5055 5.92923 44.3107C7.55645 37.1159 9.2482 29.9716 10.9259 22.8048C12.6149 15.5847 14.3206 8.36471 16.0601 0.973633Z" fill="white"/>
</g>
<defs>
<clipPath id="clip0_761_3859">
<rect width="202" height="65" fill="white" transform="translate(0.980225 0.973633)"/>
</clipPath>
</defs>
</svg>
